<svg id="Logo" xmlns="http://www.w3.org/2000/svg" xmlns:xlink="http://www.w3.org/1999/xlink" viewBox="0 0 1656.31 1967.41"><defs><style>.cls-1{fill:url(#linear-gradient);}.cls-2,.cls-20{fill:#fff;}.cls-2,.cls-6{opacity:0.2;}.cls-16,.cls-18,.cls-2,.cls-6{isolation:isolate;}.cls-3{fill:url(#linear-gradient-2);}.cls-4{fill:url(#linear-gradient-3);}.cls-5{fill:url(#linear-gradient-4);}.cls-6{fill:#063;}.cls-7{fill:url(#linear-gradient-5);}.cls-8{fill:url(#linear-gradient-6);}.cls-9{fill:url(#linear-gradient-7);}.cls-10{fill:url(#linear-gradient-8);}.cls-11{fill:#c1b9aa;}.cls-12{fill:#baaf9d;}.cls-13{fill:#d1cec7;}.cls-14{fill:#e0ddd3;}.cls-15{fill:#cec9bc;}.cls-16{fill:#c4bfb7;opacity:0.8;}.cls-17{fill:#d8d5ce;}.cls-18{fill:#cecbc4;opacity:0.7;}.cls-19{fill:#f0f2b3;}.cls-20,.cls-21,.cls-22{stroke:#000;stroke-linecap:round;stroke-linejoin:round;stroke-width:8.77px;}.cls-21{fill:#e5332a;}.cls-22,.cls-25{fill:none;}.cls-23{fill:#ccf3ff;}.cls-24{fill:#eefcff;}</style><linearGradient id="linear-gradient" x1="8181.09" y1="2152.19" x2="8178.86" y2="2281.12" gradientTransform="translate(9204.48 1030.09) rotate(167.99)" gradientUnits="userSpaceOnUse"><stop offset="0" stop-color="#063"/><stop offset="1" stop-color="#008d36"/></linearGradient><linearGradient id="linear-gradient-2" x1="8164.2" y1="2053.74" x2="8114.78" y2="2295.32" gradientTransform="translate(9204.48 1030.09) rotate(167.99)" gradientUnits="userSpaceOnUse"><stop offset="0" stop-color="#c5d66a"/><stop offset="1" stop-color="#39a935"/></linearGradient><linearGradient id="linear-gradient-3" x1="8174.3" y1="1965.57" x2="8120.83" y2="2133.82" xlink:href="#linear-gradient-2"/><linearGradient id="linear-gradient-4" x1="7869.91" y1="1908.69" x2="7710.14" y2="2095.32" xlink:href="#linear-gradient-2"/><linearGradient id="linear-gradient-5" x1="8024.76" y1="1964.06" x2="7914.66" y2="2310.47" xlink:href="#linear-gradient-2"/><linearGradient id="linear-gradient-6" x1="8287.23" y1="2136.44" x2="8349" y2="2537.9" xlink:href="#linear-gradient-2"/><linearGradient id="linear-gradient-7" x1="8427.72" y1="1931.19" x2="8473.37" y2="2338.01" xlink:href="#linear-gradient-2"/><linearGradient id="linear-gradient-8" x1="8611.78" y1="1892.2" x2="8783.97" y2="2132.58" xlink:href="#linear-gradient-2"/></defs><path class="cls-1" d="M800.77,641.93s-36.41-237.38-81-240.46-53.07,30.13-38.81,64.82S742.68,716,742.68,716,792.66,692.37,800.77,641.93Z" transform="translate(-10.86 -11.84)"/><path class="cls-2" d="M775.77,629.83S748.27,450,711.63,401.35c2.63-.11,5.37,0,8.22.12,44.62,3.08,81,240.46,81,240.46-8.1,50.44-58.09,74.07-58.09,74.07s-2-9.48-5.48-24.77C752.15,679.36,771,659.16,775.77,629.83Z" transform="translate(-10.86 -11.84)"/><path class="cls-3" d="M696.8,684.5s90.27-85.14,99.74-143.8S780.79,385.37,787,370s82.74-24.77,91.87,47.59,33.32,273-37.21,385.4S668,748.75,696.8,684.5Z" transform="translate(-10.86 -11.84)"/><path class="cls-2" d="M696.8,684.5s90.27-85.14,99.74-143.8S780.79,385.37,787,370c1.71-4.34,9.13-8.22,19.06-9.93-7.54,1.94-12.9,5.25-14.38,8.9-6.17,15.41,19.17,112.19,9.58,170.73s-99.74,143.8-99.74,143.8C678.77,734.26,738.34,849,799.17,839.36,736.86,856,673.4,736.54,696.8,684.5Z" transform="translate(-10.86 -11.84)"/><path class="cls-4" d="M882.71,450.54c8.1,73.95,17,201.66-16.32,299-65,41-126.22,56-136.38,58.2a4.74,4.74,0,0,1-.69-.8C787.76,731.86,841.74,586.23,882.71,450.54Z" transform="translate(-10.86 -11.84)"/><path class="cls-5" d="M1098.06,666.92s81.49-305.17,95.87-341.23,175.29-32.64,163.08,80S1177.49,802.05,1209.56,938.2C1209.56,938.31,1087.33,847,1098.06,666.92Z" transform="translate(-10.86 -11.84)"/><path class="cls-2" d="M1098.06,666.92s81.49-305.17,95.87-341.23c3.76-9.48,17.57-16.21,35.72-18.95-12.33,3.43-21.23,9.13-24.08,16.44-14.38,36.06-95.87,341.23-95.87,341.23C1101.26,806,1175,892.66,1206.94,923.25a150.62,150.62,0,0,0,2.62,15C1209.56,938.31,1087.33,847,1098.06,666.92Z" transform="translate(-10.86 -11.84)"/><path class="cls-6" d="M1333.39,394.28c4.22-39.26-12.56-65.17-36.86-80.92,35.83,12.67,66,41.32,60.37,92.33-12.21,112.53-179.52,396.36-147.45,532.51,0,0-11-8.11-25.91-24.43C1164,773.4,1321.63,503.38,1333.39,394.28Z" transform="translate(-10.86 -11.84)"/><path class="cls-7" d="M1069.53,512.51s71.9-246.28,68.25-379S969.67,10.59,961,117.64s-53.76,507.85-145.28,660.9C815.72,778.54,1022.17,708.46,1069.53,512.51Z" transform="translate(-10.86 -11.84)"/><path class="cls-2" d="M961,117.64c3.76-46.45,36.75-74.64,73.38-80.8-33.32,8.56-62.08,36-65.62,79.09-8.56,106.7-53.41,505-144.37,659.3-5.59,2.16-8.67,3.31-8.67,3.31C907.36,625.49,952.44,224.8,961,117.64Z" transform="translate(-10.86 -11.84)"/><path class="cls-6" d="M828.84,754.46c61.51-30.25,182.26-106.25,217.07-250.28,0,0,71.9-246.28,68.24-379-1.25-45.42-21.34-74.18-47.59-88,36.87,7.07,69.73,37.77,71.33,96.32,3.65,132.73-68.25,379-68.25,379-47.36,196-253.81,266.14-253.81,266.14C820.17,771.12,824.62,763,828.84,754.46Z" transform="translate(-10.86 -11.84)"/><path class="cls-8" d="M521.05,480.33S411.71,193.64,344,112.27,449-29.47,495.14,47.11,679.68,411.74,704.56,551s81.83,226,4.11,250.39S562.24,542.75,521.05,480.33Z" transform="translate(-10.86 -11.84)"/><path class="cls-2" d="M467.75,21.89a68.28,68.28,0,0,1,27.39,25.22C541.25,123.69,679.68,411.74,704.56,551s81.83,226,4.11,250.39c-14.61,4.57-28.76-1.6-42.57-15.18,8.1,3.77,16.32,4.8,24.65,2.17,77.72-24.42,20.66-111.27-4.11-250.39S523.44,110.68,477.22,34.1A66.76,66.76,0,0,0,467.75,21.89Z" transform="translate(-10.86 -11.84)"/><path class="cls-6" d="M362.3,27.36c-18.83,18.26-24.08,43.94-.8,72,67.56,81.48,177,368.05,177,368.05,41.2,62.31,109.9,345.34,187.62,320.92a91.2,91.2,0,0,0,10.61-4.11c-6.28,7.31-15.29,13-28.07,17C631,825.78,562.24,542.75,521.05,480.33c0,0-109.34-286.69-177-368.06C314.59,76.78,330.8,45.17,362.3,27.36Z" transform="translate(-10.86 -11.84)"/><path class="cls-9" d="M415.82,633.94S281.27,326.71,226.37,267.71s109.22-114.35,146.88-62.65S591.8,688.61,599.91,729s134.21,197.32,92.21,244S451.31,852.37,415.82,633.94Z" transform="translate(-10.86 -11.84)"/><path class="cls-2" d="M217.93,231.08c1.6,5.36,4.79,10.84,9.93,16.43,55,59,189.45,366.23,189.45,366.23,35.49,218.32,234.41,385.63,276.29,339a31.28,31.28,0,0,0,6.62-12.1c1.26,13.24-1,24.43-8.22,32.3-41.88,46.68-240.91-120.63-276.29-338.95,0,0-134.56-307.23-189.45-366.23C214.5,255,212.79,242.38,217.93,231.08Z" transform="translate(-10.86 -11.84)"/><path class="cls-6" d="M373.25,205.06c37.66,51.7,218.55,483.55,226.66,524s134.21,197.32,92.21,244c-5.25,5.82-13,8.33-22.6,7.76a23.2,23.2,0,0,0,4.8-4c41.88-46.68-84.23-203.6-92.22-244s-189-472.25-226.65-523.95c-13.81-18.94-44.85-23.51-75.67-18.71C315.85,180.29,356.7,182.35,373.25,205.06Z" transform="translate(-10.86 -11.84)"/><path class="cls-10" d="M375.76,776.6S239.38,565.46,199.55,525.75,77.1,607.35,98.78,627.89s214,215.24,201.32,373.53-.34,209,60,167.88S439.33,872.92,375.76,776.6Z" transform="translate(-10.86 -11.84)"/><path class="cls-2" d="M98.21,601.87a10.83,10.83,0,0,0,3.31,6.62C123.2,629,315.51,823.73,302.84,982s-.34,209,60,167.88c22.37-15.18,39-59.69,47.93-114.7-7.87,63.69-25.79,117.1-50.67,134.1-60.37,41.09-72.7-9.7-60-167.88s-179.63-353-201.32-373.53C93.87,623.33,94.33,613.63,98.21,601.87Z" transform="translate(-10.86 -11.84)"/><path class="cls-6" d="M199.55,525.86c39.83,39.72,176.21,250.85,176.21,250.85,63.57,96.32,44.63,351.51-15.75,392.7-14.15,9.71-25.67,14.27-34.92,13.59a112.69,112.69,0,0,0,17.35-9.82c60.37-41.08,79.32-296.38,15.75-392.7,0,0-136.38-211.14-176.21-250.85-5.14-5-10.84-7.53-17-7.88C177.64,516.05,189.85,516.16,199.55,525.86Z" transform="translate(-10.86 -11.84)"/><path class="cls-11" d="M889,802.05S816.4,704.93,736.4,654.48s-181.46-120.63-215.35-174c0,0,76.57,164.68,78.86,248.57s-19.63,143.91,113.21,271.5S958.94,918.8,889,802.05Z" transform="translate(-10.86 -11.84)"/><path class="cls-12" d="M777.37,724.55c8.56-6.16,16.78-12.32,24.65-18.37,50.1,46.56,87,95.87,87,95.87,69.85,116.75-43.13,326-176,198.46-41.54-39.94-67.9-73.15-84.68-102.6C663.7,832.86,711.86,772.37,777.37,724.55Z" transform="translate(-10.86 -11.84)"/><path class="cls-13" d="M498.45,1414.78S484.07,948.7,792.55,760.62c255.75-156.12,277-248.11,277-248.11s-34.92,133.18-28.42,183.17c20.66,159.66,228.25,486,150.88,642.75S647,1559.49,498.45,1414.78Z" transform="translate(-10.86 -11.84)"/><path class="cls-14" d="M872.09,1689.25C755.23,1712,301.24,1780,246.69,1461.69S416.28,873.6,375.76,776.6c0,0,452.17,471.22,502.38,676.07S872.09,1689.25,872.09,1689.25Z" transform="translate(-10.86 -11.84)"/><path class="cls-11" d="M649.09,1092.61a5.79,5.79,0,1,0,11.19-3c0-.11,0-.23-.12-.23v-.11c-.11-.23-.22-1.14-.45-1.83s-.23-1.48-.35-2.28a32.21,32.21,0,0,1-.34-4.68,68.3,68.3,0,0,1,.23-9.59,113.24,113.24,0,0,1,3.31-19.4,194.38,194.38,0,0,1,6.16-18.94c1.37-3.08,2.51-6.16,4-9.25s2.74-6.16,4.45-9a283,283,0,0,1,21.23-34.58c8-11,16.43-21.68,25.45-32,18-20.54,37.89-39.37,58.54-57.4s42.46-34.81,64.71-50.9a1,1,0,0,0,.23-1.26.88.88,0,0,0-1.14-.22c-22.71,15.4-45,31.72-66.42,49.07-5.37,4.22-10.62,8.79-15.87,13.24s-10.38,9.13-15.52,13.69l-3.88,3.54-3.76,3.54-7.42,7.19c-2.51,2.39-4.8,4.91-7.31,7.42s-4.9,4.9-7.19,7.53c-18.83,20.2-36.29,42.11-49.87,66.65-1.82,3-3.19,6.16-4.91,9.36s-3,6.39-4.45,9.58a199.94,199.94,0,0,0-7.19,20,117.74,117.74,0,0,0-4.22,21.12,87.33,87.33,0,0,0-.57,10.95,45.74,45.74,0,0,0,.34,5.6c.12.91.23,1.94.34,2.85C648.64,1090.44,648.75,1091.24,649.09,1092.61ZM843.68,777.74a.87.87,0,0,0-1.14-.23c-22.72,15.41-45,31.73-66.43,49.07-5.36,4.23-10.61,8.79-15.86,13.24s-10.38,9.13-15.52,13.7l-3.88,3.53-3.77,3.54-7.41,7.19c-2.51,2.4-4.8,4.91-7.31,7.42s-4.91,4.91-7.19,7.53c-18.83,20.2-36.29,42.11-49.87,66.65-1.83,3-3.2,6.16-4.91,9.36s-3,6.39-4.45,9.59a198.15,198.15,0,0,0-7.19,20,116.94,116.94,0,0,0-4.22,21.11,87.48,87.48,0,0,0-.57,11,45.7,45.7,0,0,0,.34,5.59c.11.91.23,1.94.34,2.85a23.17,23.17,0,0,0,.69,3.2,5.78,5.78,0,1,0,11.18-3c0-.11,0-.23-.11-.23v-.11c-.12-.23-.23-1.14-.46-1.83s-.23-1.48-.34-2.28a30.86,30.86,0,0,1-.34-4.68,66.82,66.82,0,0,1,.22-9.59,114.22,114.22,0,0,1,3.31-19.4A190.92,190.92,0,0,1,665,972c1.37-3.08,2.51-6.16,4-9.25s2.74-6.16,4.45-9a282.23,282.23,0,0,1,21.23-34.58c8-11,16.43-21.69,25.45-32,18-20.54,37.89-39.37,58.55-57.4s42.45-34.81,64.7-50.9A.69.69,0,0,0,843.68,777.74ZM760,1036.34a23.17,23.17,0,0,0,.69,3.2,5.78,5.78,0,1,0,11.18-3c0-.11,0-.23-.11-.23v-.11c-.12-.23-.23-1.14-.46-1.83s-.23-1.48-.34-2.28a30.86,30.86,0,0,1-.34-4.68,65.23,65.23,0,0,1,.23-9.58,113.05,113.05,0,0,1,3.3-19.4,193.75,193.75,0,0,1,6.17-19c1.37-3.08,2.51-6.16,4-9.24s2.74-6.17,4.45-9A285.49,285.49,0,0,1,810,926.67c8-11,16.43-21.68,25.45-31.95,18-20.55,37.89-39.38,58.55-57.41s42.45-34.81,64.71-50.9a1,1,0,0,0,.22-1.25.87.87,0,0,0-1.14-.23c-22.71,15.4-45,31.72-66.42,49.07-5.36,4.22-10.61,8.79-15.86,13.24s-10.39,9.13-15.52,13.69l-3.88,3.54L852.35,868l-7.42,7.19c-2.51,2.4-4.79,4.91-7.3,7.42s-4.91,4.91-7.19,7.53c-18.83,20.2-36.29,42.11-49.87,66.65-1.83,3-3.2,6.16-4.91,9.36s-3,6.39-4.45,9.58a196.77,196.77,0,0,0-7.19,20,117.65,117.65,0,0,0-4.23,21.11,89.32,89.32,0,0,0-.57,11,45.72,45.72,0,0,0,.35,5.59C759.79,1034.52,759.91,1035.43,760,1036.34Z" transform="translate(-10.86 -11.84)"/><path class="cls-15" d="M307.06,1347.68c-23.4-195.61,70-332.9,82.51-556.48,76,80.8,443.61,478,488.57,661.59,50.22,204.85-6,236.58-6,236.58-36,7-103.85,18.26-182.25,21.23C537.59,1684,331.94,1555.5,307.06,1347.68Z" transform="translate(-10.86 -11.84)"/><path class="cls-16" d="M649.66,892.32c28.19,7.76,165,52.27,204,66.76,62-103.74,163.88-202,190-247.19,31.27,164.57,223.12,475,148.25,626.54-77.49,156.7-544.83,221.06-693.54,76.35C498.45,1414.78,489,1108.47,649.66,892.32Z" transform="translate(-10.86 -11.84)"/><path class="cls-17" d="M1098.06,666.92s50.56,165.14,189.68,333.48S1407,1530.05,1120,1591.79,673.86,1133.24,886.25,942.88,1098.06,666.92,1098.06,666.92Z" transform="translate(-10.86 -11.84)"/><path class="cls-16" d="M1095,1521.83a5.89,5.89,0,0,0,8.22-.22s0-.12.11-.12c1-1.25,1.94-2.28,2.85-3.31s1.72-2.17,2.63-3.31c1.71-2.17,3.42-4.45,4.91-6.73s3.19-4.57,4.68-6.85,3.08-4.56,4.45-7c5.82-9.36,11.18-18.95,16.09-28.65a449.19,449.19,0,0,0,24.76-60.6,507.1,507.1,0,0,0,16.32-63.22l1.49-8,.8-4,.68-4,2.51-16.09c1.26-10.84,2.74-21.57,3.54-32.41,1.14-10.84,1.48-21.69,2-32.53.23-5.36.23-10.84.35-16.2l.11-8.11c0-2.74,0-5.36-.11-8.1l-.23-16.21c-.12-5.36-.46-10.84-.69-16.2l-.34-8.1-.23-4.11-.34-4-1.25-16.2a949.28,949.28,0,0,0-20.32-128,.87.87,0,1,0-1.71.34,930.65,930.65,0,0,1,17.8,128.05l1,16.09.23,4,.11,4,.23,8.1c.11,5.37.34,10.73.34,16.09l-.11,16.1c0,2.74,0,5.36-.12,8.1l-.34,8.1c-.23,5.37-.34,10.73-.68,16.09-.8,10.73-1.37,21.46-2.74,32.19-1,10.72-2.63,21.34-4.11,32l-2.74,15.87-.68,4-.8,3.88-1.71,7.87a546.6,546.6,0,0,1-17.24,61.86,431.43,431.43,0,0,1-25.33,58.77c-4.91,9.48-10.39,18.61-16.1,27.51-1.48,2.17-2.85,4.45-4.45,6.62s-3.08,4.34-4.56,6.39-3.2,4.22-4.79,6.28a32.41,32.41,0,0,1-2.51,3c-.8.92-1.72,1.94-2.52,2.74l-.11.12A6.27,6.27,0,0,0,1095,1521.83Zm-26.93-50.67a5.87,5.87,0,0,0,8.21-.23.11.11,0,0,1,.12-.11c1-1.26,1.94-2.28,2.85-3.31s1.71-2.17,2.63-3.31c1.71-2.17,3.42-4.45,4.9-6.73s3.2-4.57,4.68-6.85,3.08-4.57,4.45-7c5.82-9.36,11.19-19,16.1-28.65a450.5,450.5,0,0,0,24.76-60.6,508.85,508.85,0,0,0,16.32-63.22l1.48-8,.8-4,.69-4,2.51-16.09c1.25-10.84,2.74-21.57,3.54-32.41,1.14-10.85,1.48-21.69,2.05-32.53.23-5.36.23-10.84.34-16.21l.12-8.1c0-2.74,0-5.36-.12-8.1l-.23-16.21c-.11-5.36-.45-10.84-.68-16.2l-.34-8.11-.23-4.1-.34-4-1.26-16.2a949.26,949.26,0,0,0-20.31-128.05.9.9,0,0,0-1-.69.88.88,0,0,0-.68,1,932.19,932.19,0,0,1,17.8,128l1,16.09.22,4,.12,4,.23,8.1c.11,5.37.34,10.73.34,16.09l-.12,16.09c0,2.74,0,5.37-.11,8.11l-.34,8.1c-.23,5.36-.34,10.73-.69,16.09-.8,10.73-1.37,21.46-2.74,32.19-1,10.72-2.62,21.34-4.1,31.95l-2.74,15.86-.69,4-.8,3.88-1.71,7.87a544.48,544.48,0,0,1-17.23,61.86,432.73,432.73,0,0,1-25.34,58.77c-4.9,9.48-10.38,18.61-16.09,27.51-1.48,2.28-2.85,4.45-4.45,6.62s-3.08,4.33-4.56,6.39-3.2,4.22-4.8,6.27a31.24,31.24,0,0,1-2.51,3c-.8.91-1.71,1.94-2.51,2.74l-.11.11A6.14,6.14,0,0,0,1068.05,1471.16Zm168.22,67.56c-.92,1.83-1.71,3.66-2.63,5.48,6.17-4.22,12.21-8.67,17.92-13.35,2.4-5.94,4.68-12,6.73-18a436.93,436.93,0,0,0,16.32-63.34,517.42,517.42,0,0,0,7.65-64.83l.46-8.1.22-4.11.12-4.11.34-16.32c-.23-10.84-.11-21.68-.8-32.52-.34-10.84-1.48-21.68-2.28-32.41-.57-5.37-1.26-10.73-1.83-16.21l-.91-8.1c-.34-2.74-.8-5.36-1.14-8l-2.4-16.09c-.8-5.37-1.94-10.61-2.85-16l-1.48-8-.69-4-.91-4-3.43-15.86a959.66,959.66,0,0,0-37.31-124.17.81.81,0,0,0-1.15-.45.8.8,0,0,0-.45,1.14,945.82,945.82,0,0,1,34.92,124.51l3.2,15.86.79,4,.69,4,1.25,8c.8,5.36,1.83,10.61,2.52,16l2,16c.34,2.63.8,5.37,1,8l.8,8c.45,5.36,1.14,10.73,1.48,16.09.68,10.73,1.48,21.46,1.6,32.19.45,10.72.23,21.45.23,32.18l-.69,16.09-.11,4-.35,4-.57,8a539.24,539.24,0,0,1-8.78,63.57,435.91,435.91,0,0,1-17.24,61.62C1244.94,1519.32,1240.83,1529.14,1236.27,1538.72ZM963.85,1088.61a137.38,137.38,0,0,0,3,21.35,84.44,84.44,0,0,0,3.08,10.49c.68,1.72,1.37,3.43,2.17,5.25a27.29,27.29,0,0,0,1.25,2.63c.57.91.92,1.6,1.71,2.85a5.84,5.84,0,0,0,9.71-6.5c0-.12-.12-.12-.12-.23v-.11a14.26,14.26,0,0,1-1-1.6c-.34-.69-.68-1.26-1-2.06-.69-1.37-1.26-2.85-1.94-4.22a86,86,0,0,1-3-9.13,109.54,109.54,0,0,1-3.31-19.4,168,168,0,0,1-.46-20c.23-3.31.35-6.74.69-10s.57-6.73,1.14-10a283.18,283.18,0,0,1,8.56-39.71c3.88-13,8.33-25.91,13.47-38.58,10.15-25.33,22.59-49.76,36.17-73.61s28.42-46.9,44.06-69.5a1,1,0,0,0-.23-1.26.78.78,0,0,0-1.14.23c-16.32,22.14-31.84,44.85-46.22,68.36-3.66,5.82-7.08,11.87-10.5,17.81s-6.74,12.09-10,18.14l-2.39,4.57-2.29,4.68-4.68,9.24c-1.48,3.08-3,6.28-4.45,9.36s-3,6.28-4.33,9.47c-11,25.34-20.2,51.81-24.88,79.43-.69,3.43-1,7-1.49,10.39s-.68,7-1,10.5A119.44,119.44,0,0,0,963.85,1088.61Zm-50.44,46.22a84.08,84.08,0,0,0,3.08,10.5c.68,1.72,1.37,3.43,2.17,5.25a27.29,27.29,0,0,0,1.25,2.63c.57.91.92,1.6,1.71,2.85a5.84,5.84,0,0,0,9.71-6.5c0-.12-.12-.12-.12-.23v-.12a13.1,13.1,0,0,1-1-1.59c-.34-.69-.68-1.26-1-2.06-.69-1.37-1.26-2.85-1.94-4.22a86,86,0,0,1-3-9.13,109.54,109.54,0,0,1-3.31-19.4,165.92,165.92,0,0,1-.46-20c.23-3.31.35-6.74.69-10s.57-6.73,1.14-10a283.18,283.18,0,0,1,8.56-39.71c3.88-13,8.33-25.91,13.47-38.58,10.15-25.33,22.59-49.76,36.17-73.61s28.42-46.91,44.06-69.5a1,1,0,0,0-.23-1.26.77.77,0,0,0-1.14.23c-16.32,22.14-31.85,44.85-46.22,68.36-3.66,5.82-7.08,11.87-10.5,17.81s-6.74,12.09-10.05,18.14L954,959.2l-2.29,4.68-4.68,9.24c-1.48,3.08-3,6.28-4.45,9.36s-3,6.27-4.33,9.47c-11,25.34-20.2,51.81-24.88,79.43-.69,3.42-1,7-1.49,10.39s-.68,7-1,10.5a163.33,163.33,0,0,0-.12,21.22A89.64,89.64,0,0,0,913.41,1134.83Z" transform="translate(-10.86 -11.84)"/><path class="cls-18" d="M868.67,960.45c200.06,78.06,410.74,236.24,284.51,581.58-4.22,11.64-22.59,47.59-33.09,49.88C841.28,1651.82,683.22,1163.14,868.67,960.45Z" transform="translate(-10.86 -11.84)"/><path class="cls-2" d="M1207.28,341.09a58.84,58.84,0,0,0,9.13,13.13,82.46,82.46,0,0,0,11.75,10.84A96.91,96.91,0,0,0,1256.35,380a102.56,102.56,0,0,0,31.5,5.36,86.56,86.56,0,0,0,31-5.36,1,1,0,0,0,.57-1.14.85.85,0,0,0-.79-.57c-10.28-1.14-20.2-2.28-29.79-4.11a189.16,189.16,0,0,1-27.85-7.65,207.67,207.67,0,0,1-26.36-11.64c-8.67-4.45-17.23-9.36-25.91-14.83h0a.93.93,0,0,0-1.25.34C1207.05,340.52,1207.05,340.87,1207.28,341.09Z" transform="translate(-10.86 -11.84)"/><path class="cls-2" d="M259.93,256.07a61.24,61.24,0,0,0,15.4,4,93.63,93.63,0,0,0,15.87.57,95.5,95.5,0,0,0,31.15-7.19,100.87,100.87,0,0,0,27.28-16.55,88.86,88.86,0,0,0,20-24.31.92.92,0,0,0-.34-1.26,1.28,1.28,0,0,0-.91,0c-8.56,5.94-16.78,11.42-25.23,16.32A187,187,0,0,1,317,240.09a219.81,219.81,0,0,1-27.62,8.45c-9.47,2.28-19.17,4.11-29.33,5.7h0a1.11,1.11,0,0,0-.8,1A2.47,2.47,0,0,0,259.93,256.07Z" transform="translate(-10.86 -11.84)"/><path class="cls-2" d="M103.69,623.67a56.32,56.32,0,0,0,15.63-3.31,75.29,75.29,0,0,0,14.5-6.62,95.74,95.74,0,0,0,24.76-20.2,101.42,101.42,0,0,0,17.24-26.93,90,90,0,0,0,7.19-30.7.91.91,0,0,0-.92-.92,1,1,0,0,0-.8.46c-5,9-9.92,17.69-15.4,25.79A182.26,182.26,0,0,1,148,584a215.6,215.6,0,0,1-21,19.75c-7.42,6.27-15.41,12.21-23.74,18.14h0c-.45.23-.45.8-.23,1.26C103,623.55,103.35,623.67,103.69,623.67Z" transform="translate(-10.86 -11.84)"/><path class="cls-17" d="M285.72,1386.82l-2.28-11.07c-.69-3.65-1.37-7.42-1.94-11.18-10.39-59.46-13-120.06-10.85-180.2a.88.88,0,0,1,.92-.8.81.81,0,0,1,.8.91c-1.49,60,2.05,120.4,13.23,179.4.69,3.66,1.37,7.42,2.17,11.07l2.4,11,1.26,5.48,1.36,5.48,2.74,11c3.88,14.5,8,28.88,13,43,2.29,7.07,5.14,14,7.76,21.11l4.23,10.39q2.06,5.13,4.45,10.27c6,13.69,12.78,27,20.08,40.06,29.11,52.15,68.71,98.37,116.75,133.64a412.2,412.2,0,0,0,54.33,33.78c-10.5-1.94-20.77-4.11-31-6.51-9.82-6.28-19.41-12.89-28.76-20-48.62-36.75-88.34-84.45-117.1-137.75-7.19-13.35-13.81-26.93-19.74-40.86-1.48-3.42-3-7-4.34-10.5l-4.11-10.5c-2.51-7.07-5.24-14.15-7.53-21.45-4.9-14.27-8.79-28.87-12.55-43.48L288.34,1398l-1.25-5.48Z" transform="translate(-10.86 -11.84)"/><path class="cls-14" d="M1130.25,1572.73c-27.74,75.9-200,134.56-351.51,136.38s-413-132-441.21-367.94,113.33-387,78.18-707.23c0,0,80.8,255.87,285.65,308.94S1284.54,1150.7,1130.25,1572.73Z" transform="translate(-10.86 -11.84)"/><path class="cls-17" d="M882.82,1656.16c1.71,3.08,3.77,5.93,5.59,8.9s4,5.82,6.05,8.67a168.17,168.17,0,0,0,13.7,16.21l4.11,4.11c4.33-.92,8.67-1.83,12.89-2.86-3.31-2.62-6.5-5.47-9.7-8.55a187.44,187.44,0,0,1-13.35-14.84c-1.94-2.74-4.11-5.36-6.05-8.1s-3.88-5.48-5.59-8.33a298.17,298.17,0,0,1-19.17-35.73c-5.48-12.44-10.5-25.1-14.84-38-8.67-25.91-15.07-52.61-20.2-79.43s-8.79-54.21-11.53-81.49a.86.86,0,1,0-1.71.12c1.94,27.39,4.79,54.78,9.13,82.05,1,6.85,2.28,13.58,3.54,20.43s2.74,13.58,4.11,20.32l1.14,5,1.25,5,2.51,10c.8,3.31,1.83,6.62,2.74,10s1.83,6.73,2.86,9.92C858.29,1606.06,868.44,1632.08,882.82,1656.16Zm130.1-8.33c-1.82,6.27-3.76,12.55-5.93,18.6,4.45-1.71,8.67-3.42,13-5.25,1-3.54,2-7.08,3-10.61a416.69,416.69,0,0,0,10.15-51.36,496.29,496.29,0,0,0,4.46-52c.68-17.35.34-34.81-.57-52.16l-.8-13-1.14-13-.58-6.5-.79-6.51-1.6-12.89-1.94-12.9-1-6.39-1.14-6.39-2.4-12.78c-.8-4.23-1.82-8.45-2.74-12.67a773.42,773.42,0,0,0-29-99.75.91.91,0,0,0-1.72.57,780.68,780.68,0,0,1,26.48,100c.8,4.22,1.71,8.44,2.4,12.67l2.05,12.78,1,6.39.8,6.39,1.71,12.78,1.26,12.9.68,6.39.46,6.39.91,12.9.57,12.89c.46,17.24.46,34.35-.57,51.47a511.57,511.57,0,0,1-5.59,51.13A486.25,486.25,0,0,1,1012.92,1647.83Zm12.56,7.42c-.8,1.59-1.6,3.19-2.51,4.67,5.48-2.39,10.84-4.79,16-7.3,4.45-10,8.55-20.2,12.09-30.58a436.93,436.93,0,0,0,16.32-63.34,517.42,517.42,0,0,0,7.65-64.83l.46-8.1.22-4.11.12-4.11.34-16.32c-.23-10.84-.11-21.68-.8-32.52-.34-10.84-1.48-21.69-2.28-32.41-.57-5.37-1.26-10.73-1.83-16.21l-.91-8.1c-.34-2.74-.8-5.37-1.14-8.11l-2.4-16.09c-.8-5.36-1.94-10.61-2.85-16l-1.49-8-.68-4-.91-4-3.43-15.87a958,958,0,0,0-37.32-124.16.86.86,0,1,0-1.59.68A945.82,945.82,0,0,1,1053.44,1301l3.19,15.86.8,4,.69,4,1.25,8c.8,5.37,1.83,10.62,2.51,16l2.06,16c.34,2.62.8,5.36,1,8l.79,8c.46,5.37,1.15,10.73,1.49,16.1.68,10.72,1.48,21.45,1.6,32.18.45,10.73.22,21.45.22,32.18l-.68,16.09-.11,4-.35,4-.57,8a537.17,537.17,0,0,1-8.79,63.57,434.31,434.31,0,0,1-17.23,61.63c-3.65,10-7.76,19.85-12.21,29.44C1027.88,1650.57,1026.62,1652.85,1025.48,1655.25Zm-274.93-30.48c17.23,13.13,35.15,25.34,53.53,36.87s37.31,22.14,56.72,31.84c4.9,2.51,9.92,4.9,15,7.3,6.39-1,12.78-2,19.17-3.31-.11,0-.23-.11-.34-.11-9.82-4.11-19.63-8.56-29.22-13.24q-28.93-13.86-56.49-30.36c-18.38-11-36.29-22.82-53.64-35.38a608.28,608.28,0,0,1-50-40.28c-1.94-1.83-4-3.54-6-5.37l-5.82-5.47c-3.88-3.77-7.87-7.31-11.52-11.19l-11.3-11.41-10.84-11.87a515.8,515.8,0,0,1-40.06-50.33l-4.68-6.62c-1.48-2.17-3-4.45-4.34-6.73L602,1455.53l-8-13.93c-1.37-2.28-2.74-4.68-4-7l-3.66-7.19c-2.39-4.79-4.9-9.58-7.3-14.38l-6.62-14.72c-1.14-2.51-2.28-4.91-3.31-7.42l-3-7.53-5.82-15.07h0a.87.87,0,0,0-1.59.69l5.59,15.18,2.85,7.64c1,2.52,2.06,5,3.2,7.42l6.39,15c2.28,4.91,4.68,9.7,7.07,14.61l3.54,7.31c1.26,2.39,2.63,4.79,3.88,7.07l7.88,14.15,8.44,13.81c1.49,2.28,2.86,4.68,4.34,6.85l4.56,6.73a522.54,522.54,0,0,0,39.38,51.59l10.72,12.21,11.19,11.75c3.65,4,7.65,7.65,11.53,11.53l5.82,5.71c1.94,1.94,4,3.65,5.93,5.47A598.46,598.46,0,0,0,750.55,1624.77Zm-118.69-33.89a645.62,645.62,0,0,0,43.82,47.93q23.12,22.93,48.28,43.6c11,9,22.25,17.8,33.78,26.13,6.28.46,12.44.57,18.37.57q-24-15.91-46.44-33.78-25.17-20-48.51-42.11a610.76,610.76,0,0,1-44.28-46.56c-1.71-2.06-3.54-4-5.25-6.05l-5-6.28c-3.31-4.22-6.85-8.22-10-12.55l-9.7-12.9-9.25-13.24c-12-17.8-23.39-36.06-33.09-55.12l-3.77-7.08c-1.25-2.39-2.28-4.79-3.42-7.3l-6.85-14.61-6.16-14.83c-1-2.52-2.06-4.91-3.08-7.42l-2.74-7.53c-1.83-5-3.66-10.16-5.37-15.18l-4.68-15.41c-.8-2.63-1.59-5.14-2.28-7.76l-1.94-7.88-3.88-15.63h0a.89.89,0,0,0-1-.69,1,1,0,0,0-.68,1l3.54,15.75,1.82,7.88c.69,2.62,1.49,5.25,2.17,7.76l4.34,15.63c1.6,5.14,3.42,10.27,5.13,15.41l2.63,7.64c.91,2.52,1.94,5,2.85,7.54l5.94,15.06,6.61,14.84c1.15,2.51,2.17,4.91,3.31,7.42l3.66,7.3a526.93,526.93,0,0,0,32.29,56.26l9,13.47,9.47,13.12c3.08,4.46,6.62,8.56,9.82,12.9l5,6.39C628.44,1586.77,630.15,1588.82,631.86,1590.88ZM437.28,1490.79c26.82,41.77,60,79.32,96.43,113a834.42,834.42,0,0,0,89.59,71.78c12.1,4.91,24.2,9.36,36.06,13.12-1-.57-1.94-1.25-3-1.82-41.66-26.14-81.6-55.24-118.24-88.11s-70.07-69.38-97.46-110.36-48.16-86.5-58.55-134.78a.88.88,0,0,0-1-.68.89.89,0,0,0-.69,1C390.14,1402.8,410.46,1449,437.28,1490.79Z" transform="translate(-10.86 -11.84)"/><ellipse class="cls-19" cx="794.01" cy="1923.7" rx="566.75" ry="43.71"/><path class="cls-20" d="M974.92,1387.39l163.31-38.11c-.11-.57-.22-1.15-.34-1.72a83.91,83.91,0,0,0-163.43,38.12C974.58,1386.25,974.81,1386.82,974.92,1387.39Z" transform="translate(-10.86 -11.84)"/><path class="cls-21" d="M1046.48,1325.2a83.84,83.84,0,0,0-62,60l144.14-33.56A83.63,83.63,0,0,0,1046.48,1325.2Z" transform="translate(-10.86 -11.84)"/><polyline class="cls-22" points="684.34 1227.54 862.49 1247.17 724.4 1329.34"/><line class="cls-22" x1="862.49" y1="1247.17" x2="713.67" y2="1281.86"/><polyline class="cls-22" points="1309.63 1081.8 1158.41 1178.12 1318.65 1190.79"/><line class="cls-22" x1="1158.42" y1="1178.12" x2="1307.23" y2="1143.43"/><path class="cls-23" d="M1655.79,1158.69A68,68,0,0,1,1542.58,1234c-20.77-31.27-46.34-67.68-15.06-88.45S1635,1127.42,1655.79,1158.69Z" transform="translate(-10.86 -11.84)"/><path class="cls-24" d="M1566.32,1152.18a98.24,98.24,0,0,1,21.68.23,84.38,84.38,0,0,1,21.46,5.48,60.27,60.27,0,0,1,19.4,12.55,57.22,57.22,0,0,1,13.24,19.86,8.32,8.32,0,0,1-15.41,6.28c-.11-.35-.23-.69-.34-1a41.79,41.79,0,0,0-7.65-15.86,47.69,47.69,0,0,0-14-12,76.55,76.55,0,0,0-18.14-7.3,90,90,0,0,0-19.86-3h-.11a2.68,2.68,0,0,1-2.63-2.74A2.52,2.52,0,0,1,1566.32,1152.18Z" transform="translate(-10.86 -11.84)"/><path class="cls-23" d="M414.91,1179.8c-107.62-32-290.68-62-385.29,62-41.88,55-9.81,135,58.32,147.22h0a93.07,93.07,0,0,0,102.48-56.26c23.17-56.15,80.35-125.31,221.29-128.16C426.09,1204.22,428.72,1183.91,414.91,1179.8Z" transform="translate(-10.86 -11.84)"/><path class="cls-24" d="M243,1185.05a283.28,283.28,0,0,0-58.44,12A235.13,235.13,0,0,0,131,1221.34c-16.44,10.39-31.28,23.17-42.46,38.46a132.88,132.88,0,0,0-23.05,50.9v.12a10.41,10.41,0,0,1-20.32-4.57,1.62,1.62,0,0,1,.23-.68c6.28-20.55,16.44-40,30.47-55.93s31-28.75,49.3-38.46a246.74,246.74,0,0,1,57.64-21.11,290.72,290.72,0,0,1,60.26-7.76,1.32,1.32,0,0,1,1.37,1.37,1.57,1.57,0,0,1-1.37,1.37Z" transform="translate(-10.86 -11.84)"/><rect id="_Slice_" data-name="&lt;Slice&gt;" class="cls-25" width="1656.31" height="1967.41"/></svg>