<svg id="Capa_1" enable-background="new 0 0 511.584 511.584" height="512" viewBox="0 0 511.584 511.584" width="512" xmlns="http://www.w3.org/2000/svg"><g><path d="m418.273 58.342 17.495-21.604c3.684-4.549 2.983-11.224-1.567-14.908l-14.787-11.975c-4.549-3.684-11.224-2.983-14.908 1.567l-17.496 21.604-29.35 37.841 30.963 24.871z" fill="#be8f7d"/><path d="m411.131 52.559-9.543-7.728-34.88-15.862-38.039 6.299-59.403 52.968-70.867 104.234-103.175 135.307-50.024 142.933 19.27 30.425 70.111-37.584c68.839-36.902 127.389-90.387 170.351-155.616l15.758-23.925c1.937-2.941 4.051-5.762 6.33-8.446l94.539-111.37c28.473-33.543 23.765-83.946-10.428-111.635z" fill="#d3b5a8"/><circle cx="386.217" cy="399.976" fill="#d3b5a8" r="96.414"/><path d="m347.269 473.236c38.164-47.128 33.362-115.283-9.346-156.736-9.929 5.74-18.984 13.355-26.633 22.8-33.511 41.381-27.131 102.093 14.25 135.603 3.97 3.215 8.112 6.065 12.397 8.55 3.281-3.197 6.407-6.605 9.332-10.217z" fill="#c9a291"/><path d="m386.159 462.474c-14.438 0-28.018-4.817-39.272-13.931-26.779-21.686-30.923-61.116-9.236-87.896 11.923-14.723 29.647-23.168 48.625-23.168 14.437 0 28.017 4.817 39.271 13.931 12.973 10.506 21.078 25.434 22.823 42.035s-3.081 32.888-13.586 45.861c-11.923 14.723-29.647 23.168-48.625 23.168z" fill="#fff8c5"/><path d="m337.651 360.646c-21.687 26.78-17.543 66.211 9.236 87.896 3.722 3.014 7.704 5.562 11.882 7.617 19.454-35.277 18.907-77.902-.008-112.35-8.066 3.944-15.284 9.642-21.11 16.837z" fill="#fdf399"/><g><g fill="#c9a291"><path d="m73.103 485.839 23.891-73.721c23.45-72.361 63.803-139.167 117.408-194.373l19.678-20.266c2.417-2.489 4.696-5.114 6.824-7.858l88.265-113.844c18.347-23.664 46.554-34.634 72.419-30.948l-4.915-3.98c-34.193-27.688-84.473-21.815-111.364 13.009l-89.284 115.625c-2.152 2.787-4.472 5.441-6.946 7.947l-20.14 20.401c-54.864 55.574-95.006 123.951-116.793 198.943l-22.197 76.402c-5.955 20.496 15.71 38.041 34.521 27.958l7.691-4.123c-.567-3.451-.335-7.23.942-11.172z"/><path d="m304.932 307.935 6.914-10.498c-16.833-9.024-35.762-13.882-54.99-13.882-35.322 0-68.319 15.729-90.528 43.154-29.844 36.853-33.421 86.565-13.143 126.313 60.802-36.247 112.711-85.818 151.747-145.087z"/><circle cx="256.799" cy="399.973" r="96.414"/></g><path d="m225.058 477.578c-41.381-33.511-47.761-94.222-14.25-135.603 17.766-21.939 43.187-34.043 69.311-35.578-35.209-8.747-73.907 2.843-98.246 32.899-33.51 41.381-27.13 102.093 14.25 135.603 19.442 15.744 43.151 22.682 66.302 21.322-13.268-3.296-26.042-9.472-37.367-18.643z" fill="#be8f7d"/><path d="m256.74 462.47c-14.438 0-28.018-4.817-39.272-13.931-26.779-21.686-30.923-61.116-9.236-87.896 11.923-14.723 29.647-23.168 48.625-23.168 14.437 0 28.017 4.817 39.271 13.931 12.973 10.506 21.078 25.434 22.823 42.035s-3.081 32.888-13.586 45.861c-11.922 14.723-29.646 23.168-48.625 23.168z" fill="#fff8c5"/></g><g><path d="m64.47 501.135-6.293 2.345c2.105-.473 4.217-1.232 6.293-2.345z" fill="#d3b5a8"/></g><g><path d="m140.825 451.526c-3.598 2.042-6.799 3.814-9.786 5.416l-70.111 37.583c-6.084 3.262-12.918 2.616-18.284-1.73-5.364-4.345-7.417-10.896-5.491-17.525l22.196-76.401c5.149-17.724 11.375-35.102 18.598-52.043l23.958 19.402c1.389 1.125 3.058 1.672 4.715 1.672 2.186 0 4.352-.95 5.833-2.78 2.607-3.219 2.111-7.942-1.108-10.549l-27.075-21.926c21.377-45.822 50.214-88.086 85.274-124.672l41.132 33.309c1.389 1.125 3.058 1.672 4.715 1.672 2.186 0 4.352-.95 5.833-2.78 2.607-3.219 2.111-7.942-1.108-10.549l-40.024-32.412 14.325-14.511c2.677-2.711 5.216-5.616 7.546-8.633l84.593-109.55 36.041 29.186c1.389 1.125 3.058 1.671 4.715 1.671 2.186 0 4.352-.95 5.833-2.78 2.607-3.219 2.111-7.942-1.108-10.549l-36.02-29.169c11.381-12.003 26.441-19.569 43.109-21.516 19.116-2.234 37.876 3.208 52.83 15.318l14.458 11.708c14.954 12.11 24.176 29.332 25.966 48.492 1.789 19.16-4.084 37.791-16.537 52.461l-94.537 111.37c-2.464 2.901-4.777 5.988-6.877 9.175l-3.312 5.03c-2.278 3.459-1.32 8.11 2.139 10.389 3.458 2.278 8.11 1.322 10.389-2.139l3.312-5.029c1.767-2.681 3.713-5.278 5.785-7.719l94.538-111.37c15.089-17.775 22.204-40.349 20.036-63.563-1.641-17.567-8.446-33.783-19.508-46.995l13.792-17.031c3.043-3.757 4.44-8.474 3.936-13.282-.505-4.809-2.853-9.132-6.61-12.175l-14.792-11.976c-7.757-6.28-19.177-5.081-25.457 2.675l-14.241 17.586c-14.484-6.974-30.658-9.74-47.053-7.825-23.159 2.705-43.761 14.358-58.011 32.812l-89.284 115.626c-1.96 2.538-4.095 4.981-6.348 7.262l-20.139 20.401c-55.562 56.281-96.594 126.173-118.658 202.12l-22.196 76.401c-3.612 12.433.394 25.219 10.455 33.367 5.832 4.723 12.765 7.133 19.785 7.133 5.091 0 10.229-1.268 15.025-3.839l70.112-37.584c3.096-1.66 6.401-3.489 10.105-5.592 3.602-2.045 4.864-6.623 2.819-10.225-2.044-3.601-6.623-4.864-10.223-2.818zm269.508-435.384c1.076-1.329 3.031-1.535 4.361-.458l14.787 11.975c.868.703 1.082 1.608 1.132 2.084.05.477.029 1.407-.674 2.275l-12.801 15.808c-.432-.363-.848-.74-1.288-1.096l-14.458-11.708c-1.285-1.041-2.599-2.029-3.929-2.988z"/><path d="m279.235 123.819c-3.219-2.607-7.942-2.109-10.548 1.108-2.607 3.219-2.111 7.942 1.108 10.549l11.458 9.279c1.389 1.125 3.058 1.672 4.715 1.672 2.186 0 4.352-.95 5.833-2.78 2.607-3.219 2.111-7.942-1.108-10.549z"/><path d="m148.487 269.368c-3.219-2.607-7.942-2.109-10.548 1.109-2.607 3.219-2.11 7.941 1.108 10.548l20.501 16.602c1.389 1.125 3.058 1.672 4.715 1.672 2.186 0 4.352-.95 5.833-2.781 2.607-3.219 2.11-7.941-1.108-10.548z"/><path d="m101.94 411.866c-3.22-2.607-7.943-2.109-10.548 1.108-2.607 3.219-2.111 7.942 1.108 10.549l13.177 10.671c1.389 1.125 3.058 1.672 4.715 1.672 2.186 0 4.352-.95 5.833-2.78 2.607-3.219 2.111-7.942-1.108-10.549z"/><path d="m322.195 319.217c-21.57-17.468-48.655-25.49-76.257-22.589-27.604 2.901-52.427 16.378-69.895 37.948-36.06 44.529-29.17 110.092 15.359 146.152 18.681 15.128 41.492 23.171 65.199 23.171 3.668 0 7.359-.193 11.058-.582 27.604-2.901 52.427-16.378 69.895-37.948 36.06-44.528 29.17-110.092-15.359-146.152zm3.703 136.712c-14.947 18.457-36.187 29.989-59.807 32.471-23.621 2.484-46.793-4.383-65.249-19.329-18.457-14.946-29.988-36.186-32.471-59.806-2.482-23.62 4.382-46.792 19.328-65.249 17.548-21.669 43.26-32.921 69.184-32.921 19.658 0 39.439 6.472 55.872 19.779 38.101 30.855 43.996 86.954 13.143 125.055z"/><path d="m326.411 392.657c-1.955-18.594-11.033-35.314-25.562-47.079-12.604-10.208-27.814-15.603-43.99-15.603-21.254 0-41.101 9.458-54.449 25.942-.603.742-1.173 1.499-1.738 2.258-2.476 3.321-1.791 8.02 1.53 10.496s8.021 1.791 10.495-1.531c.444-.595.89-1.19 1.366-1.778 10.491-12.957 26.09-20.387 42.796-20.387 12.7 0 24.647 4.239 34.55 12.259 11.416 9.245 18.55 22.381 20.085 36.99 1.535 14.608-2.711 28.941-11.956 40.357-10.491 12.957-26.09 20.388-42.796 20.388-12.701 0-24.648-4.239-34.552-12.26-14.562-11.792-22.047-30.016-20.021-48.748.446-4.118-2.531-7.818-6.649-8.263-4.124-.451-7.818 2.532-8.263 6.65-2.577 23.821 6.953 47.005 25.492 62.018 12.604 10.208 27.815 15.603 43.992 15.603 21.253 0 41.1-9.458 54.454-25.948 11.765-14.529 17.169-32.77 15.216-51.364z"/><path d="m469.745 448.734c-3.403-2.365-8.076-1.524-10.439 1.877-1.272 1.831-2.615 3.62-3.989 5.317-24.455 30.198-65.194 41.009-101.379 26.903-3.856-1.505-8.207.404-9.712 4.264-1.504 3.859.405 8.208 4.265 9.712 12.374 4.824 25.199 7.154 37.875 7.154 30.645 0 60.392-13.628 80.608-38.594 1.604-1.981 3.168-4.066 4.648-6.195 2.364-3.4 1.523-8.074-1.877-10.438z"/><path d="m451.613 319.217c-28.877-23.386-68.378-29.544-103.081-16.072-3.861 1.499-5.776 5.844-4.277 9.706 1.499 3.86 5.845 5.775 9.705 4.277 29.705-11.532 63.505-6.264 88.214 13.746 27.462 22.238 39.151 58.633 29.781 92.719-1.099 3.994 1.249 8.122 5.243 9.22.666.183 1.334.27 1.992.27 3.293 0 6.312-2.186 7.228-5.514 10.951-39.832-2.711-82.363-34.805-108.352z"/><path d="m386.159 454.97c-4.176 0-8.351-.473-12.408-1.406-4.035-.931-8.062 1.591-8.99 5.628s1.592 8.062 5.629 8.99c5.158 1.187 10.464 1.788 15.77 1.788 21.253 0 41.1-9.458 54.454-25.948 11.766-14.53 17.169-32.771 15.216-51.364s-11.031-35.313-25.562-47.08c-12.604-10.208-27.815-15.603-43.991-15.603-5.327 0-10.661.606-15.854 1.803-4.036.93-6.555 4.956-5.625 8.992.931 4.037 4.956 6.555 8.992 5.625 4.09-.942 8.291-1.42 12.486-1.42 12.7 0 24.647 4.239 34.551 12.259 11.417 9.246 18.55 22.382 20.084 36.99 1.535 14.608-2.711 28.941-11.955 40.357-10.493 12.958-26.091 20.389-42.797 20.389z"/></g></g></svg>