<svg id="Capa_1" enable-background="new 0 0 511.064 511.064" height="512" viewBox="0 0 511.064 511.064" width="512" xmlns="http://www.w3.org/2000/svg"><g><g><path d="m164.478 315.258 47.964 66.807c2.629 3.662 3.897 8.127 3.584 12.624l-6.932 99.714c-.344 4.953 3.581 9.16 8.545 9.16h76.786c4.965 0 8.889-4.207 8.545-9.16l-6.932-99.714c-.313-4.497.955-8.962 3.584-12.624l47.964-66.807 35.903-41.679-24.105-17.911-31.62 37.91-37.578 44.91c-4.792 5.727-14.118 2.698-14.632-4.751l-2.3-33.346.728-68.315h-32.04l-3.135 68.315-2.3 33.346c-.514 7.449-9.84 10.477-14.632 4.751l-37.578-44.91-40.799-51.959-25.615 31.14z" fill="#fdf399"/><g><g><g id="XMLID_8_"><g><g fill="#fcef71"><path d="m143.501 241.62-25.615 31.14 46.593 42.498 16.439 22.897c5.473-3.877 10.557-8.286 15.162-13.138 3.008-3.169 7.603-4.223 11.684-2.662.3.115.6.228.901.341l-24.365-29.119z"/><path d="m327.764 293.578-24.526 29.312c.024-.009.049-.018.073-.027 4.284-1.606 9.081-.527 12.257 2.766 4.637 4.809 9.745 9.175 15.236 13h.003l16.779-23.371 35.903-41.679-24.105-17.911z"/><path d="m241.944 232.077-3.135 68.315-2.033 29.472c6.349.908 12.79 1.384 19.256 1.384 6.526 0 12.958-.453 19.26-1.327l-2.036-29.529.728-68.315z"/></g><path d="m423.462 191.018c22.63 12.21 38.01 36.14 38.01 63.65 0 39.91-32.35 72.27-72.26 72.27-30.73 0-56.97-19.17-67.43-46.2l-1.07-2.53c-16.15 14.18-39.15 23.04-64.68 23.04-25.91 0-49.21-9.12-65.39-23.68l-1.36 3.17c-10.46 27.03-36.7 46.2-67.43 46.2-39.91 0-72.26-32.36-72.26-72.27 0-27.51 15.38-51.44 38.01-63.65-11.55-13.22-18.58-30.51-18.58-49.45 0-41.53 33.67-75.2 75.2-75.2 9.06 0 17.74 1.61 25.78 4.54 11.12-36.7 45.21-63.41 85.53-63.41s74.41 26.71 85.53 63.41c8.04-2.93 16.72-4.54 25.78-4.54 41.53 0 75.2 33.67 75.2 75.2 0 18.94-7.03 36.23-18.58 49.45z" fill="#fff8c5"/><g><path d="m106.001 277.076c0-22.161 9.98-41.999 25.691-55.258 6.003-5.066 7.511-13.797 3.611-20.616-7-12.24-10.667-26.633-9.728-41.949 2.327-37.921 33.163-68.424 71.105-70.375 4.592-.236 9.098-.058 13.485.499 9.171 1.164 18.244-3.234 22.524-11.428 14.917-28.555 44.811-48.043 79.251-48.043.95 0 1.901.033 2.843.062-15.77-13.979-36.525-22.471-59.252-22.471-40.32 0-74.41 26.71-85.53 63.41-9.201-3.353-19.241-4.978-29.729-4.438-37.942 1.951-68.778 32.453-71.106 70.373-1.276 20.781 5.931 39.863 18.435 54.175-22.63 12.21-38.01 36.14-38.01 63.65 0 39.91 32.35 72.27 72.26 72.27 1.348 0 2.684-.05 4.014-.123-12.301-12.958-19.864-30.46-19.864-49.738z" fill="#fdf399"/></g></g></g></g></g></g><g><path d="m309.218 476.127c-.287-4.132-3.874-7.253-8.002-6.962-4.132.287-7.249 3.87-6.962 8.002l1.872 26.917c.275 3.956 3.569 6.98 7.474 6.98.175 0 .351-.006.528-.019 4.132-.287 7.249-3.87 6.962-8.002z"/><path d="m434.502 189.051c9.736-13.858 15.036-30.416 15.036-47.486 0-16.313-4.757-32.104-13.757-45.665-2.291-3.451-6.945-4.393-10.396-2.102s-4.392 6.945-2.102 10.396c7.363 11.095 11.255 24.017 11.255 37.37 0 14.478-4.652 28.511-13.185 40.097-5.087-2.248-10.464-3.99-16.078-5.139-4.059-.833-8.021 1.786-8.851 5.844-.831 4.058 1.786 8.021 5.844 8.851 29.96 6.131 51.706 32.816 51.706 63.451 0 35.712-29.054 64.767-64.767 64.767-25.808 0-49.462-15.711-59.573-39.319 3.353-3.325 6.398-6.898 9.087-10.697 2.394-3.381 1.593-8.062-1.788-10.455-3.381-2.395-8.062-1.593-10.455 1.788-14.41 20.354-41.404 32.999-70.448 32.999s-56.038-12.645-70.448-32.999c-2.393-3.381-7.074-4.181-10.455-1.788s-4.181 7.074-1.788 10.455c2.497 3.528 5.31 6.854 8.383 9.976-9.935 24.007-33.8 40.041-59.869 40.041-35.712 0-64.767-29.054-64.767-64.767 0-30.635 21.746-57.32 51.706-63.451 4.058-.831 6.675-4.793 5.844-8.851s-4.794-6.674-8.851-5.844c-5.615 1.149-10.991 2.891-16.078 5.139-8.533-11.586-13.185-25.619-13.185-40.097 0-37.326 30.367-67.693 67.693-67.693 5.689 0 11.29.712 16.729 2.096-1.486 6.731-2.276 13.721-2.276 20.892 0 4.142 3.358 7.5 7.5 7.5s7.5-3.358 7.5-7.5c0-45.137 36.722-81.859 81.86-81.859s81.86 36.722 81.86 81.859c0 4.142 3.358 7.5 7.5 7.5s7.5-3.358 7.5-7.5c0-7.171-.79-14.161-2.276-20.892 5.44-1.384 11.04-2.096 16.729-2.096 12.649 0 24.995 3.522 35.703 10.187 1.233.768 2.603 1.133 3.956 1.133 2.505 0 4.954-1.255 6.375-3.538 2.188-3.517 1.112-8.142-2.405-10.331-13.089-8.146-28.176-12.452-43.629-12.452-7.176 0-14.244.92-21.099 2.726-14.126-36.023-49.236-61.597-90.21-61.597s-76.084 25.574-90.214 61.598c-6.856-1.806-13.923-2.726-21.099-2.726-45.597 0-82.693 37.096-82.693 82.693 0 17.07 5.3 33.629 15.036 47.486-20.995 14.572-34.473 38.866-34.473 65.617 0 43.983 35.783 79.767 79.767 79.767 14.03 0 27.581-3.627 39.602-10.523l13.851 19.293c1.465 2.041 3.765 3.126 6.099 3.126 1.515 0 3.043-.458 4.368-1.408 3.365-2.416 4.134-7.102 1.718-10.466l-13.777-19.189c3.727-3.186 7.134-6.688 10.192-10.468l32.216 38.502c3.065 3.663 7.493 5.667 12.078 5.667 1.635 0 3.291-.255 4.911-.782 6.162-2 10.432-7.47 10.877-13.933l1.791-25.974c3.386.306 6.806.47 10.249.47s6.863-.164 10.249-.47l1.791 25.974c.446 6.463 4.715 11.933 10.877 13.933 1.621.526 3.275.782 4.911.782 4.584 0 9.013-2.005 12.078-5.667l31.71-37.897c3.101 3.757 6.552 7.233 10.321 10.389l-44.44 61.898c-3.641 5.07-5.407 11.292-4.974 17.518l1.085 15.611h-20.26c-4.142 0-7.5 3.358-7.5 7.5s3.358 7.5 7.5 7.5h21.302l1.348 19.384c.275 3.956 3.569 6.98 7.474 6.98.175 0 .351-.006.528-.019 4.132-.287 7.249-3.87 6.962-8.002l-3.476-49.996c-.191-2.747.588-5.492 2.194-7.729l44.603-62.125c11.843 6.634 25.136 10.121 38.89 10.121 43.983 0 79.767-35.783 79.767-79.767.003-26.751-13.474-51.045-34.469-65.617zm-205.475 144.171c-.014.2-.037.534-.545.699-.507.164-.724-.091-.853-.245l-35.111-41.962c.382-.729.747-1.467 1.107-2.209 10.798 7.674 23.552 13.306 37.284 16.429zm55.408.453c-.128.153-.342.41-.853.245-.508-.165-.531-.499-.545-.699l-1.882-27.288c13.419-3.052 25.901-8.505 36.54-15.913.402.814.816 1.619 1.245 2.417z"/><path d="m206.534 152.811 1.985-1.772c3.09-2.758 3.359-7.5.6-10.589-2.758-3.09-7.5-3.358-10.589-.6l-1.985 1.772c-14.081 12.572-21.45 31.3-19.713 50.096.359 3.89 3.629 6.811 7.459 6.811.231 0 .464-.011.699-.032 4.125-.381 7.159-4.034 6.778-8.158-1.301-14.082 4.219-28.111 14.766-37.528z"/><path d="m327.074 198.496c.235.021.467.032.699.032 3.831 0 7.1-2.921 7.459-6.811 1.737-18.796-5.632-37.524-19.714-50.096l-1.985-1.772c-3.089-2.759-7.831-2.49-10.589.6-2.759 3.09-2.49 7.831.6 10.589l1.984 1.772c10.548 9.417 16.068 23.446 14.767 37.527-.38 4.125 2.654 7.777 6.779 8.159z"/><path d="m229.247 453.166h-9.768l4.029-57.957c.433-6.227-1.333-12.448-4.974-17.519l-12.326-17.169c-2.416-3.365-7.102-4.134-10.466-1.718-3.365 2.416-4.134 7.102-1.718 10.466l12.326 17.169c1.606 2.237 2.386 4.982 2.194 7.73l-7.569 108.875c-.287 4.132 2.83 7.715 6.962 8.002.177.012.353.019.528.019 3.905 0 7.199-3.025 7.474-6.98l2.497-35.917h10.811c4.142 0 7.5-3.358 7.5-7.5s-3.358-7.501-7.5-7.501z"/></g></g></svg>