<svg id="Capa_1" enable-background="new 0 0 506.916 506.916" height="512" viewBox="0 0 506.916 506.916" width="512" xmlns="http://www.w3.org/2000/svg"><g><g><path d="m475.935 98.991 9.499-5.017c15.604-8.242 18.771-29.236 6.293-41.714-10.237-10.237-26.834-10.237-37.071 0l-78.275 78.275-73.99 68.657 19.012 14.971z" fill="#81c758"/><path d="m376.381 130.535 78.275-78.275c10.237-10.237 10.237-26.834 0-37.071-12.478-12.478-33.472-9.311-41.714 6.293l-5.017 9.499-69.76 123.82 10.812 11.262z" fill="#a6d786"/><path d="m405.887 160.081 65.018-32.026c11.212-5.523 13.677-20.429 4.839-29.266-6.62-6.62-17.176-7.155-24.431-1.237l-59.459 48.496-32.667 26.924 8.304 8.542z" fill="#a6d786"/><path d="m360.869 115.062 48.496-59.459c5.917-7.255 5.383-17.811-1.237-24.431-8.838-8.838-23.744-6.373-29.266 4.839l-32.026 65.018-36.818 62.321 11.081 12.786z" fill="#81c758"/><g><path d="m161.605 147.4-148.555 283.31c-21.305 40.631 22.524 84.461 63.156 63.156l283.31-148.555c75.385-39.528 90.821-140.821 30.632-201.009l-27.534-27.534c-60.189-60.188-161.481-44.752-201.009 30.632z" fill="#f5c374"/><path d="m59.993 463.646 148.555-283.31c31.333-59.756 101.474-81.834 159.19-58.444l-5.124-5.124c-60.189-60.188-161.481-44.752-201.009 30.632l-148.555 283.31c-17.874 34.087 10.077 70.426 43.541 68.667-3.536-10.952-3.017-23.49 3.402-35.731z" fill="#f3b658"/></g></g><g><path d="m297.642 369.286-22.495 11.796-70.989-70.989c-2.929-2.929-7.678-2.929-10.606 0-2.929 2.929-2.929 7.678 0 10.606l67.68 67.68-76.055 39.88-18.627-18.627c-2.929-2.929-7.678-2.929-10.606 0-2.929 2.929-2.929 7.678 0 10.606l15.318 15.318-42.1 22.075-32.048-32.048c-2.929-2.929-7.678-2.929-10.606 0-2.929 2.929-2.929 7.678 0 10.606l28.738 28.738-42.521 22.296c-18.866 9.892-36.142 2.863-46.018-7.013s-16.905-27.152-7.013-46.018l25.865-49.327c1.924-3.668.509-8.202-3.159-10.125-3.668-1.924-8.202-.509-10.125 3.159l-25.867 49.328c-11.263 21.479-7.459 46.44 9.691 63.59 10.597 10.597 24.175 16.099 38.072 16.098 8.594 0 17.311-2.104 25.518-6.408l224.92-117.938c3.668-1.923 5.083-6.457 3.159-10.125-1.924-3.667-6.458-5.083-10.126-3.158z"/><path d="m497.03 46.956c-6.368-6.368-14.833-9.875-23.839-9.875-1.193 0-2.375.066-3.545.187.122-1.17.187-2.352.187-3.545 0-9.005-3.507-17.471-9.875-23.839-7.649-7.649-18.171-11.109-28.867-9.498-10.697 1.614-19.729 8.025-24.782 17.591l-1.211 2.293c-4.364-1.82-9.194-2.406-14.072-1.599-8.293 1.371-15.18 6.483-18.895 14.024l-29.101 59.084c-26.545-16.322-57.978-22.798-89.798-17.95-42.491 6.476-78.309 32.021-98.269 70.087l-107.61 205.224c-1.924 3.668-.509 8.202 3.159 10.125 3.669 1.924 8.202.509 10.125-3.159l19.761-37.686 38.556 38.556c1.464 1.465 3.384 2.197 5.303 2.197s3.839-.732 5.303-2.197c2.929-2.929 2.929-7.678 0-10.606l-41.865-41.866 61.101-116.525 69.578 69.578c1.464 1.464 3.384 2.197 5.303 2.197s3.839-.732 5.303-2.197c2.929-2.929 2.929-7.678 0-10.606l-72.887-72.887 12.155-23.18c17.721-33.795 49.521-56.476 87.245-62.225 37.725-5.75 74.836 6.43 101.819 33.413l27.533 27.534c26.983 26.983 39.162 64.095 33.413 101.819-3.485 22.868-13.201 43.552-27.834 60.249l-70.934-70.934c-2.929-2.929-7.678-2.929-10.606 0-2.929 2.929-2.929 7.678 0 10.606l70.954 70.954c-7.132 6.296-15.095 11.803-23.803 16.369l-29.941 15.7c-3.668 1.923-5.083 6.457-3.159 10.125 1.34 2.557 3.949 4.019 6.648 4.019 1.173 0 2.365-.276 3.477-.859l29.941-15.7c38.066-19.96 63.612-55.778 70.087-98.269 4.849-31.821-1.628-63.254-17.95-89.799l59.084-29.102c7.541-3.715 12.652-10.602 14.023-18.895.806-4.878.221-9.708-1.599-14.072l2.293-1.211c9.565-5.052 15.977-14.084 17.59-24.781s-1.85-21.22-9.499-28.869zm-63.701-31.735c5.936-.896 11.777 1.025 16.023 5.271 3.534 3.535 5.481 8.234 5.481 13.232s-1.947 9.697-5.481 13.232l-72.972 72.972-5.399-5.399 44.195-54.186c7.203-8.831 7.643-21.009 1.68-30.213l2.718-5.146c2.804-5.309 7.818-8.868 13.755-9.763zm-47.74 24.103c1.55-3.147 4.425-5.28 7.886-5.853s6.869.522 9.35 3.003c3.914 3.913 4.227 10.098.729 14.387l-43.505 53.339c-1.502-1.285-3.024-2.537-4.57-3.749zm106.106 34.262c-.896 5.938-4.455 10.951-9.764 13.755l-5.146 2.718c-9.204-5.963-21.381-5.524-30.212 1.68l-15.096 12.312c-3.21 2.618-3.69 7.342-1.072 10.552s7.343 3.689 10.552 1.072l15.096-12.312c4.29-3.498 10.475-3.185 14.388.729 2.48 2.48 3.575 5.888 3.003 9.35s-2.706 6.335-5.853 7.886l-61.128 30.109c-1.211-1.546-2.463-3.068-3.748-4.57l13.346-10.885c3.21-2.618 3.69-7.342 1.072-10.552-2.617-3.21-7.342-3.688-10.552-1.072l-14.194 11.577-5.399-5.399 72.972-72.972c3.535-3.534 8.234-5.481 13.232-5.481 4.999 0 9.698 1.947 13.232 5.481 4.245 4.245 6.167 10.085 5.271 16.022z"/></g></g></svg>