<svg id="Capa_1" enable-background="new 0 0 511.058 511.058" height="512" viewBox="0 0 511.058 511.058" width="512" xmlns="http://www.w3.org/2000/svg"><g><g><path d="m345.591 56.424c4.987 0 8.47 4.94 6.795 9.637l-35.307 98.993-18.942 62.377h-80.422l-23.681-62.377-35.307-98.993c-1.675-4.698 1.807-9.637 6.795-9.637z" fill="#81c758"/><path d="m317.547 29.402c4.692 0 8.135 4.408 6.999 8.961l-31.149 124.83-23.861 71.939h-32.093l-19.729-71.939-31.149-124.83c-1.136-4.552 2.307-8.961 6.999-8.961z" fill="#a6d786"/><path d="m272.441 163.193 15.359-141.631c.814-7.508-5.068-14.062-12.62-14.062h-39.246c-7.552 0-13.434 6.554-12.62 14.062l15.359 141.63 8.804 64.24h15.503z" fill="#94cf6f"/><g><path d="m144.278 416.85 79.57 50.289 25.275 33.419c2.996 3.961 8.933 4.007 11.989.091l26.156-33.511 79.57-50.289c116.438-73.59 64.305-253.657-73.438-253.657h-75.682c-137.745.001-189.878 180.068-73.44 253.658z" fill="#e17983"/></g><path d="m215.299 409.74c-100.06-63.089-79.051-202.468 13.231-246.547h-10.814c-137.743 0-189.876 180.067-73.438 253.657l79.57 50.289 25.275 33.419c2.996 3.961 8.933 4.007 11.989.091l26.156-33.511 9.523-6.018z" fill="#da606c"/></g><g><path d="m367.228 407.612c-1.562 1.067-3.001 2.015-4.398 2.898l-79.569 50.289c-.729.461-1.374 1.045-1.905 1.725l-26.252 33.51-25.274-33.419c-.543-.719-1.212-1.334-1.975-1.816l-79.569-50.289c-24.315-15.368-42.354-36.789-52.162-61.946-9.064-23.248-11.032-48.922-5.689-74.245.854-4.053-1.737-8.032-5.791-8.887-4.042-.855-8.031 1.737-8.887 5.79-12.768 60.518 11.952 118.748 64.514 151.967l78.417 49.561 24.451 32.332c2.845 3.762 7.182 5.939 11.897 5.976h.118c4.671 0 8.991-2.107 11.868-5.793l25.354-32.482 78.467-49.592c1.548-.979 3.133-2.022 4.844-3.19 3.421-2.336 4.3-7.002 1.964-10.423-2.334-3.422-7-4.303-10.423-1.966z"/><path d="m425.574 240.971c-11.024-24.826-28.328-45.804-50.041-60.667-14.533-9.948-30.932-16.989-48.466-20.925l32.384-90.797c1.604-4.5.92-9.517-1.833-13.422s-7.249-6.236-12.026-6.236h-15.949l2.183-8.747c1.104-4.425.127-9.025-2.682-12.62-2.808-3.595-7.034-5.656-11.596-5.656h-22.253c.47-5.537-1.366-11.051-5.086-15.196-3.826-4.261-9.303-6.705-15.029-6.705h-39.246c-5.726 0-11.203 2.444-15.028 6.706-3.72 4.145-5.555 9.659-5.086 15.196h-22.253c-4.562 0-8.788 2.062-11.596 5.656-2.809 3.594-3.785 8.194-2.682 12.62l2.182 8.746h-15.949c-4.777 0-9.273 2.331-12.026 6.236s-3.438 8.922-1.833 13.421l32.386 90.804c-42.553 9.553-77.564 37.294-96.955 78.21-1.774 3.743-.178 8.215 3.565 9.989 3.742 1.773 8.215.178 9.989-3.565 21.761-45.915 65.524-73.327 117.067-73.327h75.682c52.945 0 97.232 28.548 118.467 76.367 10.084 22.71 13.779 47.509 10.686 71.714-3.255 25.458-14.017 48.916-31.121 67.838-2.778 3.073-2.539 7.815.534 10.593 1.435 1.297 3.233 1.936 5.027 1.936 2.046 0 4.085-.833 5.565-2.471 19.17-21.206 31.229-47.484 34.873-75.995 3.443-26.924-.657-54.486-11.854-79.703zm-80.388-177.047-33.132 92.895c-3.019-.362-6.062-.636-9.13-.821l22.975-92.074zm-57.647 91.768h-6.741l12.882-118.79h23.502zm-55.47-138.967c.578-.644 1.85-1.725 3.865-1.725h39.246c2.016 0 3.287 1.081 3.865 1.725.578.645 1.516 2.025 1.299 4.029l-.852 7.855c-.002.015-.003.031-.005.046l-13.777 127.037h-20.307l-13.776-127.035c-.002-.017-.004-.033-.005-.05l-.852-7.852c-.217-2.005.721-3.386 1.299-4.03zm-66.141 47.199h19.287l4.543 18.208c.852 3.409 3.91 5.686 7.271 5.686.602 0 1.212-.073 1.821-.225 4.02-1.003 6.464-5.074 5.462-9.093l-10.381-41.598h23.502l12.882 118.791h-6.741l-11.287-45.23c-1.004-4.02-5.078-6.465-9.093-5.461-4.02 1.003-6.464 5.074-5.462 9.093l10.455 41.897c-3.073.184-6.115.464-9.13.825z"/></g></g></svg>