<svg id="Capa_1" enable-background="new 0 0 505.582 505.582" height="512" viewBox="0 0 505.582 505.582" width="512" xmlns="http://www.w3.org/2000/svg"><g><g><path d="m408.62 196.314 2.341 63.831c6.136 167.296-163.273 284.552-317.688 219.887-7.706-3.227-7.635-14.17.112-17.297l21.675-8.748c92.788-37.448 150.864-130.435 143.802-230.246l-1.5-21.199v-39.937l76.326-44.362 77.434 44.362z" fill="#e17983"/><path d="m411.123 162.605-77.434-44.362-76.326 44.362v39.937l1.5 21.199c7.062 99.811-51.014 192.798-143.802 230.246l-19.407 7.832c-7.614 3.073-8.949 13.286-2.38 18.212 13.052 5.466 26.211 9.627 39.362 12.573.925-2.001 2.582-3.717 4.976-4.683l21.675-8.748c92.789-37.448 150.864-130.435 143.802-230.246l-1.5-21.199-.372-4.486c-.834-10.066 10.015-16.898 18.732-11.797 4.164 2.437 8.915 3.724 13.74 3.724 4.824 0 9.575-1.288 13.739-3.724l21.812-12.763 26.425 17.766c4.153 2.792 8.922 4.357 13.862 4.593l-.907-24.728z" fill="#da606c"/><path d="m351.873 50.516v46.368l.769.243c38.939 12.313 65.407 48.443 65.407 89.282v7.463c0 5.768-6.439 9.198-11.226 5.98l-28.451-19.129c-5.132-3.451-11.787-3.659-17.124-.535l-23.92 13.997c-2.248 1.315-5.03 1.315-7.278 0l-23.92-13.997c-5.338-3.123-11.992-2.915-17.124.535l-28.451 19.129c-4.787 3.218-11.226-.212-11.226-5.98v-7.463c0-40.84 26.468-76.969 65.407-89.282l.769-.243v-51.506c0-4.7 1.722-9.237 4.841-12.754l19.625-22.124c3.265-3.681 8.882-4.056 12.608-.842l14.152 12.209c3.948 3.406 4.183 9.445.512 13.148z" fill="#94cf6f"/></g><g><path d="m410.42 288.58c-4.114-.478-7.837 2.468-8.316 6.582-4.08 35.029-16.106 67.586-35.748 96.769-18.617 27.661-43.799 51.253-72.823 68.226-60.545 35.404-132.481 40.127-197.362 12.957-.76-.318-1.143-.896-1.137-1.72.005-.823.396-1.396 1.158-1.704l21.675-8.748c18.775-7.577 36.526-17.523 52.76-29.562 3.327-2.468 4.023-7.165 1.557-10.492-2.468-3.328-7.165-4.023-10.492-1.557-15.21 11.28-31.844 20.6-49.437 27.701l-21.675 8.748c-6.361 2.567-10.5 8.658-10.545 15.517s4.015 13.003 10.342 15.654c29.747 12.457 60.878 18.634 91.846 18.633 41.144-.001 81.995-10.907 118.883-32.478 30.96-18.104 57.827-43.277 77.696-72.799 20.99-31.187 33.844-65.979 38.202-103.408.478-4.116-2.469-7.84-6.584-8.319z"/><path d="m359.373 91.503v-37.899l13.195-13.308c3.208-3.236 4.946-7.703 4.77-12.257s-2.258-8.873-5.708-11.85l-14.152-12.209c-6.793-5.861-17.163-5.169-23.118 1.543l-19.625 22.124c-4.34 4.893-6.73 11.189-6.73 17.731v46.125c-11.041 4.06-21.189 9.959-30.222 17.578-3.166 2.67-3.567 7.402-.897 10.568 2.671 3.166 7.402 3.568 10.569.897 8.717-7.353 18.656-12.826 29.536-16.267l.77-.243c3.121-.984 5.244-3.88 5.244-7.153v-51.505c0-2.87 1.048-5.631 2.951-7.777l19.625-22.124c.542-.61 1.484-.671 2.099-.14l14.152 12.209c.407.351.507.779.519 1.076.011.297-.055.73-.434 1.112l-15.369 15.5c-1.393 1.405-2.174 3.303-2.174 5.281v46.368c0 3.272 2.121 6.167 5.242 7.152l.765.242c35.989 11.381 60.169 44.387 60.169 82.132v6.91l-27.993-18.821c-7.472-5.023-17.321-5.332-25.097-.784l-23.771 13.91-23.772-13.91c-7.771-4.547-17.624-4.239-25.096.785l-27.992 18.82v-6.909c0-15.055 3.972-29.909 11.485-42.958 2.067-3.589.833-8.175-2.756-10.242s-8.175-.832-10.242 2.757c-8.823 15.321-13.487 32.764-13.487 50.443v7.462c0 5.446 2.985 10.419 7.792 12.979.178.095.364.161.545.248l1.215 17.17c4.569 64.574-19.083 127.876-64.893 173.673-2.93 2.929-2.93 7.678-.001 10.607 1.465 1.465 3.384 2.197 5.304 2.197 1.919 0 3.838-.732 5.303-2.196 48.886-48.874 74.126-116.427 69.25-185.34l-1.23-17.387 28.077-18.877c2.725-1.832 6.316-1.945 9.151-.286l23.92 13.997c4.581 2.68 10.271 2.681 14.854 0l23.919-13.996c2.836-1.659 6.427-1.546 9.152.286l27.079 18.207 2.192 55.075c.161 4.037 3.484 7.202 7.489 7.202.101 0 .201-.002.303-.006 4.14-.165 7.361-3.653 7.196-7.792l-2.075-52.141c.469-.191.933-.398 1.386-.639 4.807-2.561 7.792-7.534 7.792-12.979v-7.462c0-42.737-26.398-80.298-66.176-94.909z"/></g></g></svg>