<svg id="Capa_1" enable-background="new 0 0 508.366 508.366" height="512" viewBox="0 0 508.366 508.366" width="512" xmlns="http://www.w3.org/2000/svg"><g><g><g><path d="m224.697 473.337c-140.794 48.915-253.398-122.923-152.346-232.487l147.478-159.9 24.109-24.626h26.77l17.819 24.626 147.478 159.9c101.051 109.563-11.552 281.401-152.345 232.487h-.001l-30.104-15.167z" fill="#f8f3f2"/></g><g><path d="m352.952 167.435-64.425-86.485-17.819-24.626h-26.77l-24.109 24.626-147.478 159.9c-101.052 109.564 11.552 281.402 152.345 232.487l11.093-5.83 17.766-9.338 30.104 15.167h.001c8.283 2.878 16.45 4.988 24.499 6.395l5.036-3.861c46.63-35.81 76.45-87.646 83.967-145.958 7.516-58.309-8.184-116.013-44.21-162.477zm-230.436 58.483.565-.612c-12.322 32.982-16.519 68.677-11.887 104.608 5.323 41.295 21.838 79.335 47.583 110.74 2.758 3.365-1.318 8.024-5.019 5.735-70.068-43.346-99.735-146.209-31.242-220.471z" fill="#f2eae7"/><path d="m281.218 497.596 2.441-24.259 17.354-13.327c87.626-67.293 103.83-193.006 36.133-280.319l-44.012-56.766c-2.986-3.852-4.607-8.587-4.607-13.461v-66.479l12.386-30.258c1.123-2.743-1.441-5.56-4.277-4.701l-29.387 8.905c-1.28.388-2.669.017-3.584-.958l-6.923-7.365c-1.39-1.478-3.738-1.478-5.128 0l-6.923 7.365c-.916.974-2.305 1.345-3.584.958l-29.387-8.905c-2.836-.86-5.4 1.958-4.277 4.701l12.386 30.258v66.478c0 4.874-1.621 9.609-4.607 13.461l-44.012 56.766c-67.697 87.314-51.492 213.027 36.133 280.319l17.354 13.327 2.441 24.259c.241 2.393 2.704 3.891 4.94 3.005l15.942-6.322c3.956-1.569 8.361-1.569 12.317 0l15.942 6.322c2.235.887 4.698-.611 4.939-3.004z" fill="#f8f3f2"/></g></g><g><path d="m341.988 293.126h-.042c-4.142.023-7.481 3.399-7.459 7.541.039 6.967-.397 14.033-1.296 21-3.272 25.384-12.763 49.652-27.447 70.182-2.41 3.369-1.632 8.054 1.737 10.463 1.322.946 2.847 1.4 4.357 1.4 2.338 0 4.643-1.09 6.106-3.137 16.12-22.537 26.536-49.159 30.124-76.99.983-7.629 1.461-15.367 1.419-23-.023-4.128-3.376-7.459-7.499-7.459z"/><path d="m205.045 196.434c-3.273-2.538-7.985-1.941-10.523 1.332-27.897 35.981-40.055 80.665-34.235 125.82 4.104 31.846 16.952 61.632 37.153 86.138 1.483 1.799 3.628 2.729 5.792 2.729 1.679 0 3.369-.561 4.766-1.713 3.196-2.635 3.651-7.361 1.017-10.558-18.402-22.323-30.107-49.473-33.85-78.514-5.307-41.168 5.778-81.907 31.212-114.711 2.538-3.274 1.942-7.985-1.332-10.523z"/><path d="m441.518 235.766-145.491-157.747v-33.559l11.827-28.893c1.626-3.973.842-8.414-2.047-11.589-2.89-3.176-7.238-4.376-11.346-3.13l-27.023 8.189-5.231-5.565c-2.074-2.207-5-3.472-8.029-3.472s-5.955 1.266-8.029 3.472l-5.231 5.565-27.024-8.189c-4.109-1.246-8.456-.046-11.345 3.13-2.889 3.175-3.674 7.616-2.047 11.59l11.827 28.893v33.559l-127.185 137.897c-2.808 3.045-2.616 7.79.428 10.598 1.442 1.33 3.265 1.987 5.083 1.987 2.021 0 4.037-.812 5.515-2.415l116.159-125.943v9.319c0 3.193-1.078 6.341-3.034 8.865l-44.013 56.766c-33.973 43.817-48.779 98.232-41.69 153.222 7.088 54.989 35.209 103.872 79.183 137.641l5.682 4.363c-26.47 6.469-52.996 5.179-77.468-3.888-26.1-9.669-49.421-28.208-65.668-52.203-16.265-24.021-24.861-52.621-24.204-80.531.72-30.606 12.332-59.725 33.578-84.208 2.715-3.128 2.379-7.865-.749-10.58-3.129-2.716-7.867-2.379-10.58.749-23.562 27.151-36.441 59.547-37.245 93.686-.729 31.002 8.781 62.714 26.779 89.294 17.987 26.563 43.869 47.111 72.877 57.858 15.979 5.92 32.708 8.88 49.727 8.879 14.111 0 28.42-2.042 42.654-6.113l1.517 15.082c.353 3.502 2.279 6.56 5.287 8.39 3.007 1.829 6.608 2.134 9.881.836l15.941-6.323c2.189-.868 4.6-.868 6.788 0l15.942 6.323c1.338.531 2.731.793 4.117.793 2.001 0 3.987-.549 5.764-1.63 3.007-1.83 4.934-4.887 5.287-8.39l1.518-15.085c14.181 4.044 28.464 6.059 42.55 6.059 24.53 0 48.452-6.1 70.118-18.172 3.619-2.016 4.917-6.584 2.901-10.202-2.017-3.619-6.583-4.917-10.202-2.901-21.05 11.729-54.002 22.617-95.69 12.296l5.706-4.382c74.462-57.183 101.134-157.523 64.861-244.009-1.603-3.819-5.996-5.617-9.817-4.016-3.82 1.602-5.618 5.998-4.016 9.817 33.641 80.21 8.9 173.273-60.164 226.311l-17.355 13.328c-1.64 1.259-2.687 3.14-2.894 5.198l-1.926 19.15-11.169-4.43c-5.754-2.283-12.092-2.283-17.847 0l-11.168 4.43-1.926-19.15c-.207-2.058-1.254-3.938-2.894-5.198l-17.355-13.328c-40.786-31.322-66.868-76.66-73.442-127.663s7.158-101.473 38.668-142.113l44.013-56.766c3.985-5.14 6.18-11.552 6.18-18.056v-66.477c0-.975-.19-1.939-.559-2.841l-9.215-22.513 21.378 6.479c4.035 1.223 8.336.074 11.224-2.999l4.021-4.278 4.021 4.278c2.888 3.073 7.188 4.222 11.225 3l21.377-6.479-9.215 22.513c-.369.902-.559 1.867-.559 2.841v66.479c0 6.504 2.195 12.917 6.18 18.056l44.013 56.766c3.976 5.128 7.735 10.514 11.172 16.009 2.196 3.511 6.824 4.578 10.336 2.381s4.578-6.824 2.381-10.336c-3.703-5.919-7.752-11.722-12.035-17.246l-44.013-56.766c-1.957-2.523-3.034-5.671-3.034-8.865v-9.319l134.465 145.791c25.545 27.697 38.223 61.08 36.664 96.54-1.609 36.582-18.464 72.047-46.242 97.304-3.065 2.787-3.291 7.53-.504 10.595 1.48 1.628 3.512 2.455 5.552 2.455 1.8 0 3.606-.645 5.043-1.951 30.715-27.927 49.354-67.198 51.137-107.744 1.735-39.542-12.312-76.67-40.627-107.369z"/></g></g></svg>