<svg id="Capa_1" enable-background="new 0 0 510.772 510.772" height="512" viewBox="0 0 510.772 510.772" width="512" xmlns="http://www.w3.org/2000/svg"><g><g><path d="m413.682 195.573c3.88 50.12-8.55 100.15-35.42 142.63l-83.77 132.39-12.43 17.61h-53.6l-12.17-17.61-83.77-132.39c-23.65-37.39-36.12-80.63-36.12-124.64 0-5.99.24-11.99.7-17.99.33-4.15 2.34-7.98 5.58-10.6l25.55-20.66c3.41-2.75 5.14-7.07 4.57-11.41-3.8-29.4 4.07-59.23 22.63-89.44 2.12-3.46 5.92-5.54 9.99-5.54h22.62c16.21-22.47 35.63-39.24 59.07-48.86 5.18-2.12 11.01-2.13 16.11.16 22.63 10.16 42.24 26.9 59.52 48.7h22.62c4.07 0 7.87 2.08 9.99 5.54 18.56 30.21 26.43 60.04 22.63 89.44-.57 4.34 1.16 8.66 4.57 11.41l25.55 20.66c1.62 1.31 2.93 2.92 3.88 4.73.95 1.8 1.53 3.79 1.7 5.87z" fill="#c5e97d"/></g><path d="m273.676 470.593-83.77-132.39c-23.65-37.39-36.12-80.63-36.12-124.64 0-5.99.24-11.99.7-17.99.33-4.15 2.34-7.98 5.58-10.6l25.55-20.66c3.41-2.75 5.14-7.07 4.57-11.41-3.8-29.4 4.07-59.23 22.63-89.44 2.12-3.46 5.92-5.54 9.99-5.54h12.605c6.165 0 11.968-2.835 15.83-7.64 9.572-11.908 20.206-21.945 32.024-29.861-6.407-4.324-13.087-8.075-20.045-11.198-5.1-2.29-10.93-2.28-16.11-.16-23.44 9.62-42.86 26.39-59.07 48.86h-22.62c-4.07 0-7.87 2.08-9.99 5.54-18.56 30.21-26.43 60.04-22.63 89.44.57 4.34-1.16 8.66-4.57 11.41l-25.55 20.66c-3.24 2.62-5.25 6.45-5.58 10.6-.46 6-.7 12-.7 17.99 0 44.01 12.47 87.25 36.12 124.64l83.77 132.39 12.17 17.61h53.6l1.912-2.709z" fill="#b1e254"/><g><path d="m294.491 458.598-4.251 29.637c-1.238 8.629-8.63 15.037-17.348 15.037h-35.002c-8.718 0-16.11-6.408-17.348-15.037l-4.251-29.637c-13.29-92.654-6.303-187.09 20.48-276.779l14.364-48.103c1.262-4.228 7.249-4.228 8.512 0l14.364 48.103c26.783 89.69 33.771 184.125 20.48 276.779z" fill="#e0f3b9"/><path d="m266.155 481.507c-8.718 0-16.11-6.408-17.348-15.037l-4.251-29.637c-13.29-92.654-6.303-187.09 20.48-276.779l1.238-4.146-6.627-22.192c-1.262-4.228-7.249-4.228-8.512 0l-14.364 48.103c-26.782 89.689-33.77 184.125-20.48 276.779l4.251 29.637c1.238 8.629 8.63 15.037 17.348 15.037h35.002c8.718 0 16.11-6.408 17.348-15.037l.965-6.729h-25.05z" fill="#d8efa7"/></g></g><g><path d="m97.385 236.149c4.133-.268 7.267-3.836 6.999-7.97-.69-10.64-.623-21.414.199-32.022.162-2.086 1.188-4.037 2.814-5.353l25.554-20.657c5.389-4.356 8.184-11.333 7.293-18.205-3.508-27.084 3.751-55.53 21.576-84.549.745-1.213 2.123-1.966 3.597-1.966h22.62c2.409 0 4.672-1.157 6.082-3.111 16.148-22.375 34.414-37.525 55.841-46.313 3.333-1.367 7.048-1.344 10.19.066 20.729 9.298 39.281 24.514 56.716 46.516 1.422 1.795 3.587 2.842 5.878 2.842h22.62c1.474 0 2.852.753 3.597 1.966 5.724 9.317 10.416 18.675 13.947 27.812 1.494 3.863 5.836 5.788 9.699 4.292 3.864-1.493 5.786-5.835 4.293-9.699-3.859-9.985-8.959-20.165-15.157-30.255-3.453-5.623-9.729-9.116-16.379-9.116h-19.03c-18.118-22.138-38.304-38.293-60.044-48.044-6.875-3.084-14.901-3.178-22.021-.258-22.736 9.326-42.913 25.566-60.02 48.302h-18.831c-6.649 0-12.925 3.493-16.378 9.115-19.667 32.017-27.631 63.753-23.671 94.327.229 1.768-.462 3.493-1.848 4.613l-25.554 20.657c-4.822 3.898-7.861 9.679-8.339 15.859-.876 11.314-.948 22.804-.212 34.151.257 3.968 3.556 7.015 7.477 7.015.163.001.327-.004.492-.015z"/></g><path d="m421.155 194.999c-.479-6.181-3.518-11.962-8.34-15.86l-25.553-20.657c-1.386-1.121-2.077-2.846-1.849-4.613 1.329-10.26 1.319-20.777-.029-31.26-.527-4.109-4.283-7.009-8.396-6.482-4.108.528-7.01 4.287-6.481 8.395 1.185 9.209 1.194 18.435.03 27.421-.889 6.873 1.906 13.849 7.295 18.204l25.552 20.656c1.628 1.316 2.654 3.267 2.815 5.354 3.732 48.178-8.441 97.2-34.278 138.035l-67.64 106.905c1.006-8.816 1.859-17.678 2.506-26.514.302-4.131-2.802-7.725-6.933-8.028-4.115-.303-7.726 2.801-8.027 6.932-1.079 14.728-2.681 29.547-4.761 44.046l-4.251 29.638c-.703 4.903-4.97 8.601-9.924 8.601h-35.002c-4.954 0-9.22-3.698-9.924-8.602l-4.251-29.637c-6.537-45.576-8.129-91.966-4.732-137.883s11.8-91.567 24.974-135.685l11.434-38.289 11.434 38.289c19.188 64.254 28.112 130.848 26.527 197.93-.098 4.141 3.18 7.577 7.321 7.675.06.001.12.002.181.002 4.06 0 7.397-3.242 7.494-7.323.204-8.626.237-17.244.102-25.85l35.301-26.778c3.301-2.503 3.946-7.208 1.443-10.508s-7.209-3.946-10.508-1.442l-26.785 20.32c-.771-17.567-2.248-35.073-4.428-52.488l35.792-31.174h15.811c4.143 0 7.5-3.358 7.5-7.5s-3.357-7.5-7.5-7.5h-11.119v-11.736c0-4.142-3.357-7.5-7.5-7.5s-7.5 3.358-7.5 7.5v15.822l-27.952 24.345c-2.652-17.313-6.003-34.523-10.047-51.599l36.174-36.466c2.918-2.94 2.898-7.689-.042-10.606-2.941-2.917-7.69-2.897-10.606.043l-29.793 30.033c-1.729-6.519-3.557-13.018-5.49-19.492l-6.517-21.823 26.066-49.414h17.792c4.143 0 7.5-3.358 7.5-7.5s-3.357-7.5-7.5-7.5h-14.815v-16.447c0-4.142-3.357-7.5-7.5-7.5s-7.5 3.358-7.5 7.5v22.091l-20.173 38.242-1.718-5.752c-1.523-5.099-6.121-8.524-11.442-8.524s-9.919 3.426-11.442 8.525l-1.718 5.752-20.174-38.243v-22.091c0-4.142-3.358-7.5-7.5-7.5s-7.5 3.358-7.5 7.5v16.448h-14.815c-4.142 0-7.5 3.358-7.5 7.5s3.358 7.5 7.5 7.5h17.792l26.067 49.415-6.516 21.822c-1.931 6.468-3.751 12.972-5.481 19.501l-29.802-30.042c-2.918-2.941-7.666-2.96-10.606-.043-2.941 2.917-2.96 7.666-.043 10.606l36.188 36.48c-4.034 17.055-7.387 34.276-10.042 51.602l-27.97-24.362v-15.822c0-4.142-3.358-7.5-7.5-7.5s-7.5 3.358-7.5 7.5v11.736h-11.119c-4.142 0-7.5 3.358-7.5 7.5s3.358 7.5 7.5 7.5h15.811l35.808 31.188c-1.377 10.983-2.487 21.996-3.303 33.026-.479 6.476-.852 12.961-1.137 19.451l-26.791-20.323c-3.298-2.503-8.005-1.858-10.508 1.442s-1.858 8.005 1.442 10.508l35.309 26.785c-.445 28.266.933 56.579 4.139 84.656l-67.618-106.871c-14.645-23.146-24.859-48.494-30.36-75.339-.831-4.059-4.796-6.674-8.853-5.842-4.058.831-6.673 4.795-5.842 8.853 5.866 28.63 16.759 55.663 32.378 80.349l83.769 132.396c.365.576.796 1.084 1.276 1.523l1.889 13.168c1.756 12.241 12.405 21.472 24.771 21.472h35.002c12.367 0 23.017-9.231 24.771-21.472l1.889-13.169c.48-.439.911-.947 1.276-1.523l83.769-132.396c27.554-43.55 40.537-95.832 36.556-147.213z"/></svg>