<svg id="Capa_1" enable-background="new 0 0 512.129 512.129" height="512" viewBox="0 0 512.129 512.129" width="512" xmlns="http://www.w3.org/2000/svg"><g><g><g><path d="m367.711 121.375-7.742-15.216c-11.473-22.549-34.63-36.749-59.929-36.749h-87.951c-25.299 0-48.456 14.2-59.929 36.748l-7.742 15.216-33.048 61.096 35.868 80.811h236.383l15.125-75.625z" fill="#81c758"/></g><path d="m367.711 121.375-7.742-15.216c-.548-1.078-1.117-2.125-1.718-3.164-9.902 2.428-19.56 6.287-28.71 11.516-5.126 2.929-11.392 3.045-16.657.375-17.336-8.793-36.707-13.51-56.82-13.51s-39.484 4.718-56.82 13.51c-5.265 2.67-11.531 2.554-16.657-.375-9.15-5.229-18.796-9.109-28.697-11.537-.601 1.039-1.181 2.107-1.73 3.185l-7.742 15.216-33.048 61.095 19.032 42.879 16.836 37.932h229.361 7.022l15.125-75.625z" fill="#6fbe43"/><path d="m306.643 473.176 12.894 13.34c31.764 32.862 87.441 12.469 90.464-33.135l5.881-88.699c.529-7.973 2.504-15.783 5.83-23.048l43.115-94.173c37.954-82.9-57.656-162.958-132.598-111.03l-10.859 7.524-54.984 53.883-75.629-53.883-10.859-7.524c-74.942-51.928-170.552 28.13-132.598 111.03l43.115 94.173c3.326 7.265 5.302 15.075 5.83 23.048l5.881 88.699c3.023 45.604 58.701 65.997 90.464 33.135l12.894-13.34 50.578-66.03z" fill="#81c758"/><g><path d="m165.153 453.382-5.881-88.699c-.529-7.973-2.504-15.783-5.83-23.048l-43.115-94.173c-24.145-52.738 5.777-104.332 50.032-121.52-70.745-27.745-147.772 45.698-113.057 121.521l43.115 94.173c3.326 7.265 5.302 15.075 5.83 23.048l5.881 88.699c2.83 42.681 51.786 63.273 84.089 38.799-11.63-8.553-19.947-21.952-21.064-38.8z" fill="#6fbe43"/></g><path d="m271.932 121.375v-51.965l14.81-40.2c3.88-10.533-3.914-21.711-15.139-21.711h-32.095c-11.225 0-19.019 11.178-15.139 21.711l14.81 40.2v51.964 55.552l36.138 3.443z" fill="#6fbe43"/><g><path d="m358.892 251.217-52.249 221.959c-4.338 18.429-20.784 31.453-39.717 31.453h-21.722c-18.933 0-35.379-13.024-39.717-31.453l-52.249-221.959c-15.61-66.312 34.702-129.843 102.827-129.843 68.124.001 118.436 63.531 102.827 129.843z" fill="#94cf6f"/></g></g><path d="m477.916 185.941c-5.031-19.245-16.479-37.11-32.236-50.305-15.758-13.194-35.356-21.326-55.186-22.897-6.221-.492-12.419-.331-18.547.423l-5.294-10.406c-2.517-4.945-5.606-9.63-9.183-13.925-2.651-3.184-7.382-3.614-10.562-.964-3.184 2.65-3.615 7.379-.965 10.562 2.862 3.437 5.332 7.181 7.341 11.129l3.451 6.782c-10.008 2.976-19.687 7.628-28.777 13.926l-6.396 4.431c-12.6-8.972-26.91-15.232-42.13-18.411v-39.375h20.608c7.553 0 14.943 1.409 21.969 4.188.905.358 1.839.528 2.757.528 2.986 0 5.811-1.797 6.977-4.743 1.523-3.852-.364-8.209-4.216-9.733-8.789-3.477-18.037-5.24-27.486-5.24h-17.352l11.093-30.107c2.669-7.246 1.625-15.354-2.791-21.688-4.418-6.335-11.666-10.116-19.387-10.116h-32.095c-7.723 0-14.97 3.782-19.387 10.116-4.416 6.334-5.459 14.442-2.789 21.687l11.092 30.107h-16.336c-28.269 0-53.794 15.651-66.613 40.846l-5.294 10.404c-6.129-.754-12.328-.914-18.547-.421-19.829 1.571-39.428 9.703-55.186 22.897-15.757 13.194-27.205 31.06-32.236 50.305-5.546 21.218-3.378 43.571 6.27 64.643l43.115 94.173c2.958 6.46 4.696 13.331 5.166 20.421l5.881 88.699c1.598 24.1 16.679 44.232 39.358 52.539 6.927 2.537 14.024 3.774 21.021 3.774 15.912 0 31.301-6.399 42.96-18.462l4.729-4.892c8.258 15.34 24.336 25.293 42.49 25.293h21.723c18.154 0 34.232-9.952 42.49-25.292l4.729 4.892c11.66 12.063 27.047 18.463 42.96 18.462 6.996 0 14.097-1.238 21.021-3.774 22.68-8.307 37.761-28.438 39.358-52.539l5.881-88.699c.47-7.09 2.208-13.961 5.166-20.421l43.115-94.173c9.648-21.073 11.816-43.426 6.27-64.644zm-245.489-167.246c1.638-2.348 4.219-3.695 7.082-3.695h32.095c2.862 0 5.443 1.347 7.081 3.695s2.01 5.236 1.021 7.922l-14.811 40.2c-.307.83-.463 1.708-.463 2.593v44.778c-2.771-.202-5.56-.314-8.367-.314-3.15 0-6.28.132-9.384.386v-44.85c0-.885-.156-1.763-.463-2.593l-14.811-40.201c-.989-2.685-.618-5.572 1.02-7.921zm-73.582 90.865c10.247-20.139 30.648-32.649 53.244-32.649h19.592v39.595c-14.84 3.243-28.795 9.422-41.114 18.194l-6.396-4.431c-9.089-6.298-18.769-10.95-28.777-13.927zm299.163 134.78-43.115 94.173c-3.719 8.122-5.903 16.76-6.494 25.673l-5.881 88.699c-1.2 18.094-12.522 33.209-29.551 39.446-17.028 6.236-35.435 2.011-48.037-11.027l-10.048-10.395 37.651-159.946c.949-4.032-1.551-8.07-5.582-9.019-4.032-.951-8.069 1.55-9.02 5.582l-38.59 163.933c-3.558 15.115-16.888 25.671-32.416 25.671h-21.723c-15.528 0-28.858-10.557-32.416-25.671l-16.393-69.639c-.949-4.032-4.988-6.53-9.02-5.582-4.031.949-6.531 4.987-5.582 9.019l15.454 65.653-10.048 10.396c-12.603 13.039-31.009 17.266-48.037 11.027-17.028-6.237-28.351-21.352-29.551-39.446l-5.881-88.699c-.591-8.914-2.775-17.551-6.494-25.673l-43.113-94.175c-19.253-42.053-.204-78.645 21.958-97.203 22.163-18.559 61.533-30.882 99.549-4.54l2.895 2.006c-3.969 3.749-7.699 7.808-11.152 12.168-21.59 27.262-29.402 62.312-21.435 96.164l28.526 121.181c.813 3.454 3.894 5.783 7.294 5.783.569 0 1.147-.065 1.726-.201 4.031-.949 6.531-4.987 5.582-9.019l-28.526-121.181c-6.912-29.363-.136-59.766 18.592-83.414s46.77-37.21 76.935-37.21 58.207 13.562 76.935 37.21 25.504 54.051 18.592 83.414l-5.636 23.939c-.949 4.032 1.55 8.07 5.582 9.019 4.03.951 8.07-1.55 9.02-5.582l5.636-23.939c7.968-33.851.155-68.901-21.435-96.163-3.453-4.36-7.184-8.419-11.152-12.169l2.896-2.006c38.017-26.341 77.385-14.018 99.549 4.54 22.16 18.558 41.209 55.151 21.956 97.203z"/></g></svg>