<svg id="Capa_1" enable-background="new 0 0 511.486 511.486" height="512" viewBox="0 0 511.486 511.486" width="512" xmlns="http://www.w3.org/2000/svg"><g><g><path d="m206.83 41.073-26.25-31.02c-2.83-3.34-7.97-3.41-10.89-.14l-16.71 18.72s-10.927 37.719-9.908 37.561 28.027 34.588 28.027 34.588l41.538-39.326z" fill="#b1e254"/><path d="m377.557 91.54-23.839-27.316c-2.57-2.941-7.238-3.003-9.89-.123l-15.175 16.485s-9.924 33.215-8.998 33.076 25.453 30.459 25.453 30.459l37.722-34.631z" fill="#d8efa7"/><g><g id="XMLID_215_"><g><path d="m360.057 115.307-31.404-34.722-14.231-15.736c-1.063-1.18-3.07-.449-3.07 1.118v61.977l-5.267 14.319.989 8.648 6.267 32.227 64.617-26.518z" fill="#b1e254"/><path d="m404.902 179.31-18.908-51.366v-42.568c0-1.647-2.18-2.325-3.169-.986l-5.267 7.151-17.5 23.768-31.431 42.683-8.97 37.626 51.493 42.42 34.781-42.2z" fill="#c5e97d"/><path d="m388.192 199.317-82.106-57.054-24.538 66.653s3.269 36.792 4.723 35.294 57.301 41.865 57.301 41.865l52.356-56.687z" fill="#d8efa7"/><path d="m404.902 179.31-16.71 20.007-44.218 52.915-27.676 38.555 96.532 46.913 26.79-50.454v-13.615z" fill="#b1e254"/><path d="m281.548 208.916-28.407 77.158 6.689 74.778 112.786 52.979 77.342-86.488z" fill="#c5e97d"/><path d="m484.029 394.494-44.409-120.863-144.12 172.43 138.643 28.013 57.173-55.158z" fill="#d8efa7"/><path d="m253.141 286.074 6.69 74.777 97.538 45.817-2.034-18.823c-1.11-10.281-7.858-18.669-16.977-22.233l-55.571-155.826-1.239-.871z" fill="#b1e254"/><path d="m439.62 446.061c-1.029-2.046 4.22-27.703 4.22-27.703-.699-.572-190.699-132.284-190.699-132.284s-50.66 129.079-49.238 130.05 190.621 61.893 190.621 61.893 46.125-29.909 45.096-31.956z" fill="#b1e254"/><path d="m203.902 416.124c1.06.724 106.537 34.785 160.113 52.061l-8.682-80.34c-.91-8.425-5.605-15.579-12.289-19.848-3.25-2.076-5.692-5.201-6.988-8.834l-7.392-20.726c-40.225-27.892-75.525-52.362-75.525-52.362s-50.658 129.078-49.237 130.049z" fill="#a5d44d"/><path d="m484.029 394.494 1.417-.625c3.932-1.726 8.455.775 8.918 4.931l9.468 84.963c.899 8.068-5.62 15.109-13.989 15.109h-278.222c-8.133 0-14.572-6.666-14.04-14.535l5.766-85.343c.282-4.218 4.777-6.904 8.791-5.248l1.072.44 134.878 55.672c3.415 1.409 7.283 1.365 10.662-.123l79.363-34.995z" fill="#c5e97d"/></g></g></g><g><g><g id="XMLID_194_"><g><path d="m164.966 92.934c.016-.056.027-.094.027-.094l5.8-20.507.004-63.43c-.392.29-.769.63-1.108 1.01l-16.71 18.72s-10.927 37.719-9.908 37.561c.707-.11 13.863 16.502 21.895 26.74z" fill="#a5d44d"/><path d="m187.56 68.063-34.58-39.43-15.67-17.87c-1.17-1.34-3.38-.51-3.38 1.27v70.38l-5.8 16.26 1.089 9.821 6.901 36.597 71.152-30.114z" fill="#c5e97d"/><path d="m236.94 140.743-20.82-58.33v-48.34c0-1.87-2.4-2.64-3.49-1.12l-5.8 8.12-19.27 26.99-34.61 48.47-9.878 42.728 56.701 48.171 38.298-47.922z" fill="#d8efa7"/><path d="m136.12 145.09 15.684-6.638c8.035-27.791 13.189-45.613 13.189-45.613l5.8-20.507v-23.387l-17.813-20.312-15.67-17.87c-1.17-1.34-3.38-.51-3.38 1.27v70.38l-5.8 16.26 1.089 9.821z" fill="#b1e254"/><path d="m218.54 163.463-90.41-64.79-27.02 75.69s3.6 41.781 5.201 40.079 63.096 47.541 63.096 47.541l57.651-64.373z" fill="#c5e97d"/><path d="m236.94 140.743-18.4 22.72-48.69 60.09-30.475 43.781 106.296 53.274 29.499-57.295v-15.46z" fill="#b1e254"/><path d="m106.311 214.442c.581-.618 9.06 5.482 19.623 13.5 12.641-43.735 24.138-83.5 31.335-108.388l-29.139-20.881-27.02 75.69s3.6 41.781 5.201 40.079z" fill="#b1e254"/><path d="m101.11 174.363-31.28 87.62 7.366 84.916 124.193 60.163 85.164-98.215z" fill="#d8efa7"/><path d="m365.76 484.327-3.887-35.969-3.124 1.377c-3.378 1.488-7.247 1.532-10.662.123l-134.878-55.672-1.072-.44c-4.014-1.656-8.509 1.03-8.791 5.248l-5.766 85.343c-.532 7.869 5.907 14.535 14.04 14.535h152.674c1.476-4.648 2-9.6 1.466-14.545z" fill="#b1e254"/><g fill="#c5e97d"><path d="m324.07 385.103-48.9-137.25-158.696 195.809 152.665 31.81 62.955-62.636z"/><path d="m89.799 353.004c14.059-48.682 30.631-106.026 44.636-154.474l-33.326-24.168-31.28 87.62 7.366 84.916z"/><path d="m324.07 385.103-5.052-14.181-138.933 63.177-41.533-17.679-22.078 27.242 152.665 31.81 62.955-62.637z"/></g><path d="m275.17 443.662c-1.133-2.323 4.647-31.46 4.647-31.46-.77-.65-209.987-150.219-209.987-150.219s-55.784 146.58-54.218 147.682c1.565 1.102 209.9 70.285 209.9 70.285s50.791-33.965 49.658-36.288z" fill="#b1e254"/></g></g></g></g><path d="m279.817 412.202c-.146-.123-7.764-5.584-20.013-14.354l-71.761 32.632c-5.07 2.306-10.876 2.376-16 .195l-80.853-34.414c-7.056-3.004-10.764-10.793-8.637-18.161 7.693-26.649 16.584-57.427 25.621-88.702-22.722-16.246-38.344-27.414-38.344-27.414s-55.784 146.58-54.218 147.682c.367.258 209.9 70.285 209.9 70.285s50.791-33.965 49.658-36.288c-1.133-2.325 4.647-31.461 4.647-31.461z" fill="#a5d44d"/><path d="m324.07 385.103 1.56-.71c4.33-1.96 9.31.88 9.82 5.6l10.426 96.482c.99 9.162-6.188 17.158-15.404 17.158h-306.361c-8.955 0-16.045-7.57-15.46-16.506l6.349-96.914c.31-4.79 5.26-7.84 9.68-5.96l1.18.5 148.52 63.22c3.76 1.6 8.02 1.55 11.74-.14l87.39-39.74z" fill="#c5e97d"/><path d="m344.084 469.895h-264.008c-8.955 0-16.045-7.57-15.46-16.506l3.323-50.725-42.079-17.911-1.18-.5c-4.42-1.88-9.37 1.17-9.68 5.96l-6.349 96.914c-.585 8.936 6.505 16.506 15.46 16.506h306.361c9.215 0 16.394-7.996 15.404-17.158z" fill="#b1e254"/></g><g><path d="m511.371 503.179-11.063-102.349c-.474-4.383-3.043-8.304-6.873-10.488-1.818-1.037-3.83-1.615-5.87-1.756l-52.928-148.283c-1.393-3.901-5.683-5.935-9.585-4.542-3.901 1.393-5.935 5.684-4.542 9.584l9.574 26.823-16.485 20.35-59.048-42.25 47.005-58.024 8.209 22.998c1.095 3.068 3.982 4.981 7.063 4.981.837 0 1.688-.141 2.521-.438 3.901-1.393 5.935-5.684 4.542-9.584l-31.011-86.881v-42.238c0-4.031-2.579-7.565-6.418-8.795-3.631-1.164-7.539.008-9.933 2.913l-17.436-20.599c-2.62-3.095-6.447-4.9-10.501-4.954-4.051-.049-7.928 1.651-10.628 4.676l-9.4 10.532-8.522-9.718c-2.561-2.921-6.565-3.926-10.202-2.557s-5.986 4.763-5.986 8.649v62.089l-23.721 66.457c-1.393 3.901.641 8.192 4.542 9.585.833.297 1.685.438 2.521.438 3.081 0 5.968-1.913 7.063-4.98l15.565-43.606 66.893 47.863-34.387 42.448-41.662-29.81c-3.369-2.41-8.053-1.633-10.464 1.735-2.41 3.369-1.633 8.053 1.735 10.464l112.201 80.282-41.346 51.038-14.636-10.473c-3.367-2.41-8.053-1.633-10.464 1.735-2.41 3.369-1.633 8.053 1.735 10.464l83.01 59.396-53.696 24.415c-3.771 1.714-5.438 6.161-3.723 9.932 1.714 3.77 6.159 5.437 9.932 3.723l110.625-50.3 10.881 100.667c.416 3.844 3.667 6.694 7.447 6.694.269 0 .542-.014.815-.044 4.119-.444 7.097-4.144 6.651-8.262zm-162.982-438.008 19.132 22.603-8.464 11.854-20.528-23.409zm-29.972 61.968c.289-.81.437-1.662.437-2.521v-48.085l31.249 35.634-23.356 32.71-11.679-8.356zm20.529 26.466 38.935-54.529v25.541c0 .859.147 1.712.437 2.521l17.335 48.564-9.475 11.697zm36.069 210.372 60.974-75.267 37.308 104.521-35.095 15.957z"/><path d="m342.903 389.186c-.498-4.604-3.196-8.721-7.218-11.015-2.07-1.18-4.377-1.802-6.704-1.877l-105.36-295.178v-47.04c0-4.114-2.632-7.722-6.55-8.977-3.92-1.256-8.157.151-10.548 3.499l-.193.271-20.027-23.659c-2.753-3.253-6.777-5.152-11.04-5.208-4.271-.079-8.334 1.735-11.172 4.916l-11.06 12.391-10.079-11.494c-2.615-2.981-6.701-4.006-10.415-2.609-3.711 1.397-6.11 4.862-6.11 8.828v69.082l-42.327 118.583c-1.393 3.901.641 8.192 4.542 9.585.833.297 1.685.438 2.521.438 3.081 0 5.969-1.913 7.063-4.98l6.601-18.493 133.317 95.391-46.951 57.956-112.395-80.422 7.962-22.306c1.393-3.901-.641-8.192-4.542-9.584-3.902-1.393-8.193.642-9.585 4.542l-51.546 144.41c-2.349.141-4.662.841-6.718 2.105-3.988 2.453-6.551 6.707-6.857 11.379l-7.425 113.421c-.271 4.133 2.861 7.703 6.994 7.974.167.011.333.017.497.017 3.918 0 7.217-3.044 7.477-7.011l7.376-112.672 59.295 25.238c3.81 1.621 8.216-.152 9.838-3.963 1.622-3.812-.152-8.216-3.963-9.838l-52.172-22.206 38.125-106.812 185.359 132.628-75.896 34.509c-1.801.819-3.879.844-5.699.069l-60.091-25.577c-3.812-1.622-8.216.152-9.838 3.963s.152 8.216 3.963 9.838l60.092 25.577c5.681 2.418 12.162 2.338 17.782-.216l138.843-63.13 12.205 112.909c.416 3.844 3.667 6.694 7.447 6.694.269 0 .542-.014.815-.044 4.118-.445 7.096-4.145 6.65-8.263zm-114.443-249.891-11.304 13.954-53.746-38.456 45.211-63.319v30.941c0 .859.147 1.712.437 2.521zm-53.395-124.146 22.273 26.314-10.379 14.535-23.963-27.327zm-33.637 67.266v-55.587l36.577 41.711-26.794 37.525-14.148-10.124 3.928-11.004c.289-.81.437-1.662.437-2.521zm-9.609 28.218 75.878 54.292-39.224 48.418-58.401-41.787zm48.875 111.455 53.67-66.251 32.326 90.566-19.087 23.561zm22.721 126.252 69.18-85.396 42.174 118.153-40.094 18.23z"/></g></g></svg>