<svg id="Capa_1" enable-background="new 0 0 512 512" height="512" viewBox="0 0 512 512" width="512" xmlns="http://www.w3.org/2000/svg"><g><g><path d="m419.745 195.201 37.195-9.716c24.367-6.365 37.028-33.237 26.422-56.08-2.351-5.065-1.038-11.075 3.21-14.698l3.012-2.568c18.293-15.597 18.993-43.622 1.503-60.114 1.467-18.164-13.688-33.319-31.852-31.852-16.492-17.491-44.517-16.79-60.114 1.503l-2.568 3.012c-3.623 4.249-9.633 5.561-14.698 3.21-22.842-10.605-49.714 2.055-56.08 26.422l-9.716 37.195-9.258 49.433 62.93 56.158z" fill="#94cf6f"/><g><path d="m9.862 485.244 137.899-252.218c37.833-69.197 101.299-120.795 176.762-143.708 60.216-18.283 116.48 37.981 98.197 98.197l-.119.391c-22.842 75.231-74.197 138.548-143.094 176.426l-251.984 138.533c-11.385 6.258-23.894-6.22-17.661-17.621z" fill="#f8f3f2"/><path d="m191.45 267.646c37.833-69.197 101.299-120.795 176.761-143.708 16.333-4.959 32.383-4.423 46.726.178-17.547-28.942-53.228-46.087-90.415-34.797-75.463 22.913-138.928 74.51-176.761 143.707l-137.899 252.218c-6.233 11.4 6.276 23.879 17.662 17.621l50.501-27.765z" fill="#f2eae7"/></g></g><g><path d="m322.189 326.206c-11.127 9.252-22.973 17.691-35.327 25.199l-54.277-54.276c-2.927-2.927-7.672-2.927-10.597 0-2.927 2.927-2.927 7.672 0 10.597l51.41 51.41-134.176 73.766-16.136-16.136c-2.927-2.927-7.672-2.927-10.597 0-2.927 2.927-2.927 7.672 0 10.597l13.057 13.057-101.634 55.878c-3.354 1.843-5.849-.242-6.535-.926-.685-.683-2.778-3.174-.941-6.533l44.981-82.271c1.985-3.632.651-8.185-2.98-10.171-3.634-1.986-8.186-.651-10.171 2.98l-44.98 82.272c-4.409 8.063-3 17.842 3.506 24.333 3.969 3.959 9.155 6.019 14.425 6.018 3.37 0 6.774-.842 9.916-2.569l251.984-138.533c17.171-9.439 33.54-20.599 48.655-33.168 3.182-2.646 3.616-7.371.97-10.553-2.647-3.183-7.373-3.617-10.553-.971z"/><path d="m498.672 49.054c-.149-9.585-4.002-18.764-10.852-25.614-6.849-6.85-16.029-10.703-25.615-10.852-9.097-8.335-21.139-12.879-33.552-12.573-13.58.34-26.422 6.463-35.237 16.8l-2.567 3.011c-1.434 1.682-3.834 2.207-5.84 1.275-10.353-4.807-22.093-5.759-33.051-2.682-3.985 1.119-6.308 5.257-5.189 9.241s5.255 6.307 9.24 5.189c7.629-2.142 15.474-1.503 22.687 1.846 8.088 3.756 17.773 1.64 23.557-5.145l2.567-3.011c6.055-7.101 14.878-11.308 24.206-11.541 9.342-.231 18.352 3.527 24.754 10.318 1.561 1.656 3.793 2.517 6.056 2.328 6.466-.526 12.801 1.81 17.385 6.394 4.585 4.585 6.916 10.922 6.394 17.386-.184 2.267.673 4.495 2.328 6.056 6.79 6.402 10.55 15.423 10.317 24.752s-4.438 18.152-11.541 24.207l-3.011 2.567c-6.784 5.783-8.901 15.47-5.146 23.557 4.117 8.868 4.089 19.024-.078 27.868-4.168 8.845-11.982 15.334-21.441 17.805l-23.736 6.2c7.02-29.316-1.358-59.16-22.952-80.754-21.851-21.853-52.153-30.167-81.805-22.689l6.473-24.779c.565-2.163 1.367-4.301 2.386-6.357 1.839-3.708.322-8.204-3.387-10.043-3.709-1.836-8.204-.321-10.042 3.387-1.474 2.972-2.637 6.076-3.459 9.226l-8.852 33.882c-33.593 11.785-64.617 29.129-92.369 51.692-31.211 25.375-56.82 56.137-76.118 91.43l-77.42 141.608c-1.985 3.632-.651 8.185 2.98 10.171 1.142.624 2.373.92 3.588.92 2.651 0 5.221-1.41 6.582-3.9l31.046-56.784 23.355 23.355c1.463 1.463 3.381 2.195 5.299 2.195s3.836-.731 5.299-2.195c2.927-2.927 2.927-7.672 0-10.597l-26.46-26.46 38.886-71.123c13.785-25.212 30.957-47.993 51.226-67.999l68.537 68.538c1.464 1.464 3.381 2.195 5.3 2.195 1.917 0 3.836-.731 5.3-2.195 2.927-2.927 2.927-7.672 0-10.597l-68.192-68.192c3.345-2.982 6.758-5.899 10.253-8.739 29.696-24.143 63.322-42.023 99.942-53.142 25.589-7.768 52.151-1.118 71.059 17.789 18.909 18.909 25.558 45.473 17.791 71.053l-.121.398c-5.615 18.495-13.097 36.416-22.245 53.45l-21.922-21.922c-2.928-2.927-7.672-2.927-10.598 0-2.927 2.927-2.927 7.672 0 10.597l24.817 24.817c-11.379 18.758-24.841 36.26-40.116 52.034-2.88 2.974-2.804 7.718.17 10.596 2.976 2.88 7.72 2.803 10.596-.17 31.262-32.283 55.303-71.449 69.994-113.853l32.708-8.544c13.77-3.597 25.145-13.043 31.211-25.918 6.065-12.874 6.107-27.66.114-40.569-.931-2.004-.407-4.405 1.275-5.839l3.012-2.568c10.338-8.814 16.461-21.657 16.799-35.237.308-12.413-4.24-24.455-12.575-33.55z"/></g></g></svg>