<svg id="Capa_1" enable-background="new 0 0 507.114 507.114" height="512" viewBox="0 0 507.114 507.114" width="512" xmlns="http://www.w3.org/2000/svg"><g><g><path d="m455.596 111.11 9.899-33.049c1.162-3.88.101-8.085-2.763-10.949l-23.104-23.104c-2.864-2.864-7.069-3.925-10.949-2.763l-33.049 9.899-39.524 11.684-47.567 118.856 26.993 20.9 113.017-57.836z" fill="#c9e7b4"/><path d="m407.187 190.413 88.529-50.133c4.415-2.5 5.233-8.52 1.645-12.108l-18.597-18.597c-1.97-1.97-4.852-2.718-7.531-1.955l-100.822 28.708-101.834 38.625 70.899 63.372z" fill="#b8de9c"/><path d="m371.161 137.076 28.709-100.821c.763-2.679.015-5.561-1.955-7.531l-18.597-18.597c-3.588-3.588-9.608-2.77-12.108 1.645l-50.133 88.529-64.148 98.742 86.55 36.262z" fill="#b8de9c"/><g><path d="m79.774 490.824 10.633-7.893c1.324-.983 2.819-1.713 4.408-2.154l13.977-3.874c13.417-3.719 25.399-11.399 34.381-22.037l18.071-21.402c1.417-1.678 3.252-2.952 5.319-3.693l11.232-4.027c11.665-4.182 21.993-11.42 29.904-20.958l17.201-20.738c2.521-3.039 5.835-5.321 9.574-6.59l14.155-4.807c14.109-4.791 26.295-14.01 34.744-26.284l17.516-25.447c1.077-1.565 2.722-2.649 4.584-3.021 17.624-3.525 33.185-13.77 43.388-28.567l16.829-24.407 10.281-6.368c36.327-22.501 42.18-72.992 11.965-103.208l-36.545-36.545c-30.215-30.215-80.706-24.362-103.208 11.965l-2.509 4.051c-2.545 4.109-5.913 7.646-9.892 10.39l-18.374 12.669c-14.797 10.203-25.042 25.764-28.567 43.388-.373 1.863-1.456 3.507-3.021 4.584l-25.447 17.516c-12.274 8.448-21.493 20.634-26.284 34.744l-4.827 14.216c-1.256 3.699-3.513 6.978-6.52 9.472l-20.788 17.242c-9.538 7.911-16.776 18.239-20.958 29.904l-3.107 8.668c-1.343 3.747-3.653 7.073-6.694 9.641l-19.321 16.314c-10.638 8.982-18.318 20.964-22.037 34.381l-3.874 13.977c-.441 1.589-1.171 3.084-2.154 4.408l-7.893 10.633c-12.758 17.186-10.997 41.124 4.137 56.259l3.462 3.462c15.135 15.133 39.074 16.894 56.259 4.136z" fill="#a6d786"/><path d="m63.364 447.357 7.893-10.633c.983-1.324 1.713-2.819 2.154-4.408l3.874-13.977c3.719-13.417 11.399-25.399 22.037-34.381l19.321-16.314c3.042-2.568 5.351-5.894 6.694-9.641l3.107-8.668c4.182-11.665 11.42-21.993 20.958-29.904l20.788-17.242c3.007-2.494 5.264-5.773 6.52-9.472l4.827-14.216c4.791-14.11 14.01-26.295 26.284-34.744l25.448-17.516c1.565-1.077 2.648-2.722 3.021-4.584 3.525-17.624 13.77-33.185 28.567-43.388l18.374-12.669c3.979-2.744 7.347-6.281 9.892-10.39l2.509-4.051c12.812-20.685 34.7-31.473 56.752-31.364l-.992-.992c-30.215-30.216-80.707-24.362-103.208 11.965l-2.509 4.051c-2.545 4.109-5.913 7.646-9.892 10.39l-18.374 12.669c-14.797 10.203-25.042 25.764-28.567 43.388-.373 1.863-1.456 3.507-3.021 4.584l-25.448 17.516c-12.274 8.448-21.493 20.634-26.284 34.743l-4.827 14.216c-1.256 3.699-3.513 6.978-6.52 9.472l-20.788 17.242c-9.538 7.911-16.776 18.239-20.958 29.904l-3.107 8.668c-1.343 3.747-3.653 7.073-6.694 9.641l-19.321 16.313c-10.638 8.982-18.318 20.964-22.037 34.381l-3.874 13.977c-.441 1.589-1.171 3.084-2.154 4.408l-7.893 10.633c-12.758 17.186-10.997 41.124 4.137 56.259l3.462 3.462c10.631 10.631 25.62 14.66 39.547 11.697-10.88-15.029-11.067-35.71.302-51.025z" fill="#94cf6f"/><g fill="#81c758"><ellipse cx="339.478" cy="219.575" rx="13.185" ry="20.729" transform="matrix(.707 -.707 .707 .707 -55.832 304.359)"/><ellipse cx="244.826" cy="212.331" rx="13.185" ry="20.729" transform="matrix(.707 -.707 .707 .707 -78.433 235.309)"/><ellipse cx="168.329" cy="304.875" rx="13.185" ry="20.729" transform="matrix(.707 -.707 .707 .707 -166.277 208.322)"/><ellipse cx="150.757" cy="385.298" rx="13.185" ry="20.729" transform="matrix(.707 -.707 .707 .707 -228.291 219.452)"/><ellipse cx="77.04" cy="410.318" rx="13.185" ry="20.729" transform="matrix(.707 -.707 .707 .707 -267.574 174.655)"/></g></g></g><g><path d="m327.579 300.36c-7.126 5.054-15.059 8.48-23.577 10.184-3.795.759-7.095 2.934-9.29 6.123l-17.517 25.448c-7.481 10.87-18.482 19.192-30.977 23.435l-14.156 4.807c-5.054 1.716-9.526 4.795-12.935 8.904l-17.2 20.738c-7.049 8.498-16.269 14.959-26.663 18.686l-11.232 4.027c-3.308 1.186-6.253 3.231-8.519 5.915l-18.07 21.402c-8.042 9.524-18.642 16.318-30.653 19.648l-13.979 3.875c-2.49.69-4.803 1.821-6.875 3.359l-10.633 7.893c-14.092 10.46-34.074 8.99-46.484-3.418l-3.463-3.463c-12.409-12.41-13.879-32.394-3.418-46.485l7.893-10.632c1.539-2.072 2.669-4.386 3.359-6.875l3.875-13.978c3.329-12.013 10.123-22.612 19.647-30.654l19.321-16.314c4.047-3.417 7.129-7.858 8.915-12.841l3.106-8.667c1.194-3.329 2.698-6.595 4.47-9.708 2.05-3.6.793-8.179-2.807-10.229-3.601-2.05-8.179-.793-10.229 2.807-2.2 3.864-4.068 7.923-5.554 12.067l-3.108 8.669c-.896 2.5-2.442 4.727-4.472 6.441l-19.321 16.313c-11.84 9.997-20.285 23.174-24.425 38.107l-3.875 13.978c-.195.703-.514 1.356-.948 1.941l-7.894 10.633c-14.857 20.017-12.769 48.404 4.859 66.031l3.463 3.463c9.754 9.754 22.801 14.75 35.902 14.75 10.576 0 21.189-3.256 30.13-9.894l10.634-7.894c.585-.434 1.237-.753 1.939-.948l13.978-3.874c14.933-4.139 28.11-12.585 38.108-24.426l18.07-21.402c.563-.667 1.297-1.176 2.12-1.471l11.232-4.027c12.922-4.633 24.384-12.666 33.146-23.23l17.2-20.738c1.638-1.974 3.786-3.453 6.213-4.277l14.155-4.807c15.533-5.274 29.209-15.621 38.51-29.133l17.472-25.382c10.565-2.125 20.4-6.377 29.234-12.642 3.378-2.396 4.175-7.077 1.779-10.456-2.395-3.378-7.074-4.176-10.456-1.779z"/><path d="m502.666 122.868-18.598-18.597c-3.892-3.892-9.601-5.372-14.888-3.865l-2.786.793 6.285-20.986c1.956-6.531.177-13.583-4.644-18.404l-23.104-23.104c-4.822-4.821-11.874-6.602-18.405-4.645l-19.934 5.97.49-1.72c1.509-5.292.028-10.998-3.864-14.89l-18.597-18.596c-3.381-3.381-8.034-4.952-12.774-4.308-4.737.644-8.807 3.399-11.164 7.56l-16.074 28.385c-2.041 3.604-.773 8.181 2.831 10.222 3.604 2.042 8.181.774 10.222-2.831l16.073-28.384c.025-.045.044-.077.131-.089.084-.011.112.013.148.05l18.598 18.597c.045.045.062.11.045.173l-25.546 89.715-10.416-10.414c-8.154-8.154-17.883-14.145-28.436-17.727l13.508-23.854c2.041-3.604.773-8.181-2.831-10.222-3.603-2.041-8.181-.773-10.222 2.831l-15.757 27.825c-5.555-.628-11.228-.63-16.927.029-22.521 2.611-42.284 15.163-54.223 34.437l-2.509 4.051c-2.012 3.249-4.628 5.996-7.774 8.165l-18.373 12.669c-16.468 11.354-27.704 28.402-31.648 48.013l-25.383 17.471c-13.512 9.301-23.857 22.978-29.132 38.51l-4.827 14.215c-.812 2.389-2.266 4.502-4.207 6.112l-15.119 12.541c-3.188 2.644-3.629 7.373-.984 10.561 1.483 1.788 3.622 2.712 5.776 2.712 1.688 0 3.385-.566 4.784-1.728l15.119-12.541c4.076-3.38 7.131-7.818 8.834-12.833l4.827-14.216c4.243-12.494 12.565-23.496 23.434-30.978l25.446-17.515c3.191-2.196 5.366-5.497 6.125-9.292 3.16-15.8 12.206-29.539 25.471-38.685l18.372-12.669c4.861-3.352 8.903-7.596 12.012-12.616l2.509-4.051c9.511-15.355 25.256-25.354 43.198-27.435 17.943-2.083 35.559 4.052 48.33 16.824l36.545 36.545c12.772 12.772 18.904 30.387 16.825 48.329-2.08 17.942-12.08 33.688-27.436 43.199l-10.28 6.368c-.88.545-1.638 1.267-2.226 2.119l-12.25 17.766c-2.351 3.41-1.493 8.081 1.917 10.432 3.412 2.352 8.082 1.493 10.433-1.917l11.358-16.474 8.946-5.541c19.274-11.939 31.826-31.703 34.437-54.224.617-5.321.651-10.618.144-15.818l84.912-48.085c4.16-2.356 6.916-6.425 7.56-11.163.643-4.735-.927-9.391-4.307-12.772zm-71.835-74.438c1.24-.37 2.579-.034 3.493.882l23.104 23.104c.915.915 1.253 2.254.882 3.494l-9.034 30.164-66.915 19.054 19.357-67.978zm61.19 85.323-80.725 45.714c-3.538-10.933-9.649-21.014-18.056-29.421l-9.667-9.667 89.715-25.546c.062-.019.128 0 .174.045l18.597 18.597c.038.037.062.062.051.149-.013.086-.044.103-.089.129z"/><path d="m324.851 234.202c6.695 6.694 14.82 10.223 22.025 10.223 4.841 0 9.266-1.593 12.562-4.889.001 0 .001 0 .001-.001 8.2-8.202 5.857-23.395-5.335-34.587-11.193-11.192-26.388-13.535-34.588-5.333s-5.857 23.394 5.335 34.587zm5.272-23.981c.317-.318 1.003-.517 1.955-.517 2.545 0 6.997 1.428 11.42 5.851 6.074 6.075 6.5 12.205 5.335 13.374-1.166 1.168-7.297.743-13.375-5.333-6.076-6.077-6.501-12.209-5.335-13.375z"/><path d="m252.172 237.199c4.964 0 9.4-1.692 12.615-4.907 4.305-4.305 5.878-10.799 4.317-17.817-1.313-5.904-4.741-11.859-9.651-16.77-11.193-11.192-26.383-13.537-34.588-5.334-8.201 8.202-5.858 23.394 5.334 34.587 4.911 4.911 10.866 8.338 16.771 9.651 1.776.395 3.519.59 5.202.59zm-16.7-34.222c.317-.318 1.003-.517 1.955-.517 2.545 0 6.997 1.428 11.42 5.851 2.877 2.877 4.924 6.311 5.615 9.42.462 2.075.191 3.481-.282 3.954s-1.881.743-3.953.282c-3.109-.692-6.543-2.739-9.42-5.616-6.077-6.076-6.501-12.208-5.335-13.374z"/><path d="m175.726 329.724c4.841 0 9.268-1.593 12.563-4.889 8.201-8.202 5.857-23.394-5.335-34.587-11.193-11.191-26.384-13.536-34.587-5.333-8.201 8.202-5.859 23.395 5.334 34.588 6.696 6.693 14.821 10.221 22.025 10.221zm-16.751-34.204c.317-.317 1.002-.517 1.953-.517 2.545 0 6.997 1.429 11.42 5.851 6.076 6.076 6.501 12.208 5.334 13.374-1.166 1.166-7.297.743-13.374-5.333-6.076-6.076-6.499-12.208-5.333-13.375z"/><path d="m126.478 383.155c1.313 5.903 4.741 11.859 9.651 16.77 4.911 4.911 10.866 8.338 16.771 9.651 1.776.396 3.52.59 5.202.59 4.963 0 9.399-1.692 12.614-4.907h.001c4.305-4.305 5.878-10.798 4.317-17.816-1.313-5.904-4.741-11.86-9.651-16.77-11.192-11.194-26.387-13.536-34.587-5.334-4.305 4.303-5.878 10.797-4.318 17.816zm14.924-7.211c.318-.318 1.003-.518 1.955-.518 2.545 0 6.997 1.429 11.42 5.852 2.877 2.877 4.924 6.31 5.615 9.419.462 2.075.191 3.481-.281 3.954-.001 0-.001 0-.001.001-.473.472-1.881.742-3.953.281-3.109-.691-6.543-2.738-9.42-5.616-2.878-2.877-4.925-6.311-5.616-9.42-.462-2.074-.191-3.48.281-3.953z"/><path d="m84.385 435.185c4.964 0 9.4-1.692 12.615-4.907 4.306-4.305 5.879-10.799 4.318-17.818-1.313-5.903-4.741-11.859-9.651-16.77-4.911-4.911-10.866-8.338-16.771-9.651-7.021-1.563-13.513.013-17.816 4.317-4.306 4.305-5.879 10.799-4.318 17.817 1.313 5.904 4.741 11.86 9.651 16.77 4.911 4.911 10.866 8.338 16.77 9.651 1.777.397 3.519.591 5.202.591zm-16.981-30.267c-.462-2.075-.191-3.481.282-3.955.301-.301.98-.52 1.971-.52.564 0 1.229.071 1.982.239 3.109.691 6.543 2.738 9.42 5.616 2.878 2.877 4.925 6.311 5.616 9.42.462 2.075.191 3.48-.281 3.953h-.001c-.472.473-1.881.744-3.953.282-3.109-.691-6.543-2.738-9.421-5.616-2.877-2.877-4.923-6.31-5.615-9.419z"/><path d="m338.32 169.918c1.464 1.464 3.384 2.196 5.303 2.196s3.839-.732 5.304-2.197c2.929-2.929 2.929-7.678-.001-10.607l-5.996-5.996c-2.928-2.929-7.677-2.928-10.606 0-2.929 2.929-2.929 7.678.001 10.607z"/><path d="m285.685 159.499c1.919 0 3.839-.732 5.304-2.197 2.929-2.929 2.929-7.678-.001-10.607l-4.921-4.92c-2.928-2.929-7.677-2.928-10.606 0-2.929 2.929-2.929 7.678.001 10.607l4.921 4.92c1.464 1.465 3.384 2.197 5.302 2.197z"/><path d="m307.597 257.773c-2.93-2.929-7.678-2.929-10.607 0s-2.929 7.678 0 10.606l6.246 6.246c1.465 1.464 3.385 2.197 5.304 2.197s3.839-.732 5.304-2.197c2.929-2.929 2.929-7.678 0-10.606z"/><path d="m224.41 294.722c-2.929 2.929-2.929 7.678.001 10.606l6.256 6.255c1.465 1.464 3.383 2.196 5.303 2.196 1.919 0 3.84-.732 5.304-2.197 2.929-2.929 2.929-7.678-.001-10.606l-6.256-6.255c-2.929-2.929-7.678-2.93-10.607.001z"/><path d="m204.461 257.828c1.464 1.464 3.384 2.196 5.303 2.196s3.839-.732 5.304-2.197c2.929-2.929 2.929-7.678-.001-10.607l-5.04-5.04c-2.928-2.929-7.677-2.928-10.606 0-2.929 2.929-2.929 7.678.001 10.607z"/><path d="m128.051 324.158c-2.929-2.928-7.678-2.929-10.606 0-2.93 2.929-2.93 7.678-.001 10.607l5.039 5.04c1.465 1.464 3.384 2.197 5.304 2.197 1.919 0 3.839-.732 5.303-2.196 2.93-2.929 2.93-7.678.001-10.607z"/><path d="m56.787 452.256c-2.931-2.929-7.68-2.928-10.606.001-2.929 2.929-2.928 7.678.001 10.607l3.814 3.813c1.465 1.464 3.384 2.196 5.303 2.196 1.92 0 3.84-.732 5.304-2.197 2.929-2.929 2.928-7.678-.001-10.607z"/><path d="m199.049 355.604 4.276 4.276c1.465 1.464 3.385 2.197 5.304 2.197s3.839-.732 5.304-2.197c2.929-2.929 2.929-7.678 0-10.606l-4.276-4.276c-2.93-2.929-7.678-2.929-10.607 0-2.93 2.929-2.93 7.678-.001 10.606z"/></g></g></svg>