<svg id="Capa_1" enable-background="new 0 0 508.455 508.455" height="512" viewBox="0 0 508.455 508.455" width="512" xmlns="http://www.w3.org/2000/svg"><g><g><path d="m216.335 403.284 12.733 23.125c1.25 2.271 1.906 4.821 1.906 7.413v52.065c0 8.321 6.746 15.067 15.067 15.067h18.374c8.321 0 15.067-6.746 15.067-15.067v-52.065c0-2.592.656-5.142 1.906-7.413l12.733-23.125 40.31-72.959h-154.747z" fill="#c5e97d"/><path d="m321.146 330.325h-133.842c-.981 3.293-1.854 6.615-2.615 9.963l31.646 62.996 9.056 16.448c9.573 1.158 19.211 1.763 28.836 1.763 10.34 0 20.697-.683 30.978-2.02l8.915-16.192 31.024-56.152c-1.022-5.668-2.35-11.279-3.998-16.806z" fill="#b1e254"/><path d="m223.447 46.996-12.142-24.56c-1.534-3.103-5.53-4.035-8.271-1.921-14.899 11.485-26.942 26.314-35.137 43.311l-9.04 18.76-2.168 56.657 26.459 15.534 39.433-60.089 18.505-15.481z" fill="#d8efa7"/><path d="m349.597 82.586-9.04-18.76c-8.24-17.091-20.372-31.989-35.384-43.501-2.662-2.041-6.518-1.245-8.148 1.686l-10.608 19.075-14.368 70.404 58.226 46.931 24.926-62.121z" fill="#d8efa7"/><path d="m286.417 41.086c-5.32-11.97-13.9-22.41-25.04-29.99l-2.256-1.536c-1.83-1.246-4.236-1.244-6.065.003l-2.248 1.533c-12.94 8.81-22.44 21.48-27.36 35.9-2.51 7.32-3.83 15.1-3.83 23.05l-.16.23s16.853 65.37 17.545 65.37 26.146 2.287 26.146 2.287l26.01-49.828 3.399-19.69c-.221-9.549-2.351-18.829-6.141-27.329z" fill="#e0f3b9"/><g><g id="XMLID_126_"><g><g fill="#c5e97d"><path d="m222.472 45.023-11.167-22.587c-1.534-3.103-5.53-4.035-8.271-1.921-14.899 11.485-26.942 26.314-35.137 43.311l-9.677 19.922-1.341 50.517c14.201-35.962 37.026-66.786 65.593-89.242z"/><path d="m178.1 154.731s-12.201-54.761-17.571-68.121l-1.14-2.83c-.19-.47-.64-.75-1.11-.75-.27 0-.54.1-.77.29-19.54 16.46-32.62 39.3-36.95 64.48l-.62 3.65 14.969 62.209s42.803-20.521 43.17-21.353c.369-.833.022-37.575.022-37.575z"/><path d="m222.157 72.116-2.7-1.84-2.74-1.86-5.43 3.7c-18.51 12.59-30.16 32.87-31.86 54.99l.44 5.754 13.435 50.17 57.684 1.819 3.221-53.083c-.3-23.91-12.26-46.18-32.05-59.65z"/><path d="m328.897 125.666c-2.08-21.56-13.63-41.23-31.73-53.55l-4.87-3.32-.56-.38-5.44 3.7c-19.79 13.47-31.75 35.74-32.05 59.65l6.669 54.607h64.333l4.117-43.619z"/></g><path d="m224.677 160.736c-5.9-14.33-15.91-26.87-29.1-35.84l-1.82-1.25c-2.49-1.69-5.77-1.69-8.26 0l-1.83 1.25c-1.46.99-2.88 2.03-4.26 3.11l-4.17 3.49c-13.61 12.2-22.64 28.69-25.63 46.68v.01l-14.906 77.989 113.847-11.698-21.527-74.875z" fill="#e0f3b9"/><path d="m386.547 147.066c-4.33-25.18-17.41-48.02-36.95-64.48-.23-.19-.5-.29-.77-.29-.47 0-.92.28-1.11.75l-1.14 2.83c-5.37 13.36-9.44 27.21-12.14 41.35l-10.928 71.06 60.281-6.776 3.377-40.794z" fill="#c5e97d"/><path d="m358.847 178.176c-2.96-17.83-11.86-34.19-25.27-46.36 0 0-7.22-5.85-8.79-6.92l-1.83-1.25c-2.49-1.69-5.77-1.69-8.26 0l-1.82 1.25c-13.19 8.97-23.2 21.51-29.1 35.84l-9.719 71.175 56.961 4.181 31.355-15.861z" fill="#e0f3b9"/><path d="m283.777 160.736c-5.9-9.78-13.89-18.32-23.6-24.93l-5.93-4.04c-.02.32-.02.64-.02.96 0-.32 0-.64-.02-.96l-5.93 4.04c-9.71 6.61-17.7 15.15-23.6 24.93-7.44 12.33-11.54 26.63-11.54 41.47l6.32 88.753h69.381l6.479-88.753c0-14.84-4.1-29.14-11.54-41.47z" fill="#d8efa7"/><path d="m394.317 152.566-.2-.36c-1.43-2.6-4.71-3.25-6.95-1.49l-5.81 4.6c-8.47 6.69-16.02 14.38-22.51 22.86v.01c-8.88 11.57-15.78 24.63-20.35 38.64l-6.802 81.308 58.97 10.971 23.832-44.299 1.11-17.63c2.08-32.92-5.31-65.75-21.29-94.61z" fill="#d8efa7"/><path d="m338.497 216.826c-6.25-7.59-13.75-14.23-22.28-19.62l-4.24-2.68c-2.4-1.51-5.49-1.33-7.7.45l-8.96 7.23c-15.65 12.63-26.84 29.93-31.94 49.38l-3.47 13.22 5.384 84.574h58.611l36.015-78.354c-1.24-20.13-8.88-39.04-21.42-54.2z" fill="#c5e97d"/><path d="m414.497 264.806-3.48-.37c-17.46-1.85-34.95.47-51.1 6.59-10.1 3.81-19.67 9.11-28.38 15.8l-47.231 35.603-19.28 22.799 4.012 44.318 42.109 9.551c58.79-16.58 101.8-67.7 107.59-129.1v-.01c.25-2.591-1.64-4.901-4.24-5.181z" fill="#b1e254"/><path d="m167.654 110.919c-2.562-9.906-5.362-19.924-7.125-24.309l-1.14-2.83c-.19-.47-.64-.75-1.11-.75-.27 0-.54.1-.77.29-19.54 16.46-32.62 39.3-36.95 64.48l-.62 3.65 14.969 62.209s1.794-.86 4.649-2.234c1.466-37.117 11.728-70.618 28.097-100.506z" fill="#b1e254"/><path d="m169.957 216.826c-4.57-14.01-11.47-27.07-20.35-38.64v-.01c-6.49-8.48-14.04-16.17-22.51-22.86l-5.81-4.6c-2.24-1.76-5.52-1.11-6.95 1.49l-.2.36c-15.98 28.86-23.37 61.69-21.29 94.61l2.987 34.247 29.166 25.968 55.218-18.033z" fill="#d8efa7"/><path d="m251.231 274.576-6.153-22.99c-5.1-19.45-16.29-36.75-31.94-49.38l-8.96-7.23c-2.21-1.78-5.3-1.96-7.7-.45l-4.24 2.68c-8.53 5.39-16.03 12.03-22.28 19.62-12.54 15.16-20.18 34.07-21.42 54.2l24.41 88.582s72.308-9.887 72.03-10.228c-.279-.34 6.253-74.804 6.253-74.804z" fill="#c5e97d"/><path d="m140.705 220.23c0-16.226.813-33.006 3.891-48.202-5.487-6.453-10.787-11.411-17.499-16.712l-5.81-4.6c-2.24-1.76-5.52-1.11-6.95 1.49l-.2.36c-15.98 28.86-23.37 61.69-21.29 94.61l2.988 34.247 29.165 25.968 28.813-9.41c-8.459-24.11-13.108-50.327-13.108-77.751z" fill="#c5e97d"/><path d="m245.955 336.115-35.527-23.749-4.37-3.18-29.14-22.36c-8.71-6.69-18.28-11.99-28.38-15.8-16.15-6.12-33.64-8.44-51.1-6.59l-3.48.37c-2.6.28-4.49 2.59-4.24 5.18v.01c5.79 61.4 48.8 112.52 107.59 129.1 0 0 53.051-15.789 52.248-16.057-.804-.268-3.601-46.924-3.601-46.924z" fill="#b1e254"/></g></g></g><path d="m145.967 270.088c-15.429-5.417-31.99-7.405-48.53-5.652l-3.48.37c-2.6.28-4.49 2.59-4.24 5.18v.01c5.79 61.4 48.8 112.52 107.59 129.1 0 0 10.241-3.048 21.655-6.488-35.941-29.611-62.3-72.705-72.995-122.52z" fill="#a5d44d"/><path d="m297.727 311.766c11.31 22.54 16.49 48.01 14.48 73.8l-1.06 13.53c-2.75.78-5.54 1.48-8.36 2.1l-1.05.23c-15.66 3.38-31.58 5.07-47.51 5.07-16.28 0-32.57-1.77-48.56-5.3-2.82-.62-5.61-1.32-8.36-2.1l-1.06-13.53c-1.99-25.56 3.08-50.81 14.18-73.2 7.88-15.9 18.8-30.36 32.4-42.47l5.72-5.09 2.15-1.91c2.01-1.79 5.05-1.79 7.06 0l2.15 1.91 5.72 5.09c13.43 11.96 24.25 26.21 32.1 41.87z" fill="#d8efa7"/><path d="m195.893 370.272c-.159 5.071-.044 10.177.355 15.294l1.06 13.53c2.75.78 5.54 1.48 8.36 2.1 10.359 2.287 20.844 3.835 31.37 4.642-15.137-9.774-28.977-21.774-41.145-35.566z" fill="#c5e97d"/></g><path d="m422.282 260.542.813-12.893c.258-4.087.375-8.299.349-12.518-.026-4.125-3.379-7.452-7.499-7.452h-.049c-4.142.026-7.479 3.406-7.452 7.548.024 3.873-.083 7.734-.319 11.477l-.625 9.904c-14.026-.981-27.931.517-41.171 4.341-2.64-16.635-9.379-32.265-19.408-45.518 7.734-21.391 21.181-40.08 39.083-54.228l3.129-2.473c7.65 14.403 13.111 29.836 16.248 45.922.793 4.065 4.721 6.72 8.797 5.926 4.065-.792 6.719-4.731 5.926-8.796-3.621-18.573-10.088-36.354-19.219-52.845l-.204-.368c-1.595-2.881-4.24-4.967-7.344-5.856-5.022-25.115-18.281-47.944-37.639-64.75l-8.381-17.387c-9.713-20.152-24.595-37.499-43.035-50.165-1.741-1.196-3.904-1.602-5.962-1.119-2.056.483-3.812 1.811-4.839 3.657l-7.096 12.763c-5.499-8.083-12.508-15.181-20.786-20.814l-5.287-3.597c-2.545-1.732-5.892-1.732-8.438 0l-5.285 3.597c-9.642 6.56-17.543 15.054-23.34 24.767l-8.102-16.395c-.964-1.95-2.727-3.386-4.832-3.935-2.104-.548-4.345-.157-6.138 1.075-9.537 6.55-18.168 14.391-25.655 23.304-2.664 3.172-2.252 7.903.92 10.567 3.172 2.665 7.902 2.253 10.566-.919 4.735-5.638 9.986-10.788 15.677-15.381l9.697 19.621c-1.406 4.737-2.375 9.626-2.872 14.613-.001.001-.003.002-.004.003l-5.436 3.698c-14.335 9.753-24.906 23.547-30.593 39.418-2.172-7.546-4.718-14.985-7.642-22.253l-.86-2.138 5.645-11.711c1.799-3.731.232-8.214-3.499-10.013-3.73-1.799-8.215-.232-10.013 3.499l-7.348 15.244c-19.358 16.806-32.616 39.635-37.638 64.749-3.104.89-5.75 2.976-7.347 5.861l-.199.36c-16.703 30.168-24.385 64.304-22.214 98.715l.813 12.894c-2.72 2.515-4.296 6.212-3.924 10.153 3.125 33.125 16.423 63.813 38.455 88.747 22.032 24.933 50.852 41.905 83.341 49.082 2.478.547 4.96 1.041 7.443 1.507l11.01 19.997c.639 1.159.976 2.471.976 3.795v52.064c0 12.444 10.124 22.567 22.567 22.567h18.373c12.443 0 22.567-10.124 22.567-22.567v-52.064c0-1.324.337-2.636.977-3.796l11.251-20.436c1.372-.271 5.201-1.067 5.201-1.067 32.489-7.177 61.309-24.149 83.341-49.082s35.33-55.621 38.455-88.747c.37-3.94-1.206-7.637-3.926-10.152zm-151.672 3.752-2.283-2.033 2.303-8.774c4.729-18.026 14.896-33.74 29.398-45.444l8.475-6.839 3.71 2.344c21.958 13.868 36.529 36.985 39.721 62.594-8.8 3.836-17.183 8.759-24.963 14.73l-26.497 20.337c-7.837-13.719-17.871-26.238-29.864-36.915zm-62.7 36.861-26.426-20.283c-7.78-5.971-16.163-10.895-24.963-14.73 3.192-25.609 17.763-48.726 39.721-62.594l3.71-2.343 8.475 6.839c14.503 11.704 24.669 27.418 29.399 45.445l2.302 8.773-2.284 2.033c-11.992 10.676-22.06 23.12-29.934 36.86zm-20.019-170.062 1.735-1.181 1.736 1.181c10.819 7.362 19.37 17.41 24.914 29.201-4.624 8.515-7.831 17.792-9.441 27.474-4.45-2.458-9.956-2.365-14.363.419l-4.24 2.678c-5.604 3.539-10.793 7.597-15.528 12.082-4.041-9.443-9.109-18.351-15.104-26.597 3.854-18.322 14.761-34.69 30.291-45.257zm102.625-52.777 1.217-.828 1.217.828c12.948 8.811 22.161 21.764 26.315 36.561-3.051-.091-6.121.76-8.782 2.571l-1.828 1.244c-10.638 7.238-19.455 16.632-25.973 27.56-5.213-6.304-11.339-11.928-18.28-16.65l-2.491-1.695c1.458-19.954 11.915-38.234 28.605-49.591zm29.706 112.549-4.241-2.679c-4.406-2.782-9.913-2.876-14.365-.417-1.609-9.68-4.824-18.951-9.444-27.464 5.543-11.796 14.097-21.848 24.918-29.211l1.737-1.182 1.736 1.181c15.524 10.563 26.43 26.924 30.288 45.24-6 8.249-11.061 17.167-15.104 26.615-4.734-4.484-9.921-8.544-15.525-12.083zm-67.731-48.862 1.736-1.181 1.736 1.181c19 12.928 30.698 33.965 31.766 56.784-15.48 13.444-26.38 30.962-31.609 50.892l-1.156 4.405c-.491-.028-.983-.028-1.475 0l-1.155-4.404c-5.23-19.931-16.129-37.449-31.61-50.893 1.068-22.819 12.766-43.855 31.767-56.784zm126.522 5.605-2.311 1.826c-5.069 4.007-9.819 8.339-14.229 12.961-4.364-12.464-11.491-23.842-20.809-33.189.052-.189.103-.378.14-.574 2.225-11.635 5.426-23.13 9.536-34.254 14.355 14.47 24.054 33.057 27.673 53.23zm-76.578-119.901c13.23 10.591 23.987 24.069 31.368 39.38l6.678 13.855-.86 2.138c-2.925 7.272-5.472 14.715-7.645 22.266-5.703-15.887-16.301-29.71-30.589-39.431l-1.494-1.016c-.53-8.067-2.298-15.923-5.171-23.32zm-47.41-10.409 1.066-.726 1.068.726c15.746 10.714 25.848 27.959 27.624 46.777l-2.705 1.84c-12.271 8.349-21.795 19.749-27.852 32.809-5.917-12.759-15.148-23.926-27.012-32.219.325-5.878 1.456-11.614 3.318-17.071.01-.029.019-.057.029-.086 4.414-12.874 12.894-24.178 24.464-32.05zm-39.52 61.018 1.217-.828 1.217.828c16.691 11.357 27.147 29.637 28.606 49.591l-2.491 1.695c-6.941 4.723-13.069 10.347-18.283 16.651-6.519-10.927-15.332-20.324-25.971-27.563l-1.825-1.242c-2.663-1.812-5.734-2.663-8.784-2.572 4.138-14.791 13.318-27.717 26.314-36.56zm-58.39 16.062c4.11 11.124 7.312 22.619 9.536 34.254.038.197.089.388.141.578-9.32 9.347-16.454 20.724-20.818 33.189-4.41-4.621-9.153-8.958-14.222-12.964l-2.31-1.826c3.618-20.173 13.317-38.76 27.673-53.231zm-37.792 64.352 3.128 2.473c17.903 14.149 31.351 32.838 39.083 54.228-10.029 13.254-16.771 28.883-19.411 45.518-13.24-3.824-27.144-5.321-41.168-4.341l-.625-9.905c-1.931-30.59 4.631-60.94 18.993-87.973zm155.495 264.061c-1.855 3.369-2.837 7.184-2.837 11.032v52.064c0 4.173-3.395 7.567-7.567 7.567h-18.373c-4.173 0-7.567-3.395-7.567-7.567v-52.064c0-3.848-.981-7.663-2.836-11.031l-5.524-10.033c8.024.845 16.061 1.279 24.1 1.279 8.758 0 17.517-.518 26.261-1.522zm25.34-28.694c-30.832 6.658-62.08 6.583-92.877-.219-.98-.217-1.945-.469-2.916-.705l-.637-8.186c-.371-4.76-.479-9.661-.323-14.565.133-4.14-3.116-7.604-7.257-7.736-.081-.002-.162-.004-.244-.004-4.03 0-7.361 3.202-7.491 7.26-.174 5.451-.053 10.905.36 16.21l.183 2.347c-49.76-18.229-85.417-62.882-91.493-116.523l.763-.081c26.583-2.816 52.914 4.595 74.127 20.876l28.674 22.008c-3.063 6.922-5.622 14.096-7.613 21.49-1.077 4 1.293 8.115 5.292 9.192 4 1.077 8.115-1.292 9.192-5.292 6.748-25.065 20.553-47.428 39.922-64.672l6.408-5.706 6.408 5.706c30.812 27.431 47.295 68.362 44.092 109.49l-.638 8.187c-.961.233-3.932.923-3.932.923zm19.341-5.594.183-2.352c1.916-24.604-2.507-49.14-12.324-71.318l28.745-22.063c21.212-16.28 47.538-23.693 74.127-20.876l.763.081c-6.078 53.652-41.746 98.311-91.494 116.528z"/></g></svg>