<svg id="Capa_1" enable-background="new 0 0 511.345 511.345" height="512" viewBox="0 0 511.345 511.345" width="512" xmlns="http://www.w3.org/2000/svg"><g><g><path d="m368.558 272.571v37.276c0 13.576 4.388 26.788 12.511 37.666l44.653 59.8c28.494 38.16 1.262 92.481-46.363 92.481h-69.946c-47.624 0-74.857-54.321-46.363-92.481l44.653-59.8c8.122-10.878 12.511-24.09 12.511-37.666v-37.276-52.088h49.103z" fill="#f9f7f7"/><path d="m337.413 220.483h-17.199v52.089 37.276c0 13.576-4.388 26.788-12.511 37.666l-44.653 59.8c-27.56 36.909-2.986 88.933 41.748 92.305-.001 0-.001-.001-.002-.002 1.517.115 3.055.178 4.617.178h.968c10.676-8.342 19.594-19.088 25.948-31.761 14.764-29.451 12.951-63.775-4.406-91.276-2.431-3.852-2.36-8.771.274-12.487l4.475-6.313c8.122-10.878 12.511-24.09 12.511-37.666v-13.464c0-9.228 8.477-16.07 17.52-14.231.619.126 1.237.257 1.854.394v-20.419l.759-52.089z" fill="#f2eae7"/><path d="m470.112 207.526-5.445-46.499-30.11-20.1c-54.6-36.43-125.75-36.43-180.34 0l-39.98 26.68c-60.54 40.39-19.53 134.57 51.28 117.78l48.43-11.49c20.01-4.75 40.86-4.75 60.88 0l48.43 11.49c37.81 8.97 67.13-13.71 77.01-42.95z" fill="#e17983"/><path d="m430.02 138.006c-53.961-33.485-122.711-32.51-175.802 2.921l-39.98 26.68c-24.235 16.168-32.184 40.954-28.475 63.793 7.657-1.223 15.411-1.856 23.165-1.856 11.382 0 22.767 1.33 33.832 3.952l61.184 14.521c8.516 2.019 17.069 3.043 25.421 3.044h.013c22.252 0 43.219-7.205 60.628-20.835 16.022-12.544 28.04-29.625 34.752-49.399 4.771-14.05 6.523-28.605 5.262-42.821z" fill="#da606c"/><path d="m239.463 212.369v47.088c0 17.15 5.544 33.84 15.804 47.581l56.407 75.542c35.995 48.205 1.594 116.825-58.567 116.825h-88.359c-60.161 0-94.562-68.62-58.567-116.825l56.407-75.542c10.261-13.741 15.804-30.431 15.804-47.581v-47.088-56.103h60.706z" fill="#f9f7f7"/><path d="m300.78 479.637h-88.359c-60.161 0-94.562-65.893-58.567-112.183l56.407-72.54c10.261-13.195 15.804-29.222 15.804-45.69v-6.53c0-6.534 5.99-11.45 12.391-10.138.336.069.672.139 1.007.21v-20.397l-.364-56.103h-13.034-25.31-22.362v56.103 47.088c0 17.15-5.544 33.84-15.804 47.581l-56.407 75.542c-35.994 48.205-1.594 116.825 58.567 116.825h88.359c20.181 0 37.455-7.728 50.154-19.811-.824.025-1.65.043-2.482.043z" fill="#f2eae7"/><path d="m378.497 83.467-.01.02-21.381 3.408-21.238-12.341-4.911-23.066-8.12-5.42c-18.82-12.55-39.18-21.68-60.26-27.38l-31.754 25.889-62.826-28.909c-25.59 5.2-50.4 15.34-72.97 30.4l-8.83 5.89s-.831 23.336-1.04 22.47-18.838-3.797-18.838-3.797l-7.512-.393-14.29 9.53c-27.18 18.14-38.15 44.85-36.99 70.81l45.022 39.758 31.368 40.602c8.03.45 16.52-.28 25.38-2.38l61.18-14.52c25.28-5.99 51.62-5.99 76.9 0l61.18 14.52c87.35 20.709 138.8-92.261 69.94-145.091z" fill="#e17983"/><g><circle cx="143.633" cy="134.574" fill="#f9f7f7" r="25.316"/><g id="XMLID_220_"><g><path d="m373.337 79.767c1.79 1.2 3.51 2.43 5.16 3.7l-.01.02c-3.91 11.86-15.08 20.42-28.25 20.42-16.44 0-29.76-13.32-29.76-29.76 0-9.08 4.07-17.2 10.48-22.66z" fill="#f9f7f7"/><path d="m63.121 173.604c-1.377-30.804 11.641-62.499 43.893-84.024l16.957-11.308 32.501-21.691 10.478-6.989c10.867-7.251 22.178-13.525 33.805-18.852l-32.758-15.073c-25.59 5.2-50.4 15.34-72.97 30.4l-8.83 5.89s-.831 23.336-1.04 22.47-18.838-3.797-18.838-3.797l-7.512-.393-14.29 9.53c-27.18 18.14-38.15 44.85-36.99 70.81l45.022 39.758 29.418 38.077c-11.277-16.006-17.976-35.224-18.846-54.808z" fill="#da606c"/><path d="m262.577 18.687c.7 3.28 1.07 6.68 1.07 10.17 0 26.92-21.82 48.74-48.73 48.74-26.92 0-48.74-21.82-48.74-48.74 0-4.57.64-8.99 1.82-13.19 31.26-6.35 63.68-5.35 94.58 3.02z" fill="#f9f7f7"/><path d="m86.197 51.957c10.16 2.27 17.76 11.34 17.76 22.19 0 12.57-10.18 22.75-22.75 22.75-12.56 0-22.74-10.18-22.74-22.75 0-1.33.12-2.64.34-3.91z" fill="#f2eae7"/><path d="m91.527 202.237c0 10.44-2.78 20.24-7.61 28.7-44.25-2.46-74.62-40.52-76.39-80.36h.01c7.84-3.97 16.7-6.22 26.1-6.22 31.97 0 57.89 25.91 57.89 57.88z" fill="#f9f7f7"/><g fill="#f2eae7"><path d="m246.578 15.034c-25.974-4.845-52.675-4.63-78.581.632-1.18 4.2-1.82 8.62-1.82 13.19 0 6.662 1.34 13.01 3.76 18.794 23.913-15.458 49.859-26.35 76.641-32.616z"/><path d="m63.121 173.604c-.304-6.8.096-13.643 1.247-20.411-8.908-5.591-19.438-8.836-30.731-8.836-9.4 0-18.27 2.25-26.11 6.22 1.768 39.802 32.083 77.823 76.263 80.35-12.379-16.486-19.753-36.703-20.669-57.323z"/></g></g></g><g id="XMLID_221_"><g><path d="m474.537 167.607c28.21 18.82 34.37 49.32 25.73 74.83-2.82.55-5.72.84-8.69.84-25.15 0-45.53-20.38-45.53-45.53 0-15.08 7.34-28.43 18.62-36.72z" fill="#f9f7f7"/></g></g></g><g id="XMLID_218_"><g><path d="m364.997 204.807c0 7.51-2.14 14.51-5.84 20.44l.01.02c-14.64 6.01-31.79 7.75-50.61 3.29l-15.25-3.62c-3.58-5.86-5.64-12.75-5.64-20.13 0-21.35 17.31-38.67 38.67-38.67 21.35 0 38.66 17.32 38.66 38.67z" fill="#f9f7f7"/></g></g></g><g><path d="m317.684 378.093-56.407-75.542c-9.23-12.362-14.314-27.666-14.314-43.094v-37.807l59.866 14.2c7.887 1.871 15.46 2.737 22.684 2.737 39.083 0 67.917-25.37 80.532-54.342 14.946-34.328 10.681-81.874-32.54-110.715l-50.508-33.703c-35.075-23.405-75.903-35.775-118.069-35.775s-82.994 12.37-118.068 35.775l-50.509 33.703c-43.221 28.841-47.486 76.387-32.54 110.715 12.616 28.974 41.444 54.345 80.532 54.342 7.222 0 14.8-.867 22.684-2.737l59.866-14.2v37.807c0 15.428-5.083 30.732-14.313 43.094l-30.998 41.513c-2.479 3.319-1.797 8.019 1.522 10.497 1.347 1.006 2.92 1.491 4.481 1.491 2.286 0 4.543-1.041 6.015-3.013l30.999-41.513c11.152-14.937 17.294-33.428 17.294-52.068v-40.729c15.246-2.217 30.825-2.217 46.07 0v40.729c0 18.641 6.142 37.132 17.294 52.068l56.408 75.542c15.169 20.315 17.442 45.975 6.08 68.641-11.363 22.665-33.283 36.197-58.637 36.197h-88.359c-25.354 0-47.275-13.532-58.638-36.197-11.362-22.665-9.09-48.325 6.08-68.64l6.153-8.24c2.478-3.319 1.796-8.019-1.522-10.497-3.319-2.478-8.02-1.796-10.497 1.522l-6.152 8.24c-18.36 24.588-21.223 56.905-7.47 84.337 13.752 27.433 41.359 44.475 72.047 44.475h88.359c30.687 0 58.294-17.042 72.046-44.475 13.751-27.433 10.889-59.75-7.471-84.338zm-7.393-156.838-11.991-2.844c-2.048-4.218-3.136-8.861-3.136-13.6 0-17.187 13.982-31.169 31.169-31.169s31.169 13.982 31.169 31.169c0 5.047-1.223 9.985-3.544 14.421-13.442 4.936-28.341 5.658-43.667 2.023zm21.81-159.988 37.005 24.693c-3.998 6.405-11.062 10.448-18.871 10.448-12.273 0-22.257-9.984-22.257-22.257 0-4.669 1.468-9.154 4.123-12.884zm-235.644 12.882c0 8.407-6.84 15.247-15.247 15.247-8.302 0-15.062-6.672-15.231-14.934l21.365-14.256c5.414 2.399 9.113 7.863 9.113 13.943zm-74.893 104.107c-3.226-7.408-5.27-15.182-6.134-22.984 5.791-2.258 11.89-3.418 18.204-3.418 27.784 0 50.389 22.604 50.389 50.388 0 7.172-1.563 14.254-4.505 20.754-8.893-1.09-17.377-3.807-25.207-8.13-14.269-7.88-25.899-20.882-32.747-36.61zm147.18 28.488-61.179 14.511c-4.037.958-8.042 1.595-12.001 1.952 2.277-6.727 3.459-13.816 3.459-20.965 0-36.055-29.333-65.388-65.389-65.388-6.283 0-12.402.897-18.304 2.634.344-3.429.914-6.822 1.744-10.143 4.367-17.47 15.295-32.456 31.603-43.337l3.769-2.515c3.946 12.119 15.345 20.904 28.763 20.904 16.678 0 30.247-13.569 30.247-30.247 0-8.992-4.089-17.301-10.618-22.927 17.958-11.728 37.496-20.378 57.948-25.734-.068 1.121-.109 2.244-.109 3.367 0 12.004 3.74 23.466 10.815 33.146 1.469 2.01 3.749 3.075 6.061 3.075 1.536 0 3.085-.47 4.419-1.445 3.344-2.444 4.074-7.137 1.63-10.48-5.185-7.094-7.925-15.496-7.925-24.296 0-2.261.211-4.518.583-6.754 11.373-2.018 22.964-3.051 34.668-3.051 15.968 0 31.729 1.91 47.006 5.643.142 1.385.215 2.775.215 4.162 0 22.737-18.499 41.236-41.236 41.236-3.497 0-6.967-.437-10.313-1.298-4.008-1.035-8.101 1.382-9.133 5.394-1.033 4.011 1.382 8.1 5.394 9.133 4.567 1.176 9.295 1.772 14.053 1.772 30.936 0 56.112-25.109 56.23-56.018 16.693 5.537 32.667 13.314 47.527 23.229l.95.634c-4.282 6.172-6.642 13.544-6.642 21.211 0 20.544 16.713 37.257 37.257 37.257 12.465 0 23.792-6.155 30.621-16.024 9.895 9.536 16.702 21.069 19.925 33.961 3.953 15.813 2.358 33.184-4.49 48.912-5.386 12.37-13.738 23.039-23.997 30.871.136-1.43.207-2.87.207-4.316 0-25.458-20.711-46.169-46.169-46.169s-46.169 20.711-46.169 46.169c0 3.225.35 6.418 1.013 9.538l-32.065-7.605c-26.289-6.235-54.08-6.235-80.368.001z"/><path d="m478.701 161.364-34.138-22.779c-3.445-2.299-8.102-1.37-10.402 2.076-2.299 3.446-1.37 8.103 2.076 10.402l16.288 10.868c-8.876 9.697-13.979 22.492-13.979 35.818 0 28.175 22.09 51.279 49.859 52.926-5.391 9.551-13.167 17.419-22.378 22.505-12.133 6.701-26.325 8.396-41.041 4.906l-48.431-11.487c-21.047-4.992-43.295-4.992-64.341 0l-38.496 9.131c-4.03.956-6.522 4.998-5.566 9.028.956 4.029 4.994 6.522 9.028 5.566l38.496-9.131c14.81-3.512 30.287-4.242 45.381-2.215v30.87c0 15.091 4.973 30.061 14.001 42.153l14.233 19.061c1.473 1.972 3.729 3.013 6.015 3.013 1.561 0 3.135-.485 4.481-1.491 3.319-2.479 4-7.178 1.522-10.497l-14.233-19.061c-7.106-9.518-11.021-21.301-11.021-33.179v-27.952l45.467 10.784c6.381 1.514 12.507 2.215 18.352 2.214 31.618 0 54.944-20.524 65.149-43.962 12.094-27.77 8.644-66.236-26.322-89.567zm-25.155 36.384c0-10.341 4.288-20.239 11.653-27.361l5.177 3.454c12.581 8.395 21.007 19.939 24.368 33.385 2.285 9.143 2.162 18.966-.274 28.428-.967.074-1.933.122-2.895.122-20.969.001-38.029-17.059-38.029-38.028z"/><path d="m420.441 387.706c-2.478-3.319-7.177-4.001-10.497-1.522-3.319 2.478-4 7.178-1.522 10.497l11.29 15.12c11.647 15.598 13.392 35.3 4.667 52.702-8.724 17.402-25.554 27.792-45.021 27.792h-53.865c-4.142 0-7.5 3.358-7.5 7.5s3.358 7.5 7.5 7.5h53.865c24.887 0 47.276-13.821 58.43-36.069 11.153-22.248 8.832-48.457-6.059-68.399z"/><path d="m143.633 101.758c-18.095 0-32.816 14.721-32.816 32.816s14.721 32.816 32.816 32.816 32.816-14.721 32.816-32.816-14.721-32.816-32.816-32.816zm0 50.632c-9.824 0-17.816-7.992-17.816-17.816s7.992-17.816 17.816-17.816 17.816 7.992 17.816 17.816-7.992 17.816-17.816 17.816z"/></g></g></svg>