<svg id="Capa_1" enable-background="new 0 0 511.596 511.596" height="512" viewBox="0 0 511.596 511.596" width="512" xmlns="http://www.w3.org/2000/svg"><g><g><path d="m284.873 193.545-28.214 9.105-72.12 70.81c-4.51 4.43-9.81 7.96-15.62 10.41l-73.3 30.92c-30.47 12.86-47.24 41.86-47.24 71.37 0 19.4 7.26 39.03 22.64 54.41 38.78 38.77 104.47 25.93 125.78-24.59l30.93-73.3c2.45-5.82 5.98-11.11 10.4-15.62l70.82-72.12 8.132-25.307z" fill="#f9f7f7"/><path d="m426.655 108.51 44.814-51.107c2.222-2.534 2.096-6.356-.286-8.739l-9.955-9.955c-2.383-2.383-6.205-2.508-8.739-.286l-51.107 44.814-59.898 54.292 31.489 30.562z" fill="#94cf6f"/><path d="m111.863 450.476c-15.38-15.38-22.64-35.01-22.64-54.41 0-29.51 16.77-58.51 47.24-71.37l73.3-30.92c5.81-2.45 11.11-5.98 15.62-10.41l74.431-73.079-14.941-16.741-28.214 9.105-72.12 70.81c-4.51 4.43-9.81 7.96-15.62 10.41l-73.3 30.92c-30.47 12.86-47.24 41.86-47.24 71.37 0 19.4 7.26 39.03 22.64 54.41 16.187 16.182 37.073 23.373 57.452 22.585-5.891-3.351-11.491-7.565-16.608-12.68z" fill="#f2eae7"/><g><g id="XMLID_222_"><g><path d="m379.318 132.28c21.21-15.83 47.37-24.02 74.15-22.89l44.05 1.86c3.23.14 5.81 2.73 5.94 5.96l.63 16.25c.13 3.37-2.46 6.24-5.83 6.43l-43.12 2.54c-24.4 1.44-47.4 11.89-64.52 29.33l-77.11 78.53-4.56 4.65-52.29-52.29 83.18-81.67c17.44-17.13 27.89-40.12 29.33-64.52l2.53-43.12c.2-3.37 3.06-5.97 6.44-5.84l16.25.64c3.22.12 5.82 2.71 5.95 5.93l1.87 44.06c1.14 26.78-7.06 52.94-22.89 74.15z" fill="#b8de9c"/></g></g></g><g><path d="m379.449 132.097c15.742-21.178 23.896-47.263 22.759-73.967l-1.87-44.06c-.13-3.22-2.73-5.81-5.95-5.93l-16.25-.64c-3.38-.13-6.24 2.47-6.44 5.84l-2.53 43.12c-1.44 24.4-11.89 47.39-29.33 64.52l-83.18 81.67 25.233 25.233z" fill="#a6d786"/></g></g><g><path d="m510.953 116.921c-.276-7.079-6.037-12.859-13.114-13.159l-44.055-1.867c-3.815-.161-7.621-.132-11.408.062l34.731-39.609c4.811-5.487 4.538-13.827-.623-18.987l-9.955-9.955c-5.16-5.16-13.5-5.433-18.987-.622l-37.769 33.118c.064-2.692.041-5.39-.073-8.09l-1.867-44.055c-.3-7.078-6.08-12.838-13.159-13.114l-16.247-.633c-7.377-.296-13.778 5.494-14.214 12.889l-1.382 23.496c-.244 4.135 2.911 7.684 7.046 7.927 4.124.252 7.684-2.912 7.927-7.046l1.308-22.228 13.784.537 1.817 42.862c1.038 24.492-6.367 48.792-20.842 68.557-4.378 3.329-8.553 6.959-12.48 10.887l-22.534 22.534c-2.929 2.929-2.929 7.678 0 10.606 2.929 2.929 7.678 2.929 10.606 0l22.537-22.533c21.373-21.373 50.957-32.886 81.149-31.617l42.862 1.817.537 13.784-41.854 2.463c-26.308 1.548-50.963 12.756-69.426 31.56l-18.988 19.337c-2.902 2.956-2.859 7.705.097 10.606 1.46 1.434 3.357 2.148 5.254 2.148 1.942 0 3.884-.75 5.352-2.246l18.988-19.338c15.851-16.144 37.019-25.766 59.604-27.095l43.121-2.537c7.396-.435 13.178-6.812 12.89-14.215zm-103.742-28.821 49.444-43.356 8.492 8.492-44.132 50.33c-.442.504-.795 1.052-1.079 1.625-6.94 1.663-13.72 3.923-20.261 6.747 3.311-7.67 5.833-15.662 7.536-23.838z"/><path d="m342.742 209.816-33.845 34.47-41.586-41.586 77.781-76.371c14.483-14.221 24.535-32.195 29.066-51.979.925-4.038-1.598-8.061-5.636-8.985s-8.06 1.599-8.985 5.636c-3.891 16.986-12.52 32.417-24.954 44.626l-155.304 152.486c-3.845 3.775-8.312 6.751-13.277 8.846l-35.25 14.872c-3.816 1.61-5.605 6.009-3.995 9.826 1.208 2.864 3.988 4.586 6.914 4.586.972 0 1.96-.19 2.912-.592l35.251-14.872c6.714-2.833 12.755-6.858 17.955-11.963l66.82-65.608 41.78 41.78-65.608 66.82c-5.106 5.201-9.131 11.242-11.963 17.956l-30.925 73.302c-9.172 21.741-27.714 36.807-50.872 41.334-23.159 4.526-46.009-2.445-62.694-19.13s-23.658-39.536-19.13-62.693c4.528-23.158 19.594-41.7 41.334-50.873l8.503-3.587c3.816-1.61 5.605-6.009 3.995-9.825s-6.008-5.607-9.825-3.995l-8.503 3.587c-26.029 10.981-44.805 34.089-50.226 61.814-2.574 13.162-1.961 26.493 1.524 39.004l-9.749 9.749c-7.286 7.286-16.479 12.194-26.585 14.195l-1.619.32c-4.063.804-6.706 4.75-5.902 8.813.707 3.572 3.841 6.046 7.349 6.046.483 0 .973-.047 1.464-.144l1.62-.32c13.032-2.58 24.885-8.91 34.279-18.304l5.059-5.057c2.913 5.792 6.502 11.279 10.739 16.337l-58.206 58.206c-2.929 2.929-2.929 7.678 0 10.606 1.464 1.464 3.384 2.197 5.303 2.197s3.839-.732 5.303-2.197l58.215-58.215c5.059 4.237 10.546 7.823 16.339 10.736l-5.07 5.07c-9.394 9.394-15.723 21.248-18.304 34.28l-.32 1.619c-.804 4.063 1.838 8.009 5.901 8.813.492.097.981.144 1.464.144 3.508 0 6.642-2.474 7.349-6.045l.32-1.618c2.001-10.107 6.91-19.301 14.195-26.586l9.764-9.764c7.345 2.045 14.966 3.122 22.676 3.122 5.42 0 10.882-.521 16.314-1.583 27.725-5.421 50.833-24.197 61.813-50.225l30.925-73.303c2.094-4.964 5.07-9.431 8.846-13.277l109.962-111.993c2.902-2.956 2.858-7.704-.097-10.606-2.952-2.901-7.701-2.858-10.604.098z"/></g></g></svg>