<svg id="Capa_1" enable-background="new 0 0 510.277 510.277" height="512" viewBox="0 0 510.277 510.277" width="512" xmlns="http://www.w3.org/2000/svg"><g><g><path d="m375.312 122.289c53.894-3.046 86.74 58.311 54.321 101.472l-15.78 21.009c-21.46 28.57-35.18 62.196-39.834 97.623l-5.159 39.27c-3.741 28.478-23.579 52.241-50.931 61.008l-39.729 12.734-23.062 6.811-23.062-6.811-39.729-12.734c-27.352-8.767-47.19-32.53-50.931-61.008l-5.159-39.27c-4.654-35.427-18.375-69.053-39.834-97.623l-15.78-21.009c-32.419-43.161.427-104.517 54.321-101.472l104.098 15.535s113.997-15.724 116.239-15.644z" fill="#c5e97d"/><path d="m242.316 441.478c-28.594-9.301-49.333-34.511-53.244-64.724l-5.393-41.662c-4.865-37.586-19.209-73.26-41.643-103.57l-16.497-22.288c-21.169-28.601-15.707-64.742 5.097-87.052-51.288.379-81.533 59.59-49.993 101.579l15.78 21.009c21.46 28.57 35.18 62.196 39.834 97.623l5.159 39.27c3.741 28.478 23.579 52.241 50.931 61.008l39.729 12.734 23.062 6.811 23.062-6.811 3.488-1.118z" fill="#b1e254"/><path d="m278.201 443.84 12.211-11.831c29.543-28.624 45.996-68.149 45.49-109.281l-.454-36.937c-.391-31.849 5.292-63.48 16.744-93.201l10.779-27.973c29.173-75.706-26.702-157.117-107.832-157.117-81.131 0-137.006 81.411-107.833 157.115l10.779 27.973c11.453 29.721 17.136 61.353 16.744 93.201l-.454 36.937c-.505 41.132 15.948 80.657 45.49 109.281l12.211 11.831 23.062 18.374z" fill="#d8efa7"/><path d="m276.388 443.84-12.211-11.832c-29.542-28.624-45.996-68.149-45.49-109.281l.454-36.937c.391-31.849-5.292-63.48-16.745-93.201l-10.779-27.973c-26.431-68.59 16.963-141.867 85.688-155.034-7.129-1.366-14.541-2.082-22.166-2.082-81.131 0-137.006 81.411-107.833 157.115l10.779 27.973c11.453 29.721 17.136 61.353 16.744 93.201l-.454 36.937c-.505 41.132 15.948 80.657 45.49 109.281l12.211 11.832 23.062 18.374 22.156-17.652z" fill="#c5e97d"/><g><path d="m246.61 67.267-14.524 419.626c-.301 8.682 6.656 15.884 15.344 15.884h14.418c8.687 0 15.644-7.202 15.344-15.884l-14.525-419.626c-.15-4.326-3.7-7.756-8.029-7.756-4.328 0-7.879 3.43-8.028 7.756z" fill="#e0f3b9"/></g></g><path d="m441.452 152.157c-12.681-23.689-36.786-37.825-63.42-37.459-.174-2.513-.426-5.029-.757-7.547-2.512-19.103-9.66-37.681-20.673-53.726-11.012-16.044-25.777-29.395-42.699-38.608-18.059-9.832-37.829-14.817-58.765-14.817-20.935 0-40.707 4.985-58.765 14.816-16.922 9.213-31.688 22.563-42.699 38.608-11.012 16.045-18.161 34.623-20.673 53.726-.331 2.519-.583 5.035-.757 7.548-26.637-.36-50.738 13.769-63.42 37.458-13.179 24.618-10.948 53.781 5.823 76.108l15.78 21.008c20.642 27.481 33.918 60.019 38.395 94.096l5.159 39.269c4.098 31.201 26.11 57.568 56.078 67.173l35.413 11.351-.882 25.472c-.216 6.25 2.057 12.17 6.402 16.668s10.183 6.976 16.437 6.976h14.418c6.255 0 12.092-2.478 16.438-6.976 4.345-4.498 6.618-10.417 6.401-16.667l-.871-25.155 36.403-11.668c29.967-9.605 51.979-35.972 56.078-67.173l5.158-39.269c4.477-34.078 17.754-66.615 38.396-94.096l15.78-21.008c16.77-22.327 19.002-51.491 5.822-76.108zm-17.816 67.099-15.78 21.008c-22.188 29.541-36.461 64.518-41.274 101.151l-5.158 39.269c-3.346 25.474-21.317 47.001-45.783 54.843l-27.02 8.66 7.01-6.792c12.21-11.831 22.371-25.502 30.201-40.634 1.903-3.679.464-8.205-3.215-10.108-3.678-1.905-8.204-.465-10.107 3.214-7.083 13.689-16.273 26.056-27.316 36.755l-2.5 2.422-2.376-68.662 19.686-16.517c3.174-2.663 3.588-7.393.925-10.566-2.662-3.173-7.394-3.587-10.565-.925l-10.704 8.981-1.822-52.64 25.262-21.196c3.174-2.663 3.588-7.393.925-10.566s-7.395-3.586-10.565-.925l-16.28 13.66-.482-13.917c-.143-4.141-3.59-7.369-7.755-7.236-4.14.144-7.379 3.615-7.235 7.755l7.99 230.863c.074 2.147-.707 4.181-2.2 5.727s-3.499 2.397-5.648 2.397h-14.418c-2.149 0-4.155-.851-5.648-2.397s-2.274-3.58-2.2-5.728l14.524-419.626c.01-.289.244-.516.533-.516s.523.226.533.515l5.39 155.716c.143 4.14 3.594 7.372 7.755 7.236 4.14-.144 7.379-3.615 7.235-7.755l-.196-5.675 32.734-27.466c3.174-2.663 3.588-7.393.925-10.566-2.662-3.173-7.395-3.586-10.565-.925l-23.752 19.929-1.822-52.639 45.612-38.27c3.174-2.663 3.588-7.393.925-10.566-2.662-3.173-7.394-3.587-10.565-.925l-36.629 30.734-2.054-59.347c-.29-8.41-7.109-14.997-15.523-14.997s-15.233 6.587-15.524 14.997l-2.054 59.346-36.629-30.732c-3.174-2.663-7.904-2.249-10.566.925s-2.248 7.904.925 10.566l45.612 38.269-1.822 52.639-23.752-19.928c-3.173-2.663-7.905-2.249-10.566.925-2.662 3.173-2.248 7.904.925 10.566l32.735 27.465-1.822 52.639-16.279-13.659c-3.174-2.663-7.904-2.249-10.566.925s-2.248 7.904.925 10.566l25.262 21.196-1.822 52.639-10.703-8.98c-3.174-2.663-7.904-2.248-10.566.925s-2.248 7.904.925 10.566l19.686 16.517-2.344 67.724-1.532-1.484c-27.938-27.07-43.688-64.904-43.209-103.803l.454-36.938c.353-28.757-4.061-57.177-13.118-84.47-1.304-3.931-5.547-6.06-9.48-4.756-3.931 1.305-6.061 5.549-4.756 9.48 8.531 25.708 12.688 52.476 12.355 79.561l-.454 36.938c-.528 43.004 16.883 84.833 47.771 114.76l7.01 6.792-27.02-8.66c-24.466-7.842-42.438-29.369-45.784-54.843l-5.159-39.27c-4.812-36.632-19.084-71.609-41.273-101.15l-15.78-21.008c-13.225-17.607-14.984-40.605-4.591-60.02 10.013-18.703 29.064-29.864 50.089-29.541.701 12.726 3.427 25.312 8.169 37.618l3.534 9.17c1.489 3.865 5.832 5.791 9.695 4.301 3.865-1.489 5.791-5.83 4.301-9.695l-3.534-9.169c-13.002-33.742-8.724-70.193 11.739-100.006 20.453-29.813 52.927-46.912 89.087-46.912s68.635 17.099 89.097 46.913 24.741 66.265 11.739 100.006l-10.779 27.973c-11.849 30.746-17.65 63.042-17.245 95.99l.453 36.938c.16 13.065-1.487 26.101-4.898 38.746-1.079 3.999 1.289 8.116 5.288 9.194.654.176 1.312.261 1.958.261 3.307 0 6.334-2.204 7.236-5.549 3.771-13.978 5.592-28.39 5.414-42.836l-.453-36.938c-.381-31.034 5.084-61.453 16.243-90.412l10.779-27.973c4.742-12.306 7.468-24.892 8.169-37.618 21.041-.328 40.076 10.838 50.089 29.542 10.393 19.413 8.634 42.411-4.592 60.019z"/></g></svg>