<svg id="Capa_1" enable-background="new 0 0 511.561 511.561" height="512" viewBox="0 0 511.561 511.561" width="512" xmlns="http://www.w3.org/2000/svg"><g><g><path d="m277.485 492.175c0 6.564-5.321 11.885-11.885 11.885h-18.64c-6.564 0-11.885-5.321-11.885-11.885v-51.111h42.41z" fill="#94cf6f"/><path d="m377.45 234.188c6.11 0 9.52 7.05 5.74 11.85l-1.92 2.42c-8.2 10.39-12.51 23.32-12.19 36.55l2.33 95.95c1.28 52.98-41.94 96.3-94.93 95.14l-20.7-.46-6.84-9.33c-17.2-23.49-27.31-51.42-29.13-80.48l-.82-12.98 49.08-89.64 70.94-42.79c8.91-4.01 18.79-6.23 29.15-6.23z" fill="#a6d786"/><g><path d="m255.78 475.119c47.073-4.032 83.23-43.419 83.23-90.664v-177.619c0-70.749-24.955-139.231-70.472-193.393-6.659-7.924-18.856-7.924-25.515 0-45.517 54.163-70.472 122.644-70.472 193.393v33.58 141.753c0 30.71 11.527 60.302 32.3 82.921 5.202 5.664 12.477 8.979 20.164 9.189z" fill="#fbe88c"/><path d="m239.77 384.566-.819-12.97-4.51-71.888c-.884-14.108-4.975-27.309-11.528-38.92-2.809-4.976-4.261-10.602-4.261-16.316v-4.055-33.581c0-65.211 21.226-128.503 60.188-180.424-3.301-4.399-6.724-8.709-10.279-12.94-6.645-7.91-18.893-7.938-25.54-.029-45.517 54.163-70.472 122.644-70.472 193.393v33.581 141.753c0 30.68 11.504 60.243 32.238 82.853 5.219 5.691 12.508 9.046 20.227 9.257l30.765.84c7.367-.631 14.479-2.131 21.215-4.389l-11.918-16.238c-14.971-20.447-23.722-44.623-25.306-69.927z" fill="#fbe372"/><path d="m218.99 372.848.82 12.98c1.82 29.06 11.93 56.99 29.13 80.48l6.84 9.33-20.7.46c-52.99 1.16-96.21-42.16-94.93-95.14l2.33-95.95c.32-13.23-3.99-26.16-12.19-36.55l-1.92-2.42c-3.78-4.8-.37-11.85 5.74-11.85h9.29c37.6 0 68.73 29.24 71.08 66.77z" fill="#a6d786"/><path d="m176.298 379.685 2.484-104.415c.311-13.119-3.489-25.96-10.779-36.693-7.682-2.83-15.968-4.389-24.603-4.389h-9.29c-6.11 0-9.52 7.05-5.74 11.85l1.92 2.42c8.2 10.39 12.51 23.32 12.19 36.55l-2.33 95.95c-1.28 52.98 41.94 96.3 94.93 95.14l3.428-.076c-37.176-15.21-63.241-52.769-62.21-96.337z" fill="#94cf6f"/></g></g><g><path d="m390.775 235.043c-2.496-5.152-7.604-8.352-13.329-8.352h-9.282c-7.413 0-14.656 1.041-21.654 3.054v-22.908c0-72.398-25.651-142.794-72.23-198.219-4.603-5.477-11.346-8.618-18.5-8.618s-13.896 3.141-18.499 8.618c-23.42 27.867-41.565 59.375-53.933 93.648-1.406 3.896.613 8.195 4.509 9.601 3.894 1.406 8.194-.612 9.601-4.509 11.766-32.606 29.027-62.58 51.306-89.089 1.746-2.078 4.303-3.269 7.016-3.269s5.271 1.191 7.016 3.268c44.311 52.726 68.714 119.694 68.714 188.568v149.28c0 4.142 3.357 7.5 7.5 7.5s7.5-3.358 7.5-7.5v-110.63c6.921-2.507 14.181-3.796 21.654-3.796l8.896.001-1.676 2.123c-9.262 11.734-14.163 26.427-13.802 41.372l2.325 95.954c.571 23.555-8.279 45.713-24.921 62.393-9.541 9.563-20.901 16.557-33.288 20.698 23.755-17.226 39.486-44.752 40.719-75.826.164-4.139-3.058-7.627-7.197-7.792-4.112-.158-7.627 3.058-7.791 7.197-1.613 40.659-32.5 74.162-72.51 79.424l-3.924-5.358c-16.388-22.378-25.968-48.839-27.703-76.522l-5.322-84.862c-1.769-28.218-18.385-52.256-41.919-64.702v-28.953c0-23.432 2.823-46.856 8.392-69.622.984-4.023-1.479-8.083-5.503-9.067-4.024-.982-8.083 1.48-9.067 5.503-5.854 23.931-8.821 48.554-8.821 73.185v22.908c-6.894-1.98-14.158-3.054-21.654-3.054h-9.282c-5.725 0-10.833 3.2-13.329 8.352-2.497 5.152-1.846 11.144 1.702 15.639l1.916 2.427c7.1 8.995 10.856 20.258 10.579 31.715l-2.325 95.954c-.101 4.141 3.176 7.579 7.316 7.68.062.001.123.002.186.002 4.058 0 7.396-3.239 7.494-7.318l2.325-95.954c.361-14.945-4.54-29.638-13.802-41.372l-1.676-2.124h8.896c33.564 0 61.502 26.241 63.603 59.739l5.322 84.862c1.858 29.62 11.874 57.959 28.964 82.166l-6.375.14c-38.476.85-72.95-24.325-83.818-61.207-1.172-3.973-5.335-6.248-9.314-5.074-3.973 1.171-6.245 5.341-5.074 9.314 12.052 40.897 48.782 69.527 90.872 71.821v8.723c0 10.689 8.696 19.385 19.385 19.385h18.641c10.688 0 19.385-8.696 19.385-19.385v-8.76c24.423-1.519 47.111-11.737 64.619-29.286 19.564-19.609 29.97-45.659 29.299-73.351l-2.325-95.954c-.277-11.457 3.479-22.72 10.579-31.715l1.917-2.428c3.543-4.494 4.194-10.486 1.697-15.638zm-125.174 261.518h-18.641c-2.418 0-4.385-1.967-4.385-4.385v-8.742l13.205-.29 14.205.312v8.72c0 2.417-1.966 4.385-4.384 4.385z"/><path d="m261.61 46.642h-9.582c-4.143 0-7.5 3.358-7.5 7.5s3.357 7.5 7.5 7.5h9.582c4.143 0 7.5-3.358 7.5-7.5s-3.357-7.5-7.5-7.5z"/><path d="m261.61 109.364h-9.582c-4.143 0-7.5 3.358-7.5 7.5s3.357 7.5 7.5 7.5h9.582c4.143 0 7.5-3.358 7.5-7.5s-3.357-7.5-7.5-7.5z"/><path d="m205.489 116.864c0 4.142 3.357 7.5 7.5 7.5h9.582c4.143 0 7.5-3.358 7.5-7.5s-3.357-7.5-7.5-7.5h-9.582c-4.142 0-7.5 3.358-7.5 7.5z"/><path d="m298.571 109.364h-9.582c-4.143 0-7.5 3.358-7.5 7.5s3.357 7.5 7.5 7.5h9.582c4.143 0 7.5-3.358 7.5-7.5s-3.357-7.5-7.5-7.5z"/><path d="m261.61 173.099h-9.582c-4.143 0-7.5 3.358-7.5 7.5s3.357 7.5 7.5 7.5h9.582c4.143 0 7.5-3.358 7.5-7.5s-3.357-7.5-7.5-7.5z"/><path d="m212.989 173.099c-4.143 0-7.5 3.358-7.5 7.5s3.357 7.5 7.5 7.5h9.582c4.143 0 7.5-3.358 7.5-7.5s-3.357-7.5-7.5-7.5z"/><path d="m306.071 180.599c0-4.142-3.357-7.5-7.5-7.5h-9.582c-4.143 0-7.5 3.358-7.5 7.5s3.357 7.5 7.5 7.5h9.582c4.143 0 7.5-3.358 7.5-7.5z"/><path d="m252.028 251.834h9.582c4.143 0 7.5-3.358 7.5-7.5s-3.357-7.5-7.5-7.5h-9.582c-4.143 0-7.5 3.358-7.5 7.5s3.358 7.5 7.5 7.5z"/><path d="m205.489 244.334c0 4.142 3.357 7.5 7.5 7.5h9.582c4.143 0 7.5-3.358 7.5-7.5s-3.357-7.5-7.5-7.5h-9.582c-4.142 0-7.5 3.358-7.5 7.5z"/><path d="m306.071 244.334c0-4.142-3.357-7.5-7.5-7.5h-9.582c-4.143 0-7.5 3.358-7.5 7.5s3.357 7.5 7.5 7.5h9.582c4.143 0 7.5-3.358 7.5-7.5z"/><path d="m244.528 308.069c0 4.142 3.357 7.5 7.5 7.5h9.582c4.143 0 7.5-3.358 7.5-7.5s-3.357-7.5-7.5-7.5h-9.582c-4.142 0-7.5 3.358-7.5 7.5z"/><path d="m298.571 315.569c4.143 0 7.5-3.358 7.5-7.5s-3.357-7.5-7.5-7.5h-9.582c-4.143 0-7.5 3.358-7.5 7.5s3.357 7.5 7.5 7.5z"/><path d="m252.028 379.304h9.582c4.143 0 7.5-3.358 7.5-7.5s-3.357-7.5-7.5-7.5h-9.582c-4.143 0-7.5 3.358-7.5 7.5s3.358 7.5 7.5 7.5z"/><path d="m298.571 379.304c4.143 0 7.5-3.358 7.5-7.5s-3.357-7.5-7.5-7.5h-9.582c-4.143 0-7.5 3.358-7.5 7.5s3.357 7.5 7.5 7.5z"/><path d="m229.904 77.497c-4.143 0-7.5 3.358-7.5 7.5s3.357 7.5 7.5 7.5h9.583c4.143 0 7.5-3.358 7.5-7.5s-3.357-7.5-7.5-7.5z"/><path d="m281.656 77.497h-9.583c-4.143 0-7.5 3.358-7.5 7.5s3.357 7.5 7.5 7.5h9.583c4.143 0 7.5-3.358 7.5-7.5s-3.357-7.5-7.5-7.5z"/><path d="m233.904 141.231c-4.143 0-7.5 3.358-7.5 7.5s3.357 7.5 7.5 7.5h9.583c4.143 0 7.5-3.358 7.5-7.5s-3.357-7.5-7.5-7.5z"/><path d="m193.376 148.731c0 4.142 3.357 7.5 7.5 7.5h9.582c4.143 0 7.5-3.358 7.5-7.5s-3.357-7.5-7.5-7.5h-9.582c-4.143 0-7.5 3.358-7.5 7.5z"/><path d="m277.656 141.231h-9.583c-4.143 0-7.5 3.358-7.5 7.5s3.357 7.5 7.5 7.5h9.583c4.143 0 7.5-3.358 7.5-7.5s-3.357-7.5-7.5-7.5z"/><path d="m310.685 141.231h-9.582c-4.143 0-7.5 3.358-7.5 7.5s3.357 7.5 7.5 7.5h9.582c4.143 0 7.5-3.358 7.5-7.5s-3.358-7.5-7.5-7.5z"/><path d="m233.904 204.967c-4.143 0-7.5 3.358-7.5 7.5s3.357 7.5 7.5 7.5h9.583c4.143 0 7.5-3.358 7.5-7.5s-3.357-7.5-7.5-7.5z"/><path d="m200.876 219.967h9.582c4.143 0 7.5-3.358 7.5-7.5s-3.357-7.5-7.5-7.5h-9.582c-4.143 0-7.5 3.358-7.5 7.5s3.357 7.5 7.5 7.5z"/><path d="m285.156 212.467c0-4.142-3.357-7.5-7.5-7.5h-9.583c-4.143 0-7.5 3.358-7.5 7.5s3.357 7.5 7.5 7.5h9.583c4.143 0 7.5-3.358 7.5-7.5z"/><path d="m310.685 204.967h-9.582c-4.143 0-7.5 3.358-7.5 7.5s3.357 7.5 7.5 7.5h9.582c4.143 0 7.5-3.358 7.5-7.5s-3.358-7.5-7.5-7.5z"/><path d="m233.904 283.702h9.583c4.143 0 7.5-3.358 7.5-7.5s-3.357-7.5-7.5-7.5h-9.583c-4.143 0-7.5 3.358-7.5 7.5s3.358 7.5 7.5 7.5z"/><path d="m260.573 276.202c0 4.142 3.357 7.5 7.5 7.5h9.583c4.143 0 7.5-3.358 7.5-7.5s-3.357-7.5-7.5-7.5h-9.583c-4.142 0-7.5 3.358-7.5 7.5z"/><path d="m310.685 268.702h-9.582c-4.143 0-7.5 3.358-7.5 7.5s3.357 7.5 7.5 7.5h9.582c4.143 0 7.5-3.358 7.5-7.5s-3.358-7.5-7.5-7.5z"/><path d="m268.073 347.437h9.583c4.143 0 7.5-3.358 7.5-7.5s-3.357-7.5-7.5-7.5h-9.583c-4.143 0-7.5 3.358-7.5 7.5s3.358 7.5 7.5 7.5z"/><path d="m310.685 332.437h-9.582c-4.143 0-7.5 3.358-7.5 7.5s3.357 7.5 7.5 7.5h9.582c4.143 0 7.5-3.358 7.5-7.5s-3.358-7.5-7.5-7.5z"/><path d="m268.073 411.172h9.583c4.143 0 7.5-3.358 7.5-7.5s-3.357-7.5-7.5-7.5h-9.583c-4.143 0-7.5 3.358-7.5 7.5s3.358 7.5 7.5 7.5z"/><path d="m301.103 411.172h9.582c4.143 0 7.5-3.358 7.5-7.5s-3.357-7.5-7.5-7.5h-9.582c-4.143 0-7.5 3.358-7.5 7.5s3.357 7.5 7.5 7.5z"/></g></g></svg>