<svg id="Capa_1" enable-background="new 0 0 513.191 513.191" height="512" viewBox="0 0 513.191 513.191" width="512" xmlns="http://www.w3.org/2000/svg"><g><g><path d="m200.888 420.301-6.829 1.137c-15.955 2.656-24.751 20.03-17.447 34.462l6.208 12.266 12.625 22.247 40.858-56.551-6.685-18.447z" fill="#b8de9c"/><path d="m312.303 430.744 13.584-7.889c15.556-9.035 15.805-31.414.454-40.793l-11.667-7.127-26.35-8.941-13.646 44.061 18.559 27.764z" fill="#c9e7b4"/><path d="m148.623 293.817 47.476 76.379c3.13 5.036 4.789 10.848 4.789 16.777v43.771c0 6.098-1.754 12.067-5.054 17.196l-13.013 20.226c-10.202 15.856 1.183 36.718 20.037 36.718h107.475c18.855 0 30.239-20.862 20.037-36.718l-13.013-20.226c-3.3-5.128-5.054-11.098-5.054-17.196v-43.771c0-5.93 1.659-11.741 4.789-16.777l47.476-76.379 28.354-37.476-13.686-10.98-36.881 27.67-47.327 41.313c-5.972 5.213-15.333 1.355-15.897-6.552l-4.026-56.451-4.335-50.239h-29.247l-3.442 50.239-4.026 56.451c-.564 7.908-9.924 11.766-15.897 6.552l-47.327-41.313-35.372-30.898-16.252 14.208z" fill="#daeecc"/><path d="m236.217 487.149c-18.854 0-30.239-19.467-20.037-34.262l13.013-18.873c3.3-4.785 5.054-10.355 5.054-16.046v-40.844c0-5.533-1.659-10.956-4.789-15.655l-43.966-66.001c-1.887-2.832-1.697-6.537.402-9.216l.035-.045-15.094-13.176-12.41-10.84-22.962-20.057-2.617 2.288-13.635 11.92 29.411 37.476 47.477 76.379c3.13 5.036 4.789 10.847 4.789 16.777v43.771c0 6.098-1.754 12.067-5.054 17.196l-13.013 20.226c-10.202 15.856 1.183 36.718 20.037 36.718h107.474c11.626 0 20.403-7.935 23.039-17.735h-97.154z" fill="#c9e7b4"/><g><g id="XMLID_243_"><g><g fill="#c9e7b4"><path d="m342.356 273.031-15.095 13.177c3.676 4.7 7.741 9.136 12.19 13.246 4.563 4.216 9.433 8.008 14.552 11.361l10.566-16.998 28.354-37.476-13.686-10.98z"/><path d="m238.084 251.341-1.436 20.131c6.507 1.297 13.181 1.98 19.947 1.98s13.44-.683 19.947-1.98l-1.436-20.131-4.335-50.239h-29.247z"/></g><path d="m324.091 225.673c-.204-2.418-3.247-3.409-4.804-1.547-14.985 17.924-37.504 29.326-62.692 29.326s-47.706-11.402-62.692-29.326c-1.557-1.862-4.6-.871-4.804 1.547-3.972 47.065-43.766 83.927-92.022 83.208-49.882-.743-90.17-42.17-89.577-92.054.478-40.208 27.047-74.141 63.563-85.656-.99-4.731-1.471-9.652-1.379-14.698.67-36.744 30.791-65.483 67.528-64.478 15.554.426 29.742 6.263 40.781 15.685 9.73-34.27 41.22-59.37 78.6-59.37s68.87 25.1 78.6 59.37c11.47-9.79 26.34-15.71 42.61-15.71 36.29 0 65.71 29.42 65.71 65.72 0 4.62-.48 9.13-1.39 13.48 36.516 11.515 63.085 45.448 63.563 85.656.594 49.884-39.694 91.311-89.577 92.054-48.252.72-88.046-36.142-92.018-83.207z" fill="#94cf6f"/></g></g><g><path d="m38.338 252.112c.422-35.432 21.103-65.991 50.999-80.63 6.789-3.325 11.268-10.163 11.179-17.722-.008-.665-.006-1.332.007-2.001.671-36.744 30.792-65.482 67.528-64.477 8.555.234 16.696 2.105 24.127 5.309 9.032 3.894 19.619.265 24.555-8.242 14.141-24.368 40.497-40.752 70.699-40.752 16.001 0 30.928 4.608 43.526 12.557-12.876-28.224-41.319-47.842-74.362-47.842-37.38 0-68.87 25.1-78.6 59.37-11.033-9.417-25.211-15.253-40.756-15.684-36.742-1.019-66.877 27.717-67.553 64.467-.093 5.049.388 9.973 1.379 14.707-36.516 11.514-63.085 45.447-63.564 85.655-.376 31.637 15.697 59.876 40.226 76.489-6.163-12.437-9.566-26.455-9.39-41.204z" fill="#81c758"/></g></g></g><g><path d="m505.745 180.346c-1.582-3.828-5.965-5.649-9.797-4.066-3.828 1.583-5.648 5.968-4.066 9.796 4.187 10.127 6.31 20.845 6.31 31.853 0 46.022-37.441 83.463-83.463 83.463-45.126 0-82.071-36.129-83.396-80.976 2.529-3.876 4.784-7.973 6.712-12.281 1.692-3.781-.001-8.217-3.782-9.909-3.779-1.691-8.216 0-9.909 3.782-11.947 26.695-38.543 43.944-67.758 43.944s-55.811-17.249-67.758-43.944c-1.692-3.782-6.13-5.473-9.909-3.782-3.781 1.692-5.475 6.128-3.782 9.909 1.928 4.309 4.184 8.405 6.712 12.281-1.325 44.847-38.27 80.976-83.396 80.976-46.022.001-83.463-37.441-83.463-83.463 0-36.609 23.437-68.601 58.319-79.607 3.674-1.159 5.872-4.913 5.085-8.685-.817-3.919-1.232-7.939-1.232-11.95 0-13.298 4.38-25.826 12.665-36.229 2.581-3.24 2.047-7.959-1.193-10.54s-7.959-2.045-10.539 1.194c-10.423 13.086-15.933 28.846-15.933 45.574 0 2.834.165 5.673.492 8.491-17.205 6.692-32.051 18.004-43.215 32.993-12.723 17.083-19.449 37.402-19.449 58.759 0 54.293 44.17 98.463 98.463 98.463 17.276 0 33.535-4.494 47.676-12.365l11.497 18.496c1.421 2.286 3.87 3.542 6.377 3.542 1.352 0 2.721-.365 3.952-1.131 3.519-2.187 4.598-6.811 2.411-10.329l-11.716-18.848c4.679-3.629 9.024-7.671 12.98-12.068l41.589 36.304c3.188 2.783 7.167 4.233 11.217 4.233 2.201 0 4.423-.429 6.549-1.305 6.039-2.489 10.079-8.082 10.545-14.598l3.433-48.148c3.823.504 7.701.776 11.622.776s7.8-.273 11.622-.776l3.433 48.149c.466 6.515 4.506 12.108 10.545 14.597 2.127.876 4.348 1.305 6.549 1.305 4.049 0 8.029-1.451 11.217-4.233l41.589-36.304c3.957 4.398 8.301 8.439 12.98 12.068l-43.809 70.479c-3.872 6.231-5.919 13.401-5.919 20.736v43.771c0 7.552 2.16 14.902 6.247 21.254l13.013 20.226c3.283 5.103 3.508 11.329.602 16.654-2.906 5.326-8.264 8.506-14.331 8.506h-107.475c-6.067 0-11.425-3.18-14.331-8.506s-2.682-11.552.602-16.654l13.013-20.226c4.087-6.352 6.247-13.702 6.247-21.254v-43.771c0-7.335-2.047-14.505-5.919-20.737l-15.106-24.3c-2.186-3.518-6.811-4.598-10.329-2.41-3.518 2.187-4.597 6.812-2.409 10.329l15.104 24.299c2.394 3.852 3.659 8.284 3.659 12.818v26.973l-.561.093c-9.985 1.662-18.334 7.795-22.905 16.826-4.572 9.031-4.572 19.39-.001 28.421l4.432 8.757c-4.144 8.945-3.843 19.135 1.007 28.021 5.576 10.219 15.856 16.32 27.498 16.32h107.475c11.642 0 21.922-6.101 27.498-16.32 5.577-10.219 5.146-22.166-1.153-31.956l-13.013-20.226c-1.777-2.761-2.951-5.831-3.499-9.031l9.488-5.51c9.613-5.583 15.426-15.553 15.55-26.669.123-11.116-5.467-21.213-14.953-27.008l-5.6-3.421 42.401-68.214c14.141 7.871 30.4 12.365 47.676 12.365 54.293 0 98.463-44.17 98.463-98.463-.001-12.984-2.506-25.629-7.447-37.583zm-279.168 126.911c-.076 1.075-.748 1.57-1.298 1.797-.548.227-1.374.347-2.185-.36l-42.277-36.905c6.941-10.569 11.904-22.543 14.357-35.393 9.914 9.405 21.892 16.449 34.991 20.527zm-43.271 130.383c2.095-4.139 5.708-7.114 10.083-8.373v1.477c0 4.668-1.335 9.211-3.862 13.138l-5.927 9.212-.294-.582c-2.393-4.725-2.393-10.146 0-14.872zm146.899-35.135c-.064 5.779-3.086 10.962-8.084 13.865l-2.318 1.346v-30.742c0-.038.004-.075.004-.114l2.624 1.603c4.932 3.013 7.839 8.262 7.774 14.042zm-40.108-93.811c-.812.708-1.637.586-2.185.36-.55-.227-1.222-.722-1.298-1.796l-3.589-50.335c13.099-4.078 25.077-11.121 34.991-20.527 2.454 12.85 7.417 24.824 14.357 35.393z"/><path d="m112.555 64.122c7.231-3.087 14.914-4.652 22.834-4.652 12.424 0 24.511 4.008 34.47 11.336-.415 1.86-.794 3.732-1.096 5.626-.917 5.738-1.382 10.31-1.382 13.589 0 4.142 3.357 7.5 7.5 7.5s7.5-3.358 7.5-7.5c0-1.711.207-5.047 1.194-11.222 2.752-17.218 11.055-32.819 23.38-43.93 13.635-12.293 31.265-19.063 49.641-19.063s36.006 6.77 49.641 19.063c12.324 11.111 20.627 26.712 23.378 43.931.989 6.185 1.196 9.516 1.196 11.221 0 4.142 3.357 7.5 7.5 7.5s7.5-3.358 7.5-7.5c0-3.271-.466-7.843-1.384-13.588-.303-1.895-.681-3.768-1.096-5.628 9.957-7.325 22.066-11.336 34.472-11.336 32.101 0 58.217 26.116 58.217 58.217 0 4.011-.415 8.031-1.232 11.95-.787 3.771 1.411 7.525 5.085 8.685 13.745 4.337 26.229 12.266 36.104 22.929 1.478 1.596 3.488 2.404 5.505 2.404 1.822 0 3.65-.661 5.094-1.997 3.039-2.814 3.222-7.559.407-10.599-10.153-10.965-22.658-19.481-36.455-24.875.328-2.82.493-5.66.493-8.497 0-40.372-32.845-73.217-73.217-73.217-13.897 0-27.502 3.992-39.159 11.372-5.042-12.331-12.656-23.361-22.363-32.112-16.397-14.781-37.594-22.922-59.686-22.922s-43.289 8.141-59.685 22.923c-9.708 8.752-17.323 19.784-22.366 32.116-11.656-7.382-25.24-11.376-39.156-11.376-9.955 0-19.619 1.97-28.723 5.856-3.81 1.626-5.58 6.033-3.953 9.842 1.626 3.81 6.033 5.582 9.842 3.954z"/><path d="m256.596 358.494c-8.789 0-16.868 4.022-22.166 11.036s-6.958 15.885-4.555 24.34l.995 3.5c.938 3.299 3.942 5.451 7.21 5.451.679 0 1.37-.093 2.056-.288 3.983-1.133 6.295-5.281 5.162-9.265l-.995-3.499c-1.105-3.889-.342-7.97 2.096-11.197s6.154-5.077 10.197-5.077c4.143 0 7.5-3.358 7.5-7.5s-3.358-7.501-7.5-7.501z"/><path d="m269.637 472.788h1.46c13.635 0 24.728-11.093 24.728-24.728 0-4.142-3.357-7.5-7.5-7.5s-7.5 3.358-7.5 7.5c0 5.364-4.363 9.728-9.728 9.728h-1.46c-4.143 0-7.5 3.358-7.5 7.5s3.357 7.5 7.5 7.5z"/><path d="m298.631 177.829c4.143 0 7.5-3.358 7.5-7.5v-1.188c0-10.13-4.552-19.55-12.488-25.845-7.937-6.296-18.146-8.582-28.011-6.278l-7.585 1.773c-4.033.943-6.538 4.978-5.595 9.011.942 4.034 4.979 6.539 9.011 5.596l7.584-1.773c5.377-1.258 10.947-.01 15.274 3.423s6.81 8.57 6.81 14.094v1.188c0 4.141 3.357 7.499 7.5 7.499z"/><path d="m429.739 210.192c-3.939-1.287-8.173.863-9.458 4.801-1.156 3.542-3.674 6.314-7.088 7.805-3.416 1.491-7.159 1.453-10.542-.104l-.525-.242c-3.763-1.735-8.218-.091-9.951 3.671s-.09 8.217 3.672 9.951l.527.243c3.696 1.703 7.68 2.555 11.665 2.555 3.8 0 7.602-.775 11.157-2.328 7.284-3.181 12.877-9.339 15.345-16.895 1.285-3.937-.864-8.172-4.802-9.457z"/><path d="m88.28 234.678c-7.396-2.533-11.674-10.45-9.74-18.025l1.167-4.574c1.023-4.014-1.4-8.097-5.413-9.121-4.016-1.021-8.098 1.399-9.122 5.413l-1.166 4.573c-3.854 15.097 4.675 30.877 19.416 35.925l1.05.359c.805.275 1.624.406 2.43.406 3.117 0 6.028-1.959 7.095-5.073 1.342-3.919-.748-8.184-4.667-9.525z"/><path d="m115.652 157.957h-4.135c-4.143 0-7.5 3.358-7.5 7.5s3.357 7.5 7.5 7.5h4.135c9.298 0 17.407 6.29 19.723 15.295.87 3.386 3.917 5.635 7.259 5.635.617 0 1.246-.077 1.872-.238 4.012-1.031 6.428-5.119 5.396-9.131-4.019-15.639-18.103-26.561-34.25-26.561z"/></g></g></svg>