<?xml version="1.0" encoding="utf-8"?>
<!-- Generator: Adobe Illustrator 25.2.0, SVG Export Plug-In . SVG Version: 6.00 Build 0)  -->
<svg version="1.1" id="Layer_1" xmlns="http://www.w3.org/2000/svg" xmlns:xlink="http://www.w3.org/1999/xlink" x="0px" y="0px"
	 viewBox="0 0 386.4 511" style="enable-background:new 0 0 386.4 511;" xml:space="preserve">
<style type="text/css">
	.st0{fill:#AFDC82;}
	.st1{fill:#96CD82;}
	.st2{fill:#E6646E;}
	.st3{fill:#DC4655;}
</style>
<g>
	<path class="st0" d="M288.2,94.7c26.4-12,54.3-13.8,77.7-7.3c5.5,1.5,8.3,7.5,5.8,12.5c-10.4,21.6-30,41.2-56.4,53.2
		c-9.3,4.1-27.7,9.6-36.8,11l-46.6-21.9C244.5,122.4,268.2,103.6,288.2,94.7z"/>
	<path class="st1" d="M223.2,70.7c-12.1-26.1-32-45.4-53.9-55.7c-5.2-2.4-11.1,0.3-12.7,5.8c-6.5,23.1-4.7,50.6,7.4,76.7
		c4.2,9.1,14.5,25.1,20.6,32.1l49.8,13.5C237.7,119.9,232.2,90.4,223.2,70.7z"/>
	<path class="st2" d="M106.5,494.7c26.8,9.9,50.8,9.1,110.4-36c58.9-44.5,117.8-55.6,144.2-125.5c33.8-89.6-43.1-168.4-119.4-196.5
		s-186.8-18-220.6,71.5c-26.4,70,10.8,116.3,25.9,188C62.1,468.8,79.7,484.9,106.5,494.7z"/>
	<path class="st3" d="M122.7,425.9c-18-84.9-57.5-134.8-33.3-225.1c8.4-31,22.7-55.8,40.4-75.3c-47.3,7.7-90,32.9-108.9,82.9
		c-26.4,70,10.8,116.3,25.9,188c15.3,72.5,32.8,88.6,59.7,98.4c12.1,4.5,23.7,6.6,38.2,3.7C137,482.4,129.7,459.6,122.7,425.9z"/>
	<path d="M313.8,165.5c1.9-0.8,3.7-1.5,5.6-2.4c31.8-14.4,56.1-39.5,66.3-68.9c2-5.7-0.9-11.7-6.5-14C350,68.5,315,70,283.1,84.3
		c-9.3,4.1-17.6,9.4-25.6,15.2c-0.2,0.2-0.7,0.4-1,0.5l0,0c0.1-0.1-0.1,0-0.1,0c-0.8,0.2-1.7,0-2.4-0.5c-1.5-1.2-2.5-2.8-3.7-4.3
		c-0.8-1.1-1.9-2.1-2.9-3.2c-0.9-1-1.8-2.1-2.8-3.2c-1.9-2.2-3.6-4.2-5.2-6.6c0,0,0,0-0.1-0.1c0,0,0,0-0.1-0.1
		c-1.7-5.4-3.7-10.7-6.2-16c-14.5-31.4-40-55.3-69.9-65.5c-5.7-2-11.9,0.9-14.2,6.4c-11.8,28.9-10.2,63.5,4.3,95
		c1.5,3.3,3.2,6.5,5,9.6c-5,0.1-9.9,0.3-14.9,0.8c-6.3,0.5-10.8,6-10.4,12.1c0.6,6.1,6.1,10.7,12.2,10.2c30.4-2.5,63,1.8,91.9,12.5
		c38.1,14,73.9,40.7,95.6,71.2c17.6,24.7,34.8,63.9,17,111c-17.1,45.2-48,63.4-87.3,86.2c-17.2,10.1-35,20.4-53.2,34.2
		c-58.7,44.3-78.3,42.1-99.6,34.2c-21.3-7.8-37.5-18.9-52.4-90.2c-4.6-22.2-11.2-41.5-17.5-60.2C25.3,291,13.9,257.3,31,212.1
		c12.3-32.7,37.4-56.4,72.4-68.7c5.8-2.1,8.9-8.5,6.9-14.2c-2.1-5.8-8.6-8.8-14.4-6.8c-41.4,14.5-71.2,42.8-85.9,82
		c-19.9,52.6-6.2,93.4,8.4,136.5c6.2,18.2,12.5,36.9,16.9,57.7c7.6,36.1,16.2,60.5,27.1,76.7c12.2,18,26.9,25.3,39.7,30
		c15.8,5.8,30.4,8,48.6,3.4c18.7-4.9,41.3-17.2,72.6-40.8c17.2-12.9,34.4-23.1,51-32.7c39.6-23.2,77-45,97-97.6
		c16.9-44.5,10-90-19.7-131.7C341.3,191,328.4,177.4,313.8,165.5z M222.8,119.2c-12-3-24.4-5.2-36.7-6.4c-4.6-6.2-8.6-12.9-11.9-20
		c-10.1-22-12.8-45.7-7.5-66.5c19.4,9.7,35.8,27.1,46.1,49.1C219.3,89.6,222.7,104.6,222.8,119.2z M256.3,130.6
		c9.7-10.7,22-19.6,36-25.9c22.3-10,46.3-12.6,67.4-7.4c-9.8,19.1-27.4,35.3-49.8,45.4c-6.1,2.7-12.2,4.9-18.5,6.5
		C280.4,142.1,268.6,135.9,256.3,130.6z"/>
	<path d="M180,266.7c-2.2,5.8,0.8,12.2,6.6,14.4c2.3,0.9,4.6,0.9,6.8,0.3c3.4-0.9,6.4-3.4,7.7-6.8l4.2-11.2
		c2.2-5.8-0.8-12.2-6.6-14.4c-5.8-2.2-12.3,0.8-14.5,6.5L180,266.7z"/>
	<path d="M293.4,308.3c-2.2,5.8,0.8,12.2,6.6,14.4c2.3,0.9,4.6,0.9,6.8,0.3c3.4-0.9,6.4-3.4,7.7-6.8l4.2-11.2
		c2.2-5.8-0.8-12.2-6.6-14.4c-5.8-2.2-12.3,0.8-14.5,6.5L293.4,308.3z"/>
	<path d="M73.3,239.3c2.3,0.9,4.6,0.9,6.8,0.3c3.4-0.9,6.4-3.4,7.7-6.8l4.2-11.2c2.2-5.8-0.8-12.2-6.6-14.4
		c-5.8-2.2-12.3,0.8-14.5,6.5l-4.2,11.2C64.5,230.7,67.5,237.1,73.3,239.3z"/>
	<path d="M144.5,253.5l4.2-11.2c2.2-5.8-0.8-12.2-6.6-14.4c-5.8-2.2-12.3,0.8-14.5,6.5l-4.2,11.2c-2.2,5.8,0.8,12.2,6.6,14.4
		c2.3,0.9,4.6,0.9,6.8,0.3C140.2,259.6,143.2,257.1,144.5,253.5z"/>
	<path d="M236.7,287.4c-2.2,5.8,0.8,12.2,6.6,14.4c2.3,0.9,4.6,0.9,6.8,0.3c3.4-0.9,6.4-3.4,7.7-6.8l4.2-11.2
		c2.2-5.8-0.8-12.2-6.6-14.4c-5.8-2.2-12.3,0.8-14.5,6.5L236.7,287.4z"/>
	<path d="M158.9,386.3l4.2-11.2c2.2-5.8-0.8-12.2-6.6-14.4c-5.8-2.2-12.3,0.8-14.5,6.5l-4.2,11.2c-2.2,5.8,0.8,12.2,6.6,14.4
		c2.3,0.9,4.6,0.9,6.8,0.3C154.6,392.3,157.6,389.8,158.9,386.3z"/>
	<path d="M102.3,365.4l4.2-11.2c2.2-5.8-0.8-12.2-6.6-14.4c-5.8-2.2-12.3,0.8-14.5,6.5l-4.2,11.2c-2.2,5.8,0.8,12.2,6.6,14.4
		c2.3,0.9,4.6,0.9,6.8,0.3C98,371.4,101,369,102.3,365.4z"/>
	<path d="M201,413.7c2.3,0.9,4.6,0.9,6.8,0.3c3.4-0.9,6.4-3.4,7.7-6.8l4.2-11.2c2.2-5.8-0.8-12.2-6.6-14.4
		c-5.8-2.2-12.3,0.8-14.5,6.5l-4.2,11.2C192.2,405.1,195.2,411.5,201,413.7z"/>
	<path d="M187.2,333c-2.2,5.8,0.8,12.2,6.6,14.4c2.3,0.9,4.6,0.9,6.8,0.3c3.4-0.9,6.4-3.4,7.7-6.8l4.2-11.2
		c2.2-5.8-0.8-12.2-6.6-14.4c-5.8-2.2-12.3,0.8-14.5,6.5L187.2,333z"/>
	<path d="M95,299.1l4.2-11.2c2.2-5.8-0.8-12.2-6.6-14.4c-5.8-2.2-12.3,0.8-14.5,6.5l-4.2,11.2c-2.2,5.8,0.8,12.2,6.6,14.4
		c2.3,0.9,4.6,0.9,6.8,0.3C90.7,305.1,93.7,302.6,95,299.1z"/>
	<path d="M151.8,320l4.2-11.2c2.2-5.8-0.8-12.2-6.6-14.4c-5.8-2.2-12.3,0.8-14.5,6.5l-4.2,11.2c-2.2,5.8,0.8,12.2,6.6,14.4
		c2.3,0.9,4.6,0.9,6.8,0.3C147.5,325.9,150.4,323.4,151.8,320z"/>
	<path d="M243.9,353.9c-2.2,5.8,0.8,12.2,6.6,14.4c2.3,0.9,4.6,0.9,6.8,0.3c3.4-0.9,6.4-3.4,7.7-6.8l4.2-11.2
		c2.2-5.8-0.8-12.2-6.6-14.4c-5.8-2.2-12.3,0.8-14.5,6.5L243.9,353.9z"/>
	<path d="M236.2,235.5c2.3,0.9,4.6,0.9,6.8,0.3c3.4-0.9,6.4-3.4,7.7-6.8l4.2-11.2c2.2-5.8-0.8-12.2-6.6-14.4s-12.3,0.8-14.5,6.5
		l-4.2,11.2C227.4,226.9,230.3,233.4,236.2,235.5z"/>
	<path d="M116.2,179.4c-2.2,5.8,0.8,12.2,6.6,14.4c2.3,0.9,4.6,0.9,6.8,0.3c3.4-0.9,6.4-3.4,7.7-6.8l4.2-11.2
		c2.2-5.8-0.8-12.2-6.6-14.4s-12.3,0.8-14.5,6.5L116.2,179.4z"/>
	<path d="M191.7,182.5c-5.8-2.2-12.3,0.8-14.5,6.5l-4.2,11.2c-2.2,5.8,0.8,12.2,6.6,14.4c2.3,0.9,4.6,0.9,6.8,0.3
		c3.4-0.9,6.4-3.4,7.7-6.8l4.2-11.2C200.5,191.1,197.5,184.7,191.7,182.5z"/>
	<path d="M292.8,256.3c2.3,0.9,4.6,0.9,6.8,0.3c3.4-0.9,6.4-3.4,7.7-6.8l4.2-11.2c2.2-5.8-0.8-12.2-6.6-14.4s-12.3,0.8-14.5,6.5
		l-4.2,11.2C284,247.8,287,254.2,292.8,256.3z"/>
	<path d="M151.6,459.2c2.3,0.9,4.6,0.9,6.8,0.3c3.4-0.9,6.4-3.4,7.7-6.8l4.2-11.2c2.2-5.8-0.8-12.2-6.6-14.4
		c-5.8-2.2-12.3,0.8-14.5,6.5l-4.2,11.2C142.7,450.6,145.7,457.1,151.6,459.2z"/>
	<path d="M92.5,412.8L88.3,424c-2.2,5.8,0.8,12.2,6.6,14.4c2.3,0.9,4.6,0.9,6.8,0.3c3.4-0.9,6.4-3.4,7.7-6.8l4.2-11.2
		c2.2-5.8-0.8-12.2-6.6-14.4C101.2,404,94.7,406.9,92.5,412.8z"/>
</g>
</svg>
