<?xml version="1.0" encoding="utf-8"?>
<!-- Generator: Adobe Illustrator 25.2.0, SVG Export Plug-In . SVG Version: 6.00 Build 0)  -->
<svg version="1.1" id="Layer_1" xmlns="http://www.w3.org/2000/svg" xmlns:xlink="http://www.w3.org/1999/xlink" x="0px" y="0px"
	 viewBox="0 0 511 511" style="enable-background:new 0 0 511 511;" xml:space="preserve">
<style type="text/css">
	.st0{fill:#AFDC82;}
	.st1{fill:#96CD82;}
	.st2{fill:#E6646E;}
	.st3{fill:#DC4655;}
</style>
<g>
	<path class="st0" d="M340.3,114.8c24-11,49.3-12.7,70.5-6.7c5,1.4,7.5,6.9,5.3,11.5c-9.4,19.9-27.2,37.9-51.2,48.9
		c-8.4,3.8-25.1,8.8-33.4,10.1l-42.3-20.1C300.7,140.3,322.2,123,340.3,114.8z"/>
	<path class="st1" d="M281.3,92.8c-11-24-29-41.8-48.9-51.2c-4.7-2.2-10.1,0.3-11.5,5.3c-5.9,21.2-4.3,46.5,6.7,70.5
		c3.8,8.4,13.2,23.1,18.7,29.5l45.2,12.4C294.5,138,289.5,110.9,281.3,92.8z"/>
	<path class="st2" d="M175.4,482.7c24.3,9.1,46.1,8.4,100.2-33.1c53.5-40.9,106.9-51.1,130.9-115.4
		c30.7-82.4-39.1-154.9-108.4-180.7s-169.5-16.6-200.2,65.8c-24,64.4,9.8,107,23.5,172.9C135.1,458.9,151.1,473.7,175.4,482.7z"/>
	<path class="st3" d="M190.1,419.4c-16.3-78.1-52.2-124-30.2-207c7.6-28.5,20.6-51.3,36.7-69.3c-42.9,7.1-81.7,30.3-98.8,76.2
		c-24,64.4,9.8,107,23.5,172.9c13.9,66.7,29.8,81.5,54.2,90.5c11,4.1,21.5,6.1,34.7,3.4C203.1,471.4,196.5,450.4,190.1,419.4z"/>
	<path d="M363.6,179.9c1.7-0.7,3.4-1.4,5.1-2.2c28.9-13.2,50.9-36.3,60.2-63.4c1.8-5.2-0.8-10.8-5.9-12.9
		c-26.6-10.7-58.4-9.3-87.3,3.9c-8.4,3.8-16,8.6-23.2,14c-0.2,0.2-0.6,0.4-0.9,0.5c0,0,0,0,0,0c0.1-0.1-0.1,0-0.1,0
		c-0.7,0.2-1.5,0-2.2-0.5c-1.4-1.1-2.3-2.6-3.4-4c-0.7-1-1.7-1.9-2.6-2.9c-0.8-0.9-1.6-1.9-2.5-2.9c-1.7-2-3.3-3.9-4.7-6.1
		c0,0,0,0-0.1-0.1c0,0,0,0-0.1-0.1c-1.5-5-3.4-9.8-5.6-14.7c-13.2-28.9-36.3-50.9-63.4-60.2c-5.2-1.8-10.8,0.8-12.9,5.9
		c-10.7,26.6-9.3,58.4,3.9,87.4c1.4,3,2.9,6,4.5,8.8c-4.5,0.1-9,0.3-13.5,0.7c-5.7,0.5-9.8,5.5-9.4,11.1c0.5,5.6,5.5,9.8,11.1,9.4
		c27.6-2.3,57.2,1.7,83.4,11.5c34.6,12.9,67.1,37.4,86.8,65.5c16,22.7,31.6,58.8,15.4,102.1c-15.5,41.6-43.6,58.3-79.2,79.3
		c-15.6,9.3-31.8,18.8-48.3,31.5c-53.3,40.7-71.1,38.7-90.4,31.5c-19.3-7.2-34-17.4-47.6-83c-4.2-20.4-10.2-38.2-15.9-55.4
		c-13.1-39.2-23.4-70.2-7.9-111.8c11.2-30.1,33.9-51.9,65.7-63.2c5.3-1.9,8.1-7.8,6.3-13.1c-1.9-5.3-7.8-8.1-13.1-6.3
		c-37.6,13.3-64.6,39.4-78,75.4c-18.1,48.4-5.6,85.9,7.6,125.5c5.6,16.7,11.3,33.9,15.3,53.1c6.9,33.2,14.7,55.6,24.6,70.5
		c11.1,16.6,24.4,23.3,36,27.6c14.3,5.3,27.6,7.4,44.1,3.1c17-4.5,37.5-15.8,65.9-37.5c15.6-11.9,31.2-21.2,46.3-30.1
		c35.9-21.3,69.9-41.4,88-89.8c15.3-40.9,9.1-82.8-17.9-121.1C388.5,203.4,376.8,190.9,363.6,179.9z M281,137.4
		c-10.9-2.8-22.1-4.8-33.3-5.9c-4.2-5.7-7.8-11.9-10.8-18.4c-9.2-20.2-11.6-42-6.8-61.2c17.6,8.9,32.5,24.9,41.8,45.2
		C277.8,110.1,280.9,123.9,281,137.4z M311.4,147.8c8.8-9.8,20-18,32.7-23.8c20.2-9.2,42-11.6,61.2-6.8
		c-8.9,17.6-24.9,32.5-45.2,41.8c-5.5,2.5-11.1,4.5-16.8,6C333.2,158.4,322.5,152.7,311.4,147.8z"/>
	<path d="M242.1,273c-2,5.3,0.7,11.2,6,13.2c2.1,0.8,4.2,0.8,6.2,0.3c3.1-0.8,5.8-3.1,7-6.3l3.8-10.3c2-5.3-0.7-11.2-6-13.2
		c-5.3-2-11.2,0.7-13.2,6L242.1,273z"/>
	<path d="M345,311.3c-2,5.3,0.7,11.2,6,13.2c2.1,0.8,4.2,0.8,6.2,0.3c3.1-0.8,5.8-3.1,7-6.3l3.8-10.3c2-5.3-0.7-11.2-6-13.2
		c-5.3-2-11.2,0.7-13.2,6L345,311.3z"/>
	<path d="M145.3,247.8c2.1,0.8,4.2,0.8,6.2,0.3c3.1-0.8,5.8-3.1,7-6.3l3.8-10.3c2-5.3-0.7-11.2-6-13.2c-5.3-2-11.2,0.7-13.2,6
		l-3.8,10.3C137.3,239.9,140,245.8,145.3,247.8z"/>
	<path d="M209.9,260.9l3.8-10.3c2-5.3-0.7-11.2-6-13.2c-5.3-2-11.2,0.7-13.2,6l-3.8,10.3c-2,5.3,0.7,11.2,6,13.2
		c2.1,0.8,4.2,0.8,6.2,0.3C206,266.5,208.7,264.2,209.9,260.9z"/>
	<path d="M293.6,292.1c-2,5.3,0.7,11.2,6,13.2c2.1,0.8,4.2,0.8,6.2,0.3c3.1-0.8,5.8-3.1,7-6.3l3.8-10.3c2-5.3-0.7-11.2-6-13.2
		c-5.3-2-11.2,0.7-13.2,6L293.6,292.1z"/>
	<path d="M223,383l3.8-10.3c2-5.3-0.7-11.2-6-13.2c-5.3-2-11.2,0.7-13.2,6l-3.8,10.3c-2,5.3,0.7,11.2,6,13.2
		c2.1,0.8,4.2,0.8,6.2,0.3C219.1,388.5,221.8,386.2,223,383z"/>
	<path d="M171.6,363.8l3.8-10.3c2-5.3-0.7-11.2-6-13.2c-5.3-2-11.2,0.7-13.2,6l-3.8,10.3c-2,5.3,0.7,11.2,6,13.2
		c2.1,0.8,4.2,0.8,6.2,0.3C167.7,369.3,170.4,367.1,171.6,363.8z"/>
	<path d="M261.2,408.2c2.1,0.8,4.2,0.8,6.2,0.3c3.1-0.8,5.8-3.1,7-6.3l3.8-10.3c2-5.3-0.7-11.2-6-13.2c-5.3-2-11.2,0.7-13.2,6
		l-3.8,10.3C253.2,400.3,255.9,406.2,261.2,408.2z"/>
	<path d="M248.7,334c-2,5.3,0.7,11.2,6,13.2c2.1,0.8,4.2,0.8,6.2,0.3c3.1-0.8,5.8-3.1,7-6.3l3.8-10.3c2-5.3-0.7-11.2-6-13.2
		c-5.3-2-11.2,0.7-13.2,6L248.7,334z"/>
	<path d="M165,302.8l3.8-10.3c2-5.3-0.7-11.2-6-13.2c-5.3-2-11.2,0.7-13.2,6l-3.8,10.3c-2,5.3,0.7,11.2,6,13.2
		c2.1,0.8,4.2,0.8,6.2,0.3C161.1,308.3,163.8,306,165,302.8z"/>
	<path d="M216.5,322l3.8-10.3c2-5.3-0.7-11.2-6-13.2c-5.3-2-11.2,0.7-13.2,6l-3.8,10.3c-2,5.3,0.7,11.2,6,13.2
		c2.1,0.8,4.2,0.8,6.2,0.3C212.6,327.5,215.3,325.2,216.5,322z"/>
	<path d="M300.1,353.2c-2,5.3,0.7,11.2,6,13.2c2.1,0.8,4.2,0.8,6.2,0.3c3.1-0.8,5.8-3.1,7-6.3l3.8-10.3c2-5.3-0.7-11.2-6-13.2
		c-5.3-2-11.2,0.7-13.2,6L300.1,353.2z"/>
	<path d="M293.1,244.3c2.1,0.8,4.2,0.8,6.2,0.3c3.1-0.8,5.8-3.1,7-6.3l3.8-10.3c2-5.3-0.7-11.2-6-13.2c-5.3-2-11.2,0.7-13.2,6
		l-3.8,10.3C285.1,236.4,287.8,242.4,293.1,244.3z"/>
	<path d="M184.2,192.7c-2,5.3,0.7,11.2,6,13.2c2.1,0.8,4.2,0.8,6.2,0.3c3.1-0.8,5.8-3.1,7-6.3l3.8-10.3c2-5.3-0.7-11.2-6-13.2
		c-5.3-2-11.2,0.7-13.2,6L184.2,192.7z"/>
	<path d="M252.7,195.6c-5.3-2-11.2,0.7-13.2,6l-3.8,10.3c-2,5.3,0.7,11.2,6,13.2c2.1,0.8,4.2,0.8,6.2,0.3c3.1-0.8,5.8-3.1,7-6.3
		l3.8-10.3C260.7,203.5,258,197.6,252.7,195.6z"/>
	<path d="M344.5,263.5c2.1,0.8,4.2,0.8,6.2,0.3c3.1-0.8,5.8-3.1,7-6.3l3.8-10.3c2-5.3-0.7-11.2-6-13.2s-11.2,0.7-13.2,6l-3.8,10.3
		C336.5,255.6,339.2,261.5,344.5,263.5z"/>
	<path d="M216.3,450.1c2.1,0.8,4.2,0.8,6.2,0.3c3.1-0.8,5.8-3.1,7-6.3l3.8-10.3c2-5.3-0.7-11.2-6-13.2c-5.3-2-11.2,0.7-13.2,6
		l-3.8,10.3C208.3,442.2,211,448.1,216.3,450.1z"/>
	<path d="M162.7,407.4l-3.8,10.3c-2,5.3,0.7,11.2,6,13.2c2.1,0.8,4.2,0.8,6.2,0.3c3.1-0.8,5.8-3.1,7-6.3l3.8-10.3
		c2-5.3-0.7-11.2-6-13.2C170.6,399.3,164.7,402,162.7,407.4z"/>
</g>
</svg>
