<svg id="Capa_1" enable-background="new 0 0 512 512" height="512" viewBox="0 0 512 512" width="512" xmlns="http://www.w3.org/2000/svg"><g><g><g><path d="m502.326 221.415c10.161 43.617-16.969 87.213-60.586 97.374-23.032 5.368-46.265 8.631-69.478 9.809-57.796 2.931-115.532-7.039-169.964-29.658-37.191-15.449-71.633-36.406-102.39-62.298-31.431-26.456-58.38-57.554-80.113-92.44-23.686-38.007-12.065-88.028 25.952-111.715 38.018-23.676 88.029-12.064 111.716 25.953 25.429 40.817 62.449 72.177 107.062 90.718 44.775 18.601 93.326 22.639 140.417 11.662 43.616-10.152 87.223 16.968 97.384 60.595z" fill="#94cf6f"/></g><g><g><g id="XMLID_244_"><g><path d="m438.274 310.831c-6.369.54-12.459-2.802-15.29-8.532-24.733-50.056-77.538-89.981-136.3-89.981-24.786 0-48.185 6.053-68.796 16.756-3.49 1.812-7.663 1.785-11.153-.026-15.412-7.995-32.383-13.38-50.324-15.587-8.371-1.029-16.26-4.558-22.354-10.389-23.57-22.551-44.207-47.932-61.521-75.727-22.231-35.674-13.37-81.935 19.239-107.067-15.683-.625-31.701 3.286-46.028 12.209-38.018 23.687-49.639 73.708-25.953 111.715 21.733 34.885 48.682 65.984 80.113 92.44 30.756 25.892 65.198 46.849 102.39 62.298 54.433 22.619 112.168 32.589 169.964 29.658 23.213-1.178 46.446-4.441 69.478-9.809 9.916-2.31 18.967-6.363 26.934-11.736-10.116 1.661-20.255 2.918-30.399 3.778z" fill="#81c758"/><path d="m457.249 285.948 38.584-9.78c-10.433 20.766-29.682 36.931-54.093 42.621-23.032 5.368-46.265 8.631-69.478 9.809-57.796 2.931-115.532-7.039-169.964-29.658-37.191-15.449-71.633-36.406-102.39-62.298-31.431-26.456-58.38-57.554-80.113-92.44-15.005-24.079-15.845-52.999-4.767-76.957l8.081 17.732c70.545 154.757 255.948 240.59 434.14 200.971z" fill="#a6d786"/><path d="m468.675 307.052c-10.117 1.662-20.256 2.919-30.4 3.78-6.369.54-12.459-2.802-15.29-8.532-1.609-3.257-3.34-6.47-5.181-9.634-165.438 19.863-329.345-64.332-394.695-207.69l-8.081-17.732c-11.078 23.958-10.238 52.879 4.768 76.958 21.733 34.885 48.682 65.984 80.113 92.44 30.756 25.892 65.198 46.849 102.39 62.298 54.433 22.619 112.168 32.589 169.964 29.658 14.692-.746 29.392-2.332 44.044-4.753.016-.002.032-.006.047-.008 8.482-1.403 16.948-3.081 25.387-5.047 9.913-2.31 18.974-6.349 26.939-11.719z" fill="#94cf6f"/><path d="m500.886 216.067-35.872 12.025c-162.714 48.954-337.633-26.98-409.599-177.8l-8.751-18.339-.01-.02c9.446-5.72 19.618-9.285 29.91-10.826l.775 1.682c67.504 145.09 231.779 218.032 384.683 170.82l22.035-7.583c7.513 8.47 13.344 18.621 16.829 30.041z" fill="#a6d786"/><g fill="#94cf6f"><path d="m46.658 31.943.006.01 8.751 18.339c2.331 4.886 4.777 9.691 7.32 14.418 3.164-12.598 9.328-24.451 18.24-34.384-1.239-2.493-2.456-5.001-3.637-7.538l-.77-1.672c-4.354.624-9.736 1.771-15.669 3.933-5.793 2.112-10.556 4.624-14.241 6.894z"/><path d="m240.041 219.769c42.01 16.123 87.348 24.16 133.423 22.999-24.829-18.717-54.928-30.451-86.779-30.451-16.282.001-31.957 2.628-46.644 7.452z"/></g></g></g></g><g><circle cx="286.685" cy="362.106" fill="#a6d786" r="129.646"/><path d="m231.178 244.909c-43.826 20.798-74.139 65.46-74.139 117.197s30.319 96.401 74.145 117.199c34.47-27.466 56.595-69.801 56.595-117.199-.001-47.399-22.131-89.73-56.601-117.197z" fill="#94cf6f"/><circle cx="286.685" cy="362.106" fill="#e9f5e1" r="98.014"/><path d="m188.671 362.106c0 43.191 27.936 79.854 66.725 92.912 20.262-25.554 32.384-57.842 32.384-92.912s-12.124-67.357-32.389-92.91c-38.787 13.059-66.72 49.721-66.72 92.91z" fill="#dff0d3"/><circle cx="137.991" cy="362.106" fill="#a6d786" r="129.646"/><path d="m68.191 359.408c0-59.24 39.755-109.213 94.025-124.698-7.842-1.481-15.953-2.25-24.225-2.25-71.601 0-129.646 58.044-129.646 129.646s58.045 129.646 129.646 129.646c12.362 0 24.318-1.731 35.642-4.963-60.032-11.339-105.442-64.052-105.442-127.381z" fill="#94cf6f"/><circle cx="137.991" cy="362.106" fill="#e9f5e1" r="98.014"/><g fill="#dff0d3"><path d="m112.122 456.669c-26.934-23.754-43.931-58.525-43.931-97.261 0-34.535 13.511-65.914 35.53-89.151-37.23 13.897-63.744 49.775-63.744 91.849 0 45.174 30.57 83.212 72.145 94.563z"/><path d="m152.787 305.834c0 5.642-7.054 15.544-11.42 21.134-1.713 2.192-5.036 2.192-6.749 0-4.367-5.589-11.42-15.491-11.42-21.134 0-8.171 6.625-14.795 14.795-14.795 8.169 0 14.794 6.625 14.794 14.795z"/><path d="m178.291 320.139c-4.814 2.942-9.585 14.124-12.078 20.765-.978 2.605.755 5.441 3.52 5.759 7.047.812 19.174 1.667 23.988-1.275 6.972-4.261 9.17-13.367 4.91-20.34-4.261-6.972-13.367-9.17-20.34-4.909z"/><path d="m97.691 320.139c4.814 2.942 9.585 14.124 12.078 20.765.978 2.605-.755 5.441-3.52 5.759-7.047.812-19.174 1.667-23.988-1.275-6.972-4.261-9.17-13.367-4.91-20.34 4.261-6.972 13.368-9.17 20.34-4.909z"/><path d="m152.787 418.377c0-5.642-7.054-15.544-11.42-21.134-1.713-2.192-5.036-2.192-6.749 0-4.367 5.589-11.42 15.491-11.42 21.134 0 8.171 6.625 14.795 14.795 14.795 8.169 0 14.794-6.624 14.794-14.795z"/><path d="m178.291 404.073c-4.814-2.942-9.585-14.124-12.078-20.765-.978-2.605.755-5.441 3.52-5.759 7.047-.812 19.174-1.667 23.988 1.275 6.972 4.261 9.17 13.367 4.91 20.34-4.261 6.971-13.367 9.169-20.34 4.909z"/><path d="m97.691 404.073c4.814-2.942 9.585-14.124 12.078-20.765.978-2.605-.755-5.441-3.52-5.759-7.047-.812-19.174-1.667-23.988 1.275-6.972 4.261-9.17 13.367-4.91 20.34 4.261 6.971 13.368 9.169 20.34 4.909z"/></g></g><g><g><g><path d="m326.28 320.139c-4.814 2.942-9.585 14.124-12.078 20.765-.978 2.605.755 5.441 3.52 5.759 7.047.812 19.174 1.667 23.988-1.275 6.972-4.261 9.17-13.367 4.91-20.34-4.262-6.972-13.368-9.17-20.34-4.909z" fill="#dff0d3"/></g><g><path d="m326.28 404.073c-4.814-2.942-9.585-14.124-12.078-20.765-.978-2.605.755-5.441 3.52-5.759 7.047-.812 19.174-1.667 23.988 1.275 6.972 4.261 9.17 13.367 4.91 20.34-4.262 6.972-13.368 9.169-20.34 4.909z" fill="#dff0d3"/></g></g></g></g><path d="m55.415 50.292c2.331 4.886 4.777 9.691 7.32 14.418 3.164-12.598 9.328-24.451 18.24-34.384-1.239-2.493-2.456-5.001-3.637-7.538l-.775-1.682c-10.292 1.541-20.464 5.106-29.91 10.826l.01.02z" fill="#94cf6f"/></g><g><path d="m70.682 220.113c1.473 1.465 3.399 2.196 5.325 2.196 1.941 0 3.881-.743 5.357-2.228 2.941-2.959 2.927-7.741-.031-10.681-20.955-20.83-39.502-44.108-55.125-69.187-10.035-16.107-13.06-34.629-9.913-51.977 21.195 46.446 52.5 87.343 93.046 121.555 1.417 1.196 3.147 1.781 4.867 1.781 2.148 0 4.282-.911 5.777-2.683 2.69-3.188 2.287-7.953-.902-10.643-38.862-32.791-68.841-71.956-89.103-116.405l-6.577-14.427c4.792-9.255 11.585-17.592 20.235-24.271l4.963 10.401c36.742 76.999 101.161 137.501 181.389 170.359.937.384 1.906.566 2.859.566 2.975 0 5.795-1.769 6.992-4.693 1.581-3.86-.267-8.271-4.127-9.852-76.746-31.433-138.356-89.28-173.478-162.886l-5.677-11.897c5.081-2.466 10.339-4.28 15.673-5.496 11.121 23.15 24.916 44.935 41.051 64.799 1.492 1.838 3.671 2.791 5.867 2.791 1.674 0 3.358-.553 4.758-1.691 3.238-2.629 3.73-7.387 1.1-10.625-14.292-17.595-26.65-36.777-36.839-57.112 24.693-.114 48.896 12.175 62.883 34.627 26.262 42.154 64.497 74.554 110.575 93.698 23.508 9.768 48.156 15.687 73.261 17.595 4.162.311 7.787-2.801 8.104-6.959.316-4.159-2.8-7.788-6.959-8.104-23.501-1.786-46.584-7.331-68.609-16.482-43.155-17.93-78.962-48.268-103.55-87.737-25.849-41.486-80.631-54.211-122.122-28.366-41.49 25.849-54.215 80.632-28.367 122.12 16.239 26.068 35.517 50.263 57.297 71.914z"/><path d="m509.679 219.696c-11.089-47.604-58.843-77.315-106.452-66.228-11.704 2.726-23.706 4.519-35.671 5.328-4.162.281-7.307 3.883-7.026 8.046s3.895 7.316 8.046 7.026c12.774-.863 25.586-2.778 38.079-5.687 23.062-5.371 46.154.814 63.219 14.739l-10.196 3.509c-55.103 16.994-113.67 18.442-169.385 4.186-54.641-13.979-104.508-42.434-144.213-82.286-2.945-2.957-7.727-2.964-10.681-.02-2.956 2.944-2.964 7.726-.02 10.681 41.622 41.778 93.897 71.606 151.17 86.259 26.576 6.799 53.771 10.192 80.96 10.192 32.614 0 65.22-4.88 96.742-14.615.077-.023.153-.048.23-.075l17.056-5.87c3.857 4.98 7.106 10.501 9.613 16.484l-28.419 9.53c-23.441 7.044-47.703 11.56-72.119 13.427-4.159.317-7.273 3.948-6.955 8.107.303 3.964 3.612 6.978 7.523 6.978.192 0 .388-.007.584-.022 25.536-1.952 50.916-6.682 75.432-14.057.076-.022.151-.046.226-.072l28.105-9.425c2.973 15.32.926 30.549-5.051 43.911l-34.968 8.861c-8.856 1.966-18.085 3.669-27.43 5.062-4.126.614-6.972 4.457-6.357 8.583.559 3.748 3.782 6.441 7.461 6.441.371 0 .745-.027 1.123-.084 9.734-1.45 19.353-3.227 28.589-5.28.073-.016.145-.033.217-.051l19.415-4.92c-9.781 11.149-22.988 19.469-38.503 23.083-.28.065-.561.126-.841.186-.294.063-.589.128-.883.195-4.068.928-6.611 4.977-5.684 9.044.799 3.502 3.911 5.874 7.357 5.874.557 0 1.122-.062 1.687-.19l.719-.158c.359-.078.717-.155 1.074-.239 47.606-11.091 77.316-58.846 66.227-106.453z"/><path d="m275.19 362.106c0-75.652-61.548-137.199-137.199-137.199s-137.198 61.547-137.198 137.199 61.547 137.199 137.199 137.199 137.198-61.548 137.198-137.199zm-137.199 122.093c-67.322 0-122.093-54.771-122.093-122.093s54.771-122.093 122.093-122.093 122.093 54.771 122.093 122.093-54.771 122.093-122.093 122.093z"/><path d="m236.278 363.114c4.162-.274 7.315-3.87 7.041-8.032-3.636-55.257-49.902-98.543-105.328-98.543-58.21 0-105.567 47.357-105.567 105.567s47.357 105.567 105.567 105.567c47.505 0 89.391-31.981 101.86-77.773 1.096-4.025-1.279-8.176-5.303-9.272-4.025-1.097-8.176 1.279-9.272 5.303-10.683 39.234-46.575 66.634-87.284 66.634-49.881 0-90.461-40.58-90.461-90.461s40.58-90.461 90.461-90.461c47.496 0 87.14 37.085 90.255 84.427.273 4.164 3.866 7.303 8.031 7.044z"/><path d="m137.991 283.486c-12.323 0-22.348 10.025-22.348 22.348 0 2.255 0 9.116 13.022 25.784 2.258 2.89 5.658 4.547 9.327 4.547s7.069-1.658 9.327-4.548c13.022-16.667 13.022-23.528 13.022-25.783-.001-12.322-10.027-22.348-22.35-22.348zm0 35.42c-5.745-7.892-7.197-12.066-7.242-13.071 0-3.993 3.249-7.242 7.242-7.242 3.989 0 7.236 3.242 7.242 7.23-.051 1.031-1.508 5.206-7.242 13.083z"/><path d="m160.126 348.58c1.913 3.131 5.101 5.167 8.743 5.586 5.111.589 9.323.823 12.801.823 10.824 0 14.533-2.266 15.989-3.156 10.514-6.425 13.841-20.207 7.416-30.723-6.426-10.516-20.209-13.842-30.723-7.415-1.924 1.175-7.779 4.753-15.211 24.556-1.287 3.433-.929 7.199.985 10.329zm22.114-22.002c3.408-2.074 7.866-.994 9.946 2.409 2.083 3.408 1.004 7.874-2.388 9.947-.895.493-5.215 1.432-14.945.646 3.731-9.001 6.534-12.421 7.387-13.002z"/><path d="m101.629 313.694c-10.515-6.425-24.298-3.099-30.723 7.415-6.426 10.515-3.1 24.298 7.416 30.724 1.456.889 5.163 3.155 15.989 3.155 3.478 0 7.692-.234 12.8-.823 3.644-.419 6.831-2.455 8.744-5.586s2.272-6.896.983-10.33c-7.43-19.801-13.284-23.379-15.209-24.555zm-15.429 25.25c-3.408-2.083-4.486-6.549-2.404-9.957 1.364-2.232 3.75-3.463 6.192-3.463 1.282 0 2.581.34 3.754 1.054.854.581 3.656 4 7.387 13.001-9.731.789-14.048-.149-14.929-.635z"/><path d="m137.991 440.725c12.323 0 22.348-10.025 22.348-22.348 0-2.255 0-9.115-13.022-25.784-2.258-2.89-5.658-4.547-9.327-4.547s-7.069 1.658-9.327 4.548c-13.022 16.668-13.022 23.528-13.022 25.783.002 12.323 10.027 22.348 22.35 22.348zm0-35.419c5.734 7.878 7.192 12.052 7.242 13.083-.006 3.988-3.253 7.231-7.242 7.231-3.993 0-7.242-3.249-7.243-7.225.046-1.021 1.497-5.196 7.243-13.089z"/><path d="m174.352 410.517c.001 0 .001.001 0 0 3.63 2.218 7.647 3.273 11.617 3.273 7.534 0 14.899-3.804 19.107-10.69 6.425-10.515 3.098-24.297-7.417-30.723-1.924-1.175-7.78-4.753-28.789-2.332-3.644.419-6.83 2.455-8.744 5.585-1.913 3.131-2.272 6.896-.984 10.332 7.432 19.801 13.287 23.38 15.21 24.555zm15.431-25.25c3.408 2.083 4.487 6.549 2.404 9.957-2.081 3.404-6.541 4.485-9.946 2.41-.854-.582-3.656-4.001-7.387-13.002 9.73-.786 14.048.151 14.929.635z"/><path d="m70.906 403.102c4.209 6.886 11.571 10.689 19.106 10.689 3.97 0 7.988-1.056 11.616-3.273h.001c1.924-1.175 7.779-4.753 15.21-24.555 1.289-3.434.931-7.2-.983-10.331s-5.101-5.167-8.744-5.586c-21.014-2.421-26.866 1.157-28.79 2.333-10.515 6.425-13.842 20.207-7.416 30.723zm15.278-17.825c.649-.358 3.091-.948 8.085-.948 1.903 0 4.176.086 6.861.302-3.732 9.001-6.534 12.421-7.387 13.002-3.405 2.074-7.865.993-9.946-2.41-2.083-3.407-1.005-7.873 2.387-9.946z"/><path d="m285.98 224.907c-16.204 0-32.07 2.8-47.156 8.321-3.918 1.433-5.931 5.772-4.497 9.689 1.434 3.918 5.773 5.932 9.689 4.497 13.418-4.911 27.538-7.401 41.965-7.401 67.322 0 122.093 54.771 122.093 122.093s-54.772 122.093-122.094 122.093c-14.427 0-28.547-2.491-41.964-7.401-3.916-1.433-8.255.579-9.689 4.497s.579 8.255 4.497 9.689c15.086 5.522 30.952 8.321 47.155 8.321 75.652 0 137.199-61.547 137.199-137.199s-61.547-137.199-137.198-137.199z"/><path d="m267.336 450.64c-4.082-.853-8.086 1.762-8.941 5.845s1.762 8.086 5.845 8.941c7.119 1.49 14.434 2.247 21.74 2.247 58.21 0 105.567-47.357 105.567-105.567s-47.358-105.567-105.567-105.567c-7.306 0-14.622.756-21.741 2.247-4.083.855-6.699 4.858-5.844 8.941.855 4.084 4.859 6.698 8.941 5.844 6.103-1.279 12.376-1.927 18.644-1.927 49.88 0 90.461 40.58 90.461 90.461 0 49.88-40.58 90.461-90.461 90.461-6.268 0-12.542-.648-18.644-1.926z"/><path d="m316.858 354.166c5.111.589 9.322.823 12.801.823 10.824 0 14.533-2.266 15.988-3.156 10.515-6.426 13.842-20.208 7.416-30.723-6.426-10.516-20.208-13.842-30.723-7.415-1.924 1.175-7.779 4.753-15.211 24.556-1.288 3.434-.93 7.199.984 10.33 1.915 3.13 5.102 5.166 8.745 5.585zm13.371-27.588c3.408-2.074 7.866-.994 9.946 2.409 2.082 3.408 1.004 7.874-2.389 9.947-.895.493-5.215 1.432-14.945.646 3.732-9.001 6.534-12.421 7.388-13.002z"/><path d="m307.13 385.962c7.431 19.802 13.286 23.379 15.211 24.556 3.629 2.218 7.646 3.273 11.617 3.273 7.534 0 14.899-3.804 19.106-10.689 6.426-10.515 3.099-24.297-7.416-30.724-1.925-1.175-7.78-4.753-28.789-2.332-3.644.419-6.83 2.455-8.744 5.585-1.914 3.131-2.273 6.896-.985 10.331zm30.641-.695c3.408 2.083 4.487 6.549 2.404 9.957-2.081 3.404-6.538 4.485-9.946 2.41-.854-.581-3.656-4.001-7.387-13.002 9.731-.786 14.048.151 14.929.635z"/></g></g></svg>