<svg id="Capa_1" enable-background="new 0 0 514.084 514.084" height="512" viewBox="0 0 514.084 514.084" width="512" xmlns="http://www.w3.org/2000/svg"><g><path d="m310.729 171.857-29.704-47.557c-1.123-1.797-1.718-3.874-1.718-5.993v-71.053l10.657-19.074c1.88-3.364.571-7.617-2.875-9.343l-21.192-10.614c-3.231-1.618-7.162-.41-8.927 2.743l-13.957 24.936c-3.532 6.311-5.387 13.421-5.387 20.653v61.242c0 2.436-.786 4.807-2.242 6.761l-39.473 52.964-45.504 62.952h200.983z" fill="#b8de9c"/><path d="m329.724 187.982-63.559 40.037v227.733l41.296 32.785c68.496 46.436 161.041-2.631 161.041-85.384v-142.974c0-71.357-80.347-113.156-138.778-72.197z" fill="#f3b658"/><path d="m184.36 187.982c-58.431-40.959-138.778.84-138.778 72.197v142.975c0 82.753 92.544 131.82 161.041 85.384l41.753-32.785v-211.496z" fill="#f3b658"/><path d="m99.081 398.605v-142.974c0-38.683 23.617-68.687 54.549-81.522-52.366-12.257-108.047 26.668-108.047 86.07v142.975c0 73.912 73.834 120.943 138.413 97.064-46.016-8.495-84.915-47.97-84.915-101.613z" fill="#f2a940"/><g><path d="m184.36 187.982c-5.817-4.077-11.852-7.321-18.002-9.811-17.282 20.547-25.956 46.385-24.511 73.457l9.231 172.981c1.588 29.757 15.38 56.103 36.371 74.266 6.53-2.688 12.954-6.12 19.175-10.337l41.753-32.785v-211.496z" fill="#f2a940"/><path d="m346.977 178.471c-5.891 2.448-11.672 5.6-17.253 9.512l-63.559 40.037v227.733l41.296 32.785c6.006 4.072 12.2 7.394 18.497 10.038 20.807-18.153 34.469-44.365 36.049-73.968l9.231-172.981c1.437-26.939-7.146-52.658-24.261-73.156z" fill="#f2a940"/><path d="m256.542 504.595c-45.511 0-83.068-35.606-85.493-81.052l-9.231-172.981c-2.615-49.006 36.417-90.177 85.493-90.177h18.462c49.076 0 88.108 41.17 85.493 90.177l-9.231 172.981c-2.425 45.446-39.982 81.052-85.493 81.052z" fill="#f5c374"/><path d="m225.538 423.543-9.231-172.981c-2.286-42.83 27.249-79.677 67.488-88.284-5.803-1.241-11.836-1.893-18.022-1.893h-18.462c-49.076 0-88.108 41.171-85.493 90.177l9.231 172.981c2.425 45.446 39.982 81.052 85.493 81.052 9.515 0 18.691-1.559 27.262-4.436-32.425-10.885-56.348-40.671-58.266-76.616z" fill="#f3b658"/></g><path d="m382.713 166.228c4.215 12.318 4.64 24.298.682 35.886-1.463 4.282-6.094 6.609-10.416 5.266l-29.779-9.251c-39.889-12.392-61.283-55.65-46.92-94.873l10.558-28.833c1.616-4.412 6.557-6.667 10.923-4.93 10.442 4.154 19.782 11.249 27.855 21.724 16.589-2.353 36.574 1.836 58.547 9.854 5.145 1.877 7.957 7.447 6.375 12.69-6.232 20.655-14.919 38.755-27.825 52.467z" fill="#a6d786"/><path d="m468.502 368.931c4.142 0 7.5-3.358 7.5-7.5v-101.252c0-24.449-9.03-47.566-25.426-65.095-14.36-15.352-33.365-25.603-53.969-29.246-.006-.021-.011-.042-.017-.063 11.247-13.1 19.965-30.213 26.583-52.146 2.728-9.039-2.098-18.66-10.984-21.902-23.147-8.447-42.14-11.969-57.866-10.708-8.12-9.551-17.635-16.537-28.334-20.793-3.992-1.588-8.357-1.495-12.291.265-3.957 1.77-6.957 4.985-8.446 9.055l-10.559 28.833c-3.083 8.419-4.702 17.098-4.923 25.765l-2.384-3.817c-.378-.606-.579-1.304-.579-2.02v-69.1l9.705-17.369c1.89-3.382 2.32-7.446 1.181-11.149-1.139-3.704-3.78-6.823-7.245-8.559l-21.193-10.614c-6.828-3.417-15.099-.877-18.83 5.787l-13.957 24.936c-4.149 7.413-6.342 15.821-6.342 24.316v10.052c0 4.142 3.358 7.5 7.5 7.5s7.5-3.358 7.5-7.5v-10.052c0-5.936 1.532-11.811 4.431-16.99l13.612-24.32 19.871 9.952-10.28 18.399c-.625 1.118-.953 2.377-.953 3.658v71.052c0 3.529.988 6.976 2.857 9.967l17.77 28.451c-8.525-2.526-17.477-3.839-26.661-3.839h-18.462c-9.131 0-18.032 1.297-26.513 3.794l20.6-27.641c2.404-3.227 3.728-7.219 3.728-11.242v-19.227c0-4.142-3.358-7.5-7.5-7.5s-7.5 3.358-7.5 7.5v19.228c0 .815-.269 1.625-.756 2.279l-13.188 17.695v-63.948c0-25.969-21.128-47.097-47.097-47.097s-47.097 21.127-47.097 47.097v10.993c0 15.66 12.74 28.4 28.4 28.4s28.4-12.74 28.4-28.4v-6.499c0-4.142-3.358-7.5-7.5-7.5s-7.5 3.358-7.5 7.5v6.499c0 7.389-6.011 13.4-13.4 13.4s-13.4-6.011-13.4-13.4v-10.993c0-17.698 14.398-32.097 32.097-32.097s32.097 14.398 32.097 32.097v84.075l-10.613 14.24c-2.502 1.934-4.919 4.006-7.243 6.211-28.786-17.595-63.372-18.833-93.729-3.04-32.257 16.782-51.516 48.509-51.516 84.871v142.975c0 41.688 21.989 78.236 58.821 97.764 16.6 8.801 34.365 13.167 52.036 13.166 19.924 0 39.722-5.563 57.583-16.566 14.476 9.235 31.648 14.577 50.02 14.577 18.578 0 35.936-5.455 50.513-14.882 17.993 11.211 37.976 16.871 58.09 16.871 17.669 0 35.439-4.366 52.036-13.166 36.832-19.528 58.821-56.076 58.821-97.764v-9.76c0-4.142-3.358-7.5-7.5-7.5s-7.5 3.358-7.5 7.5v9.76c0 36.038-19.008 67.631-50.847 84.512-29.003 15.379-62.126 15.07-90.344-.388 17.172-15.91 28.375-38.235 29.715-63.335l9.231-172.98c.89-16.682-2.58-32.832-9.95-47.231l27.403 8.512c1.598.497 3.209.733 4.792.733 6.611-.001 12.693-4.137 14.947-10.737 2.271-6.649 3.3-13.524 3.102-20.571 15.458 3.753 29.615 11.949 40.572 23.663 13.987 14.953 21.38 33.919 21.38 54.848v101.252c0 4.14 3.358 7.498 7.5 7.498zm-124.725-118.769-9.231 172.98c-2.213 41.469-36.477 73.953-78.004 73.953s-75.791-32.484-78.004-73.953l-1.609-30.148c-.221-4.136-3.747-7.311-7.889-7.089-4.136.221-7.31 3.753-7.089 7.889l1.609 30.148c1.349 25.281 12.706 47.743 30.089 63.674-28.081 15.122-60.93 15.314-89.719.049-31.839-16.881-50.847-48.474-50.847-84.512v-142.974c0-30.661 16.239-57.413 43.438-71.563 24.742-12.871 52.814-12.327 76.582 1.122-13.344 17.501-19.967 38.886-18.774 61.225l5.917 110.869c.22 4.136 3.743 7.309 7.889 7.09 4.136-.221 7.31-3.752 7.089-7.889l-5.917-110.869c-1.154-21.625 6.416-42.19 21.316-57.906 14.899-15.716 35.032-24.371 56.688-24.371h18.462c21.656 0 41.789 8.655 56.688 24.371 14.9 15.715 22.47 36.279 21.316 57.904zm37.976-52.771c-.147.433-.639.668-1.093.527l-29.778-9.25c-13.176-4.094-24.401-11.979-32.559-22.673l56.564-34.298c3.542-2.147 4.672-6.76 2.524-10.302-2.147-3.542-6.758-4.671-10.302-2.524l-56.471 34.242c-7.151-15.74-7.837-33.253-1.86-49.576l10.559-28.833c.11-.299.325-.448.486-.52.114-.051.227-.076.339-.076.095 0 .19.019.283.056 9.497 3.779 17.572 10.103 24.687 19.334 1.648 2.139 4.319 3.227 6.994 2.848 14.035-1.992 31.998 1.109 54.923 9.473 1.422.519 2.197 2.047 1.766 3.479-6.502 21.548-15.042 37.737-26.106 49.492-1.906 2.025-2.535 4.938-1.635 7.569 3.797 11.1 4.019 21.251.679 31.032z"/></g></svg>