<svg id="Capa_1" enable-background="new 0 0 509.485 509.485" height="512" viewBox="0 0 509.485 509.485" width="512" xmlns="http://www.w3.org/2000/svg"><g><g><g id="XMLID_245_"><g><path d="m420.881 242.272c3.28 7 .52 15.34-6.28 19.01l-41.24 22.25c-5.51 2.98-8.95 8.74-8.95 15.01v11.12c0 21.4-10.29 41.5-27.66 54.01l-44.91 32.35c-4.43 3.2-7.05 8.32-7.05 13.79v76.76c0 8.51-6.9 15.41-15.42 15.41h-107.46c-8.51 0-15.41-6.9-15.41-15.41v-119.48c0-3.77-1.07-7.46-3.08-10.65l-54.19-85.77c-3.31-5.25-2.5-12.1 1.96-16.43l37.81-36.66c4.59-4.45 11.72-4.95 16.88-1.17l27 19.74c4.38 3.2 10.55.07 10.55-5.36v-83.85l-30.91-21.96c-3.62-2.58-5.27-7.14-4.12-11.43l5.23-19.65c1.24-4.67 5.47-7.92 10.3-7.92h13.01v-58.42c0-11.08 8.99-20.06 20.07-20.06h67.71c11.08 0 20.07 8.98 20.07 20.06v33.34l21.47-4.48c6.57-1.38 13.09 2.57 14.93 9.03l6.74 23.73c1.26 4.42.05 9.18-3.17 12.46l-44.41 45.3v58.27c0 10.33-2.73 20.49-7.91 29.43l-6.09 10.53c-3.63 6.27-5.54 13.38-5.54 20.62v18.31c0 6.82 2.76 12.99 7.23 17.46s10.64 7.23 17.46 7.23c13.64 0 24.69-11.05 24.69-24.69v-103.69c0-7.56 6.13-13.69 13.69-13.69h36.13c7 0 12.87 5.28 13.61 12.24l2.66 25.03h17.42c5.66 0 10.81 3.28 13.21 8.4z" fill="#f8deb6"/></g></g><g><path d="m183.385 231.426c25.237 0 45.695-20.458 45.695-45.695v-178.229h-32.07c-11.084 0-20.07 8.986-20.07 20.07v58.41h-13.01c-4.83 0-9.06 3.25-10.3 7.92l-5.23 19.65c-1.15 4.29.5 8.85 4.12 11.43l30.91 21.96v83.85c.001.218-.025.424-.045.634z" fill="#f7d8a4"/></g><g><path d="m205.957 475.413c-8.41 0-15.229-6.416-15.229-14.329v-111.098c0-3.506-1.057-6.937-3.044-9.903l-53.554-79.753c-3.271-4.882-2.471-11.251 1.937-15.277l21.793-19.882-11.98-8.759c-5.16-3.78-12.29-3.28-16.88 1.17l-37.81 36.66c-4.46 4.33-5.27 11.18-1.96 16.43l54.19 85.77c2.01 3.19 3.08 6.88 3.08 10.65v119.48c0 8.51 6.9 15.41 15.41 15.41h107.46c8.52 0 15.42-6.9 15.42-15.41v-11.159z" fill="#f7d8a4"/></g></g><path d="m427.677 239.095-13.973-29.876c-3.616-7.73-11.468-12.726-20.002-12.726h-10.679l-1.944-18.319c-1.146-10.803-10.203-18.95-21.067-18.95h-36.136c-11.682 0-21.186 9.504-21.186 21.186v44.998c0 4.142 3.357 7.5 7.5 7.5s7.5-3.358 7.5-7.5v-18.433h51.71c1.161 2.677 3.82 4.518 6.877 4.518h17.425c2.737 0 5.255 1.602 6.414 4.081l13.973 29.876c1.588 3.396.248 7.451-3.051 9.231l-40.624 21.923h-52.724v-19.234c0-4.142-3.357-7.5-7.5-7.5s-7.5 3.358-7.5 7.5v26.734c0 9.479-7.712 17.19-17.19 17.19-9.479 0-17.191-7.711-17.191-17.19v-18.308c0-5.914 1.566-11.745 4.529-16.863l6.097-10.533c5.831-10.073 8.913-21.549 8.913-33.188v-55.205l42.271-43.115c5.092-5.193 7.021-12.767 5.031-19.765l-6.747-23.73c-2.898-10.198-13.302-16.485-23.678-14.32l-12.438 2.598v-24.111c.001-15.199-12.365-27.564-27.564-27.564h-67.715c-15.199 0-27.564 12.365-27.564 27.564v50.919h-5.515c-8.218 0-15.434 5.546-17.546 13.486l-5.231 19.65c-1.939 7.282.885 15.108 7.027 19.473l27.749 19.723v78.272l-25.618-18.733c-8.138-5.952-19.296-5.176-26.531 1.842l-37.807 36.666c-6.968 6.756-8.262 17.614-3.079 25.818l54.182 85.769c1.258 1.991 1.922 4.287 1.922 6.641v119.479c0 12.636 10.28 22.916 22.916 22.916h107.459c12.636 0 22.916-10.28 22.916-22.916v-76.762c0-3.042 1.473-5.918 3.94-7.696l44.911-32.354c19.269-13.881 30.771-36.345 30.771-60.093v-11.123c0-3.516 1.922-6.738 5.015-8.407l41.236-22.254c10.289-5.551 14.468-18.195 9.516-28.785zm-109.986-58.685c0-3.411 2.774-6.186 6.186-6.186h36.136c3.172 0 5.816 2.378 6.151 5.532l1.297 12.218h-49.77zm-126.763-25.965h81.92v50.768c0 2.594-.221 5.174-.611 7.725h-81.309zm6.08-139.445h67.715c6.928 0 12.564 5.636 12.564 12.564v14.069h-92.844v-14.069c.001-6.928 5.638-12.564 12.565-12.564zm-40.139 103.866c-1.068-.759-1.56-2.12-1.222-3.387l5.231-19.651c.367-1.38 1.622-2.345 3.051-2.345h13.015c4.143 0 7.5-3.358 7.5-7.5v-29.35h92.844v4.271c0 2.258 1.018 4.396 2.77 5.82 1.753 1.423 4.054 1.981 6.264 1.521l21.471-4.485c2.714-.563 5.428 1.077 6.184 3.74l6.747 23.729c.519 1.828.016 3.805-1.314 5.162l-42.21 43.054h-91.376zm-60.454 140.764 37.808-36.666c1.973-1.914 5.014-2.125 7.233-.502l26.999 19.743c4.317 3.158 9.965 3.616 14.738 1.194 4.771-2.422 7.735-7.251 7.735-12.602v-2.86h76.604c-.494.999-1.02 1.982-1.58 2.949l-6.097 10.532c-4.283 7.399-6.547 15.829-6.547 24.378v18.308c0 2.591.316 5.107.896 7.522h-142.863l-15.766-24.958c-1.413-2.235-1.061-5.195.84-7.038zm260.496 50.036c0 18.938-9.174 36.853-24.539 47.922l-44.911 32.354c-4.281 3.084-7.395 7.452-8.982 12.367h-64.189c-4.143 0-7.5 3.358-7.5 7.5s3.357 7.5 7.5 7.5h62.998v69.262c0 4.365-3.551 7.916-7.916 7.916h-107.459c-4.365 0-7.916-3.551-7.916-7.916v-69.262h27.252c4.143 0 7.5-3.358 7.5-7.5s-3.357-7.5-7.5-7.5h-27.252v-35.219c0-5.192-1.466-10.258-4.239-14.65l-28.941-45.813h141.713c5.846 5.961 13.982 9.668 22.97 9.668 15.167 0 27.91-10.547 31.299-24.69h41.118c-.654 2.221-1.007 4.552-1.007 6.938v11.123z"/></g></svg>