<svg id="Capa_1" enable-background="new 0 0 509.461 509.461" height="512" viewBox="0 0 509.461 509.461" width="512" xmlns="http://www.w3.org/2000/svg"><g><g><path d="m107.106 10.521c-3.06-4.03-9.11-4.03-12.17 0l-28.91 38.06 11.526 44.226 55.292-18.313.871-28.932z" fill="#c5e97d"/><g><path d="m260.434 9.812c-3.06-4.03-9.11-4.03-12.17 0l-28.91 38.06 11.526 44.226 55.292-18.313.871-28.932z" fill="#c5e97d"/><g id="XMLID_247_"><g><path d="m298.874 60.432-11.83-15.58-35.16 17.35-20.796 14.306 39.079 58.618 47.117-21.594c-.32-18.61-6.37-37.25-18.41-53.1z" fill="#d8efa7"/><path d="m232.907 64.527 9.54-12.005 25.784-32.444-7.796-10.266c-3.06-4.03-9.11-4.03-12.17 0l-28.91 38.06 6.872 26.366c1.976-3.334 4.192-6.583 6.68-9.711z" fill="#b1e254"/><path d="m280.684 99.712v-.02l-1.21-2.83c-5.99-14.03-15.6-25.93-27.59-34.66-9.55-6.96-20.61-11.92-32.53-14.33l-9.54 12.56c-5.86 7.71-10.3 16.09-13.34 24.79l12.996 39.51 52.382 12.68 22.732-25.568z" fill="#e0f3b9"/><path d="m317.284 113.532-1.09-.95c-10.19-8.92-22.92-13.17-35.51-12.87-12.56.3-24.98 5.13-34.64 14.35l-3.334 3.225-6.218 34.884 22.414 35.753 28.137-5.261c20.371-18.171 30.681-43.621 30.241-69.131z" fill="#c5e97d"/><path d="m219.567 88.221c3.04-8.316 7.48-16.325 13.34-23.694l7.448-9.372c-6.568-3.318-13.619-5.79-21-7.283l-9.54 12.56c-5.86 7.71-10.3 16.09-13.34 24.79l12.996 39.51 5.546 1.343c-1.425-12.653.053-25.599 4.55-37.854z" fill="#d8efa7"/><path d="m245.344 114.672c3.45 4.02 6.56 8.36 9.28 12.98l32.42 55.01-14.44 12.87 8.8 186.78c.02.6.59 1.03 1.18.9l5.45-1.21c3.5-.78 7.02 1.16 8.25 4.52l5.65 15.45c.72 1.97.54 4.16-.5 5.98l-13.87 24.38v62.26c0 3.68-2.98 6.66-6.66 6.66h-40.66c-3.7 0-6.7-3.02-6.67-6.72l1.8-222.91c.02-2.08-.88-4.06-2.47-5.4l-12.97-11.03c-2.11-1.79-3.33-4.43-3.33-7.2v-13.87c0-5.22 4.24-9.45 9.46-9.45h3.02c3.87 0 7.01-3.14 7.01-7.01v-22.13l-14.44-12.87c-28-24.97-37.01-63.71-25.18-97.44 19.17 4.34 36.26 14.74 48.87 29.45z" fill="#d8efa7"/><path d="m263.337 485.865c-3.7 0-6.7-2.887-6.67-6.423l2.423-274.797c.061-6.965-2.966-13.598-8.268-18.115l-6.075-5.175c-26.609-22.681-36.062-57.267-26.783-88.315-6.75-3.475-13.951-6.111-21.49-7.818-11.83 33.73-2.82 72.47 25.18 97.44l14.44 12.87v22.13c0 3.87-3.14 7.01-7.01 7.01h-3.02c-5.22 0-9.46 4.23-9.46 9.45v13.87c0 2.77 1.22 5.41 3.33 7.2l12.97 11.03c1.59 1.34 2.49 3.32 2.47 5.4l-1.8 222.91c-.03 3.7 2.97 6.72 6.67 6.72h40.66c3.68 0 6.66-2.98 6.66-6.66v-8.727z" fill="#c5e97d"/></g></g><g id="XMLID_246_"><g><path d="m145.546 61.141-11.83-15.58-35.16 17.35-20.796 14.305 39.079 58.618 47.117-21.594c-.32-18.61-6.37-37.25-18.41-53.099z" fill="#d8efa7"/><path d="m79.579 65.235 9.54-12.005 25.784-32.444-7.796-10.266c-3.06-4.03-9.11-4.03-12.17 0l-28.91 38.06 6.872 26.366c1.976-3.333 4.192-6.582 6.68-9.711z" fill="#b1e254"/><path d="m127.356 100.42v-.02l-1.21-2.83c-5.99-14.03-15.6-25.93-27.59-34.66-9.55-6.96-20.61-11.92-32.53-14.33l-9.54 12.56c-5.86 7.71-10.3 16.09-13.34 24.79l12.996 39.51 52.382 12.68 22.732-25.568z" fill="#e0f3b9"/><path d="m163.956 114.24-1.09-.95c-10.19-8.92-22.92-13.17-35.51-12.87-12.56.3-24.98 5.13-34.64 14.35l-3.334 3.225-6.218 34.884 22.414 35.753 28.137-5.261c20.371-18.171 30.681-43.621 30.241-69.131z" fill="#c5e97d"/><path d="m66.239 88.93c3.04-8.316 7.48-16.325 13.34-23.694l7.448-9.372c-6.568-3.318-13.619-5.79-21-7.283l-9.54 12.56c-5.86 7.71-10.3 16.09-13.34 24.79l12.996 39.51 5.546 1.343c-1.425-12.653.053-25.599 4.55-37.854z" fill="#d8efa7"/><path d="m92.016 115.381c3.45 4.02 6.56 8.36 9.28 12.98l32.42 55.01-14.44 12.87 8.8 186.78c.02.6.59 1.03 1.18.9l5.45-1.21c3.5-.78 7.02 1.16 8.25 4.52l5.65 15.45c.72 1.97.54 4.16-.5 5.98l-13.87 24.38v62.26c0 3.68-2.98 6.66-6.66 6.66h-40.66c-3.7 0-6.7-3.02-6.67-6.72l1.8-222.91c.02-2.08-.88-4.06-2.47-5.4l-12.97-11.03c-2.11-1.79-3.33-4.43-3.33-7.2v-13.87c0-5.22 4.24-9.45 9.46-9.45h3.02c3.87 0 7.01-3.14 7.01-7.01v-22.13l-14.44-12.87c-28-24.97-37.01-63.71-25.18-97.44 19.17 4.34 36.26 14.74 48.87 29.45z" fill="#d8efa7"/><path d="m110.009 486.573c-3.7 0-6.7-2.887-6.67-6.423l2.423-274.797c.061-6.965-2.966-13.598-8.268-18.115l-6.075-5.175c-26.609-22.681-36.062-57.267-26.783-88.315-6.75-3.475-13.951-6.111-21.49-7.818-11.83 33.73-2.82 72.47 25.18 97.44l14.44 12.87v22.13c0 3.87-3.14 7.01-7.01 7.01h-3.02c-5.22 0-9.46 4.23-9.46 9.45v13.87c0 2.77 1.22 5.41 3.33 7.2l12.97 11.03c1.59 1.34 2.49 3.32 2.47 5.4l-1.8 222.91c-.03 3.7 2.97 6.72 6.67 6.72h40.66c3.68 0 6.66-2.98 6.66-6.66v-8.727z" fill="#c5e97d"/></g></g><path d="m414.531 13.18c-3.06-4.03-9.11-4.03-12.17 0l-28.91 38.06 11.526 44.226 55.292-18.313.871-28.932z" fill="#c5e97d"/><g id="XMLID_248_"><g><path d="m452.971 63.801-11.83-15.58-35.16 17.35-20.796 14.306 39.079 58.618 47.117-21.594c-.32-18.611-6.37-37.251-18.41-53.1z" fill="#d8efa7"/><path d="m387.004 67.895 9.54-12.005 25.784-32.444-7.796-10.266c-3.06-4.03-9.11-4.03-12.17 0l-28.91 38.06 6.872 26.366c1.976-3.333 4.192-6.582 6.68-9.711z" fill="#b1e254"/><path d="m434.781 103.08v-.02l-1.21-2.83c-5.99-14.03-15.6-25.93-27.59-34.66-9.55-6.96-20.61-11.92-32.53-14.33l-9.54 12.56c-5.86 7.71-10.3 16.09-13.34 24.79l12.996 39.51 52.382 12.68 22.732-25.568z" fill="#e0f3b9"/><path d="m471.381 116.9-1.09-.95c-10.19-8.92-22.92-13.17-35.51-12.87-12.56.3-24.98 5.13-34.64 14.35l-3.334 3.225-6.218 34.884 22.414 35.753 28.137-5.261c20.371-18.171 30.681-43.621 30.241-69.131z" fill="#c5e97d"/><path d="m373.664 91.59c3.04-8.316 7.48-16.325 13.34-23.694l7.448-9.372c-6.568-3.318-13.619-5.79-21-7.283l-9.54 12.56c-5.86 7.71-10.3 16.09-13.34 24.79l12.996 39.51 5.546 1.343c-1.425-12.653.053-25.6 4.55-37.854z" fill="#d8efa7"/><path d="m399.441 118.04c3.45 4.02 6.56 8.36 9.28 12.98l32.42 55.01-14.44 12.87 8.8 186.78c.02.6.59 1.03 1.18.9l5.45-1.21c3.5-.78 7.02 1.16 8.25 4.52l5.65 15.45c.72 1.97.54 4.16-.5 5.98l-13.87 24.38v62.26c0 3.68-2.98 6.66-6.66 6.66h-40.66c-3.7 0-6.7-3.02-6.67-6.72l1.8-222.91c.02-2.08-.88-4.06-2.47-5.4l-12.97-11.03c-2.11-1.79-3.33-4.43-3.33-7.2v-13.87c0-5.22 4.24-9.45 9.46-9.45h3.02c3.87 0 7.01-3.14 7.01-7.01v-22.13l-14.44-12.87c-28-24.97-37.01-63.71-25.18-97.44 19.17 4.34 36.26 14.74 48.87 29.45z" fill="#d8efa7"/><path d="m417.434 489.233c-3.7 0-6.7-2.887-6.67-6.423l2.423-274.797c.061-6.965-2.966-13.598-8.268-18.115l-6.075-5.175c-26.609-22.681-36.062-57.267-26.783-88.315-6.75-3.475-13.951-6.111-21.49-7.818-11.83 33.73-2.82 72.47 25.18 97.44l14.44 12.87v22.13c0 3.87-3.14 7.01-7.01 7.01h-3.02c-5.22 0-9.46 4.23-9.46 9.45v13.87c0 2.77 1.22 5.41 3.33 7.2l12.97 11.03c1.59 1.34 2.49 3.32 2.47 5.4l-1.8 222.91c-.03 3.7 2.97 6.72 6.67 6.72h40.66c3.68 0 6.66-2.98 6.66-6.66v-8.727z" fill="#c5e97d"/></g></g></g></g><g><path d="m266.403 5.982c-2.888-3.801-7.283-5.982-12.057-5.982s-9.169 2.181-12.057 5.982l-38.447 50.626c-14.952 19.688-21.873 44.08-19.49 68.687 2.383 24.605 13.857 47.217 32.309 63.669l11.931 10.639v18.277h-2.531c-9.348 0-16.953 7.605-16.953 16.953v13.869c0 4.982 2.178 9.69 5.974 12.917l12.793 10.873-1.795 222.691c-.031 3.805 1.428 7.388 4.107 10.089s6.25 4.188 10.055 4.188h40.657c7.81 0 14.164-6.354 14.164-14.163v-60.27l12.891-22.658c2.13-3.744 2.504-8.213 1.025-12.26l-5.648-15.456c-2.26-6.188-8.398-10.03-14.797-9.575l-4.906-104.142c-.195-4.137-3.688-7.326-7.845-7.139-4.137.194-7.333 3.707-7.139 7.844l5.264 111.732c.118 2.503 1.328 4.812 3.319 6.333s4.536 2.083 6.979 1.537l5.146-1.144 5.48 14.999-13.789 24.234c-.643 1.131-.981 2.408-.981 3.709v61.417h-38.978l1.791-222.07c.037-4.311-1.826-8.385-5.111-11.179l-12.968-11.022c-.438-.372-.688-.914-.688-1.487v-13.869c0-1.077.876-1.953 1.953-1.953h3.023c8 0 14.508-6.508 14.508-14.508v-22.131c0-2.139-.913-4.175-2.509-5.598l-14.439-12.875c-15.626-13.933-25.343-33.082-27.361-53.92-.945-9.755-.141-19.464 2.257-28.75 19.452 6.168 36.202 19.387 46.623 37.07l29.289 49.698-9.843 8.776c-1.688 1.505-2.607 3.691-2.5 5.95l2.03 43.087c.195 4.137 3.692 7.332 7.845 7.139 4.137-.194 7.333-3.707 7.139-7.844l-1.861-39.516 11.771-10.496c18.452-16.452 29.926-39.063 32.309-63.669s-4.538-48.999-19.49-68.687zm41.646 92.965c-6.968-3.413-14.56-5.438-22.391-5.925-4.879-10.849-11.761-20.479-20.147-28.477l19.299-9.524 8.095 10.659c7.548 9.94 12.658 21.301 15.144 33.267zm-53.814-83.892c.06-.078.163-.078.223 0l21.112 27.8-23.065 11.383c-6.331-4.138-13.197-7.496-20.459-9.965zm-47.63 65.898c2.489-5.357 5.545-10.483 9.183-15.272l6.598-8.688c20.198 5.397 37.246 18.89 47.151 37.224-8.558 1.818-16.605 5.498-23.593 10.816-10.978-10.966-24.478-19.272-39.339-24.08zm81.984 90.27-27.504-46.669c-1.655-2.808-3.448-5.519-5.362-8.13 7.289-5.35 15.786-8.209 24.38-8.56.194.015.386.042.582.042.339 0 .68-.032 1.021-.079 9.886-.044 19.801 3.224 28.05 9.854-.047 2.052-.147 4.109-.346 6.168-1.719 17.747-9.04 34.256-20.821 47.374z"/><path d="m113.075 5.982c-2.888-3.801-7.282-5.982-12.057-5.982s-9.169 2.181-12.057 5.982l-38.447 50.626c-14.951 19.688-21.873 44.08-19.49 68.687 2.383 24.605 13.857 47.217 32.309 63.669l11.931 10.639v18.277h-2.531c-9.348 0-16.953 7.605-16.953 16.953v13.869c0 4.982 2.178 9.69 5.974 12.917l12.793 10.873-1.052 130.507c-.034 4.143 3.297 7.527 7.439 7.561h.062c4.113 0 7.465-3.318 7.499-7.439l1.054-130.729c.037-4.311-1.826-8.385-5.111-11.179l-12.968-11.022c-.438-.372-.688-.914-.688-1.487v-13.869c0-1.077.876-1.953 1.953-1.953h3.023c8 0 14.508-6.508 14.508-14.508v-22.131c0-2.139-.913-4.175-2.509-5.598l-14.44-12.875c-15.626-13.933-25.343-33.082-27.361-53.92-.945-9.755-.141-19.464 2.257-28.75 19.452 6.168 36.202 19.387 46.623 37.07l29.288 49.699-9.843 8.776c-1.688 1.505-2.607 3.691-2.5 5.95l8.8 186.781c.118 2.503 1.328 4.812 3.319 6.333s4.536 2.083 6.979 1.537l5.146-1.144 5.48 14.999-13.788 24.234c-.644 1.131-.981 2.408-.981 3.709v61.417h-38.979l.479-59.379c.034-4.142-3.297-7.527-7.439-7.561h-.062c-4.114 0-7.465 3.318-7.499 7.439l-.485 60.223c-.031 3.805 1.428 7.388 4.107 10.089s6.25 4.188 10.055 4.188h40.657c7.81 0 14.164-6.354 14.164-14.163v-60.27l12.891-22.658c2.13-3.744 2.504-8.213 1.025-12.26l-5.648-15.456c-2.26-6.188-8.396-10.03-14.797-9.575l-8.274-175.619 11.771-10.496c18.452-16.452 29.926-39.063 32.309-63.669s-4.539-48.999-19.49-68.687zm19.254 87.041c-4.879-10.85-11.763-20.477-20.151-28.475l19.304-9.526 8.095 10.659c7.549 9.939 12.659 21.301 15.144 33.267-6.97-3.413-14.563-5.439-22.392-5.925zm-31.422-77.968c.06-.078.163-.078.223 0l21.112 27.8-23.067 11.383c-6.331-4.137-13.196-7.496-20.458-9.964zm-47.638 65.916c2.491-5.363 5.55-10.496 9.191-15.29l6.598-8.688c20.197 5.396 37.244 18.888 47.15 37.222-8.566 1.817-16.62 5.503-23.613 10.826-10.977-10.962-24.468-19.264-39.326-24.07zm81.992 90.252-27.503-46.669c-1.654-2.808-3.45-5.515-5.364-8.125 16.118-11.833 38.161-11.506 54.035 1.249-.047 2.053-.147 4.111-.346 6.171-1.72 17.747-9.04 34.256-20.822 47.374z"/><path d="m478.436 125.295c2.383-24.606-4.538-48.999-19.49-68.687l-38.447-50.626c-2.887-3.801-7.282-5.982-12.056-5.982s-9.169 2.181-12.057 5.982l-38.447 50.626c-14.952 19.688-21.873 44.08-19.49 68.687 2.383 24.605 13.857 47.217 32.309 63.669l11.931 10.639v18.277h-2.532c-9.348 0-16.953 7.605-16.953 16.953v13.869c0 4.982 2.177 9.69 5.973 12.917l12.793 10.873-1.795 222.691c-.031 3.805 1.428 7.388 4.107 10.089s6.25 4.188 10.055 4.188h40.658c7.81 0 14.163-6.354 14.163-14.163v-60.271l12.891-22.657c2.13-3.744 2.504-8.213 1.025-12.26l-5.647-15.457c-2.261-6.187-8.399-10.029-14.798-9.574l-8.273-175.619 11.771-10.496c18.452-16.451 29.926-39.063 32.309-63.668zm-16.289-26.34c-6.971-3.413-14.563-5.441-22.39-5.927-4.879-10.852-11.765-20.481-20.153-28.481l19.302-9.525 8.095 10.659c7.55 9.941 12.661 21.305 15.146 33.274zm-53.816-83.9c.06-.078.163-.078.223 0l21.112 27.8-23.06 11.38c-6.331-4.138-13.199-7.497-20.461-9.967zm-31.85 41.94c20.195 5.397 37.232 18.893 47.137 37.225-8.553 1.818-16.594 5.499-23.578 10.813-10.978-10.964-24.478-19.271-39.339-24.077 2.49-5.357 5.546-10.485 9.184-15.274zm61.821 334.25 5.146-1.144 5.479 14.999-13.788 24.233c-.643 1.131-.981 2.408-.981 3.709v61.418h-38.978l1.791-222.071c.037-4.31-1.826-8.383-5.111-11.178l-12.968-11.022c-.437-.371-.688-.913-.688-1.487v-13.869c0-1.077.876-1.953 1.953-1.953h3.024c8 0 14.508-6.508 14.508-14.508v-22.131c0-2.139-.913-4.175-2.509-5.598l-14.44-12.875c-15.626-13.933-25.343-33.082-27.361-53.92-.945-9.755-.141-19.464 2.257-28.75 19.451 6.168 36.202 19.387 46.623 37.07l2.016 3.421c1.398 2.373 3.9 3.693 6.468 3.693 1.294 0 2.605-.335 3.801-1.04 3.568-2.103 4.756-6.7 2.653-10.269l-2.016-3.421c-1.655-2.808-3.446-5.521-5.361-8.131 16.119-11.83 38.159-11.497 54.031 1.258-.047 2.052-.147 4.109-.346 6.168-1.719 17.747-9.039 34.257-20.82 47.375l-9.251-15.698c-2.104-3.568-6.702-4.755-10.269-2.654-3.569 2.104-4.757 6.701-2.654 10.27l11.036 18.727-9.843 8.776c-1.688 1.505-2.607 3.691-2.5 5.95l8.799 186.781c.118 2.504 1.328 4.812 3.319 6.333s4.539 2.083 6.98 1.538z"/></g></g></svg>