<svg id="Capa_1" enable-background="new 0 0 515.45 515.45" height="512" viewBox="0 0 515.45 515.45" width="512" xmlns="http://www.w3.org/2000/svg"><g><g><path d="m345.407 224.921 12.877-8.832c32.52-22.305 75.252-22.905 108.386-1.523l27.874 17.988c11.861 7.654 16.566 22.686 11.186 35.737l-20.199 48.997c-17.147 41.594-57.692 68.735-102.682 68.735-8.671 0-17.184 2.319-24.657 6.716l-44.142 25.975c-34.765 20.457-77.887 20.457-112.652 0l-44.142-25.975c-7.473-4.397-15.986-6.716-24.657-6.716-44.989 0-85.535-27.141-102.682-68.735l-20.198-48.997c-5.38-13.051-.675-28.083 11.186-35.737l27.874-17.988c33.134-21.382 75.866-20.782 108.386 1.523l12.877 8.832c8.348 5.725 19.28 6.011 27.915.729l8.715-5.331c31.336-19.168 70.768-19.168 102.104 0l8.715 5.331c8.636 5.281 19.568 4.996 27.916-.729z" fill="#d8efa7"/><path d="m495.155 267.294c-17.147 41.594-57.692 68.735-102.682 68.735-8.671 0-17.184 2.319-24.656 6.716l-44.143 25.975c-34.765 20.457-77.887 20.457-112.652 0l-44.143-25.975c-7.473-4.397-15.986-6.716-24.656-6.716-44.989 0-85.535-27.141-102.682-68.735l-15.228-36.939-3.408 2.199c-11.861 7.654-16.566 22.686-11.186 35.737l20.199 48.997c17.147 41.594 57.692 68.735 102.682 68.735 8.671 0 17.184 2.319 24.656 6.716l44.143 25.975c34.765 20.457 77.887 20.457 112.652 0l44.143-25.975c7.473-4.397 15.986-6.716 24.656-6.716 44.989 0 85.535-27.141 102.682-68.735l20.199-48.997c3.341-8.104 2.79-16.969-.944-24.36z" fill="#c5e97d"/><g fill="#b1e254"><ellipse cx="257.725" cy="322.36" rx="58.99" ry="78.701"/><ellipse cx="404.187" cy="287.519" rx="64.325" ry="50.598" transform="matrix(.889 -.458 .458 .889 -86.761 216.779)"/><ellipse cx="111.262" cy="287.519" rx="50.598" ry="64.325" transform="matrix(.458 -.889 .889 .458 -195.304 254.909)"/></g><path d="m345.407 107.36 12.877-8.832c32.52-22.305 75.252-22.905 108.386-1.523l27.874 17.988c11.861 7.654 16.566 22.686 11.186 35.737l-20.199 48.997c-17.147 41.594-57.692 68.735-102.682 68.735-8.671 0-17.184 2.319-24.657 6.716l-44.142 25.975c-34.765 20.457-77.887 20.457-112.652 0l-44.142-25.975c-7.473-4.397-15.986-6.716-24.657-6.716-44.989 0-85.535-27.141-102.682-68.735l-20.198-48.997c-5.38-13.051-.675-28.083 11.186-35.737l27.875-17.988c33.134-21.382 75.866-20.782 108.386 1.523l12.877 8.832c8.348 5.725 19.28 6.011 27.915.729l8.715-5.331c31.336-19.168 70.768-19.168 102.104 0l8.715 5.331c8.635 5.282 19.567 4.996 27.915-.729z" fill="#d8efa7"/><path d="m498.373 117.934-7.058 17.072c-17.147 41.594-57.692 68.735-102.682 68.735-8.671 0-17.184 2.319-24.657 6.716l-44.142 25.975c-34.765 20.457-77.888 20.457-112.652 0l-44.142-25.975c-7.473-4.397-15.986-6.716-24.657-6.716-44.99 0-85.535-27.141-102.682-68.735l-9.625-23.348-5.17 3.336c-11.862 7.654-16.567 22.685-11.187 35.736l20.199 48.997c17.147 41.594 57.692 68.735 102.682 68.735 8.671 0 17.184 2.319 24.656 6.716l44.143 25.975c34.765 20.457 77.887 20.457 112.652 0l44.143-25.975c7.473-4.397 15.986-6.716 24.656-6.716 44.989 0 85.535-27.141 102.682-68.735l20.199-48.997c4.759-11.545 1.639-24.63-7.358-32.796z" fill="#c5e97d"/></g><g><path d="m494.311 231.292c-2.956 2.902-2.999 7.651-.096 10.606 6.112 6.224 7.91 15.461 4.582 23.534l-20.199 48.997c-16.05 38.935-53.633 64.093-95.748 64.093-10.001 0-19.843 2.681-28.46 7.753l-44.143 25.975c-30.583 17.997-67.733 19.151-99.372 3.095-3.696-1.878-8.208-.4-10.083 3.293-1.875 3.694-.4 8.208 3.293 10.082 16.982 8.619 35.35 12.906 53.68 12.906 20.769 0 41.489-5.504 60.088-16.448l44.143-25.975c6.313-3.717 13.524-5.681 20.852-5.681 48.214 0 91.24-28.802 109.616-73.376l20.199-48.997c5.622-13.637 2.581-29.244-7.748-39.761-2.9-2.954-7.649-2.997-10.604-.096z"/><path d="m183.265 399.341-22.205-13.065c-8.617-5.072-18.459-7.753-28.46-7.753-42.114 0-79.697-25.158-95.748-64.093l-20.199-48.997c-3.328-8.073-1.53-17.311 4.582-23.534 2.902-2.955 2.859-7.704-.096-10.606-2.956-2.901-7.704-2.857-10.606.097-10.328 10.518-13.369 26.125-7.747 39.761l20.199 48.997c18.375 44.574 61.402 73.376 109.616 73.376 7.328 0 14.539 1.964 20.853 5.681l22.206 13.065c1.194.703 2.504 1.037 3.796 1.037 2.57 0 5.073-1.322 6.471-3.697 2.099-3.572.908-8.169-2.662-10.269z"/><path d="m22.984 202.586c18.376 44.574 61.402 73.376 109.616 73.376 7.328 0 14.539 1.964 20.853 5.681l44.143 25.975c18.545 10.912 39.337 16.368 60.13 16.368s41.585-5.456 60.13-16.368l44.143-25.975c6.313-3.717 13.524-5.681 20.852-5.681 48.214 0 91.24-28.802 109.616-73.376l20.199-48.997c6.76-16.398.849-35.28-14.054-44.897l-27.874-17.988c-35.776-23.087-81.582-22.443-116.695 1.641l-12.876 8.831c-5.9 4.048-13.657 4.25-19.76.517l-8.715-5.332c-18.491-11.31-39.716-16.589-61.375-15.273-4.135.252-7.282 3.808-7.031 7.942.252 4.135 3.818 7.266 7.942 7.03 18.574-1.135 36.779 3.398 52.636 13.097l8.714 5.331c11.141 6.815 25.299 6.447 36.071-.941l12.877-8.832c30.113-20.653 69.396-21.205 100.077-1.406l27.874 17.988c8.822 5.693 12.321 16.87 8.319 26.577l-20.199 48.997c-16.05 38.935-53.633 64.093-95.748 64.093-10.001 0-19.843 2.681-28.46 7.753l-44.143 25.975c-32.396 19.062-72.648 19.062-105.045 0l-44.142-25.975c-8.617-5.072-18.459-7.753-28.46-7.753-42.114 0-79.697-25.158-95.748-64.093l-20.199-48.997c-4.002-9.707-.503-20.884 8.319-26.577l27.874-17.988c30.682-19.8 69.964-19.247 100.078 1.406l12.877 8.833c10.772 7.386 24.931 7.757 36.07.94l8.715-5.331c3.696-2.261 7.618-4.281 11.658-6.007 3.809-1.628 5.578-6.034 3.951-9.844s-6.034-5.577-9.843-3.951c-4.706 2.011-9.279 4.367-13.592 7.007l-8.715 5.331c-6.102 3.733-13.858 3.53-19.759-.516l-12.877-8.832c-35.114-24.085-80.919-24.727-116.695-1.641l-27.874 17.988c-14.903 9.617-20.813 28.5-14.053 44.897z"/><path d="m257.725 408.561c16.471 0 32.248-7.799 44.424-21.961 11.601-13.493 19.197-31.938 21.39-51.938.451-4.117-2.521-7.821-6.638-8.272-4.117-.449-7.821 2.521-8.273 6.638-3.783 34.51-25.667 60.534-50.903 60.534s-47.12-26.024-50.903-60.534c-.452-4.117-4.159-7.085-8.273-6.638-4.117.451-7.089 4.155-6.638 8.272 2.193 20 9.789 38.445 21.39 51.938 12.176 14.163 27.953 21.961 44.424 21.961z"/><path d="m420.278 327.572c-27.007 12.121-56.216 5.99-66.569-13.957-.052-.113-.106-.226-.162-.337-1.867-3.696-6.379-5.181-10.076-3.312-3.661 1.85-5.151 6.291-3.366 9.968.07.151.142.302.216.446 9.375 18.222 29.531 28.34 52.164 28.34 11.044-.001 22.677-2.41 33.936-7.462 3.779-1.696 5.468-6.135 3.772-9.913-1.698-3.779-6.133-5.468-9.915-3.773z"/><path d="m444.404 321.259c1.439 1.315 3.251 1.965 5.059 1.965 2.032 0 4.058-.821 5.537-2.438 13.533-14.8 20.097-32.997 18.01-49.925-.507-4.11-4.246-7.038-8.362-6.525-4.111.507-7.033 4.25-6.526 8.361 1.55 12.569-3.623 26.407-14.193 37.966-2.795 3.057-2.583 7.801.475 10.596z"/><path d="m50.801 264.335c-4.109-.516-7.854 2.415-8.361 6.525-3.23 26.203 13.746 53.658 42.242 68.319 12.321 6.34 25.575 9.617 38.412 9.617 4.632 0 9.211-.427 13.671-1.291 17.482-3.386 31.106-13.02 38.362-27.121.075-.146.146-.293.221-.457 1.787-3.688.28-8.138-3.396-9.976-3.704-1.854-8.209-.351-10.062 3.354-.049.099-.096.196-.146.305-5.123 9.879-15.002 16.685-27.831 19.169-13.531 2.62-28.578.157-42.368-6.938-22.573-11.613-36.643-33.468-34.217-53.146.506-4.11-2.416-7.853-6.527-8.36z"/><path d="m151.417 135.391c-27.52-18.943-63.91-20.24-92.709-3.297-3.57 2.1-4.761 6.697-2.661 10.267 2.101 3.571 6.698 4.763 10.268 2.661 23.792-13.996 53.859-12.928 76.597 2.725l6.913 4.758c1.299.895 2.78 1.323 4.246 1.323 2.385 0 4.73-1.136 6.185-3.249 2.348-3.412 1.486-8.082-1.926-10.43z"/><path d="m362.38 153.827c1.466 0 2.947-.429 4.246-1.323l6.913-4.758c22.738-15.652 52.805-16.722 76.597-2.725 3.571 2.102 8.168.91 10.268-2.661 2.1-3.569.909-8.167-2.661-10.267-28.797-16.943-65.188-15.647-92.708 3.297l-6.913 4.758c-3.412 2.348-4.274 7.018-1.926 10.43 1.453 2.113 3.798 3.249 6.184 3.249z"/><path d="m304.899 146.484c-27.775-21.348-66.573-21.348-94.349 0-3.284 2.523-3.9 7.232-1.376 10.517s7.233 3.902 10.517 1.376c22.394-17.209 53.674-17.209 76.067 0 1.363 1.048 2.97 1.554 4.565 1.554 2.25 0 4.475-1.008 5.952-2.93 2.524-3.284 1.908-7.993-1.376-10.517z"/><path d="m295.759 253.327c-22.395 17.209-53.674 17.209-76.068 0-3.283-2.522-7.993-1.907-10.517 1.377s-1.908 7.993 1.377 10.518c13.888 10.672 30.531 16.008 47.174 16.008s33.286-5.336 47.174-16.008c3.285-2.524 3.901-7.233 1.377-10.518-2.524-3.284-7.232-3.901-10.517-1.377z"/></g></g></svg>