<svg id="Capa_1" enable-background="new 0 0 511.948 511.948" height="512" viewBox="0 0 511.948 511.948" width="512" xmlns="http://www.w3.org/2000/svg"><g><g><path d="m469.512 140.792-16.141-17.724c-5.543-6.086-7.867-14.442-6.263-22.516l2.731-13.746c10.615-53.43-44.847-95.706-93.554-71.313l-23.33 11.684-100.108 61.309-4.13 336.544 109.998-4.208 54.899-14.502c53.255-18.019 83.899-73.759 70.577-128.379l-3.542-14.524c-2.704-11.085.374-22.785 8.181-31.106 24.074-25.653 24.371-65.507.682-91.519z" fill="#a6d786"/><path d="m118.334 406.322c-53.255-18.019-83.899-73.759-70.577-128.379l3.542-14.524c2.704-11.085-.374-22.785-8.181-31.106-24.074-25.655-24.371-65.51-.683-91.521l16.141-17.724c5.543-6.086 7.867-14.442 6.263-22.516l-2.731-13.746c-10.614-53.43 44.847-95.706 93.554-71.313l23.33 11.684 90.405 42.603-35.353 373.016z" fill="#94cf6f"/><path d="m270.397 458.025 37.933-5.916c36.273-5.657 64.031-35.29 67.309-71.855l4.004-44.659c.735-8.196 3.878-15.992 9.033-22.405l5.868-7.301c22.656-28.186 22.298-68.437-.857-96.215l-12.46-14.948c-6.787-8.143-8.124-19.525-3.408-29.019l10.976-22.095c16.353-32.919-9.776-71.006-46.375-67.598-14.043 1.308-26.638-8.646-28.61-22.611-3.718-26.329-26.251-45.903-52.84-45.903h-9.992c-26.589 0-49.123 19.574-52.842 45.902-1.973 13.965-14.567 23.919-28.61 22.611-36.599-3.408-62.728 34.68-46.375 67.598l10.976 22.095c4.716 9.493 3.379 20.876-3.408 29.019l-12.46 14.948c-23.154 27.778-23.513 68.029-.857 96.215l5.868 7.301c5.155 6.414 8.298 14.209 9.033 22.405l4.004 44.659c3.278 36.565 31.037 66.198 67.309 71.855l37.933 5.916h28.848z" fill="#b8de9c"/><path d="m202.477 396.156-4.004-44.659c-.735-8.196-3.878-15.991-9.033-22.405l-5.868-7.301c-22.656-28.186-22.297-68.437.857-96.215l12.46-14.948c6.787-8.142 8.124-19.525 3.408-29.019l-10.976-22.095c-16.353-32.919 9.776-71.006 46.375-67.598 14.043 1.308 26.638-8.646 28.61-22.611 2.946-20.854 17.71-37.457 36.929-43.466-9.846-11.302-24.33-18.339-40.265-18.339h-9.992c-26.589 0-49.123 19.574-52.842 45.902-1.973 13.965-14.567 23.919-28.61 22.611-36.599-3.407-62.728 34.68-46.375 67.598l10.976 22.095c4.716 9.493 3.379 20.876-3.408 29.019l-12.46 14.948c-23.154 27.778-23.513 68.029-.857 96.215l5.868 7.301c5.155 6.414 8.298 14.209 9.033 22.405l4.004 44.659c3.278 36.565 31.037 66.198 67.309 71.855l37.933 5.916h.18c-21.812-12.771-36.89-35.518-39.252-61.868z" fill="#a6d786"/><g><path d="m243.527 99.046-1.976 400.338c-.014 2.793 2.246 5.064 5.039 5.064h17.768c2.793 0 5.053-2.271 5.039-5.064l-1.977-400.338c-.029-5.84-4.771-10.56-10.612-10.56h-2.669c-5.84 0-10.583 4.72-10.612 10.56z" fill="#c9e7b4"/></g></g><g><path d="m394.522 317.888 5.868-7.3c24.799-30.852 24.402-75.312-.941-105.716l-12.46-14.948c-4.881-5.856-5.844-14.053-2.452-20.881l10.977-22.095c8.907-17.931 7.464-38.491-3.862-55-11.326-16.511-29.989-25.261-49.926-23.403-10.077.935-19.072-6.174-20.487-16.192-4.217-29.846-30.127-52.353-60.269-52.353h-9.992c-30.142 0-56.051 22.507-60.268 52.353-1.415 10.019-10.416 17.134-20.489 16.192-19.939-1.854-38.598 6.893-49.924 23.402s-12.77 37.07-3.862 55.001l10.976 22.095c3.392 6.828 2.43 15.024-2.452 20.881l-12.46 14.948c-25.344 30.404-25.739 74.864-.941 105.715l5.868 7.301c4.242 5.278 6.804 11.633 7.409 18.377l4.004 44.659c3.593 40.075 33.868 72.395 73.624 78.595l31.761 4.953-.172 34.876c-.017 3.361 1.28 6.523 3.651 8.906 2.371 2.382 5.527 3.694 8.888 3.694h17.768c3.361 0 6.518-1.312 8.889-3.694 2.37-2.383 3.667-5.545 3.65-8.906l-.171-34.72 32.76-5.109c35.289-5.504 63.396-31.511 71.607-66.255.953-4.03-1.543-8.071-5.574-9.023-4.03-.959-8.071 1.543-9.023 5.574-6.802 28.78-30.087 50.323-59.321 54.884l-30.524 4.76-.346-70.179 69.969-68.994c2.95-2.909 2.983-7.657.075-10.606-2.91-2.95-7.659-2.982-10.606-.075l-59.544 58.711-.401-81.17 62.422-61.552c2.95-2.909 2.983-7.657.075-10.606-2.909-2.95-7.658-2.982-10.606-.075l-51.995 51.27-.401-81.171 50.096-49.398c2.95-2.909 2.983-7.657.075-10.606-2.91-2.951-7.658-2.982-10.606-.075l-39.669 39.116-.27-55.039c-.048-9.938-8.173-18.023-18.111-18.023h-2.67c-9.938 0-18.063 8.085-18.111 18.022l-.272 55.038-39.668-39.115c-2.95-2.908-7.699-2.875-10.606.075-2.908 2.949-2.875 7.697.074 10.606l50.097 49.399-.401 81.169-51.993-51.269c-2.95-2.908-7.699-2.875-10.606.075-2.908 2.949-2.875 7.697.074 10.606l62.422 61.553-.13 26.271c-.021 4.143 3.321 7.517 7.463 7.537h.038c4.125 0 7.479-3.334 7.499-7.463l1.009-204.409c.008-1.707 1.404-3.096 3.111-3.096h2.67c1.707 0 3.104 1.389 3.111 3.097l1.965 397.865h-12.822l.797-161.494c.021-4.143-3.321-7.517-7.463-7.537h-.038c-4.125 0-7.479 3.333-7.499 7.463l-.113 22.935-59.541-58.711c-2.951-2.908-7.699-2.875-10.606.075-2.908 2.949-2.875 7.697.074 10.606l69.969 68.994-.346 70.022-29.524-4.604c-32.936-5.137-58.018-31.913-60.995-65.114l-4.004-44.659c-.87-9.701-4.555-18.842-10.658-26.434l-5.868-7.302c-20.341-25.305-20.017-61.773.772-86.714l12.46-14.948c8.687-10.422 10.399-25.007 4.363-37.158l-10.976-22.095c-6.452-12.988-5.406-27.883 2.798-39.842 8.205-11.96 21.725-18.298 36.165-16.952 18.057 1.669 34.194-11.069 36.732-29.03 3.178-22.489 22.702-39.449 45.416-39.449h9.992c22.714 0 42.238 16.96 45.415 39.45 2.537 17.96 18.661 30.706 36.731 29.03 14.436-1.341 27.961 4.992 36.165 16.953 8.204 11.959 9.25 26.853 2.798 39.841l-10.977 22.095c-6.036 12.151-4.322 26.737 4.364 37.158l12.46 14.948c20.788 24.94 21.112 61.409.771 86.715l-5.868 7.301c-6.102 7.591-9.787 16.731-10.657 26.434l-2.149 23.981c-.37 4.126 2.675 7.771 6.8 8.14 4.134.371 7.771-2.674 8.14-6.8l2.149-23.981c.606-6.744 3.169-13.099 7.41-18.377z"/><path d="m467.935 261.642c-2.111-8.654.268-17.7 6.363-24.196 12.939-13.788 20.143-31.795 20.284-50.703s-6.793-37.021-19.524-51l-16.142-17.724c-3.922-4.308-5.586-10.29-4.451-16.005l2.73-13.745c5.473-27.549-5.003-55.24-27.34-72.267-22.336-17.028-51.815-19.793-76.928-7.215l-23.329 11.684c-3.704 1.854-5.202 6.361-3.348 10.064 1.855 3.704 6.36 5.202 10.064 3.348l23.329-11.684c20.256-10.145 43.104-8 61.118 5.731 18.016 13.732 26.135 35.196 21.721 57.415l-2.73 13.746c-2.059 10.363.96 21.214 8.074 29.026l16.142 17.724c10.182 11.181 15.728 25.666 15.614 40.788s-5.874 29.523-16.222 40.552c-9.578 10.206-13.315 24.417-9.998 38.015l3.542 14.523c5.997 24.589 2.585 50.346-9.607 72.524-12.193 22.18-32.112 38.861-56.087 46.973-3.924 1.328-6.028 5.585-4.701 9.508 1.058 3.127 3.977 5.099 7.104 5.099.797 0 1.607-.128 2.404-.397 27.539-9.317 50.419-28.479 64.425-53.955 14.005-25.477 17.925-55.062 11.035-83.306z"/><path d="m72.016 36.598c1.425 1.256 3.193 1.872 4.954 1.872 2.079 0 4.149-.86 5.631-2.543 14.795-16.8 42.083-27.561 69.703-13.728l23.33 11.684c3.704 1.855 8.209.356 10.064-3.348s.356-8.21-3.348-10.064l-23.33-11.684c-30.093-15.074-65.327-8.148-87.676 17.226-2.737 3.108-2.437 7.847.672 10.585z"/><path d="m120.738 399.217c-23.975-8.111-43.894-24.794-56.086-46.973-12.193-22.179-15.605-47.936-9.608-72.524l3.542-14.523c3.317-13.597-.42-27.809-9.998-38.015-10.348-11.028-16.109-25.429-16.222-40.551s5.433-29.608 15.615-40.789l16.141-17.724c7.115-7.812 10.133-18.663 8.074-29.028l-2.731-13.745c-1.583-7.966-1.565-15.876.05-23.511.857-4.053-1.732-8.033-5.785-8.891-4.056-.855-8.033 1.733-8.89 5.785-2.038 9.633-2.068 19.571-.088 29.539l2.731 13.745c1.135 5.715-.529 11.698-4.451 16.006l-16.142 17.724c-12.732 13.979-19.666 32.092-19.524 51s7.345 36.915 20.283 50.703c6.096 6.497 8.475 15.542 6.363 24.196l-3.542 14.523c-6.889 28.244-2.969 57.83 11.037 83.306 14.005 25.476 36.885 44.638 64.423 53.955.797.27 1.607.397 2.405.397 3.127 0 6.045-1.972 7.104-5.099 1.327-3.921-.778-8.178-4.701-9.506z"/></g></g></svg>