<svg id="Capa_1" enable-background="new 0 0 512.947 512.947" height="512" viewBox="0 0 512.947 512.947" width="512" xmlns="http://www.w3.org/2000/svg"><g><g><g><path d="m488.482 94.533-.223 16.404c-.778 57.277-26.288 111.418-69.962 148.483l-31.286 26.552c-31.277 26.544-58.707 57.312-81.501 91.419l-62.676 93.785c-29.368 43.944-93.235 45.993-125.359 4.022l-16.3-35.973-62.719-43.047c-41.971-32.124-39.922-95.991 4.022-125.359l93.785-62.676c34.107-22.794 64.875-50.224 91.419-81.501l26.552-31.286c37.065-43.674 91.206-69.184 148.483-69.962l15.96-.217 29.438 2.182 40.368 44.817v22.357z" fill="#d8efa7"/></g><g><path d="m71.724 308.668 100.847-68.102c36.675-24.767 69.854-54.431 98.581-88.14l28.736-33.719c40.112-47.07 98.185-75.005 159.264-76.613l2.182-.057-13.22-14.677-29.438-2.182-15.96.217c-57.277.778-111.418 26.288-148.483 69.962l-26.552 31.286c-26.544 31.277-57.312 58.707-91.419 81.501l-93.785 62.676c-42.978 28.722-45.875 90.45-6.719 123.202-5.916-31.073 6.33-65.341 35.966-85.354z" fill="#c5e97d"/></g><path d="m452.016 84.749.131 4.726c.955 34.577-12.986 67.9-38.28 91.495l-102.215 95.349c-16.345 15.247-31.935 31.285-46.713 48.056l-115.477 131.052c-24.662 27.988-67.83 29.35-94.208 2.973-26.378-26.378-25.016-69.545 2.973-94.208l131.052-115.477c16.771-14.778 32.809-30.367 48.056-46.713l95.349-102.215c23.595-25.294 56.917-39.236 91.495-38.28l4.726.131 25.508-.177z" fill="#c5e97d"/><path d="m484.394 8.594-25.301 16.178c-11.002-7.843-24.206-10.562-38.924-9.763-3.569.194-5.55 4.23-3.534 7.18l14.911 21.82c1.276 1.867 1.904 4.1 1.79 6.358l-1.266 24.985c-.138 2.716 2.102 4.955 4.818 4.818l24.985-1.266c2.258-.114 4.492.514 6.358 1.79l21.82 14.911c2.951 2.016 6.987.035 7.18-3.534.799-14.718-1.92-27.922-9.763-38.924l16.178-25.301c1.795-2.807 1.395-6.486-.961-8.842l-9.449-9.449c-2.356-2.357-6.035-2.756-8.842-.961z" fill="#b1e254"/></g><path d="m507.989 13.7-9.451-9.45c-4.809-4.807-12.456-5.636-18.184-1.976v.001l-21.248 13.586c-10.918-6.364-24.126-9.166-39.344-8.341-4.348.236-8.247 2.81-10.177 6.718-.564 1.143-.912 2.352-1.094 3.577l-5.877.08c-30.984.42-61.998 8.005-89.687 21.935-3.7 1.862-5.19 6.37-3.329 10.071 1.318 2.619 3.961 4.131 6.706 4.131 1.133 0 2.283-.258 3.365-.802 25.67-12.915 54.422-19.947 83.147-20.337l11.936-.162 10.599 15.51c.349.51.523 1.131.492 1.747l-.206 4.057-1.253-.034c-36.684-1.031-72.133 13.805-97.187 40.66l-95.35 102.215c-15.019 16.101-31.01 31.646-47.529 46.202l-64.736 57.043c-3.108 2.738-3.407 7.478-.669 10.585 1.482 1.683 3.551 2.542 5.63 2.542 1.761 0 3.53-.617 4.955-1.873l64.736-57.043c16.886-14.879 33.231-30.768 48.582-47.224l95.35-102.215c22.118-23.71 53.403-36.777 85.805-35.898l.907.025-.301 5.943c-.173 3.409 1.112 6.749 3.526 9.163 2.414 2.413 5.752 3.706 9.161 3.525l7.317-.371.066 2.391c.896 32.413-12.189 63.687-35.899 85.804l-102.215 95.35c-16.452 15.347-32.341 31.692-47.224 48.583l-115.474 131.051c-10.544 11.965-25.129 18.832-41.068 19.335-15.934.48-30.933-5.432-42.209-16.707-11.277-11.278-17.211-26.268-16.708-42.208.504-15.94 7.37-30.526 19.336-41.07l42.334-37.304c3.108-2.738 3.407-7.478.669-10.585-2.737-3.107-7.478-3.408-10.585-.669l-42.334 37.304c-7.902 6.962-14.022 15.33-18.174 24.599-13.002-13.426-19.965-31.312-19.352-50.458.729-22.73 11.993-43.015 30.901-55.651l93.784-62.676c34.693-23.185 65.974-51.071 92.971-82.884l26.553-31.286c9.744-11.481 20.872-21.813 33.074-30.709 3.348-2.439 4.083-7.131 1.643-10.479-2.439-3.346-7.131-4.082-10.479-1.643-13.161 9.594-25.164 20.738-35.676 33.125l-26.552 31.286c-26.097 30.75-56.333 57.706-89.868 80.118l-93.784 62.676c-22.983 15.358-36.673 40.014-37.56 67.642-.833 25.99 9.812 50.079 29.351 66.83-.701 3.708-1.124 7.502-1.245 11.36-.635 20.126 6.856 39.05 21.095 53.288 13.68 13.68 31.685 21.131 50.926 21.131.784 0 1.573-.013 2.361-.038 3.857-.122 7.649-.544 11.357-1.245 16.141 18.827 39.094 29.395 63.997 29.395.942 0 1.889-.015 2.836-.045 27.628-.887 52.282-14.576 67.642-37.559l19.631-29.375c2.302-3.443 1.376-8.102-2.068-10.402-3.443-2.304-8.102-1.377-10.402 2.068l-19.631 29.375c-12.637 18.908-32.921 30.171-55.651 30.9-19.129.6-37.024-6.354-50.454-19.353 9.267-4.151 17.633-10.271 24.595-18.171l115.478-131.052c14.561-16.523 30.105-32.516 46.202-47.53l102.215-95.35c26.854-25.051 41.675-60.474 40.661-97.187l-.076-2.736 2.683-.136c.61-.026 1.239.145 1.748.492l16.929 11.569-.168 12.38c-.748 55.122-25.284 107.194-67.316 142.866l-31.285 26.552c-31.811 26.995-59.696 58.275-82.884 92.971l-24.664 36.907c-2.302 3.443-1.376 8.102 2.068 10.402 1.28.856 2.728 1.266 4.16 1.266 2.421 0 4.797-1.17 6.242-3.334l24.664-36.907c22.414-33.537 49.37-63.773 80.119-89.868l31.285-26.552c45.337-38.476 71.802-94.643 72.608-154.1l.103-7.589c.728-.201 1.446-.453 2.137-.794 3.909-1.929 6.484-5.828 6.722-10.178.826-15.219-1.979-28.426-8.343-39.343l13.587-21.248c3.663-5.728 2.831-13.376-1.977-18.185zm-19.555 1.212c-.001.001-.001.001-.002.002zm-7.285 34.195c-1.649 2.579-1.565 5.901.211 8.394 5.577 7.823 8.376 17.313 8.501 28.892l-17.399-11.892c-2.958-2.02-6.507-3.109-10.083-3.109-.295 0-.591.008-.886.022l-21.77 1.104 1.103-21.771c.196-3.873-.9-7.769-3.088-10.969l-11.89-17.399c11.578.125 21.068 2.924 28.891 8.501 2.493 1.777 5.816 1.86 8.394.211l25.029-16.004 8.991 8.991z"/></g></svg>