<svg id="Capa_1" enable-background="new 0 0 513.103 513.103" height="512" viewBox="0 0 513.103 513.103" width="512" xmlns="http://www.w3.org/2000/svg"><g><g><path d="m273.982 214.498 40.238-20.022c30.375-15.114 46.628-48.906 39.474-82.071l-.152-.704c-3.188-14.78-2.579-30.128 1.771-44.609 9.267-30.851-16.885-60.787-48.702-55.747l-15.825 2.507-28.739 11.547-40.202-11.547-15.825-2.507c-31.816-5.04-57.969 24.896-48.702 55.747 4.35 14.481 4.959 29.828 1.771 44.609l-.152.704c-7.153 33.164 9.1 66.956 39.474 82.071l40.238 20.022 17.269 6.473z" fill="#d8efa7"/><path d="m341.697 323.769-58.56-60.67c-4.14-4.29-6.62-9.9-7.01-15.84l-5.826-11.494h-27.261l-6.533 11.494c-.39 5.94-2.87 11.55-7.01 15.84l-58.56 60.67c-52.53 54.42-23.59 145.41 50.72 159.48l5.62 1.07c3.23.61 5.73 3.18 6.25 6.43l.64 3.99c1 6.26 6.4 10.86 12.74 10.86h9.41 9.41c6.34 0 11.74-4.6 12.74-10.86l.64-3.99c.52-3.25 3.02-5.82 6.25-6.43l5.62-1.07c74.31-14.07 103.25-105.06 50.72-159.48z" fill="#eff8db"/><path d="m198.552 333.404 59.315-63.295c4.194-4.476 6.706-10.328 7.101-16.525l1.135-17.819h-23.063l-6.533 11.494c-.39 5.94-2.87 11.55-7.01 15.84l-58.56 60.67c-48.842 50.6-27.248 132.817 35.757 155.42-41.023-34.674-49.437-101.722-8.142-145.785z" fill="#e8f6cb"/><g id="XMLID_249_"><g><path d="m266.047 7.499c33.86 0 58.37 32.32 49.22 64.93l-3.51 12.55c-.51 1.83-.77 3.7-.77 5.57 0 4.11 1.23 8.17 3.6 11.63 15.98 23.4 12.46 54.97-8.3 74.26l-27.24 25.32c-3.52 3.27-5.38 7.95-5.07 12.74l2.15 32.76h-39.62l2.15-32.76c.31-4.79-1.55-9.47-5.07-12.74l-27.24-25.32c-12.04-11.19-18.28-26.51-18.28-41.97 0-11.19 3.27-22.46 9.98-32.29 3.44-5.03 4.48-11.33 2.83-17.2l-3.51-12.55c-9.15-32.61 15.36-64.93 49.22-64.93h19.46z" fill="#c5e97d"/></g></g><g><path d="m234.419 179.7c-12.195-11.674-18.516-27.657-18.516-43.786 0-11.674 3.312-23.432 10.109-33.687 3.484-5.248 4.538-11.82 2.867-17.944l-3.555-13.093c-7.029-25.8 5.574-51.397 27.023-62.274v-1.417h-5.76c-33.86 0-58.37 32.32-49.22 64.93l3.51 12.55c1.65 5.87.61 12.17-2.83 17.2-6.71 9.83-9.98 21.1-9.98 32.29 0 15.46 6.24 30.78 18.28 41.97l27.24 25.32c3.52 3.27 5.38 7.95 5.07 12.74l-2.15 32.76h28.864l1.775-27.852c.314-4.997-1.57-9.88-5.135-13.291z" fill="#b1e254"/></g></g><g><path d="m347.095 318.562-58.565-60.676c-2.899-3.005-4.646-6.954-4.919-11.121l-1.818-27.777 35.769-17.798c33.476-16.657 51.349-53.817 43.465-90.369l-.152-.702c-2.912-13.505-2.351-27.638 1.623-40.87 5.099-16.975 1.182-35.077-10.479-48.425-11.663-13.346-29.071-19.661-46.58-16.886l-13.337 2.112c-7.956-3.943-16.822-6.05-26.058-6.05h-19.455c-9.235 0-18.102 2.107-26.057 6.05l-13.337-2.113c-27.483-4.36-53.112 13.646-58.348 40.976-.779 4.068 1.887 7.998 5.955 8.777.477.091.951.135 1.42.135 3.525 0 6.67-2.499 7.357-6.09 3.191-16.661 19.029-31.88 40.18-29.127-1.358 1.46-2.663 2.984-3.887 4.598-11.182 14.748-14.729 33.427-9.732 51.246l3.52 12.554c1.051 3.744.394 7.733-1.801 10.946-8.745 12.797-12.613 28.328-10.892 43.731s8.921 29.697 20.273 40.249l12.904 11.993-12.39-6.165c-27.328-13.599-41.92-43.937-35.485-73.771l.153-.709c2.595-12.026 2.883-24.278.856-36.416-.683-4.086-4.545-6.85-8.632-6.163-4.086.682-6.846 4.547-6.163 8.632 1.713 10.261 1.469 20.618-.723 30.78l-.153.709c-7.884 36.55 9.989 73.71 43.465 90.367l35.769 17.798-1.818 27.778c-.272 4.166-2.02 8.115-4.919 11.119l-58.565 60.677c-16.507 17.103-26.341 38.405-28.438 61.606-.373 4.125 2.669 7.771 6.795 8.145.229.021.457.03.684.03 3.837 0 7.108-2.93 7.461-6.825 1.785-19.757 10.186-37.925 24.291-52.538l58.565-60.678c3.698-3.831 6.381-8.495 7.856-13.547h27.128c1.475 5.052 4.158 9.716 7.856 13.548l58.565 60.677c22.722 23.54 30.366 56.208 20.449 87.386-9.916 31.179-35.028 53.428-67.173 59.517l-5.616 1.063c-6.317 1.198-11.245 6.269-12.264 12.619l-.638 3.985c-.422 2.638-2.666 4.552-5.337 4.552h-18.813c-2.671 0-4.915-1.914-5.337-4.551l-.639-3.988c-1.018-6.349-5.945-11.419-12.266-12.618l-5.611-1.062c-33.959-6.433-60.284-31.304-68.704-64.907-1.007-4.018-5.079-6.457-9.099-5.452-4.018 1.007-6.459 5.08-5.452 9.099 9.858 39.343 40.69 68.464 80.464 75.999l5.61 1.062c.127.024.227.127.246.252l.639 3.987c1.593 9.955 10.066 17.181 20.148 17.181h18.814c10.082 0 18.556-7.226 20.149-17.182l.637-3.984c.021-.127.12-.229.244-.253l5.614-1.062c37.65-7.132 67.062-33.191 78.678-69.708 11.615-36.518 2.662-74.779-23.95-102.352zm-142.851-212.148c4.702-6.885 6.108-15.435 3.858-23.458l-3.52-12.553c-3.718-13.261-1.078-27.16 7.242-38.135s20.993-17.268 34.765-17.268h2.228v26.067l-9.58-6.333c-3.456-2.284-8.108-1.334-10.393 2.121s-1.334 8.108 2.121 10.393l17.852 11.8v30.196l-9.58-6.333c-3.456-2.284-8.108-1.334-10.393 2.121s-1.334 8.108 2.121 10.393l17.852 11.8v30.195l-9.58-6.333c-3.456-2.284-8.108-1.335-10.393 2.121-2.284 3.455-1.334 8.108 2.121 10.393l17.852 11.801v27.367c0 4.143 3.357 7.5 7.5 7.5s7.5-3.357 7.5-7.5v-27.367l17.852-11.801c3.455-2.284 4.405-6.938 2.121-10.393-2.283-3.456-6.937-4.406-10.393-2.121l-9.58 6.333v-30.195l17.852-11.8c3.455-2.284 4.405-6.938 2.121-10.393-2.283-3.455-6.937-4.405-10.393-2.121l-9.58 6.333v-30.196l17.852-11.8c3.455-2.284 4.405-6.938 2.121-10.393-2.283-3.456-6.937-4.406-10.393-2.121l-9.58 6.333v-26.067h2.228c13.772 0 26.443 6.294 34.764 17.269s10.96 24.874 7.242 38.135l-3.52 12.552c-2.25 8.024-.844 16.574 3.859 23.461 3.489 5.104 5.969 10.741 7.371 16.756.94 4.034 4.975 6.545 9.007 5.601 4.033-.939 6.541-4.973 5.602-9.007-1.826-7.83-5.054-15.17-9.594-21.812-2.195-3.214-2.853-7.203-1.802-10.948l3.52-12.553c4.996-17.819 1.449-36.498-9.732-51.246-1.222-1.611-2.525-3.133-3.881-4.592 12.004-1.529 23.839 2.921 31.84 12.078 8.246 9.438 11.016 22.239 7.411 34.242-4.702 15.652-5.365 32.371-1.92 48.35l.152.702c6.436 29.839-8.156 60.176-35.484 73.774l-12.39 6.165 12.903-11.992c7.467-6.938 13.258-15.671 16.747-25.252 1.418-3.892-.588-8.196-4.48-9.613-3.894-1.419-8.197.589-9.613 4.48-2.719 7.465-7.047 13.991-12.865 19.397l-27.24 25.318c-5.192 4.825-7.904 11.649-7.442 18.724l1.622 24.768h-23.604l1.622-24.769c.462-7.073-2.25-13.897-7.441-18.722l-27.242-25.319c-18.185-16.899-21.217-44.039-7.213-64.533z"/><path d="m220.661 319.594c1.921-3.669.504-8.201-3.166-10.123-3.667-1.919-8.201-.505-10.123 3.166l-4.009 7.656c-16.861 32.211-20.243 78.37-8.616 117.596.966 3.261 3.951 5.371 7.188 5.371.705 0 1.424-.101 2.135-.312 3.971-1.177 6.236-5.351 5.059-9.322-10.414-35.135-7.39-77.885 7.524-106.376z"/><path d="m308.567 442.948c.711.211 1.428.312 2.134.312 3.235 0 6.222-2.11 7.188-5.371 11.627-39.227 8.245-85.386-8.617-117.596l-4.009-7.656c-1.922-3.671-6.455-5.085-10.123-3.166-3.67 1.922-5.087 6.454-3.166 10.123l4.009 7.656c14.915 28.491 17.939 71.241 7.525 106.376-1.179 3.972 1.087 8.145 5.059 9.322z"/><path d="m263.817 432.071v-115.956c0-4.143-3.357-7.5-7.5-7.5s-7.5 3.357-7.5 7.5v115.956c0 4.142 3.357 7.491 7.5 7.491 4.142 0 7.5-3.349 7.5-7.491z"/></g></g></svg>