<svg id="Capa_1" enable-background="new 0 0 511.319 511.319" height="512" viewBox="0 0 511.319 511.319" width="512" xmlns="http://www.w3.org/2000/svg"><g><g><g><path d="m150.35 107.921 44.712-52.925c45.755-54.16 133.888-30.766 146.76 38.955l19.929 107.94c22.033 119.34-51.165 235.626-168.299 267.365h-.001c-139.747 37.866-244.189-127.941-149.682-237.631z" fill="#c9a291"/><path d="m120.336 226.054 106.581-123.704 44.712-52.925c6.107-7.229 12.991-13.062 20.328-17.602-31.683-13.259-71.054-7.414-96.895 23.173l-44.712 52.925-106.581 123.704c-94.507 109.689 9.935 275.497 149.683 237.631h.001c3.053-.827 6.068-1.725 9.06-2.666-102.04-19.883-160.592-149.524-82.177-240.536z" fill="#be8f7d"/><path d="m306.777 118.815c-57.729 2.871-106.655 42.288-121.746 98.083l-9.607 35.521c-16.489 60.963-4.007 124.589 34.246 174.563 7.422 9.697 15.752 18.71 24.792 26.927 92.639-44.964 146.62-147.312 127.288-252.018l-14.558-78.85c-10.966-2.891-22.315-4.39-33.753-4.39-2.209-.001-4.45.055-6.662.164z" fill="#be8f7d"/><path d="m423.944 228.459c-11.392-54.399-60.662-92.429-116.173-89.668-48.891 2.431-90.652 36.075-103.433 83.329l-9.607 35.521c-35.127 129.874 78.558 251.374 210.477 224.946h.001c108.932-21.823 135.034-165.657 40.716-224.365l-2.069-1.288c-10.246-6.377-17.439-16.664-19.912-28.475z" fill="#d3b5a8"/><path d="m263.923 244.367 9.607-35.521c8.162-30.178 28.18-54.792 54.291-69.283-6.544-.838-13.261-1.109-20.049-.772-48.891 2.431-90.652 36.075-103.433 83.329l-9.607 35.521c-35.127 129.874 78.558 251.374 210.477 224.947h.001c10.619-2.127 20.452-5.421 29.461-9.675-113.861-2.12-202.284-111.95-170.748-228.546z" fill="#c9a291"/><path d="m87.561 415.202h30.554c-3.885-4.78-7.478-9.791-10.76-15h-19.794c-4.142 0-7.5 3.357-7.5 7.5s3.358 7.5 7.5 7.5z" fill="#be8f7d"/></g></g><g><path d="m113.675 150.487c1.417 1.221 3.158 1.818 4.892 1.818 2.107 0 4.202-.883 5.686-2.604l14.495-16.824h74.728c4.142 0 7.5-3.357 7.5-7.5s-3.358-7.5-7.5-7.5h-61.805l4.408-5.116 44.712-52.925c19.277-22.818 49.188-32.23 78.059-24.568 28.87 7.663 50.174 30.671 55.597 60.045l3.38 18.31c.752 4.073 4.663 6.766 8.737 6.014 4.073-.752 6.766-4.663 6.014-8.736l-3.38-18.31c-6.487-35.135-31.968-62.654-66.5-71.82-34.53-9.168-70.308 2.094-93.365 29.387l-44.665 52.869-31.779 36.885c-2.704 3.136-2.352 7.872.786 10.575z"/><path d="m221.652 451.519c-9.759 4.187-19.907 7.719-30.162 10.497-31.25 8.467-62.624 6.604-90.729-5.389-21.108-9.007-39.568-23.181-54.116-41.426h4.974c4.142 0 7.5-3.357 7.5-7.5s-3.358-7.5-7.5-7.5h-15.46c-14.948-24.387-22.23-51.837-21.031-79.522 1.275-29.456 12.372-57.583 32.132-81.555h53.059c4.142 0 7.5-3.357 7.5-7.5s-3.358-7.5-7.5-7.5h-40.188l43.2-50.14c2.704-3.138 2.352-7.874-.787-10.577-3.138-2.704-7.874-2.352-10.578.786l-53.879 62.535c-23.355 27.109-36.476 59.372-37.945 93.302-1.357 31.341 7.038 62.373 24.277 89.74 17.239 27.368 41.602 48.342 70.456 60.653 18.429 7.864 38.085 11.819 58.198 11.819 13.979-.001 28.181-1.911 42.341-5.748 10.932-2.963 21.749-6.728 32.152-11.19 3.807-1.633 5.568-6.043 3.936-9.85-1.634-3.807-6.046-5.566-9.85-3.935z"/><path d="m511.291 358.903c-.9-44.302-23.281-83.32-61.405-107.05l-2.067-1.286c-8.464-5.269-14.491-13.887-16.534-23.645-5.875-28.057-21.608-53.154-44.3-70.669-22.692-17.516-50.96-26.38-79.586-24.954-29.119 1.448-56.721 13.42-77.721 33.709-2.979 2.878-3.061 7.626-.183 10.604s7.626 3.062 10.605.183c18.388-17.765 42.553-28.247 68.044-29.514 25.071-1.245 49.81 6.513 69.676 21.846 16.187 12.494 28.326 29.397 35.051 48.517h-86.495c-4.142 0-7.5 3.357-7.5 7.5s3.358 7.5 7.5 7.5h90.618c3.193 13.063 11.458 24.535 22.901 31.658l2.067 1.286c33.734 20.997 53.538 55.485 54.333 94.62.337 16.574-2.837 33.157-9.214 48.388h-150.95c-4.142 0-7.5 3.357-7.5 7.5s3.358 7.5 7.5 7.5h143.338c-8.378 13.909-19.588 25.849-32.834 34.86-3.425 2.33-4.312 6.995-1.982 10.42 1.452 2.133 3.809 3.282 6.208 3.282 1.452 0 2.92-.422 4.212-1.3 17.978-12.23 32.657-29.179 42.45-49.013 9.442-19.122 14.203-40.541 13.768-61.942z"/><path d="m418.01 471.479c-4.646 1.524-9.449 2.787-14.274 3.754-11.552 2.313-23.126 3.447-34.593 3.447-47.482-.002-93.007-19.454-126.339-55.078-17.3-18.489-30.015-39.969-37.824-62.974h152.756c4.142 0 7.5-3.357 7.5-7.5s-3.358-7.5-7.5-7.5h-157.102c-5.661-23.522-6.341-48.25-1.694-72.749h56.706c4.142 0 7.5-3.357 7.5-7.5s-3.358-7.5-7.5-7.5h-53.211l9.142-33.802c2.327-8.601 5.761-16.915 10.208-24.713 2.052-3.598.799-8.179-2.799-10.23-3.599-2.054-8.179-.8-10.23 2.799-5.078 8.902-9 18.399-11.659 28.229l-9.607 35.521c-17.18 63.517-.597 130.122 44.359 178.168 36.214 38.704 85.664 59.836 137.252 59.836 12.453-.001 25.034-1.232 37.58-3.746 5.408-1.083 10.792-2.499 16.002-4.207 3.936-1.291 6.08-5.528 4.789-9.464-1.289-3.937-5.527-6.081-9.462-4.791z"/><path d="m143.036 319.942c4.142 0 7.5-3.357 7.5-7.5s-3.358-7.5-7.5-7.5h-20.315c-4.142 0-7.5 3.357-7.5 7.5s3.358 7.5 7.5 7.5z"/><path d="m80.061 407.702c0 4.143 3.358 7.5 7.5 7.5h75.71c4.142 0 7.5-3.357 7.5-7.5s-3.358-7.5-7.5-7.5h-75.71c-4.142 0-7.5 3.358-7.5 7.5z"/></g></g></svg>