<svg id="Capa_1" enable-background="new 0 0 508.93 508.93" height="512" viewBox="0 0 508.93 508.93" width="512" xmlns="http://www.w3.org/2000/svg"><g><g><g><path d="m258.562 472.18 144.735-114.142c2.49-1.964.369-5.911-2.643-4.919l-96.174 31.674c-4.561 1.502-7.906-4.324-4.31-7.506l76.439-67.645 24.558-2.456-5.684-14.507 9.823-15.963-17.419-2.456-14.144-11.688-4.912 16.782-70.792 39.104c-7.014 3.875-15.613-1.199-15.613-9.212 0-2.88 1.18-5.635 3.266-7.621l65.28-62.172 25.109-3.013-11.048-12.818 6.022-19.321-20.091 1.009-6.797-13.792-12.028 21.743-37.61 20.252c-6.565 3.535-14.526-1.22-14.526-8.676 0-2.539.98-4.979 2.735-6.813l69.041-72.137 20.25-2.01-9.833-18.25 4.411-16.443-19.651 1.203-11.011-14.234-11.234 21.656-25.329 16.201c-3.977 2.544-8.913-1.413-7.295-5.848l25.825-70.8c.947-2.595-.625-5.427-3.329-5.996l-25.357-5.338-1.653-19.506c-.199-2.35-2.164-4.155-4.522-4.155h-14.666l-10.356-13.139c-1.817-2.304-5.31-2.304-7.127 0l-10.359 13.137h-14.666c-2.358 0-4.323 1.806-4.522 4.155l-1.653 19.506-25.357 5.338c-2.703.569-4.275 3.401-3.329 5.996l25.825 70.8c1.618 4.436-3.318 8.393-7.295 5.848l-25.329-16.201-11.234-21.656-11.011 14.234-19.651-1.203 4.411 16.443-9.833 18.25 20.25 2.01 69.041 72.137c1.755 1.834 2.735 4.275 2.735 6.813 0 7.456-7.961 12.211-14.526 8.676l-37.61-20.252-12.028-21.743-6.797 13.792-20.091-1.009 6.022 19.321-11.048 12.818 25.109 3.013 65.28 62.172c2.086 1.986 3.266 4.741 3.266 7.621 0 8.013-8.599 13.087-15.613 9.212l-70.792-39.104-4.912-16.782-14.144 11.688-17.419 2.456 9.823 15.963-5.684 14.507 24.558 2.456 76.439 67.645c3.596 3.182.25 9.008-4.31 7.506l-96.174-31.674c-3.012-.992-5.133 2.955-2.643 4.919l144.737 114.144c2.402 1.895 5.791 1.895 8.194 0z" fill="#c5e97d"/></g><g fill="#b1e254"><path d="m157.149 145.886 27.185 28.404c2.379-17.488 5.663-34.273 9.745-50.174l-9.862-6.308-11.234-21.656-11.011 14.234-19.651-1.203 4.411 16.443-9.833 18.25z"/><path d="m203.736 92.233c9.657-27.32 21.89-51.025 36.024-69.869h-13.883c-2.358 0-4.323 1.806-4.522 4.155l-1.653 19.506-25.357 5.338c-2.703.569-4.275 3.401-3.329 5.996z"/><path d="m201.12 383.697-92.844-30.578c-3.012-.992-5.133 2.956-2.643 4.919l139.391 109.928c-17.727-21.425-32.757-50.275-43.904-84.269z"/><path d="m107.763 307.187 24.558 2.456 63.411 56.116c-5.344-19.506-9.468-40.426-12.173-62.397l-43.462-24.008-4.912-16.781-14.144 11.688-17.419 2.456 9.823 15.963z"/><path d="m180.183 260.621c-.226-6.212-.349-12.479-.349-18.801 0-8.961.235-17.817.685-26.551l-3.729-2.008-12.028-21.743-6.797 13.792-20.091-1.009 6.022 19.321-11.048 12.818 25.109 3.013z"/></g></g><g><path d="m295.547 433.461-33.582 26.484v-24.543l22.86-25.072c2.791-3.061 2.572-7.804-.489-10.595-3.059-2.791-7.805-2.572-10.595.489l-11.776 12.916v-41.273l22.86-25.072c2.791-3.061 2.572-7.804-.489-10.595-3.059-2.791-7.805-2.572-10.595.489l-11.776 12.916v-55.906l22.86-25.072c2.791-3.061 2.572-7.804-.489-10.595-3.059-2.791-7.805-2.572-10.595.489l-11.776 12.916v-74.928l22.86-25.072c2.791-3.061 2.572-7.804-.489-10.595-3.059-2.792-7.805-2.572-10.595.489l-11.776 12.916v-65.451l22.86-25.072c2.791-3.061 2.572-7.804-.489-10.595-3.059-2.792-7.805-2.572-10.595.489l-11.776 12.916v-60.202l.534.677c1.422 1.803 3.592 2.855 5.889 2.855h11.945l1.422 16.794c.28 3.299 2.688 6.024 5.929 6.706l22.014 4.635-24.654 67.591c-1.857 5.092-.325 10.572 3.903 13.963 4.231 3.392 9.915 3.695 14.479.774l25.328-16.201c1.108-.709 2.011-1.697 2.616-2.864l5.828-11.235 3.827 4.948c1.52 1.965 3.911 3.045 6.391 2.897l9.248-.566-1.711 6.376c-.496 1.848-.267 3.816.642 5.501l4.495 8.341-9.05.899c-1.78.177-3.439.984-4.677 2.277l-14.913 15.581c-2.864 2.992-2.761 7.739.232 10.604 2.991 2.864 7.74 2.759 10.604-.232l12.996-13.577 17.49-1.737c2.496-.247 4.703-1.727 5.881-3.941s1.17-4.871-.02-7.079l-8.421-15.627 3.641-13.564c.625-2.33.091-4.819-1.436-6.688-1.526-1.869-3.858-2.885-6.267-2.742l-15.689.961-8.582-11.095c-1.565-2.024-4.05-3.111-6.606-2.881-2.549.229-4.805 1.744-5.983 4.016l-10.31 19.874-17.246 11.031 23.225-63.67c1.198-3.281.913-6.914-.781-9.968-1.695-3.055-4.628-5.22-8.047-5.939l-19.899-4.19-1.182-13.949c-.533-6.283-5.69-11.021-11.996-11.021h-11.029l-8.107-10.282c-2.299-2.915-5.744-4.585-9.454-4.585-3.709 0-7.154 1.671-9.452 4.583l-8.107 10.281h-11.028c-6.306 0-11.463 4.738-11.996 11.022l-1.182 13.948-19.9 4.19c-3.417.72-6.35 2.884-8.045 5.938s-1.98 6.687-.784 9.967l23.225 63.672-17.245-11.031-10.309-19.873c-1.179-2.272-3.435-3.787-5.984-4.017-2.552-.232-5.04.855-6.606 2.881l-8.583 11.095-15.689-.961c-2.416-.138-4.741.873-6.267 2.742-1.526 1.868-2.061 4.357-1.435 6.688l3.639 13.564-8.42 15.627c-1.19 2.208-1.197 4.865-.019 7.079 1.178 2.215 3.385 3.694 5.88 3.941l17.49 1.737 67.125 70.134c.421.44.653 1.018.653 1.627 0 1.162-.718 1.766-1.146 2.021-.43.255-1.301.601-2.323.052l-35.67-19.207-10.96-19.814c-1.352-2.443-3.95-3.926-6.741-3.868-2.792.066-5.315 1.678-6.55 4.183l-4.617 9.37-15.167-.762c-2.453-.138-4.802.958-6.304 2.896-1.502 1.937-1.962 4.486-1.233 6.826l4.783 15.347-8.33 9.665c-1.809 2.1-2.313 5.025-1.311 7.608 1.002 2.584 3.347 4.404 6.099 4.734l22.634 2.716 63.476 60.454c.596.567.938 1.366.938 2.189 0 1.502-.932 2.276-1.487 2.604s-1.683.77-3 .042l-68.088-37.61-4.044-13.816c-.708-2.421-2.587-4.323-4.998-5.063-2.412-.74-5.033-.219-6.978 1.389l-12.512 10.339-15.321 2.16c-2.505.354-4.663 1.946-5.74 4.235s-.926 4.968.4 7.122l7.863 12.778-4.32 11.024c-.856 2.187-.64 4.646.585 6.649 1.225 2.002 3.316 3.316 5.652 3.55l22.148 2.215 63.423 56.126-81.966-26.994c-4.849-1.602-9.921.427-12.337 4.924s-1.304 9.846 2.705 13.007l74.973 59.126c1.375 1.085 3.013 1.611 4.639 1.611 2.218 0 4.414-.979 5.894-2.855 2.565-3.253 2.008-7.969-1.245-10.533l-54.233-42.771 71.087 23.412c5.43 1.784 11.215-.427 14.063-5.385 2.849-4.959 1.847-11.07-2.437-14.861l-76.439-67.645c-1.179-1.044-2.657-1.689-4.224-1.847l-14.711-1.471 2.074-5.293c.859-2.193.638-4.661-.596-6.667l-3.819-6.205 6.074-.856c1.371-.193 2.663-.763 3.73-1.646l5.368-4.436 1.713 5.854c.556 1.899 1.84 3.502 3.572 4.459l70.792 39.104c5.643 3.117 12.325 3.021 17.875-.255 5.55-3.274 8.864-9.078 8.864-15.522 0-4.909-2.039-9.667-5.594-13.052l-65.28-62.172c-1.171-1.116-2.672-1.823-4.279-2.016l-11.128-1.336 1.855-2.152c1.69-1.961 2.25-4.656 1.479-7.128l-2.823-9.06 9.356.47c2.988.165 5.781-1.49 7.104-4.175l.453-.92 5.081 9.185c.697 1.26 1.74 2.292 3.007 2.974l37.611 20.252c5.43 2.926 11.833 2.78 17.126-.382s8.454-8.731 8.454-14.898c0-4.492-1.71-8.753-4.816-11.998l-69.041-72.135c-1.238-1.293-2.896-2.101-4.677-2.277l-9.05-.899 4.495-8.341c.908-1.685 1.137-3.652.641-5.501l-1.71-6.376 9.248.566c2.475.146 4.871-.934 6.391-2.897l3.828-4.948 5.828 11.234c.606 1.168 1.508 2.156 2.616 2.865l25.329 16.201c4.566 2.922 10.25 2.617 14.479-.773s5.762-8.871 3.904-13.964l-24.657-67.59 22.015-4.636c3.239-.682 5.648-3.407 5.928-6.706l1.423-16.794h11.944c2.297 0 4.467-1.053 5.889-2.855l.534-.677v60.2l-11.777-12.916c-2.791-3.06-7.536-3.28-10.595-.488-3.061 2.791-3.28 7.534-.489 10.596l22.861 25.072v65.449l-11.777-12.916c-2.791-3.061-7.536-3.28-10.595-.488-3.061 2.791-3.28 7.534-.489 10.596l22.861 25.072v74.927l-11.777-12.916c-2.791-3.061-7.536-3.28-10.595-.488-3.061 2.791-3.28 7.534-.489 10.596l22.861 25.072v55.904l-11.777-12.916c-2.791-3.06-7.536-3.28-10.595-.488-3.061 2.791-3.28 7.534-.489 10.596l22.861 25.072v41.271l-11.777-12.916c-2.791-3.061-7.536-3.28-10.595-.488-3.061 2.791-3.28 7.534-.489 10.596l22.861 25.072v24.542l-36.604-28.867c-3.253-2.565-7.969-2.008-10.534 1.244-2.565 3.253-2.007 7.969 1.245 10.533l45.894 36.193v22.382c0 4.143 3.358 7.5 7.5 7.5 4.143 0 7.5-3.357 7.5-7.5v-22.382l42.871-33.81c3.252-2.564 3.81-7.28 1.244-10.533-2.565-3.253-7.281-3.809-10.534-1.244z"/><path d="m398.309 345.995-81.967 26.995 63.423-56.126 22.147-2.215c2.336-.233 4.428-1.548 5.652-3.55 1.225-2.003 1.441-4.463.585-6.649l-4.319-11.024 7.864-12.778c1.325-2.154 1.476-4.832.399-7.122-1.076-2.289-3.234-3.882-5.74-4.235l-15.321-2.16-12.512-10.339c-1.944-1.606-4.563-2.129-6.978-1.389-2.411.74-4.289 2.643-4.998 5.062l-4.044 13.817-68.087 37.61c-1.316.727-2.445.285-3-.042-.556-.328-1.487-1.103-1.487-2.604 0-.823.342-1.622.939-2.19l63.476-60.453 22.634-2.716c2.752-.33 5.097-2.15 6.099-4.734 1.002-2.583.498-5.509-1.312-7.608l-8.329-9.665 4.782-15.347c.729-2.34.27-4.89-1.232-6.826-1.503-1.938-3.888-3.031-6.304-2.896l-15.167.762-4.617-9.37c-1.234-2.505-3.758-4.116-6.55-4.183-2.793-.034-5.39 1.424-6.74 3.868l-10.961 19.814-35.669 19.207c-1.025.551-1.896.202-2.324-.052-.428-.256-1.146-.858-1.146-2.021 0-.608.231-1.187.653-1.627l31.982-33.418c2.864-2.992 2.76-7.74-.232-10.604-2.993-2.866-7.741-2.761-10.604.232l-31.981 33.417c-3.107 3.245-4.818 7.506-4.818 11.999 0 6.167 3.16 11.736 8.454 14.898 5.292 3.162 11.696 3.306 17.127.382l37.61-20.252c1.267-.683 2.311-1.714 3.007-2.974l5.081-9.185.453.92c1.323 2.684 4.132 4.338 7.104 4.175l9.356-.47-2.823 9.06c-.771 2.472-.211 5.167 1.479 7.128l1.854 2.152-11.128 1.336c-1.606.192-3.107.899-4.279 2.016l-65.279 62.171c-3.556 3.386-5.595 8.144-5.595 13.053 0 6.444 3.313 12.247 8.863 15.522 5.553 3.277 12.233 3.369 17.877.255l70.79-39.104c1.732-.957 3.017-2.56 3.572-4.458l1.713-5.854 5.368 4.436c1.067.883 2.358 1.452 3.73 1.646l6.073.856-3.819 6.205c-1.233 2.005-1.454 4.474-.596 6.667l2.074 5.293-14.711 1.471c-1.567.157-3.045.803-4.225 1.847l-76.439 67.645c-4.283 3.791-5.284 9.902-2.437 14.861 2.849 4.96 8.634 7.172 14.063 5.385l71.087-23.412-57.236 45.138c-3.252 2.564-3.81 7.28-1.244 10.533 1.479 1.876 3.676 2.855 5.894 2.855 1.626 0 3.264-.526 4.64-1.611l77.978-61.494c4.008-3.161 5.119-8.51 2.702-13.006-2.415-4.497-7.488-6.522-12.334-4.926z"/></g></g></svg>