<svg id="Capa_1" enable-background="new 0 0 510.807 510.807" height="512" viewBox="0 0 510.807 510.807" width="512" xmlns="http://www.w3.org/2000/svg"><g><g><path d="m156.117 375.623 1.569 1.027c33.058 21.628 77.449 2.279 84.107-36.66 3.394-19.851-4.362-39.966-20.204-52.4l-10.664-8.369c-51.094-40.1-122.972-40.1-174.066 0l-10.664 8.369c-15.843 12.434-23.599 32.549-20.204 52.4 6.658 38.939 51.049 58.288 84.107 36.66l1.569-1.027 23.705-13.784h24.469z" fill="#d3b5a8"/><path d="m283.355 266.388 1.569 1.027c33.058 21.628 77.449 2.279 84.107-36.66 3.394-19.851-4.362-39.966-20.204-52.4l-10.664-8.369c-51.094-40.1-122.972-40.1-174.066 0l-10.664 8.369c-15.843 12.434-23.599 32.549-20.204 52.4 6.658 38.939 51.049 58.288 84.107 36.66l1.569-1.027 23.705-13.784h24.469z" fill="#d3b5a8"/><path d="m296.162 243.374c-8.758 4.136-13.908 13.391-12.807 23.014l8.036 70.181c1.985 17.333-11.57 32.529-29.017 32.529h-22.488c-17.446 0-31.001-15.196-29.017-32.529l8.036-70.181c1.102-9.623-4.049-18.878-12.807-23.014-.401-.189-.266-.791.177-.791h89.708c.445 0 .58.602.179.791z" fill="#eadad4"/><path d="m262.533 359.846c-17.446 0-31.001-15.196-29.017-32.529l8.036-70.181c.597-5.213-.654-10.311-3.306-14.552h-31.97c-.443 0-.578.602-.177.791 8.758 4.136 13.908 13.391 12.807 23.014l-8.036 70.181c-1.985 17.333 11.57 32.529 29.017 32.529h22.488c8.468 0 16.033-3.595 21.336-9.262z" fill="#e0c8bf"/><path d="m174.223 222.965c-3.394-21.289 4.362-42.86 20.204-56.194l10.664-8.975c7.395-6.225 15.237-11.543 23.377-15.966l.039-.098c-22.922 3.726-45.164 13.148-64.41 28.253l-10.664 8.369c-15.843 12.434-23.598 32.549-20.204 52.4 6.404 37.454 47.735 56.769 80.294 38.942-19.317-5.845-35.492-22.844-39.3-46.731z" fill="#c9a291"/><path d="m168.923 352.609c-8.758 4.136-13.908 13.391-12.807 23.014l8.036 70.181c1.985 17.333-11.57 32.529-29.017 32.529h-22.488c-17.446 0-31.001-15.196-29.017-32.529l8.036-70.181c1.102-9.623-4.049-18.878-12.807-23.014-.401-.189-.266-.791.177-.791h89.708c.445 0 .58.602.179.791z" fill="#eadad4"/><path d="m135.295 469.081c-17.446 0-31.001-15.196-29.017-32.529l8.036-70.181c.597-5.213-.654-10.311-3.306-14.552h-31.97c-.443 0-.578.602-.177.791 8.758 4.136 13.908 13.391 12.807 23.014l-8.036 70.181c-1.985 17.333 11.57 32.529 29.017 32.529h22.488c8.468 0 16.025-3.587 21.328-9.253z" fill="#e0c8bf"/><path d="m46.985 332.2c-3.394-21.289 4.362-42.86 20.204-56.194l10.664-8.975c7.395-6.225 15.276-11.641 23.416-16.064-22.922 3.726-45.164 13.148-64.41 28.253l-10.664 8.369c-15.843 12.434-23.598 32.549-20.204 52.4 6.404 37.454 47.735 56.769 80.294 38.942-19.317-5.846-35.492-22.845-39.3-46.731z" fill="#c9a291"/><path d="m416.842 157.17 1.569 1.027c33.058 21.628 77.449 2.279 84.107-36.66 3.394-19.851-4.362-39.966-20.204-52.4l-10.664-8.369c-51.094-40.1-122.972-40.1-174.066 0l-10.664 8.369c-15.843 12.434-23.599 32.549-20.204 52.4 6.658 38.939 51.049 58.288 84.107 36.66l1.569-1.027 23.705-13.784h24.469z" fill="#d3b5a8"/><g><path d="m429.649 134.156c-8.758 4.136-13.908 13.391-12.807 23.014l8.036 70.181c1.985 17.333-11.57 32.529-29.017 32.529h-22.488c-17.446 0-31.001-15.196-29.017-32.529l8.036-70.181c1.102-9.623-4.049-18.878-12.807-23.014-.401-.189-.266-.791.177-.791h89.708c.445.001.58.602.179.791z" fill="#eadad4"/><path d="m396.02 250.628c-17.446 0-31.001-15.196-29.017-32.529l8.036-70.181c.597-5.213-.654-10.311-3.306-14.552h-31.97c-.443 0-.578.602-.177.791 8.758 4.136 13.908 13.391 12.807 23.014l-8.036 70.181c-1.985 17.333 11.57 32.529 29.017 32.529h22.488c8.468 0 16.033-3.596 21.336-9.262z" fill="#e0c8bf"/></g><path d="m307.71 113.747c-3.394-21.289 4.362-42.86 20.204-56.194l10.664-8.975c7.395-6.225 15.276-11.641 23.416-16.064-22.922 3.726-45.164 13.148-64.41 28.253l-10.664 8.369c-15.843 12.434-23.598 32.549-20.204 52.4 6.404 37.454 47.735 56.769 80.294 38.942-19.317-5.845-35.492-22.844-39.3-46.731z" fill="#c9a291"/></g><g><path d="m486.944 63.238-10.663-8.369c-53.973-42.36-129.359-42.358-183.326-.001l-10.664 8.369c-18.029 14.149-26.83 36.974-22.967 59.563 3.555 20.787 17.218 38.229 36.55 46.654 15.285 6.663 32.281 6.869 47.453.963l-6.422 56.081c-1.188 10.383 2.119 20.812 9.076 28.61 6.957 7.799 16.94 12.271 27.392 12.271h22.488c10.451 0 20.436-4.473 27.393-12.272s10.265-18.228 9.075-28.61l-.978-8.536c-.471-4.115-4.191-7.065-8.305-6.598-4.115.471-7.069 4.189-6.598 8.305l.978 8.536c.703 6.14-1.253 12.307-5.367 16.919-4.113 4.611-10.018 7.257-16.198 7.257h-22.488c-6.18 0-12.084-2.645-16.197-7.257-4.114-4.611-6.071-10.778-5.368-16.919l8.036-70.182c1.468-12.821-5.386-25.138-17.055-30.647l-1.675-.791c-3.746-1.771-8.217-.167-9.984 3.578-1.77 3.745-.167 8.216 3.578 9.984l1.676.792c4.836 2.284 8.017 6.9 8.564 12.062-13.089 7.778-29.033 8.825-43.081 2.703-14.682-6.399-25.059-19.646-27.758-35.432-2.934-17.157 3.75-34.49 17.441-45.235l10.665-8.37c48.517-38.079 116.287-38.077 164.804 0l10.663 8.37c13.692 10.745 20.376 28.078 17.443 45.235-2.699 15.786-13.076 29.032-27.758 35.432-14.046 6.121-29.99 5.074-43.082-2.704.548-5.163 3.729-9.779 8.565-12.063l1.675-.791c3.745-1.769 5.348-6.239 3.578-9.984-1.769-3.746-6.238-5.35-9.984-3.578l-1.674.79c-11.67 5.511-18.523 17.827-17.056 30.649l3.417 29.841c.438 3.825 3.682 6.647 7.441 6.647.285 0 .573-.017.863-.05 4.115-.471 7.069-4.189 6.598-8.305l-1.801-15.727c7.215 2.811 14.842 4.242 22.506 4.241 8.445 0 16.934-1.725 24.946-5.218 19.332-8.426 32.996-25.867 36.55-46.654 3.864-22.588-4.936-45.411-22.965-59.559z"/><path d="m430.274 93.204c3.989-1.112 6.321-5.249 5.208-9.239-1.112-3.989-5.25-6.324-9.239-5.208-15.746 4.393-27.864 17.006-31.625 32.915l-1.351 5.714c-.953 4.031 1.543 8.071 5.573 9.024.58.137 1.161.203 1.732.203 3.397 0 6.477-2.326 7.292-5.776l1.351-5.714c2.505-10.594 10.574-18.993 21.059-21.919z"/><path d="m345.221 78.757c-3.99-1.118-8.127 1.219-9.239 5.208-1.113 3.989 1.218 8.126 5.208 9.239 10.484 2.926 18.554 11.324 21.058 21.919l1.351 5.714c.815 3.451 3.894 5.776 7.292 5.776.571 0 1.152-.066 1.732-.203 4.03-.953 6.526-4.993 5.573-9.024l-1.351-5.714c-3.761-15.909-15.878-28.521-31.624-32.915z"/><path d="m330.153 266.23c-12.871 4.045-26.699 2.393-38.275-4.486.545-5.166 3.727-9.786 8.566-12.071l1.675-.791c3.745-1.769 5.348-6.239 3.578-9.984-1.769-3.746-6.238-5.35-9.984-3.578l-1.674.79c-11.67 5.511-18.523 17.828-17.056 30.649l8.036 70.182c.703 6.14-1.254 12.307-5.367 16.918-4.114 4.612-10.019 7.257-16.198 7.257h-22.488c-6.18 0-12.084-2.645-16.198-7.257-4.113-4.611-6.07-10.778-5.367-16.918l8.036-70.182c1.468-12.821-5.386-25.139-17.055-30.648l-1.675-.791c-3.746-1.771-8.216-.167-9.984 3.578-1.77 3.745-.167 8.216 3.578 9.984l1.676.792c4.836 2.284 8.016 6.9 8.564 12.062-13.089 7.778-29.035 8.827-43.081 2.704-14.683-6.399-25.06-19.645-27.759-35.432-2.933-17.157 3.751-34.49 17.443-45.236l10.663-8.369c20.603-16.17 45.277-25.857 71.358-28.017 4.128-.342 7.197-3.966 6.855-8.094s-3.965-7.198-8.094-6.855c-29.014 2.402-56.463 13.179-79.382 31.167l-10.662 8.368c-18.029 14.149-26.83 36.973-22.968 59.563 3.555 20.788 17.218 38.229 36.551 46.655 8.014 3.493 16.499 5.218 24.945 5.218 7.664 0 15.291-1.434 22.506-4.244l-6.42 56.07c-1.188 10.384 2.119 20.812 9.076 28.61s16.94 12.271 27.392 12.271h22.488c10.451 0 20.435-4.473 27.392-12.271s10.265-18.227 9.076-28.61l-6.42-56.065c7.195 2.806 14.808 4.246 22.479 4.246 6.254 0 12.544-.949 18.67-2.874 3.951-1.242 6.147-5.453 4.906-9.404-1.239-3.951-5.447-6.145-9.402-4.907z"/><path d="m268.166 235.348c3.397 0 6.477-2.326 7.292-5.776l1.351-5.713c2.504-10.595 10.573-18.993 21.059-21.92 3.989-1.113 6.321-5.25 5.207-9.24-1.112-3.988-5.25-6.321-9.239-5.207-15.746 4.395-27.863 17.007-31.624 32.916l-1.351 5.713c-.953 4.031 1.542 8.071 5.573 9.024.58.137 1.16.203 1.732.203z"/><path d="m212.812 187.492c-3.99-1.116-8.127 1.219-9.239 5.207-1.114 3.99 1.218 8.127 5.207 9.24 10.486 2.927 18.556 11.325 21.06 21.92l1.351 5.713c.815 3.451 3.895 5.776 7.292 5.776.571 0 1.152-.066 1.732-.203 4.031-.953 6.526-4.993 5.573-9.024l-1.351-5.713c-3.76-15.91-15.877-28.522-31.625-32.916z"/><path d="m202.101 378.417c-12.427 3.313-25.214 1.5-36.243-5.075.544-5.167 3.725-9.79 8.566-12.076l1.675-.791c3.745-1.769 5.348-6.239 3.578-9.984-1.769-3.746-6.237-5.35-9.984-3.578l-1.674.79c-11.67 5.511-18.523 17.828-17.056 30.649l8.036 70.182c.703 6.14-1.253 12.306-5.366 16.917-4.114 4.612-10.019 7.258-16.199 7.258h-22.488c-6.18 0-12.084-2.645-16.198-7.257-4.113-4.611-6.07-10.778-5.367-16.918l8.036-70.182c1.469-12.821-5.385-25.139-17.055-30.648l-1.675-.791c-3.746-1.771-8.217-.167-9.984 3.578-1.77 3.745-.167 8.216 3.578 9.984l1.676.792c4.843 2.287 8.025 6.911 8.566 12.081-17.018 10.113-38.494 8.608-54.074-3.98-3.223-2.605-7.945-2.103-10.547 1.119-2.604 3.222-2.103 7.943 1.119 10.547 11.476 9.274 25.389 13.973 39.348 13.973 7.629 0 15.266-1.417 22.529-4.247l-6.42 56.067c-1.188 10.384 2.119 20.812 9.076 28.61s16.94 12.271 27.392 12.271h22.488c10.451 0 20.436-4.474 27.393-12.272s10.265-18.227 9.075-28.609l-6.416-56.031c7.153 2.814 14.682 4.256 22.314 4.256 5.372 0 10.794-.708 16.164-2.14 4.003-1.067 6.382-5.177 5.315-9.179-1.067-4.003-5.182-6.38-9.178-5.316z"/><path d="m15.682 340.6c-2.934-17.156 3.75-34.489 17.441-45.234l10.665-8.37c19.238-15.1 42.229-24.616 66.486-27.521 4.113-.493 7.048-4.227 6.556-8.339-.493-4.114-4.229-7.048-8.339-6.556-26.987 3.232-52.563 13.818-73.964 30.615l-10.664 8.369c-18.029 14.15-26.83 36.974-22.967 59.562.424 2.481 1.008 4.984 1.736 7.439.968 3.26 3.953 5.368 7.188 5.368.706 0 1.425-.101 2.137-.312 3.972-1.178 6.234-5.353 5.057-9.323-.56-1.885-1.008-3.802-1.332-5.698z"/><path d="m142.146 346.942c3.397 0 6.477-2.326 7.292-5.776l1.351-5.713c2.504-10.595 10.573-18.994 21.059-21.92 3.989-1.112 6.321-5.249 5.208-9.239-1.112-3.989-5.25-6.323-9.239-5.208-15.746 4.393-27.864 17.006-31.625 32.916l-1.351 5.713c-.953 4.031 1.542 8.071 5.573 9.024.579.136 1.159.203 1.732.203z"/><path d="m86.793 299.085c-3.991-1.116-8.127 1.219-9.239 5.208-1.113 3.99 1.219 8.127 5.208 9.239 10.484 2.926 18.554 11.324 21.058 21.92l1.351 5.713c.815 3.451 3.895 5.776 7.292 5.776.572 0 1.152-.066 1.732-.203 4.031-.953 6.526-4.993 5.573-9.024l-1.351-5.713c-3.761-15.91-15.878-28.523-31.624-32.916z"/></g></g></svg>