<svg id="Capa_1" enable-background="new 0 0 507.551 507.551" height="512" viewBox="0 0 507.551 507.551" width="512" xmlns="http://www.w3.org/2000/svg"><g><g><path d="m64.678 475.051-30.391 23.117c-2.983 2.269-7.184 1.985-9.834-.665l-14.775-14.776c-2.65-2.65-2.934-6.851-.665-9.834l23.117-30.391 35.517-47.437 40.737 42.982z" fill="#c5e97d"/><path d="m457.364 101.257c8.997-5.639 17.083-12.637 23.957-20.764 1.291-1.527.85-3.86-.907-4.817l-9.205-5.015c-1.86-1.013-2.549-3.341-1.54-5.204l.21-.388c5.452-10.064 7.569-21.597 6.047-32.941-11.343-1.522-22.877.595-32.941 6.047l-.388.21c-1.862 1.009-4.19.32-5.203-1.54l-5.015-9.205c-.957-1.756-3.29-2.198-4.817-.907-8.114 6.862-15.103 14.934-20.736 23.912l-56.061 50.612 47.794 54.225z" fill="#d8efa7"/><path d="m473.969 164.292c10.074-5.638 18.945-13.225 26.082-22.338l-10.631-5.792c-1.575-.858-2.159-2.83-1.304-4.408l.178-.328c4.618-8.525 6.411-18.295 5.122-27.904-9.609-1.289-19.379.504-27.904 5.122l-.328.178c-1.578.855-3.549.271-4.408-1.304l-5.792-10.631c-9.75 7.635-17.754 17.254-23.491 28.21l-20.458 47.753 28.84 11.972z" fill="#b1e254"/><path d="m382.825 76.429c10.955-5.737 20.574-13.741 28.21-23.491l-10.631-5.792c-1.576-.859-2.159-2.83-1.304-4.408l.178-.328c4.618-8.525 6.411-18.295 5.122-27.904-9.609-1.289-19.379.504-27.904 5.122l-.328.178c-1.578.855-3.549.271-4.408-1.304l-5.792-10.631c-9.113 7.137-16.701 16.008-22.338 26.082l-20.052 34.623 25.428 30.257z" fill="#b1e254"/><path d="m456.071 154.93c10.796 3.341 20.327 9.87 27.343 18.73l3.633 4.588c1.188 1.501 1.039 3.659-.344 4.982l-1.247 1.193c-10.205 9.761-23.722 15.306-37.842 15.523l-2.101.032c-1.824.028-3.143 1.753-2.693 3.521l4.611 18.088c.64 2.512-1.04 5.024-3.606 5.391l-3.607.516c-13.682 1.957-27.372-3.508-35.945-14.349l-1.994-2.522c-1.981-2.505-5.686-2.77-8.003-.572l-100.121 94.966c-21.209 20.117-41.301 41.381-60.185 63.696l-78.057 92.241c-25.99 30.712-72.678 32.653-101.127 4.204l-12.022-12.023c-28.449-28.449-26.508-75.137 4.204-101.127l92.241-78.057c22.315-18.884 43.579-38.975 63.696-60.185l94.966-100.121c2.198-2.318 1.933-6.022-.572-8.003l-2.522-1.994c-10.841-8.573-16.306-22.263-14.349-35.945l.516-3.607c.367-2.566 2.879-4.246 5.391-3.606l18.088 4.611c1.768.451 3.493-.868 3.521-2.693l.032-2.101c.217-14.12 5.762-27.637 15.523-37.842l1.193-1.247c1.323-1.383 3.482-1.532 4.982-.344l4.588 3.633c8.859 7.015 18.73 27.343 18.73 27.343l24.34 69.499 21.429 22.429s35.176-1.877 37.814 0c2.639 1.878 19.496 11.152 19.496 11.152z" fill="#d8efa7"/><path d="m256.267 214.373c-21.13 22.363-43.553 43.462-67.169 63.204l-97.619 81.603c-32.503 27.17-32.829 78.022-.706 110.145l13.575 13.575c.795.795 1.62 1.564 2.437 2.319-18.639.911-37.646-5.706-52-20.06l-12.022-12.022c-28.449-28.449-26.508-75.137 4.204-101.127l92.242-78.057c22.315-18.883 43.578-38.975 63.696-60.184l94.966-100.122c2.198-2.317 1.934-6.022-.572-8.003l-2.523-1.995c-10.841-8.573-16.305-22.263-14.347-35.944l.516-3.607c.367-2.566 2.879-4.246 5.391-3.606l18.087 4.611c1.768.451 3.493-.869 3.521-2.693l.032-2.104c.217-14.119 5.761-27.635 15.523-37.839l1.193-1.247c1.323-1.383 3.482-1.532 4.982-.344l4.588 3.633c8.859 7.015 18.73 27.343 18.73 27.343l.728 2.078-12.33-3.545c-2.764-.795-5.44.942-5.742 3.727l-.424 3.914c-.893 8.24 6.681 21.452 13.6 31.58 5.919 8.665 5.071 20.264-2.093 27.933z" fill="#c5e97d"/><g><g id="XMLID_252_"><g><path d="m455.753 146.543c2.21 2.51 2.09 6 .29 8.36-.86 1.12-2.09 1.99-3.63 2.37l-16.86 4.23c-9.28 2.32-18.92 2.81-28.39 1.44l-25.17-3.65c-3.82-.55-7.66.83-10.26 3.68l-35.16 38.56c-65.63 71.98-134.83 140.62-207.35 205.66l-31.71 28.45-36.26 35.23c-2.24-1.74-4.4-3.64-6.47-5.71l-12.02-12.03c-1.52-1.52-2.95-3.08-4.29-4.7l33.81-38.02 28.44-31.72c65.05-72.51 133.69-141.71 205.67-207.34l38.56-35.16c2.85-2.6 4.23-6.44 3.67-10.26l-3.64-25.18c-1.37-9.46-.88-19.1 1.44-28.38l4.22-16.86c.38-1.54 1.25-2.78 2.38-3.63 2.37-1.8 5.85-1.92 8.36.29l6.12 5.38c10.44 9.2 18.05 21.17 21.96 34.53l5.33-4.38c7.99-6.56 17.83-10.47 28.15-11.18l8.28-.56-.3 8.12c-.4 10.87-4.35 21.31-11.26 29.72l-3.83 4.66c6.68 1.95 13.02 4.83 18.83 8.53s11.11 8.21 15.7 13.43z" fill="#c5e97d"/></g></g></g><g><path d="m61.254 470.873 17.406-16.912c-7.186-11.721-11.086-24.701-11.684-37.58l-28.502 32.051c1.34 1.62 2.77 3.18 4.29 4.7l12.02 12.03c2.069 2.07 4.229 3.971 6.47 5.711z" fill="#b1e254"/></g></g><g><path d="m97.516 443.14c1.783 0 3.573-.633 5.005-1.917l31.713-28.444c28.736-25.776 57.509-52.65 85.517-79.876 2.971-2.888 3.037-7.636.15-10.605-2.886-2.969-7.635-3.039-10.605-.15-27.865 27.087-56.489 53.822-85.077 79.466l-31.713 28.444c-3.083 2.766-3.341 7.507-.575 10.591 1.48 1.65 3.528 2.491 5.585 2.491z"/><path d="m177.825 435.061c-3.163-2.677-7.895-2.283-10.569.88l-17.069 20.169c-11.198 13.234-26.904 20.919-44.227 21.639-17.324.729-33.612-5.634-45.871-17.894l-12.022-12.022c-12.259-12.258-18.613-28.549-17.894-45.869.72-17.322 8.404-33.029 21.639-44.229l92.241-78.057c22.438-18.988 44.07-39.427 64.293-60.749l31.161-32.853c2.851-3.005 2.726-7.752-.28-10.603-3.004-2.85-7.751-2.726-10.603.28l-31.161 32.853c-19.848 20.926-41.078 40.985-63.1 59.62l-92.241 78.057c-16.235 13.739-26.053 33.807-26.937 55.057-.57 13.729 2.637 27.265 9.02 39.19l-21.163 27.823c-4.519 5.94-3.945 14.4 1.332 19.679l14.775 14.775c2.896 2.895 6.747 4.374 10.615 4.373 3.185 0 6.381-1.002 9.063-3.042l27.562-20.965c11.261 6.246 24.018 9.629 37.051 9.628 1.046 0 2.095-.021 3.144-.065 21.249-.884 41.315-10.701 55.053-26.937l17.068-20.169c2.676-3.162 2.282-7.894-.88-10.569zm-148.068 57.138-14.775-14.765 18.103-23.799c1.391 1.653 2.837 3.266 4.375 4.804l12.022 12.022c1.286 1.286 2.628 2.503 3.996 3.687z"/><path d="m507.396 140.437c-.446-2.16-1.82-4.014-3.757-5.068l-7.031-3.831c4.114-9.086 5.58-19.039 4.242-29.013-.449-3.351-3.086-5.987-6.437-6.437-6.313-.846-12.618-.565-18.703.796 4.048-3.564 7.842-7.415 11.337-11.548 2.076-2.455 2.928-5.677 2.337-8.84-.593-3.166-2.554-5.866-5.382-7.407l-6.072-3.309c5.154-10.799 7.031-22.711 5.43-34.649-.449-3.351-3.085-5.986-6.436-6.437-11.945-1.601-23.858.275-34.651 5.43l-3.308-6.071c-1.54-2.827-4.239-4.789-7.406-5.382-3.163-.596-6.386.258-8.84 2.335-4.219 3.568-8.146 7.441-11.771 11.583 1.435-6.199 1.749-12.634.884-19.08-.45-3.351-3.086-5.986-6.437-6.437-9.977-1.337-19.932.129-29.012 4.242l-3.831-7.031c-1.055-1.937-2.908-3.311-5.068-3.757-2.158-.446-4.404.081-6.142 1.439-7.251 5.679-13.529 12.314-18.8 19.76-1.166-1.073-2.374-2.106-3.625-3.098l-4.589-3.633c-4.562-3.613-11.037-3.165-15.054 1.037l-1.196 1.249c-10.227 10.691-16.337 24.461-17.432 39.119l-12.459-3.177c-3.256-.832-6.728-.235-9.521 1.634-2.795 1.868-4.671 4.849-5.147 8.178l-.516 3.607c-2.326 16.263 4.234 32.697 17.121 42.889l.749.592-40.242 42.428c-2.851 3.005-2.726 7.752.28 10.603 1.45 1.376 3.307 2.059 5.16 2.059 1.985 0 3.968-.784 5.442-2.339l41.795-44.063c2.494-2.628 3.777-6.207 3.521-9.822-.258-3.615-2.035-6.979-4.879-9.228l-2.521-1.994c-8.714-6.891-13.149-18.003-11.576-29l.021-.143 14.697 3.747c3.085.789 6.296.128 8.82-1.804 2.525-1.932 4.002-4.862 4.051-8.042l.032-2.101c.18-11.693 4.526-22.815 12.274-31.507l1.856 1.471c6.723 5.323 11.849 12.236 14.977 20.149-.517.986-.934 2.037-1.214 3.153l-4.222 16.858c-2.573 10.272-3.108 20.797-1.591 31.283l3.646 25.174c.197 1.358-.291 2.721-1.304 3.645l-38.559 35.157c-71.884 65.54-141.258 135.481-206.197 207.882l-28.442 31.712c-2.766 3.083-2.509 7.825.575 10.591 1.432 1.285 3.222 1.917 5.005 1.917 2.057 0 4.104-.841 5.586-2.492l28.445-31.712c64.605-72.028 133.624-141.61 205.138-206.813l38.558-35.156c4.694-4.28 6.954-10.59 6.044-16.879l-3.646-25.174c-1.237-8.544-.801-17.119 1.296-25.489l3.856-15.401 4.987 4.392c9.391 8.272 16.21 18.993 19.722 31.005.706 2.418 2.579 4.319 4.986 5.062 2.406.746 5.027.228 6.973-1.37l5.332-4.38c6.814-5.599 15.066-8.879 23.865-9.488-.379 9.106-3.767 17.988-9.553 25.031l-3.825 4.658c-1.599 1.946-2.113 4.565-1.37 6.973.743 2.406 2.645 4.279 5.062 4.986 12.013 3.511 22.734 10.33 31.005 19.721l4.393 4.986-15.402 3.857c-8.373 2.097-16.949 2.532-25.488 1.295l-25.175-3.646c-6.289-.908-12.598 1.35-16.878 6.044l-35.156 38.559c-31.919 35.007-65.208 69.754-98.941 103.276-2.938 2.92-2.953 7.669-.034 10.606 2.92 2.939 7.669 2.954 10.606.034 33.908-33.695 67.369-68.623 99.453-103.812l35.156-38.558c.924-1.014 2.286-1.508 3.645-1.305l25.174 3.646c10.483 1.518 21.008.983 31.283-1.59l16.858-4.223c1.116-.279 2.167-.696 3.154-1.213 7.911 3.128 14.824 8.254 20.148 14.977l1.471 1.857c-8.693 7.749-19.814 12.094-31.502 12.274l-2.105.031c-3.18.049-6.111 1.526-8.043 4.053-1.931 2.526-2.588 5.742-1.802 8.82l3.747 14.696-.144.021c-10.993 1.571-22.108-2.862-28.999-11.575l-1.995-2.522c-2.246-2.842-5.608-4.62-9.223-4.879-3.616-.255-7.195 1.023-9.824 3.518l-100.122 94.966c-21.323 20.226-41.762 41.856-60.748 64.293l-40.337 47.667c-2.676 3.162-2.281 7.895.881 10.57 1.409 1.192 3.129 1.774 4.841 1.774 2.13 0 4.246-.902 5.729-2.655l40.337-47.667c18.633-22.02 38.692-43.249 59.619-63.1l98.482-93.41.593.749c10.192 12.887 26.627 19.447 42.89 17.121l3.607-.516c3.328-.477 6.309-2.353 8.178-5.147s2.464-6.265 1.634-9.521l-3.177-12.46c14.657-1.096 28.427-7.206 39.119-17.433l1.247-1.193c4.203-4.022 4.649-10.496 1.038-15.058l-3.633-4.588c-.988-1.247-2.019-2.45-3.088-3.612 7.446-5.272 14.072-11.562 19.751-18.813 1.359-1.734 1.885-3.98 1.439-6.139zm-134.94-88.51-6.115-5.386c-2.456-2.163-5.491-3.361-8.632-3.504-1.436-3.303-3.15-6.458-5.111-9.45 3.234-5.063 6.993-9.717 11.263-13.907l1.313 2.411c2.831 5.194 9.366 7.126 14.557 4.314l.338-.183c5.366-2.907 11.231-4.469 17.231-4.617-.148 6-1.711 11.867-4.622 17.24l-.173.319c-2.818 5.202-.884 11.737 4.311 14.566l2.412 1.314c-4.201 4.284-8.864 8.047-13.937 11.279-3.676-5.258-7.961-10.104-12.835-14.396zm49.97 17.117c-10.738.736-20.877 4.406-29.536 10.662-.054-.122-.118-.239-.173-.361 9.275-5.806 17.415-13.091 24.222-21.784 1.359-1.736 1.886-3.982 1.439-6.142-.203-.982-.606-1.896-1.159-2.706 3.354-4.552 7.09-8.796 11.191-12.68l2.398 4.4c2.986 5.477 9.875 7.515 15.353 4.549l.396-.214c6.943-3.763 14.577-5.679 22.354-5.628.041 7.782-1.867 15.412-5.628 22.355l-.211.389c-2.969 5.483-.93 12.374 4.548 15.36l4.398 2.396c-3.874 4.092-8.108 7.82-12.648 11.168-.848-.613-1.823-1.052-2.872-1.269-2.157-.447-4.405.08-6.142 1.44-8.694 6.808-15.983 14.946-21.792 24.219-.14-.063-.275-.136-.415-.198 6.25-8.972 9.864-19.695 10.266-30.646l.298-8.124c.078-2.124-.75-4.182-2.276-5.661-1.527-1.479-3.588-2.241-5.731-2.096zm51.911 86.278c-2.99-1.958-6.15-3.657-9.45-5.091-.14-3.147-1.338-6.189-3.505-8.65l-5.387-6.115c-4.293-4.874-9.141-9.161-14.403-12.838 3.234-5.071 7-9.732 11.283-13.934l1.314 2.413c2.831 5.193 9.365 7.125 14.581 4.303l.313-.171c5.367-2.907 11.232-4.469 17.232-4.617-.148 5.999-1.708 11.862-4.609 17.218l-.188.344c-2.815 5.201-.882 11.735 4.312 14.565l2.41 1.313c-4.187 4.268-8.84 8.026-13.903 11.26z"/></g></g></svg>