<svg id="Capa_1" enable-background="new 0 0 510.854 510.854" height="512" viewBox="0 0 510.854 510.854" width="512" xmlns="http://www.w3.org/2000/svg"><g><g><path d="m200.414 246.101 12.393-8.894c59.617-42.786 48.478-134.539-19.645-161.817-102.007-40.845-207.818 49.915-182.979 156.95l11.798 50.841c12.309 53.041 79.623 69.676 115.222 28.473l31.983-37.018c9.25-10.707 19.732-20.285 31.228-28.535z" fill="#d8efa7"/><path d="m80.985 290.351-11.798-50.841c-19.531-84.163 41.737-158.254 118.397-166.222-100.236-35.415-201.786 53.972-177.401 159.053l11.798 50.841c9.526 41.05 51.996 60.284 87.215 47.788-13.487-8.776-24.028-22.592-28.211-40.619z" fill="#c5e97d"/><g><path d="m313.221 334.209.779-15.235c3.749-73.285-74.913-121.816-138.728-85.588-95.556 54.247-90.625 193.563 8.527 240.919l47.096 22.493c49.135 23.467 104.127-18.768 94.13-72.293l-8.982-48.09c-2.598-13.908-3.545-28.075-2.822-42.206z" fill="#c5e97d"/><path d="m285.998 473.136-47.096-22.493c-92.63-44.241-102.996-168.746-26.049-229.164-12.61 1.148-25.376 4.978-37.58 11.906-95.556 54.247-90.625 193.563 8.527 240.919l47.096 22.494c29.574 14.125 61.276 4.44 79.645-17.175-8.124-.534-16.419-2.607-24.543-6.487z" fill="#b1e254"/><path d="m478.383 131.132-1.302-13.089c-6.261-62.964-79.587-94.188-129.318-55.067-74.467 58.58-52.285 176.719 38.359 204.298l43.055 13.099c44.918 13.666 86.352-29.438 70.922-73.781l-13.863-39.84c-4.01-11.523-6.646-23.479-7.853-35.62z" fill="#d8efa7"/><path d="m475.63 261.181-43.055-13.099c-89.564-27.25-112.264-142.919-40.956-202.183-15.145 1.034-30.374 6.471-43.857 17.078-74.467 58.58-52.285 176.719 38.359 204.298l43.055 13.099c23.275 7.082 45.622-1.087 59.599-16.765-4.31-.298-8.715-1.08-13.145-2.428z" fill="#c5e97d"/></g></g><g><path d="m323.416 375.039c-2.486-13.312-3.396-26.922-2.705-40.448l.779-15.234c1.903-37.192-15.883-71.072-47.579-90.627-29.403-18.138-64.449-20.04-95.219-5.546l-3.303-6.877c-10.291-21.432-10.512-46.117-.607-67.729l1.823-3.977c1.726-3.766.073-8.217-3.693-9.943-3.766-1.725-8.217-.072-9.943 3.693l-1.823 3.977c-11.769 25.678-11.506 55.008.721 80.472l3.684 7.672c-30.77 19.425-52.603 48.961-61.81 83.864-9.225 34.969-4.88 73.226 11.917 104.962 1.938 3.659 6.476 5.056 10.138 3.12 3.661-1.938 5.058-6.477 3.12-10.138-15.057-28.445-18.946-62.75-10.671-94.119 8.758-33.201 30.326-60.992 60.729-78.252 27.551-15.641 60.098-15.047 87.061 1.588s42.093 45.455 40.474 77.095l-.779 15.234c-.752 14.703.237 29.496 2.94 43.968l8.982 48.089c4.166 22.305-4.091 43.873-22.087 57.694-17.996 13.82-40.963 16.234-61.438 6.455l-47.096-22.493c-15.738-7.518-29.424-17.69-40.676-30.234-2.766-3.083-7.508-3.341-10.591-.575s-3.341 7.508-.575 10.591c12.579 14.023 27.846 25.38 45.377 33.754l47.096 22.493c10.229 4.885 21.144 7.287 31.993 7.287 15.978 0 31.808-5.214 45.047-15.381 22.229-17.072 32.841-44.793 27.695-72.345z"/><path d="m507.182 204.127-13.863-39.84c-3.812-10.953-6.326-22.357-7.473-33.897l-1.302-13.09c-3.215-32.336-22.985-59.242-52.883-71.973-27.417-11.673-57.517-8.939-82.02 7.086l-.911-1.337c-7.204-10.577-10.874-22.931-10.614-35.725l.156-7.698c.084-4.142-3.205-7.566-7.346-7.65-4.164-.04-7.566 3.205-7.651 7.346l-.156 7.698c-.323 15.927 4.246 31.306 13.213 44.473l1.394 2.046c-11.94 10.459-21.575 22.736-28.691 36.579-1.894 3.684-.442 8.205 3.242 10.099 3.684 1.896 8.206.443 10.099-3.241 7.166-13.94 17.267-26.098 30.022-36.132 21.169-16.652 48.604-20.296 73.385-9.742 24.782 10.553 41.168 32.854 43.833 59.656l1.302 13.09c1.264 12.712 4.034 25.276 8.232 37.343l13.863 39.84c6.3 18.104 2.13 37.163-11.154 50.982-13.284 13.82-32.164 18.741-50.501 13.158l-43.053-13.098c-27.58-8.392-49.502-25.821-63.397-50.405-13.078-23.14-17.475-50.214-12.38-76.236.796-4.065-1.854-8.006-5.919-8.802-4.064-.799-8.005 1.854-8.801 5.919-5.781 29.529-.794 60.249 14.043 86.5 15.6 27.601 41.202 47.977 72.089 57.374l43.055 13.099c6.284 1.912 12.687 2.844 19.022 2.844 17.352 0 34.192-6.987 46.659-19.957 17.019-17.706 22.577-43.115 14.506-66.309z"/><path d="m78.789 327.977c-21.695-4.661-38.283-20.19-44.371-41.542l-14.311-50.191c-6.769-23.738-6.771-48.407-.006-71.338 6.37-21.593 18.529-41.341 35.164-57.11s37.003-26.858 58.905-32.067c23.259-5.531 47.894-4.214 71.237 3.812 22.105 7.6 39.665 23.254 49.444 44.08 9.922 21.128 10.935 45.611 2.78 67.171-1.465 3.874.487 8.203 4.362 9.668 3.873 1.467 8.202-.486 9.668-4.361 9.582-25.332 8.403-54.073-3.233-78.854-10.39-22.126-28.225-39.261-50.68-48.966l2.978-7.048c9.253-21.898 27.611-38.403 50.369-45.283l4.188-1.267c3.965-1.199 6.207-5.386 5.007-9.351-1.198-3.964-5.387-6.204-9.35-5.007l-4.187 1.267c-27.038 8.173-48.85 27.783-59.844 53.803l-3.32 7.857c-24.027-7.017-49.081-7.776-72.89-2.114-24.468 5.819-47.205 18.189-65.754 35.773-18.549 17.585-32.115 39.63-39.231 63.753-7.57 25.661-7.581 53.219-.032 79.695l14.311 50.191c7.634 26.774 28.436 46.249 55.645 52.095.531.113 1.061.169 1.583.169 3.459 0 6.569-2.408 7.325-5.927.87-4.05-1.707-8.038-5.757-8.908z"/></g></g></svg>