<svg id="Capa_1" enable-background="new 0 0 511.843 511.843" height="512" viewBox="0 0 511.843 511.843" width="512" xmlns="http://www.w3.org/2000/svg"><g><g><path d="m266.768 42.78-39.68 2.24c-2.66.15-5.01 1.78-6.08 4.22l-19.07 43.5 3.246 17.769 35.902 13.781 17.742-12.06 15.19-60.68c1.16-4.62-2.49-9.04-7.25-8.77z" fill="#a6d786"/><path d="m266.768 42.78-39.68 2.24c-2.66.15-5.01 1.78-6.08 4.22l-19.07 43.5 3.246 17.769 16.652 6.392 19.25 7.389 17.742-12.06 3.656-14.604-24.865-8.518c-5.497-1.883-8.211-8.063-5.878-13.385l6.769-15.44c1.069-2.439 3.418-4.07 6.076-4.22l28.708-1.621.724-2.893c1.16-4.619-2.49-9.039-7.25-8.769z" fill="#94cf6f"/><path d="m302.598 207.36c66.81 110.74-18.64 241.56-134.66 241.56-17.08 0-34.83-2.84-52.86-9-140.41-47.98-144.37-245.1-6.01-298.69l77.67-30.07c5.48-2.13 9.89-6.35 12.26-11.73l2.94-6.69 56.89 19.49-1.76 7.03c-1.43 5.71-.53 11.75 2.51 16.79z" fill="#d7c9e4"/><path d="m161.773 142.154 86.044-32.932c.333-.128.648-.289.974-.43l-46.803-16.032-.05-.02-2.94 6.69c-2.37 5.38-6.78 9.6-12.26 11.73l-77.67 30.07c-137.585 53.29-134.413 248.516 3.69 297.879-98.081-78.872-83.139-246.353 49.015-296.955z" fill="#cab6db"/><g><path d="m269.145 195.964c36.1 104.49-45.72 247.96-130.2 247.96-7.97 0-15.96-1.27-23.88-3.98-91.89-31.4-73.78-220.98 27.43-287.26l58.97-38.61c2.63-1.73 4.93-4.7 6.38-8.27l3.94-9.67 37.16 12.7-2.8 10.06c-1.03 3.71-1.03 7.47-.01 10.44z" fill="#cab6db"/></g><g fill="#bda4d1"><path d="m57.276 357.225c5.607 38.405 23.671 69.793 55.371 81.842.038.014.074.029.112.042-27.259-21.919-45.774-50.688-55.483-81.884z"/><path d="m248.791 108.792-14.037-4.808-22.969-7.85-3.94 9.67c-1.45 3.57-3.75 6.54-6.38 8.27l-48.381 31.677c2.844-1.249 5.726-2.462 8.688-3.596l86.044-32.932c.334-.129.649-.29.975-.431z"/></g><g><g id="XMLID_253_"><g><g><g id="XMLID_254_"><g><path d="m237.568 104.92-3.15 9.94c-1.16 3.66-1.87 7.18-1.96 9.77l-2.13 58.04c-3.52 96.21-74.6 257.87-111.47 257.87-1.3 0-2.583-.186-3.793-.596-35.55-12.15 8.203-193.004 66.273-274.014l33.84-47.2c1.51-2.11 3.1-5.32 4.43-8.94l3.59-9.78z" fill="#d7c9e4"/></g></g></g></g></g><path d="m234.602 114.279 2.958-9.335-14.367-4.921-3.585 9.766c-1.33 3.62-2.92 6.83-4.43 8.94l-2.948 4.112z" fill="#cab6db"/><path d="m179.808 316.813c0 46.45 18.483 88.674 48.477 119.689 82.021-35.188 128.792-138.843 74.314-229.142l-27.057-44.849c-56.689 28.232-95.734 86.788-95.734 154.302z" fill="#cab6db"/><path d="m269.158 195.94-8.629-24.986c-48.454 30.518-80.722 84.486-80.722 145.859 0 35.3 10.685 68.144 28.975 95.493 52.109-48.136 86.038-142.091 60.376-216.366z" fill="#bda4d1"/><path d="m179.808 316.813c0 13 1.454 25.666 4.198 37.848 22.13-49.009 40.974-110.149 45.449-158.684-30.674 31.115-49.647 73.793-49.647 120.836z" fill="#cab6db"/><circle cx="352.076" cy="316.812" fill="#e4daec" r="152.268"/><path d="m255.588 316.812c0-74.568 53.594-136.627 124.368-149.729-9.043-1.674-18.353-2.539-27.881-2.539-84.095 0-152.268 68.172-152.268 152.268s68.174 152.268 152.269 152.268c9.527 0 18.852-.875 27.894-2.549-70.773-13.103-124.382-75.151-124.382-149.719z" fill="#d7c9e4"/><ellipse cx="352.076" cy="316.812" fill="#d7c9e4" rx="122.066" ry="122.066" transform="matrix(.707 -.707 .707 .707 -120.9 341.747)"/><path d="m305.678 203.906c-44.364 18.298-75.668 62.015-75.668 112.906 0 50.902 31.323 94.631 75.703 112.922-30.78-27.861-50.124-68.136-50.124-112.922-.001-44.775 19.325-85.042 50.089-112.906z" fill="#cab6db"/><ellipse cx="352.076" cy="316.812" fill="#e4daec" rx="85.309" ry="85.308" transform="matrix(.383 -.924 .924 .383 -75.354 520.849)"/><ellipse cx="352.076" cy="316.812" fill="#cab6db" rx="46.462" ry="46.462" transform="matrix(.383 -.924 .924 .383 -75.355 520.848)"/></g></g><g><path d="m215.764 433.313c-11.236 3.918-22.811 6.402-34.554 7.468 8.352-4.146 16.619-9.491 24.684-16.031 3.217-2.608 3.711-7.331 1.102-10.549-2.609-3.217-7.333-3.71-10.549-1.102-20.619 16.719-39.125 22.588-54.4 23.238 11.584-10.832 25.562-30.503 42.062-64.255 1.819-3.722.277-8.213-3.444-10.032-3.721-1.817-8.213-.277-10.032 3.444-24.624 50.368-43.646 67.554-51.67 67.552-.537 0-1.026-.077-1.463-.226-2.68-.916-4.39-5.146-5.171-7.587-13.12-40.985 24.878-184.864 75.106-254.936l33.835-47.201c1.905-2.659 3.814-6.467 5.375-10.72l1.065-2.903.493.168-.934 2.947c-1.369 4.32-2.189 8.5-2.31 11.77l-2.072 56.609c-.151 4.14 3.082 7.618 7.221 7.77.094.003.187.005.279.005 4.016 0 7.342-3.18 7.49-7.226l1.76-48.09 10.455 30.272c1.072 3.104 3.979 5.054 7.088 5.054.812 0 1.638-.133 2.449-.413 3.916-1.352 5.993-5.622 4.641-9.537l-.37-1.07.037.062c2.14 3.546 6.748 4.689 10.296 2.548 3.547-2.14 4.688-6.749 2.548-10.296l-10.782-17.872c-1.993-3.304-2.599-7.346-1.661-11.089l16.957-67.712c1.138-4.542.079-9.217-2.905-12.825s-7.368-5.526-12.051-5.262l-39.677 2.242c-5.506.312-10.303 3.643-12.521 8.694l-22.017 50.189c-1.549 3.532-4.5 6.356-8.098 7.749l-77.67 30.078c-34.167 13.231-62.11 35.888-80.811 65.519-17.362 27.51-26.184 59.693-25.513 93.07.671 33.377 10.78 65.18 29.234 91.969 19.877 28.856 48.709 50.37 83.381 62.217 18.302 6.254 36.912 9.382 55.317 9.381 17.939 0 35.683-2.973 52.735-8.919 3.911-1.364 5.976-5.641 4.612-9.552s-5.637-5.976-9.547-4.61zm12.01-380.822 38.831-2.194-13.061 52.154-41.47-14.17zm-186.152 323.798c-16.783-24.364-25.978-53.329-26.589-83.762-.612-30.433 7.411-59.743 23.201-84.763 16.97-26.889 42.4-47.477 73.543-59.536l58.273-22.567-31.65 20.724c-23.619 15.466-44.347 38.497-59.945 66.604-14.39 25.931-24.196 55.536-28.36 85.618-.568 4.104 2.298 7.89 6.401 8.457.349.049.695.072 1.038.072 3.686 0 6.9-2.719 7.42-6.473 8.285-59.863 39.577-114.172 81.664-141.73l57.498-37.649-28.87 40.275c-23.772 33.163-47.517 86.603-63.517 142.95-13.93 49.059-19.56 91.204-15.766 116.084-7.48-6.342-13.832-14.486-18.975-24.413-9.029-17.426-13.905-39.756-14.1-64.576-.033-4.141-3.423-7.504-7.559-7.44-4.142.033-7.473 3.417-7.441 7.56.208 26.356 5.244 49.58 14.378 68.401-7.714-7.164-14.642-15.123-20.644-23.836z"/><path d="m352.076 157.044c-88.096 0-159.768 71.672-159.768 159.769 0 88.096 71.671 159.768 159.768 159.768s159.768-71.672 159.768-159.768c-.001-88.097-71.672-159.769-159.768-159.769zm0 304.536c-79.825 0-144.768-64.942-144.768-144.768s64.942-144.769 144.768-144.769 144.768 64.943 144.768 144.769-64.943 144.768-144.768 144.768z"/><path d="m352.076 187.246c-71.443 0-129.566 58.123-129.566 129.566 0 71.442 58.123 129.565 129.566 129.565s129.567-58.123 129.567-129.565c0-71.443-58.124-129.566-129.567-129.566zm0 244.132c-63.172 0-114.566-51.394-114.566-114.565s51.394-114.566 114.566-114.566 114.567 51.395 114.567 114.566-51.395 114.565-114.567 114.565z"/><path d="m352.076 224.004c-51.175 0-92.808 41.634-92.808 92.809 0 51.174 41.633 92.808 92.808 92.808 34.314 0 65.703-18.867 81.917-49.238 1.951-3.654.57-8.197-3.084-10.148-3.655-1.952-8.198-.57-10.148 3.084-13.601 25.477-39.919 41.303-68.685 41.303-42.903 0-77.808-34.904-77.808-77.808s34.905-77.809 77.808-77.809c42.904 0 77.809 34.905 77.809 77.809 0 2.736-.155 5.56-.46 8.39-.444 4.118 2.535 7.816 6.653 8.261 4.116.445 7.816-2.535 8.261-6.653.362-3.362.546-6.726.546-9.997-.001-51.177-41.635-92.811-92.809-92.811z"/><path d="m298.114 316.813c0 29.755 24.207 53.962 53.962 53.962s53.962-24.207 53.962-53.962-24.208-53.962-53.962-53.962-53.962 24.207-53.962 53.962zm92.924 0c0 21.483-17.479 38.962-38.962 38.962s-38.962-17.479-38.962-38.962 17.478-38.962 38.962-38.962 38.962 17.478 38.962 38.962z"/></g></g></svg>