<svg id="Capa_1" enable-background="new 0 0 511.466 511.466" height="512" viewBox="0 0 511.466 511.466" width="512" xmlns="http://www.w3.org/2000/svg"><g><g><ellipse cx="216.8" cy="280.389" fill="#e17983" rx="209.3" ry="194.461"/><g><path d="m191.451 341.181c0 52.837 24.772 100.008 63.315 130.483 97.463-16.598 171.333-95.925 171.333-191.275 0-37.03-11.131-71.633-30.468-101.093-12.181-2.852-24.884-4.373-37.923-4.373-91.674 0-166.257 74.583-166.257 166.258z" fill="#da606c"/><circle cx="357.709" cy="341.182" fill="#e79098" r="146.258"/><path d="m263.554 341.182c0-71.884 51.86-131.654 120.206-143.942-8.454-1.52-17.16-2.315-26.052-2.315-80.776 0-146.258 65.482-146.258 146.258s65.482 146.258 146.258 146.258c8.892 0 17.598-.795 26.052-2.315-68.346-12.291-120.206-72.06-120.206-143.944z" fill="#e17983"/><ellipse cx="357.709" cy="341.181" fill="#da606c" rx="112.735" ry="112.735" transform="matrix(.707 -.707 .707 .707 -136.481 352.868)"/><path d="m300.383 438.215c-22.912-25.819-36.828-59.8-36.828-97.034 0-37.235 13.917-71.217 36.83-97.036-33.142 19.654-55.411 55.79-55.411 97.035 0 41.246 22.268 77.382 55.409 97.035z" fill="#d44954"/><path d="m290.801 98.443-4.241 5.488-108.833 13.043c22.769-13.677 48.577-23.363 76.278-27.98-12.074-2.013-24.507-3.065-37.205-3.065-115.593 0-209.3 87.063-209.3 194.461s93.707 194.46 209.3 194.46c12.698 0 25.131-1.052 37.205-3.065-97.844-16.309-172.095-95.795-172.095-191.396 0-33.627 9.194-65.257 25.364-92.848 1.56-2.661 5.292-2.773 7.064-.249.014.019.027.039.041.058 4.757 6.736 12.521 10.758 20.77 10.758 4.701 0 9.304-1.304 13.308-3.767l17.012-10.46c14.532-8.935 31.008-13.787 47.644-14.031 1.213-.018 2.427-.026 3.641-.026 2.545 0 5.128.039 7.688.118l.831.024c14.005.477 27.718 4.607 39.657 11.947l20.207 12.424c4.009 2.467 8.612 3.771 13.315 3.771 8.25 0 16.015-4.023 20.762-10.75 5.366-7.593 6.161-17.501 2.076-25.854-1.302-2.664-2.698-5.264-4.186-7.796 10.258 2.093 20.34 5.083 30.186 8.959l17.062 6.718c2.83 1.114 5.787 1.679 8.792 1.679h.004c4.966 0 9.667-1.542 13.559-4.256-23.851-30.74-57.141-54.745-95.906-68.365z" fill="#da606c"/><path d="m302.882 175.814c-1.649 2.335-4.829 2.987-7.265 1.49l-20.214-12.428c-14.914-9.17-31.955-14.303-49.452-14.898l-.906-.028c-4.074-.125-8.15-.158-12.225-.098-20.446.301-40.407 6.282-57.826 16.992l-17.012 10.46c-2.435 1.497-5.615.845-7.265-1.49-1.146-1.623-1.312-3.743-.439-5.528 5.874-12.018 14.253-22.658 24.588-31.196l8.89-7.344c.557-.46.258-1.365-.463-1.403-28.761-1.514-57.512 3.163-84.31 13.714l-17.063 6.718c-3.884 1.529-7.091-3.387-4.104-6.302 36.153-35.277 86.031-58.506 141.777-62.501 2.017-.145 3.589-1.803 3.589-3.825v-33.894c0-.626-.153-1.242-.446-1.795l-6.775-12.8c-1.352-2.555.5-5.631 3.391-5.631h34.251c2.828 0 4.684 2.956 3.455 5.503l-6.26 12.981c-.251.52-.381 1.089-.381 1.666v33.97c0 2.022 1.572 3.681 3.589 3.825 55.747 3.996 105.624 27.224 141.777 62.501 2.987 2.915-.22 7.831-4.104 6.302l-17.063-6.718c-26.798-10.551-55.549-15.228-84.31-13.714-.722.038-1.02.943-.463 1.403l8.89 7.344c10.335 8.538 18.714 19.178 24.588 31.196.873 1.786.708 3.906-.439 5.528z" fill="#94cf6f"/><g id="XMLID_255_"><g><g fill="#fbe372"><path d="m411.07 278.028c-2.51-2.12-6.3-1.66-8.22 1l-11.02 15.16c-1.72 2.38-1.31 5.65.89 7.6 4.06 3.61 7.55 7.83 10.35 12.53l5.844 2.795 19.947-10.338v-7.748c-4.731-7.959-10.761-15.048-17.791-20.999z"/><path d="m439.91 331.798-4.332-6.373-22.593 2.86-2.885 6.914c.23 1.96.34 3.96.34 5.98 0 5.56-.87 10.93-2.48 15.96l3.738 7.752 16.444 6.864 8.418-5.536c2.52-7.9 3.88-16.31 3.88-25.04 0-3.171-.18-6.301-.53-9.381z"/><path d="m403.887 373.881-6.877 2.407c-4.9 5.49-10.95 9.95-17.75 13.02l-4.64 7.175 5.414 20.195h11.496c10.68-4.8 20.17-11.81 27.87-20.44v-7.54z"/><path d="m364.305 397.406-6.595-3.497c-.72 0-1.44-.01-2.17-.04-6.86-.28-13.41-1.89-19.38-4.59l-7.518 4.424-9.24 13.854 4.488 9.132c10.33 4.64 21.78 7.23 33.82 7.23l7.281-3.469z"/><path d="m318.43 376.269c-4.91-5.48-8.7-11.97-10.98-19.12l-4.405-5.383-22.1 5.373-2.095 9.08c3.57 11.23 9.48 21.43 17.16 30.02l6.961 1.877 16.431-15.104z"/><path d="m298.64 293.856-12.08 5.172c-5.85 9.8-9.71 20.91-11.06 32.77h.01l5.995 8.198 14.505 1.185 9.3-5.983h.01c.85-7.56 3.31-14.63 7.03-20.88v-10.375z"/></g><path d="m439.91 331.798-29.8 3.4h-.01c-.86-7.56-3.32-14.64-7.03-20.88l25.79-15.29c5.84 9.8 9.71 20.91 11.05 32.77z" fill="#fbe88c"/><path d="m436.56 366.218c-3.57 11.23-9.48 21.43-17.16 30.02l-22.39-19.95c4.91-5.48 8.68-11.98 10.95-19.15z" fill="#fbe88c"/><path d="m391.53 416.678v.01c-10.33 4.64-21.78 7.23-33.82 7.23v-30.01c7.67 0 14.97-1.65 21.55-4.6z" fill="#fbe88c"/><path d="m336.16 389.278-12.27 27.41c-10.69-4.81-20.17-11.82-27.88-20.45l22.42-19.97c4.9 5.49 10.94 9.95 17.73 13.01z" fill="#fbe88c"/><path d="m307.45 357.148-28.6 9.07c-2.52-7.9-3.88-16.31-3.88-25.04 0-3.17.18-6.3.53-9.38h.01l29.8 3.4h.01c-.36 3.07-.44 6.22-.24 9.43.28 4.33 1.09 8.53 2.37 12.52z" fill="#fbe88c"/><path d="m323.58 294.188c1.73 2.38 1.31 5.65-.88 7.6-4.06 3.61-7.56 7.84-10.35 12.53l-25.79-15.29c4.73-7.96 10.76-15.05 17.79-21 2.51-2.12 6.29-1.66 8.22 1z" fill="#fbe88c"/></g></g></g></g><g><path d="m357.709 187.423c-84.782 0-153.758 68.976-153.758 153.758s68.976 153.758 153.758 153.758 153.757-68.976 153.757-153.758-68.975-153.758-153.757-153.758zm0 292.516c-76.512 0-138.758-62.246-138.758-138.758s62.247-138.758 138.758-138.758 138.757 62.246 138.757 138.758-62.246 138.758-138.757 138.758z"/><path d="m357.709 220.946c-66.298 0-120.235 53.938-120.235 120.235s53.938 120.235 120.235 120.235c34.344 0 67.149-14.799 90.004-40.602 2.746-3.101 2.459-7.841-.642-10.587-3.102-2.747-7.84-2.46-10.587.642-20.01 22.591-48.723 35.547-78.775 35.547-58.027 0-105.235-47.208-105.235-105.235s47.208-105.235 105.235-105.235c58.026 0 105.233 47.208 105.233 105.235 0 15.62-3.363 30.671-9.996 44.733-1.768 3.746-.163 8.216 3.584 9.982 3.742 1.769 8.216.163 9.982-3.584 7.584-16.078 11.43-33.282 11.43-51.132 0-66.297-53.936-120.234-120.233-120.234z"/><path d="m327.683 307.396c.001 0 .001 0 0 0 5.112-4.548 5.958-12.119 1.969-17.612l-11.011-15.162c-2.144-2.952-5.451-4.896-9.074-5.334-3.612-.432-7.284.661-10.061 3.012-20.357 17.22-32.032 42.327-32.032 68.882 0 49.756 40.479 90.234 90.235 90.234 49.755 0 90.233-40.479 90.233-90.234 0-26.555-11.675-51.662-32.032-68.884-2.777-2.35-6.444-3.446-10.061-3.01-3.622.438-6.929 2.381-9.073 5.333l-11.013 15.164c-3.988 5.493-3.143 13.063 1.968 17.61 9.667 8.597 15.211 20.912 15.211 33.786 0 12.406-4.944 23.988-13.923 32.612-8.97 8.616-20.756 13.101-33.174 12.584-22.812-.918-41.82-19.467-43.277-42.229-.896-14.015 4.613-27.41 15.115-36.752zm-1.571 85.003-5.954 13.933c-4.78-2.766-9.236-6.03-13.279-9.742l11.285-10.07c2.501 2.187 5.16 4.15 7.948 5.879zm24.097 8.541v15.1c-5.669-.563-11.147-1.775-16.379-3.532l5.92-13.854c3.4 1.07 6.897 1.839 10.459 2.286zm25.475-2.248 5.904 13.816c-5.231 1.756-10.709 2.968-16.379 3.532v-15.094c3.574-.44 7.076-1.194 10.475-2.254zm21.604-12.142 11.25 10.039c-4.043 3.712-8.499 6.977-13.279 9.742l-5.934-13.887c2.786-1.729 5.45-3.693 7.963-5.894zm33.941-61.311-15.02 1.715c-.818-3.347-1.907-6.617-3.28-9.767l12.975-7.686c2.343 5.023 4.141 10.294 5.325 15.738zm1.713 15.942c0 5.315-.562 10.5-1.615 15.506l-14.386-4.568c.612-3.354.947-6.782.984-10.264l14.989-1.712c.005.347.028.691.028 1.038zm-20.529 25.238 14.363 4.56c-2.22 5.126-4.998 9.955-8.251 14.417l-11.228-10.019c1.974-2.843 3.674-5.843 5.116-8.958zm-123.772 4.561 14.391-4.569c1.444 3.109 3.164 6.095 5.13 8.931l-11.269 10.056c-3.254-4.462-6.032-9.291-8.252-14.418zm-6.167-29.799c0-.347.023-.691.028-1.038l14.98 1.711c.012 1.081.049 2.165.119 3.252.151 2.365.458 4.703.884 7.011l-14.395 4.57c-1.054-5.006-1.616-10.191-1.616-15.506zm7.038-31.681 12.96 7.677c-1.374 3.152-2.472 6.42-3.285 9.774l-15-1.713c1.184-5.443 2.983-10.715 5.325-15.738zm18.173-24.438 8.857 12.196c-2.34 2.191-4.471 4.545-6.405 7.025l-12.97-7.683c3.073-4.158 6.585-8.031 10.518-11.538zm100.047-.001c3.933 3.507 7.445 7.381 10.518 11.54l-12.978 7.688c-1.934-2.492-4.068-4.846-6.398-7.031zm-90.019 11.129c0-.001 0-.001 0 0 .001-.001.001-.001 0 0z"/><path d="m240.619 466.06c-7.936.856-15.95 1.29-23.819 1.29-111.273 0-201.8-83.008-201.8-185.038 0-47.241 19.358-92.059 54.542-126.477l12.188-4.799c20.425-8.042 41.668-12.507 63.375-13.335-8.911 8.383-16.15 18.211-21.564 29.29-2.079 4.25-1.676 9.288 1.05 13.15 3.921 5.551 11.527 7.112 17.319 3.551l17.012-10.46c16.447-10.112 35.123-15.604 54.008-15.882 3.955-.059 7.955-.025 11.889.096l.877.027c16.167.549 31.998 5.318 45.778 13.79l20.215 12.43c2.098 1.289 4.432 1.906 6.744 1.906 4.072 0 8.073-1.917 10.573-5.458 2.728-3.86 3.13-8.899 1.052-13.148-5.416-11.082-12.654-20.909-21.565-29.292 21.702.828 42.951 5.293 63.375 13.335l12.168 4.791c5.099 4.991 9.976 10.302 14.496 15.846 1.483 1.818 3.642 2.761 5.818 2.761 1.665 0 3.343-.553 4.734-1.687 3.21-2.618 3.691-7.342 1.074-10.553-2.439-2.992-4.983-5.916-7.594-8.775.015-.023.032-.044.047-.067 2.964-4.582 2.309-10.44-1.592-14.247-37.822-36.905-88.525-59.68-143.104-64.349v-29.742l5.896-12.226c1.705-3.535 1.477-7.63-.61-10.953-2.087-3.324-5.676-5.309-9.601-5.309h-34.25c-4.012 0-7.643 2.052-9.712 5.489s-2.184 7.605-.307 11.15l6.35 11.996v29.596c-9.008.772-18.05 2.06-26.929 3.833-4.062.812-6.697 4.762-5.886 8.823.811 4.062 4.762 6.702 8.823 5.886 9.374-1.872 18.942-3.166 28.438-3.847 5.918-.424 10.553-5.391 10.553-11.307v-33.893c0-1.838-.455-3.67-1.317-5.304l-3.929-7.422h22.332l-3.726 7.727c-.736 1.526-1.125 3.229-1.125 4.923v33.971c0 5.916 4.635 10.883 10.553 11.307 45.178 3.238 87.634 19.663 121.603 46.738-27.301-10.389-55.937-14.877-85.149-13.338-3.442.177-6.366 2.406-7.448 5.68-1.082 3.272-.062 6.805 2.593 8.995l8.89 7.344c7.581 6.263 13.936 13.629 18.958 21.966l-13.583-8.353c-15.992-9.832-34.363-15.366-53.154-16.005l-.9-.026c-4.156-.13-8.383-.163-12.567-.102-21.583.317-42.899 6.577-61.645 18.103l-10.382 6.383c5.022-8.336 11.377-15.702 18.959-21.966l8.888-7.343c2.658-2.193 3.676-5.726 2.594-8.998s-4.005-5.501-7.438-5.677c-29.198-1.541-57.819 2.942-85.103 13.315 18.683-14.843 40.202-26.696 63.189-34.719 3.911-1.364 5.975-5.642 4.61-9.553-1.364-3.911-5.641-5.974-9.552-4.609-31.724 11.071-60.857 28.989-84.251 51.816-3.901 3.807-4.556 9.665-1.592 14.247.011.018.025.033.036.051-33.001 36.047-51.024 81.318-51.024 128.909 0 53.551 22.631 103.862 63.725 141.665 40.919 37.643 95.283 58.373 153.075 58.373 8.404 0 16.959-.463 25.428-1.376 4.118-.444 7.097-4.143 6.652-8.261-.444-4.119-4.138-7.106-8.261-6.653z"/></g></g></svg>