<svg id="Capa_1" enable-background="new 0 0 512.128 512.128" height="512" viewBox="0 0 512.128 512.128" width="512" xmlns="http://www.w3.org/2000/svg"><g><g><path d="m384.043 317.053c-15.057 103.43-111.11 175.07-214.54 160.012-103.43-15.057-175.07-111.11-160.012-214.54 6.089-41.825 47.521-111.611 94.717-179.906 63.676-92.143 205.585-71.483 240.346 34.99 25.764 78.917 45.578 157.62 39.489 199.444z" fill="#c9a291"/><path d="m78.018 263.023c6.089-41.824 47.521-111.611 94.717-179.906 20.082-29.06 47.939-46.91 77.769-54.377-51.77-13.591-111.027 2.843-146.296 53.88-47.196 68.294-88.628 138.081-94.717 179.905-15.057 103.43 56.582 199.483 160.012 214.54 20.591 2.998 40.887 2.549 60.313-.893-98.976-18.815-166.453-112.482-151.798-213.149z" fill="#be8f7d"/><path d="m144.546 317.91c0 65.99 33.807 124.236 85.012 158.319 78.262-13.756 142.412-76.25 154.485-159.176 5.812-39.926-11.975-113.448-36.015-188.692-4.438-.312-8.925-.492-13.441-.492-104.789 0-190.041 85.252-190.041 190.041z" fill="#be8f7d"/><circle cx="334.587" cy="317.91" fill="#d3b5a8" r="170.041"/><path d="m244.307 317.91c0-80.175 55.503-147.388 130.171-165.336-12.793-3.075-26.154-4.705-39.89-4.705-93.911 0-170.041 76.13-170.041 170.041s76.13 170.041 170.041 170.041c13.736 0 27.079-1.63 39.872-4.705-74.669-17.947-130.153-85.161-130.153-165.336z" fill="#c9a291"/><circle cx="334.587" cy="317.91" fill="#f8f7f8" r="126.281"/><path d="m293.249 198.551c-49.438 17.123-84.943 64.097-84.943 119.36 0 55.256 35.501 102.227 84.93 119.355-30.251-30.698-48.93-72.851-48.93-119.355.001-46.508 18.684-88.662 48.943-119.36z" fill="#efedee"/></g><g><path d="m214.299 470.722c-14.522 1.393-29.229 1.03-43.716-1.078-99.171-14.438-168.108-106.867-153.671-206.038 3.972-27.283 24.439-70.212 60.835-127.596 2.218-3.497 1.181-8.132-2.317-10.351s-8.132-1.182-10.351 2.317c-37.532 59.179-58.732 104.084-63.01 133.469-15.629 107.357 58.997 207.412 166.353 223.042 9.449 1.376 18.984 2.065 28.512 2.065 6.279 0 12.556-.3 18.799-.899 4.123-.396 7.145-4.06 6.749-8.183-.397-4.122-4.06-7.144-8.183-6.748z"/><path d="m84.721 111.413c3.444 2.298 8.102 1.369 10.402-2.074 4.967-7.441 10.1-14.997 15.254-22.456 14.286-20.673 33.722-36.477 56.206-45.703 21.134-8.673 44.494-11.481 67.56-8.125 23.063 3.358 44.654 12.712 62.438 27.05 18.92 15.255 33.043 35.944 40.837 59.815l.167.516c1.027 3.173 3.969 5.191 7.133 5.191.766 0 1.545-.118 2.312-.367 3.94-1.275 6.101-5.505 4.824-9.445l-.172-.533c-8.702-26.654-24.5-49.772-45.687-66.854-19.873-16.023-43.973-26.472-69.692-30.216-25.719-3.747-51.798-.602-75.415 9.091-25.177 10.332-46.911 27.985-62.852 51.053-5.2 7.524-10.378 15.147-15.391 22.655-2.298 3.445-1.369 8.102 2.076 10.402z"/><path d="m90.434 368.656c.337 0 .679-.022 1.021-.069 4.104-.559 6.979-4.339 6.42-8.443-3.665-26.919-3.366-55.39.89-84.622 5.146-35.342 26.955-96.65 64.824-182.221 1.677-3.788-.035-8.217-3.823-9.894-3.787-1.674-8.218.035-9.894 3.823-38.421 86.816-60.609 149.44-65.951 186.131-4.457 30.619-4.764 60.497-.909 88.806.513 3.761 3.73 6.489 7.422 6.489z"/><path d="m216.958 99.034-6.247 42.911c-.597 4.099 2.242 7.905 6.342 8.502.366.054.729.079 1.09.079 3.663 0 6.868-2.688 7.412-6.421l6.247-42.911c.597-4.099-2.242-7.905-6.342-8.502-4.086-.596-7.904 2.244-8.502 6.342z"/><path d="m334.587 140.369c-97.896 0-177.541 79.645-177.541 177.541s79.645 177.541 177.541 177.541 177.541-79.645 177.541-177.541-79.644-177.541-177.541-177.541zm0 340.082c-89.625 0-162.541-72.916-162.541-162.541s72.916-162.541 162.541-162.541 162.541 72.916 162.541 162.541-72.916 162.541-162.541 162.541z"/><path d="m334.587 184.129c-73.768 0-133.781 60.014-133.781 133.781s60.014 133.781 133.781 133.781c38.523 0 75.199-16.63 100.622-45.626 2.73-3.114 2.419-7.853-.695-10.584-3.115-2.73-7.854-2.421-10.584.695-22.574 25.748-55.139 40.515-89.343 40.515-65.496 0-118.781-53.285-118.781-118.781s53.285-118.781 118.781-118.781 118.781 53.285 118.781 118.781c0 18.726-4.237 36.649-12.595 53.272-1.86 3.701-.368 8.21 3.332 10.07 3.7 1.859 8.209.368 10.07-3.332 9.417-18.733 14.192-38.924 14.192-60.011.002-73.766-60.012-133.78-133.78-133.78z"/></g></g></svg>