<svg id="Capa_1" enable-background="new 0 0 512.248 512.248" height="512" viewBox="0 0 512.248 512.248" width="512" xmlns="http://www.w3.org/2000/svg"><g><g><path d="m253.476 142.059-23.476-35.661-11.597-94.548c-.305-2.484-2.414-4.35-4.917-4.35h-18.802c-2.736 0-4.953 2.218-4.953 4.953v93.945l-23.476 35.661-26.405 40.1v29.568h135.473v-32.256z" fill="#94cf6f"/><path d="m258.97 480.734 21.049 2.877c21.789 2.978 42.112-11.578 46.308-33.166l42.048-216.371c10.212-52.546-38.603-97.384-90.094-82.754l-9.324 2.649-72.374 27.577v289.866z" fill="#da606c"/><path d="m160.762 480.734-21.049 2.877c-21.789 2.978-42.112-11.578-46.308-33.166l-42.049-216.371c-10.212-52.546 38.603-97.384 90.094-82.754l9.324 2.649 59.091 28.554v285.434z" fill="#da606c"/><path d="m138.33 445.576-42.048-216.371c-6.73-34.631 12.179-65.895 40.594-79.013-49.762-10.817-95.429 32.895-85.52 83.883l42.048 216.371c4.195 21.588 24.518 36.143 46.308 33.166l21.05-2.876 9.654-2.512c-15.843-3.367-28.828-15.885-32.086-32.648z" fill="#d44954"/><g><path d="m147.97 448.741-22.569-225.376c-5.005-49.976 34.239-93.345 84.465-93.345 50.226 0 89.469 43.37 84.465 93.345l-22.569 225.376c-3.184 31.796-29.941 56.007-61.896 56.007-31.955 0-58.712-24.212-61.896-56.007z" fill="#e17983"/><path d="m305.784 202.567c-40.014 0-72.721 31.882-74.049 71.578-12.803.428-24.783 4.136-35.152 10.284v158.358c10.37 6.148 22.35 9.856 35.152 10.284.286 8.558 2.038 16.75 5 24.34l22.234 3.322 21.049 2.876c21.79 2.978 42.113-11.578 46.308-33.166l42.048-216.371c1.606-8.262 1.75-16.333.656-24.013-9.799-4.79-20.796-7.494-32.418-7.494h-30.828z" fill="#d44954"/><path d="m234.426 256.693c-2.764 9.863-10.635 17.428-20.485 20.239-31.014 8.849-53.784 37.447-53.784 71.263v30.829c0 35.121 24.562 64.613 57.411 72.198 7.904 1.825 14.166 7.881 15.968 15.79 2.21 9.699 6.33 18.679 11.939 26.526 14.41-10.074 24.417-26.124 26.287-44.797l22.569-225.376c.678-6.768.538-13.413-.325-19.847-28.655 4.597-51.875 25.675-59.58 53.175z" fill="#da606c"/><path d="m408.15 294.103c-9.635 0-17.445-7.81-17.445-17.445 0-29.874-24.217-54.091-54.091-54.091h-30.829c-29.874 0-54.091 24.217-54.091 54.091 0 9.635-7.81 17.445-17.445 17.445-29.874 0-54.091 24.217-54.091 54.091v30.829c0 29.874 24.217 54.091 54.091 54.091 9.635 0 17.445 7.81 17.445 17.445v.001c0 29.874 24.217 54.091 54.091 54.091h30.829c29.874 0 54.091-24.217 54.091-54.091v-.001c0-9.635 7.81-17.445 17.445-17.445 29.874 0 54.091-24.217 54.091-54.091v-30.829c0-29.873-24.218-54.091-54.091-54.091z" fill="#eda9b0"/><path d="m247.653 363.609c0-59.917 32.075-112.335 79.987-141.042h-21.855c-29.874 0-54.091 24.217-54.091 54.091 0 9.635-7.811 17.445-17.445 17.445-29.874 0-54.091 24.217-54.091 54.091v30.829c0 29.874 24.217 54.091 54.091 54.091 9.635 0 17.445 7.811 17.445 17.445 0 29.874 24.217 54.091 54.091 54.091h21.855c-47.912-28.706-79.987-81.125-79.987-141.041z" fill="#e79098"/><path d="m305.784 472.273c-11.972 0-21.713-9.741-21.713-21.713 0-27.472-22.35-49.823-49.822-49.823-11.973 0-21.714-9.74-21.714-21.713v-30.829c0-11.972 9.741-21.713 21.713-21.713 27.472 0 49.823-22.351 49.823-49.823 0-11.972 9.741-21.713 21.713-21.713h30.829c11.973 0 21.714 9.74 21.714 21.713 0 27.472 22.35 49.823 49.822 49.823 11.972 0 21.713 9.741 21.713 21.713v30.829c0 11.972-9.74 21.713-21.713 21.713-27.472 0-49.822 22.351-49.822 49.823 0 11.972-9.741 21.713-21.714 21.713z" fill="#e79098"/><path d="m252.758 404.316c-3.32-13.02-5.105-26.653-5.105-40.708s1.786-27.688 5.105-40.708c-5.727 2.301-11.97 3.58-18.51 3.58-11.972 0-21.713 9.74-21.713 21.713v30.829c0 11.973 9.74 21.713 21.714 21.713 6.539.001 12.782 1.281 18.509 3.581z" fill="#e17983"/></g></g><g><path d="m233.567 491.84c-7.45 3.589-15.425 5.408-23.701 5.408-17.291 0-32.762-7.958-42.807-20.574-.249-.385-.53-.745-.842-1.075-5.879-7.776-9.744-17.216-10.784-27.605l-22.569-225.376c-2.175-21.716 4.976-43.451 19.619-59.634s35.559-25.464 57.383-25.464c35.327 0 66.154 23.873 74.965 58.056 1.034 4.011 5.12 6.427 9.135 5.391 4.011-1.034 6.425-5.124 5.391-9.135-3.258-12.639-9.042-24.094-16.72-33.891 32.573-8 65.826 10.236 76.427 42.356 1.041 3.153 3.973 5.151 7.121 5.151.779 0 1.571-.122 2.352-.38 3.934-1.298 6.069-5.539 4.771-9.473-6.271-18.999-19.445-34.863-37.096-44.673-18.32-10.18-39.622-12.601-59.981-6.815l-5.263 1.496c-3.788-3.336-7.842-6.356-12.125-9.033l-21.611-32.828-2.341-19.08c-.505-4.111-4.255-7.032-8.357-6.531-4.111.505-7.035 4.246-6.531 8.357l2.555 20.824c.141 1.147.545 2.246 1.18 3.211l9.955 15.121c-7.637-2.035-15.627-3.124-23.824-3.124-8.114 0-16.123 1.076-23.834 3.139l9.965-15.136c.806-1.225 1.235-2.658 1.235-4.124v-91.399h14.001l4.863 39.652c.505 4.112 4.259 7.041 8.357 6.531 4.111-.504 7.035-4.246 6.531-8.357l-5.138-41.89c-.766-6.235-6.081-10.936-12.363-10.936h-18.801c-6.866 0-12.453 5.587-12.453 12.453v91.698l-21.366 32.456c-4.25 2.656-8.294 5.663-12.084 9l-5.281-1.501c-26.71-7.586-54.862-.903-75.31 17.877-20.448 18.782-29.494 46.268-24.197 73.522l14.71 75.691c.696 3.583 3.836 6.071 7.354 6.07.474 0 .956-.045 1.438-.139 4.066-.79 6.722-4.727 5.932-8.793l-14.71-75.691c-4.295-22.1 3.039-44.385 19.619-59.613 16.004-14.7 37.829-20.257 58.805-15.091-14.617 18.672-21.582 42.431-19.205 66.172l22.569 225.376c.916 9.149 3.557 17.717 7.568 25.412l-9.378 1.282c-17.843 2.433-34.498-9.497-37.932-27.166l-21.24-109.301c-.79-4.065-4.726-6.717-8.793-5.932-4.066.79-6.722 4.727-5.932 8.793l21.24 109.301c4.52 23.258 24.934 39.621 48.021 39.621 2.201 0 4.428-.149 6.666-.455l16.862-2.305c12.8 14.498 31.507 23.511 52.275 23.511 10.549 0 20.713-2.319 30.211-6.895 3.731-1.797 5.3-6.279 3.502-10.012s-6.28-5.3-10.009-3.501z"/><path d="m408.149 286.604c-5.483 0-9.944-4.462-9.944-9.945 0-33.961-27.63-61.591-61.592-61.591h-30.829c-33.961 0-61.591 27.63-61.591 61.591 0 5.483-4.462 9.945-9.945 9.945-33.961 0-61.591 27.63-61.591 61.591v30.829c0 33.961 27.63 61.591 61.591 61.591 5.483 0 9.945 4.462 9.945 9.945 0 33.961 27.63 61.591 61.591 61.591h30.829c33.962 0 61.592-27.63 61.592-61.591 0-5.483 4.461-9.945 9.944-9.945 33.961 0 61.591-27.63 61.591-61.591v-30.829c0-33.962-27.63-61.591-61.591-61.591zm46.591 92.419c0 25.69-20.9 46.591-46.591 46.591-13.754 0-24.944 11.19-24.944 24.945 0 25.69-20.901 46.591-46.592 46.591h-30.829c-25.69 0-46.591-20.9-46.591-46.591 0-13.755-11.19-24.945-24.945-24.945-25.69 0-46.591-20.9-46.591-46.591v-30.829c0-25.69 20.9-46.591 46.591-46.591 13.755 0 24.945-11.19 24.945-24.945 0-25.69 20.9-46.591 46.591-46.591h30.829c25.69 0 46.592 20.9 46.592 46.591 0 13.755 11.19 24.945 24.944 24.945 25.69 0 46.591 20.9 46.591 46.591z"/><path d="m408.149 318.981c-23.337 0-42.322-18.986-42.322-42.323 0-16.108-13.105-29.213-29.214-29.213h-30.829c-16.108 0-29.213 13.104-29.213 29.213 0 23.337-18.986 42.323-42.323 42.323-16.108 0-29.213 13.104-29.213 29.213v30.829c0 16.108 13.105 29.213 29.214 29.213 23.337 0 42.322 18.986 42.322 42.323 0 16.108 13.104 29.213 29.213 29.213h30.829c16.108 0 29.214-13.104 29.214-29.213 0-6.799 1.583-13.308 4.704-19.348 1.901-3.68.46-8.204-3.22-10.106s-8.204-.461-10.106 3.22c-4.173 8.074-6.378 17.146-6.378 26.234 0 7.837-6.376 14.213-14.214 14.213h-30.829c-7.837 0-14.213-6.376-14.213-14.213 0-31.608-25.715-57.323-57.322-57.323-7.838 0-14.214-6.376-14.214-14.213v-30.829c0-7.837 6.376-14.213 14.213-14.213 31.608 0 57.323-25.715 57.323-57.323 0-7.837 6.376-14.213 14.213-14.213h30.829c7.838 0 14.214 6.376 14.214 14.213 0 31.608 25.715 57.323 57.322 57.323 7.837 0 14.213 6.376 14.213 14.213v30.829c0 7.837-6.376 14.213-14.213 14.213-7.953 0-15.676 1.618-22.952 4.81-3.794 1.663-5.521 6.087-3.856 9.88 1.664 3.794 6.09 5.523 9.88 3.856 5.366-2.353 11.062-3.546 16.929-3.546 16.108 0 29.213-13.104 29.213-29.213v-30.829c-.001-16.108-13.105-29.213-29.214-29.213z"/></g></g></svg>