<svg id="Capa_1" enable-background="new 0 0 517.206 517.206" height="512" viewBox="0 0 517.206 517.206" width="512" xmlns="http://www.w3.org/2000/svg"><g><g><path d="m273.238 121.45-24.538-25.688-2.524-48.085c-.271-5.163-4.536-9.211-9.707-9.211h-14.761c-5.17 0-9.436 4.047-9.707 9.211l-2.524 48.085-24.537 25.688-37.7 33.361v30.081h144.595v-38.285z" fill="#c9a291"/><g><ellipse cx="229.089" cy="297.765" fill="#c9a291" rx="221.589" ry="179.888"/><path d="m91.043 297.439c0-74.083 39.986-139.25 100.491-176.977-104.492 14.483-184.034 88.347-184.034 177.304 0 89.331 80.215 163.458 185.357 177.499-61.248-37.598-101.814-103.202-101.814-177.826z" fill="#be8f7d"/><path d="m450.678 297.766c0-36.38-13.316-70.231-36.188-98.535l-45.756 32.536c-11.734 8.375-14.471 24.729-6.127 36.42l5.092 7.17c1.667 2.349 3.094 4.808 4.25 7.32 2.826 6.132 4.257 12.946 4.137 19.73-.104 6.31-1.562 12.604-4.236 18.246-3.045 6.466-7.526 11.9-13.32 16.156-6.112 4.491-13.293 7.319-20.785 8.18-1.667.192-3.367.29-5.05.29-4.64.001-9.227-.725-13.661-2.165-6.404-2.069-12.299-5.635-17.102-10.362-1.807-1.766-3.487-3.734-4.992-5.85l-5.658-7.954c-4.892-6.891-12.862-11.004-21.321-11.004-5.451 0-10.681 1.668-15.141 4.835l-82.391 58.603c-11.742 8.344-14.512 24.688-6.162 36.449l5.668 7.966c18.706 26.302 43.388 47.236 71.464 61.488 115.715-5.983 207.279-84.07 207.279-179.519z" fill="#be8f7d"/><ellipse cx="229.089" cy="297.765" fill="#d3b5a8" rx="155.645" ry="179.888"/><g fill="#c9a291"><path d="m362.606 268.186 5.092 7.17c1.667 2.349 3.094 4.808 4.25 7.32 2.826 6.132 4.257 12.946 4.137 19.73-.104 6.31-1.562 12.604-4.236 18.246-3.045 6.466-7.526 11.9-13.32 16.156-6.112 4.491-13.293 7.319-20.785 8.18-1.667.192-3.367.29-5.05.29-4.64.001-9.227-.725-13.661-2.165-6.404-2.069-12.299-5.635-17.102-10.362-1.807-1.766-3.487-3.734-4.992-5.85l-5.658-7.954c-4.892-6.891-12.862-11.004-21.321-11.004-5.451 0-10.681 1.668-15.141 4.835l-82.391 58.603c-11.742 8.344-14.512 24.688-6.162 36.449l5.668 7.966c18.571 26.112 43.029 46.925 70.853 61.17 79.547-8.014 141.948-85.185 141.948-179.201 0-24.428-4.221-47.713-11.853-68.949l-4.148 2.95c-11.734 8.375-14.471 24.729-6.128 36.42z"/><path d="m183.478 125.733c-63.704 22.534-110.034 91.026-110.034 172.033 0 81.822 47.227 150.872 111.923 172.694-57.065-38.228-94.324-101.466-94.324-173.021 0-70.743 36.463-133.354 92.435-171.706z"/><ellipse cx="229.089" cy="297.765" rx="92.876" ry="179.888"/></g><path d="m241.213 476.128c37.757-9.535 68.387-62.989 77.775-133.03-6.387-2.071-12.266-5.63-17.057-10.347-1.807-1.766-3.487-3.734-4.992-5.85l-5.658-7.954c-4.892-6.891-12.862-11.004-21.321-11.004-5.451 0-10.681 1.668-15.141 4.835l-82.391 58.603c-11.742 8.344-14.512 24.688-6.162 36.449l5.668 7.966c18.22 25.619 42.106 46.113 69.279 60.332z" fill="#be8f7d"/><path d="m221.585 118.445v358.643c2.474.383 4.978.566 7.504.566s5.026-.181 7.5-.564v-358.639c-2.474-.383-4.975-.574-7.5-.574s-5.029.185-7.504.568z" fill="#d3b5a8"/><path d="m221.585 464.37c4.864 3.308 9.872 6.392 15.004 9.252v-147.877l-15.004 10.672z" fill="#c9a291"/><path d="m461.148 204.355h-19.356l-40.47 28.78s4.143 33.764 5.05 33.324 5.685 62.716 5.685 62.716l-18.105 32.97-47.5 21.045-68.519-13.625-17.559-22.51-14.922-3.07-40.48 28.79 3.8 37.409 70.475 47.142 85.19 5.714 60.997-19.523 41.428-55.713 29.999-97.909z" fill="#fbe88c"/><g><path d="m390.59 448.272c-85.495 0-155.857-39.561-164.731-90.352l-20.887 14.855 3.8 37.409 70.475 47.142 85.19 5.714 49.205-15.749c-7.535.642-15.228.981-23.052.981z" fill="#fbe372"/></g><g><path d="m476.982 198.855c22.15 31.15 32.8 67.01 32.8 102.53 0 55.4-25.91 109.96-74.5 144.52-79.73 56.71-190.34 38.04-247.05-41.7l-5.67-7.97c-1.96-2.76-1.31-6.59 1.45-8.55l20.96-14.91 9.23 12.97c46.43 65.29 137.33 80.63 202.62 34.2 65.29-46.44 80.63-137.33 34.19-202.62l-9.22-12.97 20.97-14.91c2.76-1.97 6.59-1.32 8.55 1.44z" fill="#d3b5a8"/></g></g><g id="XMLID_259_"><g><path d="m312.882 362.145c-9.19-2.97-17.77-8.04-24.93-15.09h-7.91l-14.64 12.915v9.615c10.5 10.38 23.04 17.94 36.51 22.49v-.01l7.635-2.161 7.081-21.136z" fill="#f9de58"/><path d="m378.253 352.926h-7.88c-9.24 6.79-19.7 10.71-30.33 11.93l-6.264 8.569 3.795 18.651 8.88 4.07c14.55-2.1 28.8-7.6 41.58-16.68.27-.19.54-.38.8-.58l1.758-6.226z" fill="#f9de58"/><path d="m346.452 396.145c-14.99 2.17-30.28.74-44.54-4.07v-.01l10.97-29.92c8.72 2.83 18 3.77 27.16 2.71z" fill="#fbe372"/><path d="m426.02 297.439h-25.194l-4.744 5.297c-.15 9.13-2.22 18.17-6.14 26.44l1.517 8.396 17.608 10.82 8.465-2.926c6.91-13.42 10.54-28.28 10.66-43.28z" fill="#f9de58"/><path d="m415.822 344.625c.23.09.84.39 1.71.84-6.62 12.85-16.25 24.38-28.7 33.42l-18.46-25.96c8.7-6.39 15.26-14.6 19.57-23.75z" fill="#fbe372"/><path d="m418.942 260.366c-2.35-4.91-5.14-9.68-8.4-14.26l-9.22-12.97-20.97 14.91c-2.76 1.97-3.41 5.8-1.44 8.56l5.1 7.18c2.39 3.37 4.43 6.89 6.1 10.52l4.945 4.642 24.293-10.181z" fill="#f9de58"/><path d="m418.942 260.365c6.35 13.31 9.38 27.63 9.25 41.82l-32.11.55c.17-9.63-1.79-19.36-5.97-28.43z" fill="#fbe372"/></g></g><path d="m287.952 347.055-22.55 22.53c-3.88-3.83-7.47-8.04-10.73-12.63l-9.22-12.97 20.96-14.91c2.76-1.96 6.6-1.31 8.56 1.45l5.67 7.97c2.22 3.12 4.67 5.98 7.31 8.56z" fill="#fbe372"/><g><path d="m390.59 448.272c-13.288 0-26.2-.957-38.583-2.761-51.727 6.877-105.52-14.366-137.805-59.765l-9.23-12.97-20.96 14.91c-2.76 1.96-3.41 5.79-1.45 8.55l5.67 7.97c56.71 79.74 167.32 98.41 247.05 41.7.827-.588 1.637-1.175 2.451-1.775-14.941 2.704-30.765 4.141-47.143 4.141z" fill="#c9a291"/></g></g><path d="m483.093 194.509-5.668-7.971c-4.357-6.126-12.887-7.565-19.014-3.208l-30.298 21.547c-32.744-46.964-87.838-79.441-151.172-90.409l-20.898-21.876-2.378-45.309c-.48-9.149-8.034-16.317-17.196-16.317h-14.761c-9.163 0-16.716 7.168-17.197 16.318l-2.377 45.308-20.886 21.864c-42.679 7.374-81.926 24.594-113.574 50.286-43.64 35.428-67.674 82.669-67.674 133.023s24.034 97.595 67.675 133.023c43.185 35.058 100.51 54.365 161.414 54.365 18.592 0 37.067-1.841 54.958-5.44 5.839 1.58 11.786 2.885 17.829 3.905 10.393 1.754 20.794 2.621 31.125 2.621 38.016 0 75.023-11.743 106.63-34.222 82.978-59.013 102.475-174.53 43.462-257.508zm-140.453-42.879c30.505 15.417 55.681 36.745 73.247 61.943l-32.522 23.129c-10.292-34.204-29.349-64.832-54.393-87.132-3.278-2.919-6.634-5.673-10.055-8.276 8.139 3.035 16.071 6.469 23.723 10.336zm56.643 174.406c1.843-5.144 3.086-10.487 3.731-15.915l17.271-.299c-.204 2.123-.459 4.246-.817 6.37-1.096 6.494-2.902 12.747-5.318 18.7zm8.056 22.259c-4.598 7.365-10.299 14.033-16.969 19.805l-9.835-13.83c4.799-4.377 8.861-9.333 12.188-14.683zm-4.084-53.18c-.504-5.757-1.698-11.488-3.598-17.063l15.465-7.499c2.932 7.792 4.741 15.944 5.355 24.263zm-9.896-30.68c-1.007-1.694-2.071-3.366-3.232-4.999l-4.315-6.067 13.741-9.773 4.876 6.857c1.519 2.135 2.918 4.33 4.229 6.563zm-74.362-103.661c24.788 22.07 43.211 53.137 52.078 87.711-1.433 4.049-.95 8.708 1.723 12.465l5.106 7.18c18.02 25.338 12.649 60.663-11.972 78.746-12.039 8.842-26.763 12.474-41.543 10.281 3.364-19.085 5.075-39.024 5.075-59.393 0-49.225-9.958-95.621-28.038-130.642-6.369-12.336-13.513-22.794-21.245-31.251 13.796 5.905 26.846 14.244 38.816 24.903zm59.234 216.138c-8.098 4.915-16.814 8.467-25.88 10.541l-3.4-16.53c6.8-1.596 13.355-4.204 19.486-7.782zm-40.773 12.589c-6.449.338-12.982-.007-19.51-1.108-2.103-.355-4.173-.807-6.225-1.304l5.843-15.922c1.232.264 2.474.502 3.727.704 4.255.684 8.507.964 12.722.893zm-49.36-215.496c17.003 32.933 26.367 76.885 26.367 123.76 0 18.946-1.545 37.484-4.58 55.242-9.199-4.03-17.165-10.469-23.134-18.861l-5.667-7.969c-2.111-2.968-5.251-4.937-8.843-5.543-3.593-.609-7.205.223-10.172 2.333l-25.48 18.122v-215.021c19.118 3.478 37.18 20.185 51.509 47.937zm.168 183.337c4.609 3.668 9.651 6.739 15.036 9.151l-5.82 15.861c-7.673-3.311-14.796-7.699-21.205-13.034zm-22.656 1.433c-1.684-1.976-3.302-4.023-4.824-6.164l-4.876-6.856 13.741-9.772 4.877 6.856c.974 1.37 2.004 2.683 3.06 3.969zm-50.709-257.832c1.239-1.298 1.972-2.996 2.066-4.788l2.523-48.084c.062-1.181 1.036-2.104 2.217-2.104h14.761c1.181 0 2.155.924 2.217 2.104l2.524 48.085c.094 1.791.827 3.489 2.066 4.787l10 10.469c-6.721-.576-13.516-.889-20.36-.981-1.273-.033-2.549-.054-3.827-.054-8.136 0-16.206.355-24.189 1.036zm-136.907 152.827c-4.078-.73-7.974 1.985-8.704 6.062-2.221 12.413-3.347 25.176-3.347 37.933 0 49.852 16.839 96.769 47.416 132.107 7.955 9.194 16.6 17.309 25.791 24.309-73.24-27.415-124.15-87.213-124.15-156.416 0-69.233 50.955-129.054 124.247-156.452-.915.695-1.826 1.399-2.731 2.116-26.441 20.96-46.755 50.067-58.747 84.177-1.374 3.907.681 8.188 4.588 9.562 3.908 1.378 8.19-.679 9.563-4.588 11.052-31.435 29.695-58.197 53.915-77.396 10.07-7.983 20.843-14.422 32.104-19.248-7.71 8.446-14.834 18.882-21.187 31.187-18.081 35.021-28.038 81.417-28.038 130.642s9.958 95.621 28.038 130.642c6.347 12.293 13.467 22.706 21.169 31.144-56.549-24.294-96.977-87.648-96.977-161.786 0-11.874 1.047-23.747 3.112-35.292.73-4.077-1.985-7.974-6.062-8.703zm92.086 167.755c-17.003-32.933-26.367-76.885-26.367-123.76s9.364-90.827 26.367-123.76c14.328-27.752 32.39-44.459 51.509-47.938v225.689l-41.925 29.817c-6.126 4.356-7.566 12.887-3.209 19.014l5.668 7.969c11.176 15.714 24.495 29.34 39.466 40.62v20.287c-19.119-3.479-37.18-20.186-51.509-47.938zm66.509 47.93v-10.109c3.715 2.259 7.502 4.402 11.374 6.393-3.75 1.774-7.547 3.01-11.374 3.716zm194.349-29.662c-36.932 26.266-81.881 36.576-126.566 29.034-44.686-7.541-83.761-32.034-110.025-68.965l-4.877-6.856 13.741-9.773 4.877 6.857c23.619 33.21 58.813 55.245 99.102 62.045 8.626 1.455 17.259 2.175 25.83 2.175 31.457 0 62.046-9.695 88.146-28.257 29.671-21.102 50.854-52.215 59.644-87.607.999-4.02-1.451-8.088-5.471-9.087-4.019-.996-8.088 1.451-9.086 5.472-7.927 31.917-27.026 59.973-53.779 78.998-29.946 21.297-66.448 29.645-102.786 23.516-36.337-6.133-68.078-26.002-89.375-55.947l-4.877-6.857 28.251-20.091 4.876 6.856c15.942 22.416 39.697 37.289 66.89 41.878 5.822.983 11.648 1.469 17.433 1.469 21.232 0 41.879-6.545 59.496-19.073 22.416-15.942 37.289-39.697 41.878-66.89 4.59-27.192-1.663-54.513-17.605-76.929l-4.876-6.857 28.251-20.092 4.877 6.857c17.365 24.418 26.152 53.153 25.41 83.1-.103 4.141 3.171 7.581 7.312 7.684.063.001.126.002.189.002 4.056 0 7.393-3.236 7.494-7.314.823-33.213-8.922-65.083-28.182-92.164l-4.877-6.857 13.741-9.773 4.876 6.857c26.265 36.931 36.576 81.88 29.034 126.565-7.543 44.685-32.035 83.76-68.966 110.024z"/></g></svg>