<svg id="Capa_1" enable-background="new 0 0 509.21 509.21" height="512" viewBox="0 0 509.21 509.21" width="512" xmlns="http://www.w3.org/2000/svg"><g><g><g><path d="m281.012 243.905 13.844-21.228c7.86-12.052 20.264-20.409 34.385-23.168l93.93-18.35c53.286-10.41 58.253-84.713 6.827-102.123l-38.328-12.977c-11.175-3.783-20.441-11.762-25.841-22.251l-7.753-15.057c-17.798-34.567-69.664-24.773-73.631 13.904l-6.215 60.599c-.623 6.079-4.325 11.412-9.802 14.121-4.969 2.458-10.8 2.458-15.768 0-5.477-2.71-9.179-8.043-9.802-14.121l-6.215-60.599c-3.967-38.677-55.833-48.472-73.631-13.904l-7.753 15.057c-5.401 10.489-14.667 18.468-25.841 22.251l-38.33 12.976c-51.426 17.41-46.458 91.713 6.827 102.123l93.93 18.35c14.122 2.759 26.525 11.116 34.385 23.168l13.844 21.228c3.005 4.607 8.133 7.385 13.633 7.385h13.672c5.5.001 10.628-2.777 13.633-7.384z" fill="#d8efa7"/><g><path d="m288.699 227.35-13.621-19.471c-7.734-11.055-19.938-18.721-33.832-21.251l-92.418-16.832c-52.428-9.549-57.316-77.704-6.718-93.673l37.711-11.903c10.995-3.47 20.112-10.789 25.426-20.41l7.628-13.812c2.916-5.28 6.774-9.425 11.177-12.514-17.509-15.523-48.178-13.719-61.042 11.267l-7.753 15.057c-5.401 10.489-14.667 18.468-25.841 22.251l-38.328 12.976c-51.426 17.411-46.458 91.713 6.827 102.124l93.93 18.351c14.122 2.759 26.525 11.116 34.385 23.168l13.844 21.228c3.005 4.607 8.133 7.385 13.633 7.385h13.672c5.5 0 10.628-2.778 13.633-7.385l9.443-14.48c-.643-.638-1.234-1.33-1.756-2.076z" fill="#c5e97d"/></g><path d="m129.754 333.25-15.916-1.054c-19.305-1.279-38.435 4.354-53.966 15.891l-7.774 5.775c-2.569 1.908-6.253.687-7.173-2.379-4.634-15.446.479-32.164 12.96-42.376 1.705-1.395 2.635-3.526 2.497-5.725l-.508-8.123c-.831-13.303 6.995-25.629 19.389-30.535 3.054-1.209 5.724-3.223 7.725-5.829 8.118-10.571 22.119-14.715 34.683-10.265l7.672 2.717c2.077.736 4.381.427 6.191-.83 13.245-9.2 30.724-9.529 44.306-.834 2.695 1.725 2.859 5.604.319 7.55l-5.937 4.55c-16.409 12.576-27.423 30.919-30.81 51.314l-1.785 10.746c-.949 5.722-6.084 9.791-11.873 9.407z" fill="#d8efa7"/><g><path d="m139.081 316.672-19.105-2.046c-23.172-2.482-45.702 1.921-63.557 12.42l-8.937 5.255c-1.078.634-2.363.827-3.619.688-1.078 6.038-.775 12.371 1.062 18.494.92 3.065 4.604 4.287 7.173 2.379l7.774-5.774c15.531-11.538 34.661-17.171 53.966-15.892l15.916 1.054c5.788.384 10.924-3.686 11.874-9.408l1.196-7.204c-1.193.155-2.449.172-3.743.034z" fill="#c5e97d"/></g><g fill="#c5e97d"><circle cx="369.175" cy="375.506" r="19.906"/><circle cx="358.139" cy="297.493" r="15.661"/></g></g></g><path d="m432.403 71.931-38.328-12.977c-9.381-3.177-17.045-9.774-21.579-18.58l-7.752-15.058c-9.665-18.771-29.315-28.372-50.062-24.45-20.747 3.917-35.544 20.02-37.699 41.022l-6.215 60.599c-.363 3.537-2.481 6.589-5.667 8.165-2.854 1.412-6.263 1.411-9.117.001-3.186-1.577-5.305-4.629-5.667-8.166l-6.215-60.599c-2.154-21.003-16.952-37.105-37.699-41.022-20.749-3.918-40.397 5.679-50.062 24.451l-7.752 15.057c-4.534 8.806-12.197 15.403-21.579 18.58l-38.328 12.977c-26.749 9.056-42.815 33.113-40.931 61.29s21.009 49.883 48.726 55.297l93.93 18.353c12.06 2.354 22.827 9.609 29.541 19.903l13.844 21.229c4.285 6.568 11.445 10.551 19.251 10.767v127.853c0 1.883.037 3.761.099 5.635l-15.277-2.047c-36.37-4.874-69.09-25.053-89.773-55.362l-1.816-2.662c1.351-2.101 2.317-4.497 2.751-7.115l1.785-10.746c3.087-18.584 13.021-35.129 27.975-46.589l5.935-4.55c3.132-2.399 4.902-6.186 4.736-10.127-.167-3.941-2.25-7.565-5.573-9.692-16.093-10.304-36.607-9.978-52.351.801l-7.357-2.605c-15.673-5.552-33.008-.423-43.136 12.766-1.175 1.53-2.744 2.714-4.538 3.424-15.46 6.121-25.15 21.382-24.113 37.977l.487 7.789c-14.684 12.187-20.625 31.822-15.135 50.121 1.133 3.779 4.045 6.776 7.79 8.019 1.245.413 2.53.615 3.81.615 2.571 0 5.114-.817 7.229-2.389l7.773-5.774c4.639-3.445 9.729-6.358 15.131-8.659 3.811-1.623 5.584-6.028 3.961-9.839-1.624-3.812-6.028-5.584-9.839-3.962-6.488 2.764-12.611 6.269-18.198 10.419l-4.241 3.15c-1.861-11.339 2.406-22.885 11.474-30.304 3.565-2.915 5.522-7.4 5.235-11.999l-.508-8.123c-.631-10.091 5.262-19.372 14.664-23.094 4.313-1.707 8.087-4.555 10.913-8.234 6.159-8.021 16.7-11.14 26.231-7.764l7.672 2.718c4.338 1.536 9.188.888 12.973-1.741 9.623-6.686 21.898-7.619 32.29-2.72l-2.443 1.873c-17.985 13.783-29.934 33.684-33.646 56.037l-1.785 10.746c-.319 1.928-2.041 3.283-3.98 3.153l-15.916-1.054c-2.035-.135-4.182-.191-6.557-.175-4.142.03-7.475 3.413-7.445 7.555.03 4.124 3.382 7.445 7.499 7.445h.057c2.001-.016 3.79.032 5.455.142l15.914 1.054c1.546.104 3.056 0 4.519-.254l1.927 2.823c23.078 33.819 59.589 56.336 100.171 61.774l18.466 2.474c3.396 27.384 13.449 53.413 29.586 76.233l15.736 22.255c1.461 2.067 3.777 3.171 6.13 3.171 1.497 0 3.009-.447 4.324-1.377 3.382-2.392 4.185-7.072 1.793-10.454l-15.736-22.255c-16.922-23.931-26.501-51.734-27.934-80.836 17.788-21.675 46.891-30.65 73.82-22.739-.188 1.293-.29 2.613-.29 3.958 0 15.112 12.294 27.406 27.406 27.406s27.406-12.294 27.406-27.406c0-15.111-12.294-27.405-27.406-27.405-8.354 0-15.842 3.762-20.873 9.675-28.025-8.992-58.249-2.729-80.259 15.54v-20.313l16.172-20.114c12.966-16.127 31.699-25.994 52.101-27.645 3.195 8.971 11.77 15.412 21.824 15.412 12.771 0 23.161-10.39 23.161-23.161s-10.39-23.161-23.161-23.161c-10.23 0-18.927 6.669-21.985 15.886-24.911 1.72-47.834 13.625-63.631 33.271l-4.481 5.574v-70.293c7.806-.216 14.966-4.198 19.251-10.768l13.844-21.228c6.713-10.294 17.48-17.549 29.541-19.903l23.982-4.687c4.065-.794 6.717-4.733 5.923-8.799-.794-4.064-4.735-6.721-8.799-5.922l-23.981 4.685c-10.1 1.973-19.513 6.537-27.327 13.065l4.994-12.667c6.892-17.479 18.745-32.305 34.276-42.877 15.532-10.571 33.673-16.159 52.461-16.159h16.298c4.142 0 7.5-3.357 7.5-7.5s-3.358-7.5-7.5-7.5h-16.298c-21.811 0-42.87 6.487-60.901 18.76-18.031 12.271-31.79 29.483-39.791 49.774l-2.232 5.661c3.441-37.52 18.358-73.316 42.874-102.242l4.122-4.864c2.678-3.16 2.287-7.893-.873-10.57-3.159-2.677-7.892-2.288-10.57.873l-4.122 4.863c-30.439 35.915-47.203 81.623-47.203 128.703v31.807c-1.622 1.592-3.803 2.515-6.133 2.515h-13.672c-2.33 0-4.512-.922-6.133-2.515v-31.807c0-47.08-16.764-92.788-47.203-128.702l-4.122-4.864c-2.678-3.16-7.411-3.551-10.57-.873-3.16 2.678-3.551 7.41-.873 10.57l4.122 4.865c24.515 28.925 39.432 64.721 42.874 102.241l-2.232-5.661c-8-20.291-21.76-37.503-39.791-49.774-18.031-12.272-39.09-18.76-60.901-18.76h-16.298c-4.142 0-7.5 3.357-7.5 7.5s3.358 7.5 7.5 7.5h16.298c18.788 0 36.929 5.588 52.461 16.159 15.532 10.572 27.384 25.398 34.276 42.877l4.994 12.667c-7.815-6.528-17.227-11.092-27.327-13.064l-93.93-18.353c-25.32-4.946-35.56-25.488-36.635-41.575-1.075-16.088 6.339-37.81 30.775-46.083l38.328-12.977c13.088-4.431 23.779-13.636 30.104-25.921l7.752-15.057c7.954-15.447 22.75-18.697 33.942-16.578 11.194 2.113 23.788 10.53 25.561 27.814l6.215 60.599c.892 8.695 6.102 16.202 13.938 20.079 7.02 3.473 15.4 3.472 22.42-.001 7.835-3.876 13.045-11.383 13.937-20.079l6.215-60.598c1.773-17.284 14.366-25.701 25.561-27.814 11.194-2.116 25.989 1.132 33.942 16.577l7.752 15.059c6.325 12.284 17.016 21.489 30.104 25.92l38.329 12.977c24.436 8.273 31.85 29.995 30.775 46.083-1.076 16.087-11.315 36.629-36.635 41.576l-38.536 7.529c-4.065.794-6.717 4.733-5.923 8.799s4.739 6.722 8.799 5.922l38.536-7.529c27.716-5.414 46.842-27.12 48.726-55.297s-14.18-52.239-40.929-61.295zm-63.228 291.169c6.84 0 12.406 5.565 12.406 12.405 0 6.841-5.565 12.406-12.406 12.406s-12.406-5.565-12.406-12.406c0-6.839 5.565-12.405 12.406-12.405zm-11.036-73.768c4.5 0 8.161 3.661 8.161 8.161s-3.661 8.161-8.161 8.161-8.162-3.661-8.162-8.161 3.662-8.161 8.162-8.161z"/></g></svg>