<svg id="Capa_1" enable-background="new 0 0 512.389 512.389" height="512" viewBox="0 0 512.389 512.389" width="512" xmlns="http://www.w3.org/2000/svg"><g><g><path d="m316.334 163.016-7.689 31.873c-9.774 40.516-15.62 81.88-17.458 123.518l-3.631 82.296c-3.164 71.703-73.583 120.815-141.963 99.008-68.38-21.807-97.365-102.62-58.432-162.916l44.684-69.204c22.608-35.014 41.788-72.126 57.276-110.82l12.183-30.439 15.221-33.019 58.565-18.373s49.379 52.441 48.613 53.972c-.766 1.53-7.369 34.104-7.369 34.104z" fill="#ab8cc5"/><path d="m230.964 88.783-14.44 4.53-15.221 33.019-12.183 30.438c-15.487 38.694-34.668 75.806-57.276 110.82l-44.684 69.204c-38.932 60.296-9.948 141.109 58.433 162.916 23.96 7.641 48.16 6.578 69.64-1.116-7.434-.752-14.93-2.301-22.406-4.686-68.38-21.807-97.365-102.62-58.432-162.916l44.684-69.204c18.406-28.506 34.539-58.404 48.258-89.415 2.435-5.505 9.38-7.434 14.204-3.833 4.733 3.533 10.601 5.592 16.918 5.592 7.566 0 14.683-2.985 20.027-8.403 3.783-3.835 9.953-3.614 13.584.365l9.491 10.401c2.767 3.033 6.141 5.387 9.843 6.957l4.931-20.438s6.602-32.574 7.368-34.105c.193-.385-2.801-4.005-7.371-9.188z" fill="#9b77ba"/><g><path d="m281.125 12.48-1.112 13.271-10.93 34.273-9.076 1.248c-27.297 3.754-51.032 20.619-63.559 45.16l-4.173 8.175c-3.14 6.152 2.279 13.188 9.028 11.723l31.371-6.808c6.854-1.487 13.559 3.062 14.709 9.981l2.956 17.777c1.094 6.582 9.181 9.161 13.884 4.428l12.702-12.783c4.944-4.975 13.044-4.803 17.772.378l21.638 23.713c4.655 5.102 13.147 2.502 14.148-4.332l1.331-9.082c3.994-27.262-5.595-54.755-25.679-73.619l-6.678-6.272 10.93-34.273 6.777-11.465c1.774-3.002.299-6.874-3.024-7.934l-25.956-8.278c-3.323-1.059-6.768 1.244-7.059 4.719z" fill="#a6d786"/><path d="m162.375 363.501c0 53.45 28.073 100.46 70.242 127.082 31.01-17.701 53.195-50.355 54.939-89.88l3.631-82.296c1.556-35.269 6-70.34 13.26-104.867-79.053 4.227-142.072 69.871-142.072 149.961z" fill="#9b77ba"/><circle cx="312.558" cy="363.501" fill="#bda4d1" r="130.182"/><path d="m233.412 367.382c0-66.556 49.948-121.439 114.404-129.228-11.214-3.148-23.038-4.835-35.258-4.835-71.898 0-130.182 58.285-130.182 130.182 0 71.898 58.285 130.182 130.182 130.182 5.342 0 10.594-.32 15.767-.945-54.767-15.374-94.913-65.678-94.913-125.356z" fill="#ab8cc5"/><ellipse cx="312.558" cy="363.501" fill="#f9f7f7" rx="98.182" ry="98.182" transform="matrix(.707 -.707 .707 .707 -165.488 327.479)"/><path d="m273.485 273.426c-34.754 15.132-59.109 49.813-59.109 90.075 0 34.915 18.322 65.626 45.853 83.038-16.82-21.935-26.817-49.378-26.817-79.157 0-36.928 15.374-70.265 40.073-93.956z" fill="#f2eae7"/></g></g><g><path d="m219.302 488.906c-22.496 9.875-47.865 11.176-71.43 3.659-30.349-9.679-53.923-32.426-64.677-62.411-10.755-29.984-7.012-62.53 10.267-89.291l44.684-69.204c9.748-15.098 19.006-30.83 27.516-46.76 1.952-3.654.572-8.198-3.082-10.149-3.653-1.953-8.197-.572-10.149 3.081-8.316 15.567-17.362 30.94-26.887 45.691l-44.684 69.204c-19.834 30.718-24.129 68.074-11.785 102.492 12.345 34.417 39.404 60.528 74.24 71.638 11.592 3.696 23.562 5.534 35.496 5.533 15.911 0 31.753-3.267 46.52-9.749 3.792-1.664 5.518-6.089 3.853-9.882s-6.087-5.518-9.882-3.852z"/><path d="m170.211 199.583c1.035.489 2.125.721 3.199.721 2.811 0 5.506-1.588 6.786-4.299 5.643-11.945 10.988-24.208 15.887-36.447l10.703-26.742 27.478-5.963c1.29-.28 2.601-.026 3.692.715 1.092.741 1.812 1.865 2.028 3.167l2.956 17.776c.97 5.835 5.074 10.576 10.709 12.373 5.634 1.797 11.725.308 15.894-3.889l12.702-12.784c.929-.936 2.177-1.444 3.487-1.407 1.318.028 2.535.58 3.424 1.555l18.953 20.771-6.754 28c-.694 2.879-1.364 5.764-2.02 8.65-.916 4.039 1.615 8.057 5.655 8.974.559.126 1.116.188 1.666.188 3.425 0 6.518-2.361 7.308-5.843.64-2.82 1.294-5.639 1.973-8.451l5.665-23.484c.239.011.477.037.718.037 1.546 0 3.113-.23 4.655-.702 5.854-1.793 10.041-6.669 10.929-12.726l1.331-9.083c4.347-29.67-6.107-59.642-27.965-80.173l-3.229-3.033 9.234-28.958 6.345-10.735c2.015-3.408 2.361-7.483.952-11.183-1.41-3.699-4.382-6.51-8.153-7.713l-25.955-8.277c-3.771-1.201-7.822-.631-11.113 1.569-3.291 2.199-5.368 5.724-5.698 9.668l-1.042 12.427-9.235 28.958-4.39.604c-29.709 4.085-55.584 22.471-69.217 49.18l-4.173 8.176c-2.783 5.453-2.192 11.854 1.544 16.704 1.138 1.478 2.491 2.705 3.99 3.667l-8.971 22.414c-4.787 11.96-10.01 23.942-15.524 35.615-1.771 3.744-.169 8.215 3.576 9.983zm28.744-81.565 4.173-8.176c11.404-22.343 33.049-37.722 57.901-41.14l9.076-1.249c2.863-.394 5.245-2.397 6.123-5.151l10.93-34.272c.171-.536.281-1.091.328-1.652l.896-10.68 21.002 6.697-5.453 9.227c-.287.485-.519 1.001-.689 1.538l-10.93 34.272c-.878 2.753-.096 5.767 2.011 7.745l6.677 6.272c18.284 17.175 27.029 42.245 23.393 67.064l-1.331 9.083c-.023.161-.062.43-.479.558-.414.126-.599-.074-.709-.194-.004-.004-.007-.008-.011-.012l-21.627-23.701c-3.63-3.978-8.801-6.325-14.185-6.439-.139-.003-.276-.005-.415-.005-5.239 0-10.333 2.113-14.032 5.836l-12.702 12.784c-.103.104-.295.3-.696.17-.401-.128-.446-.397-.47-.543l-2.956-17.776c-.883-5.312-3.946-10.094-8.403-13.118-4.456-3.024-10.031-4.105-15.295-2.961l-31.325 6.798c-.02.004-.041.008-.061.012-.159.034-.417.081-.675-.254-.264-.345-.14-.589-.066-.733z"/><path d="m312.558 225.819c-75.918 0-137.682 61.765-137.682 137.683 0 13.85 2.055 27.529 6.107 40.659 1.222 3.959 5.419 6.174 9.378 4.954 3.958-1.222 6.176-5.42 4.955-9.378-3.61-11.695-5.44-23.887-5.44-36.235 0-67.647 55.035-122.683 122.682-122.683 67.646 0 122.682 55.035 122.682 122.683 0 67.646-55.035 122.682-122.682 122.682-43.122 0-82.297-22.005-104.794-58.862-2.158-3.535-6.773-4.654-10.309-2.494-3.536 2.157-4.652 6.773-2.495 10.309 12.078 19.787 29.084 36.34 49.182 47.87 20.728 11.892 44.386 18.178 68.416 18.178 75.918 0 137.682-61.764 137.682-137.682s-61.764-137.684-137.682-137.684z"/><path d="m400.674 407.418c3.837 1.566 8.212-.277 9.777-4.111 5.168-12.669 7.789-26.062 7.789-39.806 0-58.273-47.409-105.682-105.683-105.682-58.273 0-105.682 47.408-105.682 105.682s47.409 105.682 105.682 105.682c30.555 0 59.62-13.267 79.742-36.397 2.719-3.125 2.39-7.862-.735-10.581s-7.862-2.389-10.581.735c-17.273 19.855-42.213 31.243-68.426 31.243-50.002 0-90.682-40.68-90.682-90.682s40.68-90.682 90.682-90.682c50.003 0 90.683 40.68 90.683 90.682 0 11.792-2.247 23.278-6.678 34.14-1.564 3.835.277 8.213 4.112 9.777z"/><path d="m366.652 371.001c4.143 0 7.5-3.357 7.5-7.5s-3.357-7.5-7.5-7.5h-11.643c-1.112-6.312-3.598-12.152-7.143-17.203l8.245-8.244c2.93-2.929 2.93-7.678.001-10.606-2.93-2.93-7.679-2.929-10.606-.001l-8.246 8.246c-5.051-3.544-10.891-6.03-17.202-7.143v-11.644c0-4.143-3.357-7.5-7.5-7.5s-7.5 3.357-7.5 7.5v11.644c-6.311 1.112-12.151 3.598-17.202 7.143l-8.246-8.246c-2.928-2.928-7.677-2.929-10.606.001-2.929 2.929-2.928 7.678 0 10.606l8.245 8.245c-3.545 5.051-6.031 10.891-7.143 17.203h-11.644c-4.142 0-7.5 3.357-7.5 7.5s3.358 7.5 7.5 7.5h11.644c1.112 6.312 3.598 12.151 7.142 17.202l-8.245 8.245c-2.929 2.93-2.929 7.678 0 10.607 1.464 1.464 3.384 2.196 5.303 2.196s3.839-.732 5.304-2.196l8.245-8.245c5.051 3.544 10.891 6.03 17.202 7.142v11.643c0 4.143 3.357 7.5 7.5 7.5s7.5-3.357 7.5-7.5v-11.643c6.311-1.112 12.151-3.598 17.202-7.142l8.245 8.245c1.465 1.464 3.385 2.196 5.304 2.196s3.839-.732 5.304-2.196c2.929-2.93 2.929-7.678 0-10.607l-8.245-8.245c3.544-5.051 6.03-10.891 7.142-17.202h11.643zm-82.213-7.5c0-15.505 12.613-28.118 28.118-28.118s28.118 12.613 28.118 28.118-12.613 28.118-28.118 28.118-28.118-12.613-28.118-28.118z"/></g></g></svg>