<svg id="Capa_1" enable-background="new 0 0 509.741 509.741" height="512" viewBox="0 0 509.741 509.741" width="512" xmlns="http://www.w3.org/2000/svg"><g><g><path d="m423.585 189.949-1.309 3.771c-4.555 13.122-12.876 24.612-23.924 33.033l-12.008 9.153c-14.593 11.124-26.898 24.966-36.236 40.762l-47.806 80.865c-31.301 52.946-73.991 98.265-124.975 132.669l-13.439 9.068c-19.411 13.098-44.433-5.71-37.246-27.997l4.976-15.43c18.877-58.538 50.543-112.143 92.703-156.927l64.391-68.399c12.578-13.361 22.454-29.028 29.083-46.138l5.455-14.079c5.019-12.952 13.742-24.139 25.082-32.162l3.258-2.306 10.46-3.94 41.48 5.736 22.266 43.53z" fill="#a6d786"/><path d="m280.486 108.166-.349 3.976c-1.215 13.837-6.48 27.01-15.137 37.873l-9.41 11.807c-11.437 14.35-19.991 30.776-25.191 48.373l-26.622 90.088c-17.431 58.985-47.768 113.352-88.813 159.16l-10.819 12.074c-15.627 17.44-44.483 5.308-42.953-18.059l1.059-16.177c4.018-61.375 21.643-121.087 51.596-174.808l45.748-82.047c8.936-16.027 14.689-33.63 16.942-51.841l1.854-14.984c1.705-13.786 7.435-26.763 16.473-37.312l2.597-3.031 9.182-6.374 41.626-4.562 32.217 36.779z" fill="#94cf6f"/><g><path d="m263.502 79.714-15.233-17.39-4.774.523-36.851 4.038-9.182 6.374-2.597 3.031c-9.038 10.549-14.768 23.526-16.473 37.312l-1.854 14.984c-2.253 18.211-8.005 35.814-16.941 51.84l-45.749 82.049c-29.954 53.72-47.578 113.432-51.596 174.808l-1.059 16.177c-1.216 18.575 16.766 30.032 32.043 25.197-.952-2.894-1.4-6.082-1.175-9.521l1.059-16.178c4.018-61.375 21.643-121.087 51.596-174.807l45.749-82.048c8.936-16.026 14.689-33.63 16.942-51.84l1.854-14.984c.28-2.26.668-4.497 1.162-6.706 1.649-7.371 9.738-11.323 16.638-8.251 13.954 6.212 29.196 9.536 44.821 9.536 1.776 0 3.576-.044 5.352-.13l.916-.035c.977-3.77 1.646-7.637 1.989-11.55l.349-3.977v-9.062z" fill="#81c758"/><path d="m284.089 22.288-15.251 44.739 16.079 35.666c1.196 2.652-.656 5.676-3.561 5.817l-4.85.235c-29.091 1.41-57.232-10.548-76.408-32.47l-2.637-3.015c-1.907-2.18-1.033-5.594 1.686-6.59l36.781-13.479 21.299-42.196c1.509-2.989 5.073-4.301 8.16-3.003l15.14 6.365c3.086 1.297 4.642 4.762 3.562 7.931z" fill="#a6d786"/><path d="m403.531 137.63-6.714-.929-34.766-4.808-10.46 3.939-3.258 2.306c-11.339 8.024-20.063 19.211-25.082 32.164l-5.455 14.079c-6.63 17.11-16.505 32.777-29.083 46.137l-64.391 68.399c-42.16 44.784-73.826 98.389-92.703 156.927l-4.976 15.43c-6.737 20.891 14.827 38.725 33.541 30.089-3.498-5.65-4.774-12.805-2.336-20.366l4.976-15.43c18.877-58.538 50.543-112.142 92.703-156.926l64.391-68.4c12.578-13.361 22.453-29.027 29.083-46.137l5.455-14.079c.011-.03.023-.059.034-.089 1.614-4.149 6.929-5.408 10.259-2.454 14.352 12.734 31.951 21.615 51.394 25.526l1.936.39c1.63-3.105 3.037-6.338 4.197-9.679l1.309-3.771 2.212-8.789z" fill="#94cf6f"/><path d="m447.593 106.324-25.726 39.653 6.872 38.515c.511 2.864-2.023 5.343-4.875 4.769l-4.761-.958c-28.553-5.744-52.916-24.22-66.151-50.165l-1.82-3.568c-1.316-2.58.366-5.677 3.246-5.978l38.96-4.078 30.969-35.709c2.194-2.529 5.971-2.93 8.646-.917l13.125 9.874c2.675 2.013 3.337 5.753 1.515 8.562z" fill="#b8de9c"/></g></g><g><path d="m237.591 212.321c4.949-16.748 12.979-32.166 23.863-45.824l9.41-11.807c9.326-11.703 15.043-25.702 16.603-40.559 1.437-.931 2.681-2.165 3.603-3.67 2.011-3.283 2.268-7.339.685-10.85l-14.861-32.967 14.294-41.937c2.343-6.87-1.063-14.454-7.753-17.266l-15.143-6.367c-6.688-2.809-14.491.062-17.761 6.539l-19.965 39.553-34 12.461c-3.598 1.318-6.312 4.321-7.263 8.033-.335 1.308-.423 2.643-.302 3.951-9.929 11.667-16.173 25.861-18.055 41.07l-1.854 14.983c-2.143 17.331-7.543 33.854-16.049 49.109l-45.748 82.047c-10.246 18.374-19.194 37.706-26.595 57.458-1.453 3.879.514 8.202 4.392 9.655.867.324 1.757.479 2.631.479 3.037 0 5.896-1.858 7.024-4.87 7.138-19.052 15.768-37.695 25.649-55.416l45.748-82.048c9.452-16.953 15.452-35.314 17.834-54.572l1.854-14.983c1.341-10.841 5.423-21.044 11.873-29.77 19.451 20.284 45.981 31.606 74.076 31.605.087 0 .175-.003.262-.003-1.76 10.591-6.171 20.529-12.91 28.984l-9.41 11.808c-12.096 15.178-21.018 32.311-26.518 50.923l-26.622 90.087c-17.007 57.549-47.163 111.591-87.207 156.282l-10.819 12.074c-6.013 6.71-13.972 6.652-19.418 4.364-5.444-2.29-11.054-7.938-10.465-16.928l1.06-16.178c1.896-28.963 6.929-57.828 14.962-85.795 1.143-3.981-1.157-8.136-5.139-9.279-3.978-1.139-8.135 1.158-9.279 5.139-8.327 28.995-13.547 58.925-15.513 88.955l-1.06 16.178c-.908 13.886 6.793 26.342 19.62 31.735 4.134 1.737 8.416 2.582 12.637 2.582 8.878-.001 17.472-3.739 23.767-10.764l10.819-12.074c41.52-46.338 72.786-102.371 90.42-162.041zm-31.246-140.301 32.163-11.787c1.786-.654 3.257-1.964 4.114-3.662l20.825-41.259 13.203 5.551-14.91 43.745c-.614 1.801-.521 3.768.262 5.502l14.042 31.149c-26.629 1.262-51.971-9.383-69.699-29.239z"/><path d="m450.587 91.769-13.123-9.872c-5.799-4.367-14.067-3.488-18.822 1.995l-29.029 33.472-36.014 3.771c-3.812.397-7.179 2.646-9.008 6.014-.645 1.187-1.056 2.46-1.259 3.759-12.48 8.884-22.003 21.121-27.546 35.408l-5.461 14.076c-6.316 16.283-15.592 30.984-27.568 43.696l-46.855 49.73c-2.84 3.016-2.699 7.762.315 10.603 1.449 1.364 3.297 2.041 5.143 2.041 1.994 0 3.984-.791 5.46-2.356l46.855-49.731c13.309-14.126 23.615-30.463 30.635-48.557l5.461-14.077c3.951-10.184 10.404-19.079 18.792-25.964 13.945 24.5 37.005 41.989 64.357 48.812-4.295 9.841-11.004 18.401-19.607 24.955l-12.011 9.149c-14.761 11.241-27.175 24.974-36.899 40.814-2.167 3.53-1.062 8.148 2.468 10.315 1.225.752 2.578 1.109 3.917 1.109 2.521 0 4.983-1.271 6.398-3.577 8.752-14.257 19.923-26.614 33.205-36.729l12.012-9.149c11.902-9.066 20.866-21.24 26.01-35.261 1.623-.551 3.132-1.45 4.396-2.687 2.752-2.692 3.991-6.562 3.315-10.353l-6.353-35.601 24.115-37.169c3.95-6.087 2.5-14.274-3.299-18.636zm-35.012 50.126c-1.035 1.596-1.426 3.526-1.092 5.399l6.002 33.638c-26.127-5.286-48.1-21.802-60.435-45.392l34.068-3.566c1.892-.198 3.638-1.107 4.885-2.545l30.28-34.915 11.445 8.609z"/><path d="m338.311 294.472c-3.562-2.11-8.165-.93-10.273 2.635l-32.739 55.324c-30.559 51.645-73.011 96.673-122.766 130.219l-13.442 9.063c-5.147 3.473-10.004 3.34-13.171 2.617-4.685-1.066-8.937-4.188-11.374-8.352-2.093-3.573-6.686-4.777-10.262-2.682-3.574 2.093-4.775 6.687-2.682 10.262 4.559 7.785 12.208 13.397 20.986 15.397 2.31.525 4.639.785 6.956.785 6.274 0 12.463-1.904 17.931-5.591l13.442-9.063c51.589-34.782 95.605-81.471 127.29-135.018l32.738-55.324c2.111-3.563.931-8.163-2.634-10.272z"/></g></g></svg>