<svg id="Capa_1" enable-background="new 0 0 511.687 511.687" height="512" viewBox="0 0 511.687 511.687" width="512" xmlns="http://www.w3.org/2000/svg"><g><g><path d="m80.892 317.124c34.065 23.656 79.072 24.293 113.794 1.612 34.941-22.824 42.839-70.674 17.088-103.517-5.21-6.644-5.21-15.987 0-22.631 25.751-32.843 17.853-80.693-17.088-103.517-34.722-22.681-79.728-22.044-113.794 1.612-78.959 54.831-78.959 171.61 0 226.441z" fill="#a6d786"/><path d="m123.699 302.651c-78.959-54.831-78.959-171.61 0-226.441 1.604-1.114 3.234-2.176 4.885-3.188-16.788 1.72-33.225 7.615-47.692 17.661-78.959 54.831-78.959 171.61 0 226.441 33.254 23.093 76.928 24.255 111.289 3.197-23.712 2.427-48.061-3.489-68.482-17.67z" fill="#94cf6f"/><path d="m194.685 89.071c-18.298-11.953-39.465-17.429-60.37-16.474-.486 7.129-.132 14.37 1.088 21.571 4.971 29.343 26.96 52.448 56.02 58.864 4.049.895 8.19 1.348 12.307 1.348 8.213 0 16.091-1.768 23.209-4.978.211-23.356-11.032-46.468-32.254-60.331z" fill="#94cf6f"/><g><path d="m238.882 8.823c21.087 4.034 37.622 20.451 41.806 41.508 4.211 21.19-10.628 41.44-32.102 43.809-4.344.479-7.8 3.863-8.371 8.196-2.823 21.419-23.383 35.826-44.479 31.168-20.964-4.629-37.027-21.508-40.614-42.675-8.312-49.064 34.884-91.356 83.76-82.006z" fill="#b8de9c"/><g><path d="m218.155 123.192c-20.964-4.629-37.027-21.508-40.614-42.676-4.921-29.046 8.201-55.724 29.876-70.714-34.178 8.943-58.747 42.946-52.295 81.025 3.586 21.167 19.65 38.046 40.614 42.675 12.648 2.793 25.11-1.274 33.665-9.589-3.661.328-7.449.117-11.246-.721z" fill="#a6d786"/></g><path d="m366.032 260.543c-37.556.291-71.537-22.22-85.917-56.914-14.471-34.914 4.062-74.729 40.093-86.136 7.289-2.308 12.061-9.294 11.559-16.923-2.482-37.712 27.863-69.459 65.649-68.681 37.549.773 70.879 24.237 84.27 59.325 31.04 81.328-28.605 168.655-115.654 169.329z" fill="#b8de9c"/><g><path d="m398.828 232.022c-37.556.291-71.537-22.22-85.917-56.915-7.912-19.089-5.933-39.653 3.353-56.228-33.409 12.978-50.08 51.138-36.149 84.749 14.38 34.695 48.361 57.205 85.917 56.915 39.656-.307 73.612-18.582 95.911-46.096-18.232 10.94-39.673 17.393-63.115 17.575z" fill="#a6d786"/></g></g></g><g><path d="m29.581 193.517c3.074-39.04 23.335-74.277 55.588-96.675 11.905-8.267 25.792-13.746 40.16-15.845 4.099-.599 6.936-4.406 6.337-8.505s-4.407-6.94-8.505-6.337c-16.65 2.432-32.746 8.782-46.548 18.366-35.965 24.975-58.558 64.272-61.986 107.817-3.447 43.782 12.571 86.138 43.945 116.205 1.454 1.393 3.322 2.085 5.188 2.085 1.973 0 3.943-.773 5.416-2.311 2.866-2.991 2.765-7.738-.226-10.604-28.111-26.94-42.461-64.918-39.369-104.196z"/><path d="m488.693 88.538c-3.088-8.091-7.22-15.752-12.281-22.77-2.423-3.36-7.111-4.12-10.47-1.696-3.359 2.423-4.119 7.11-1.696 10.47 4.3 5.962 7.81 12.47 10.434 19.344 13.906 36.437 9.266 75.804-12.73 108.008s-56.978 50.848-95.976 51.149c-34.671.23-65.655-20.256-78.931-52.287-6.184-14.92-5.836-31.201.979-45.845 6.816-14.645 19.05-25.395 34.448-30.27 2.744-.868 5.234-2.195 7.414-3.867l21.384 14.605.845 58.403c.059 4.104 3.405 7.392 7.497 7.392.037 0 .074 0 .11-.001 4.142-.06 7.451-3.466 7.391-7.607l-.692-47.838 28.257 19.3.482 33.335c.059 4.104 3.405 7.392 7.497 7.392.037 0 .074 0 .11-.001 4.142-.06 7.451-3.466 7.391-7.607l-.329-22.77 11.832 8.081c1.294.884 2.766 1.308 4.223 1.308 2.395 0 4.748-1.145 6.2-3.271 2.336-3.421 1.457-8.088-1.963-10.424l-11.832-8.082 21.33-7.977c3.88-1.45 5.849-5.771 4.398-9.651s-5.773-5.85-9.652-4.397l-31.226 11.678-28.258-19.3 44.812-16.759c3.88-1.45 5.849-5.771 4.398-9.651s-5.771-5.852-9.652-4.397l-54.709 20.459-21.384-14.605c.764-2.638 1.094-5.44.906-8.312-1.061-16.117 4.501-31.424 15.662-43.1s26.216-17.896 42.349-17.591c16.417.338 32.287 5.406 45.893 14.659 3.424 2.328 8.09 1.44 10.419-1.984 2.33-3.426 1.441-8.09-1.984-10.42-16.012-10.889-34.692-16.854-54.019-17.251-20.081-.442-39.604 7.686-53.5 22.222-13.895 14.537-21.107 34.383-19.787 54.449.276 4.196-2.33 8.012-6.339 9.28-19.172 6.07-35.035 20.009-43.521 38.24-.925 1.988-1.737 4.016-2.471 6.065v-3.03c0-18.27-5.324-36.202-15.115-51.507 9.349-2.706 17.662-8.438 23.483-16.382 7.325-9.997 10.141-22.702 7.725-34.857-4.803-24.171-23.547-42.781-47.753-47.412-25.745-4.925-51.252 2.768-69.982 21.104-18.729 18.338-26.96 43.676-22.582 69.52 4.117 24.299 22.327 43.433 46.391 48.746 3.15.696 6.344 1.038 9.525 1.038 9.042 0 17.981-2.764 25.488-8.024 7.983-5.594 13.85-13.677 16.784-22.85 7.162 12.267 11.035 26.324 11.035 40.625v66.618c-9.75-11.379-23.516-19.207-39.085-21.271 7.973-10.252 13.322-22.406 15.468-35.173.687-4.085-2.067-7.953-6.152-8.641-4.083-.681-7.953 2.068-8.64 6.152-1.75 10.409-6.132 20.319-12.672 28.658-2.025 2.583-3.472 5.452-4.383 8.443h-29.586l-37.38-53.062c-2.385-3.386-7.064-4.196-10.451-1.812-3.386 2.386-4.198 7.064-1.812 10.451l31.294 44.424h-39.7l-21.435-30.429c-2.385-3.386-7.064-4.197-10.451-1.812-3.386 2.386-4.198 7.064-1.812 10.451l15.35 21.79h-17.33c-4.142 0-7.5 3.357-7.5 7.5s3.358 7.5 7.5 7.5h17.33l-15.35 21.791c-2.386 3.387-1.574 8.065 1.812 10.451 1.313.925 2.82 1.369 4.313 1.369 2.357 0 4.677-1.108 6.138-3.182l21.435-30.43h39.7l-31.294 44.424c-2.386 3.387-1.574 8.065 1.812 10.451 1.313.925 2.82 1.369 4.313 1.369 2.357 0 4.677-1.108 6.138-3.182l37.38-53.063h29.586c.911 2.992 2.358 5.861 4.383 8.444 11.142 14.21 15.659 31.849 12.718 49.666-2.941 17.816-12.887 33.067-28.005 42.943-29.306 19.144-66.543 20.523-97.179 3.605-3.627-2.004-8.189-.687-10.191 2.939s-.687 8.188 2.939 10.191c16.53 9.129 34.711 13.66 52.858 13.66 20.835 0 41.623-5.979 59.776-17.838 18.409-12.025 31.021-31.364 34.602-53.06 3.464-20.98-1.802-42.574-14.421-59.625 21.636 4.345 37.984 23.491 37.984 46.386v245.47c0 4.143 3.358 7.5 7.5 7.5s7.5-3.357 7.5-7.5v-300.899c.387 1.079.794 2.152 1.234 3.215 6.177 14.903 15.618 27.68 27.289 37.675v260.012c0 4.143 3.358 7.5 7.5 7.5s7.5-3.357 7.5-7.5v-249.404c14.809 8.526 31.883 13.264 49.826 13.263.261 0 .527-.001.789-.003 22.368-.174 43.47-5.636 62.719-16.235 18.049-9.938 33.792-24.272 45.526-41.454 11.735-17.181 19.36-37.06 22.052-57.487 2.872-21.787.283-43.431-7.693-64.328zm-255.913 12.818c-1.087 8.25-5.439 15.425-12.255 20.2s-15.045 6.417-23.171 4.624c-18.071-3.99-31.745-18.358-34.836-36.605-3.546-20.928 3.119-41.446 18.286-56.295 12.161-11.906 27.848-18.271 44.336-18.271 4.075 0 8.203.39 12.334 1.18 18.176 3.478 32.252 17.453 35.859 35.604 1.622 8.162-.194 16.354-5.113 23.067s-12.184 10.913-20.456 11.825c-.304.034-.6.089-.899.138l-23.287-28.768c-2.606-3.22-7.33-3.716-10.548-1.11-3.22 2.605-3.717 7.328-1.111 10.548l22.726 28.074c-.941 1.764-1.592 3.711-1.865 5.789z"/></g></g></svg>