<svg id="Capa_1" enable-background="new 0 0 513.642 513.642" height="512" viewBox="0 0 513.642 513.642" width="512" xmlns="http://www.w3.org/2000/svg"><g><g><path d="m372.419 93.047c3.704 10.827 4.078 21.357.6 31.542-1.286 3.764-5.357 5.809-9.155 4.629l-26.174-8.131c-35.061-10.892-53.864-48.913-41.24-83.388l9.28-25.343c1.42-3.878 5.763-5.86 9.6-4.333 9.178 3.651 17.387 9.888 24.483 19.095 14.581-2.068 32.147 1.614 51.46 8.661 4.522 1.65 6.994 6.546 5.603 11.154-5.478 18.153-13.113 34.062-24.457 46.114z" fill="#b8de9c"/><path d="m156.848 147.78c1.336 10.25 5.25 18.925 12.144 25.778 2.548 2.533 6.663 2.558 9.266.082l17.936-17.064c24.026-22.858 24.026-61.172 0-84.029l-17.661-16.803c-2.703-2.571-7.013-2.437-9.508.336-5.969 6.631-10.118 14.968-12.177 25.264-12.634 4.164-25.382 14.179-38.197 27.618-3.001 3.147-3.042 8.1-.07 11.275 11.704 12.504 24.256 22.328 38.267 27.543z" fill="#b8de9c"/><g><path d="m255.155 461.183c-106.873 0-165.436-124.471-97.304-206.81l10.762-13.007c44.923-54.29 128.16-54.29 173.083 0l10.762 13.007c68.133 82.339 9.57 206.81-97.303 206.81z" fill="#f6e2c4"/><path d="m210.637 246.397 10.762-13.007c12.25-14.804 27.347-25.571 43.741-32.302-35.26-3.119-71.728 10.307-96.527 40.277l-10.762 13.006c-68.132 82.339-9.569 206.81 97.304 206.81h.001c16.392 0 31.63-2.916 45.466-8.171-102.19-5.522-156.545-126.173-89.985-206.613z" fill="#f7d8a4"/></g></g><g><path d="m337.23 421.02c-22.143 21.367-50.523 32.662-82.075 32.662-35.772 0-67.993-15.06-90.166-41.244h49.225c4.142 0 7.5-3.357 7.5-7.5s-3.358-7.5-7.5-7.5h-60.07c-1.33-2.171-2.607-4.39-3.817-6.669-9.896-18.637-14.783-39.441-14.134-60.167.096-3.053.326-6.094.664-9.119h96.495c4.142 0 7.5-3.357 7.5-7.5s-3.358-7.5-7.5-7.5h-93.814c3.296-13.259 8.946-25.958 16.769-37.527 2.32-3.432 1.419-8.094-2.012-10.414-3.433-2.321-8.095-1.42-10.414 2.012-14.064 20.8-21.906 44.859-22.68 69.579-.73 23.332 4.76 46.732 15.879 67.671 14.609 27.513 37.129 48.143 64.133 59.858v8.379c0 10.279-2.676 20.441-7.739 29.388l-3.972 7.02c-2.04 3.604-.771 8.181 2.833 10.221 1.167.66 2.436.974 3.687.974 2.614 0 5.155-1.369 6.534-3.808l3.972-7.019c6.335-11.195 9.684-23.912 9.684-36.775v-2.94c4.718 1.396 9.541 2.54 14.456 3.417v39.624c0 4.143 3.358 7.5 7.5 7.5s7.5-3.357 7.5-7.5v-37.777c3.135.21 6.299.318 9.487.318 3.182 0 6.346-.111 9.487-.326v37.785c0 4.143 3.358 7.5 7.5 7.5s7.5-3.357 7.5-7.5v-39.65c4.901-.886 9.726-2.036 14.456-3.446v2.996c0 12.864 3.349 25.581 9.684 36.774l3.972 7.02c1.38 2.438 3.919 3.808 6.534 3.808 1.251 0 2.52-.313 3.687-.974 3.605-2.04 4.874-6.616 2.833-10.221l-3.972-7.021c-5.063-8.945-7.739-19.106-7.739-29.387v-8.474c14.188-6.179 27.235-14.836 38.547-25.753 2.98-2.876 3.065-7.624.189-10.604-2.876-2.985-7.624-3.07-10.603-.191z"/><path d="m393.845 28.733c-20.242-7.386-36.916-10.506-50.783-9.5-7.168-8.328-15.548-14.435-24.959-18.179-3.737-1.486-7.825-1.398-11.509.248-3.649 1.633-6.531 4.722-7.906 8.475l-6.641 18.135c-1.424 3.89.574 8.197 4.463 9.622 3.888 1.423 8.198-.574 9.622-4.464l6.566-18.022c8.131 3.266 15.058 8.713 21.174 16.648 1.648 2.139 4.322 3.229 6.994 2.848 12.187-1.731 27.831.98 47.836 8.281.797.291 1.234 1.144.993 1.94-5.673 18.801-13.111 32.913-22.738 43.142-1.906 2.025-2.535 4.938-1.635 7.568 3.252 9.506 3.465 18.189.648 26.543l-26.056-8.094c-11.061-3.437-20.514-10.104-27.441-18.776.853-.577 1.717-1.141 2.603-1.678l46.139-27.977c3.542-2.147 4.672-6.76 2.524-10.302-2.147-3.541-6.758-4.672-10.302-2.524l-46.139 27.977c-.871.528-1.726 1.078-2.573 1.638-2.72-6.261-4.345-13.065-4.643-20.144-.174-4.14-3.673-7.36-7.809-7.178-4.138.174-7.352 3.67-7.177 7.809.439 10.408 3.131 20.354 7.652 29.289-14.657 14.602-23.29 34.73-23.29 55.785v46.16c-4.314-.515-8.676-.799-13.073-.844-.408-.004-.816-.006-1.223-.006-4.815 0-9.591.297-14.312.862v-39.838c0-15.529-7.556-29.323-19.18-37.911.014-.568.042-1.133.042-1.704 0-18.113-7.227-34.964-20.35-47.448l-17.662-16.803c-2.757-2.624-6.524-4.062-10.324-3.896-3.839.148-7.365 1.8-9.928 4.647-6.125 6.804-10.488 15.086-13.001 24.665-11.629 4.813-23.853 14.033-37.226 28.058-5.748 6.027-5.8 15.505-.118 21.576 12.333 13.176 24.491 22.306 37.04 27.793 2.083 10.201 6.634 18.839 13.56 25.722 2.769 2.753 6.358 4.134 9.954 4.133 3.501 0 7.01-1.31 9.77-3.936l17.936-17.063c8.239-7.838 14.15-17.398 17.412-27.91 4.421 5.503 7.076 12.484 7.076 20.076v42.604c-23.657 5.948-45.133 19.036-61.404 37.911-2.705 3.138-2.354 7.874.784 10.578 3.138 2.706 7.874 2.354 10.578-.783 19.938-23.13 48.81-36.333 79.356-36.333.356 0 .713.002 1.07.005 30.921.312 59.965 14.159 79.684 37.989l7.693 9.297h-52.992c-4.142 0-7.5 3.357-7.5 7.5s3.358 7.5 7.5 7.5h64.372c19.011 29.139 24.057 64.096 14.575 96.815h-89.403c-4.142 0-7.5 3.357-7.5 7.5s3.358 7.5 7.5 7.5h83.931c-2.265 5.152-4.89 10.219-7.923 15.154-2.168 3.529-1.065 8.148 2.464 10.316 1.225.753 2.58 1.111 3.919 1.111 2.52 0 4.981-1.27 6.397-3.574 14.34-23.338 21.292-49.912 20.104-76.849-1.267-28.734-11.924-55.992-30.819-78.827l-10.762-13.007c-16.437-19.864-38.544-33.65-63.016-39.804v-48.938c0-15.971 6.138-31.285 16.676-42.872 8.725 10.74 20.54 18.994 34.33 23.278l26.173 8.131c1.496.465 3.005.687 4.486.687 6.189 0 11.882-3.873 13.992-10.053 3.485-10.201 3.72-20.986.709-32.12 9.818-11.564 17.439-26.599 23.231-45.794 2.538-8.404-1.949-17.35-10.211-20.365zm-202.82 122.41-17.337 16.493c-5.208-5.437-8.287-12.259-9.403-20.826-.359-2.757-2.215-5.089-4.821-6.06-11.781-4.385-23.363-12.771-35.407-25.639-.248-.265-.238-.702.022-.975 13.19-13.832 24.677-22.229 35.117-25.67 2.565-.846 4.478-3.005 5.007-5.652 1.69-8.452 4.897-15.344 9.795-21.033l17.028 16.199c8.709 8.286 14.039 19.069 15.357 30.819-4.027-1.124-8.265-1.738-12.645-1.738h-28.441c-4.142 0-7.5 3.357-7.5 7.5s3.358 7.5 7.5 7.5h28.441c4.25 0 8.305.837 12.021 2.343-1.988 10.157-7.043 19.422-14.734 26.739z"/></g></g></svg>