<svg id="Capa_1" enable-background="new 0 0 513.051 513.051" height="512" viewBox="0 0 513.051 513.051" width="512" xmlns="http://www.w3.org/2000/svg"><g><g><circle cx="180.307" cy="254.244" fill="#c5e97d" r="172.807"/><path d="m69.514 243.608c0-74.385 47.007-137.803 112.93-162.158-.711-.009-1.425-.013-2.137-.013-95.439 0-172.807 77.368-172.807 172.807s77.368 172.808 172.807 172.808c21.053 0 41.218-3.761 59.876-10.655-94.455-1.144-170.669-78.063-170.669-172.789z" fill="#b1e254"/><path d="m285.59 117.201c-63.064 26.088-107.564 88.271-107.564 160.651 0 55.465 26.117 104.956 66.704 136.792 63.525-25.543 108.383-87.736 108.383-160.399.001-55.817-26.459-105.451-67.523-137.044z" fill="#b1e254"/><circle cx="351.789" cy="277.851" fill="#d8efa7" r="153.762"/><path d="m261.032 279.177c0-75.253 54.063-137.87 125.466-151.154-11.155-2.574-22.773-3.934-34.709-3.934-84.92 0-153.762 68.842-153.762 153.762 0 84.921 68.842 153.762 153.762 153.762 9.668 0 19.121-.891 28.294-2.598-68.204-15.736-119.051-76.854-119.051-149.838z" fill="#c5e97d"/><circle cx="351.789" cy="277.851" fill="#eff8db" r="117.934"/><g fill="#e0f3b9"><path d="m308.435 168.142c-43.686 17.274-74.581 59.881-74.581 109.709 0 48.056 28.751 89.407 69.983 107.783-26.507-27.629-42.806-65.147-42.806-106.457.001-43.654 18.188-83.049 47.404-111.035z"/><path d="m366.286 200.267c0 4.893-5.959 14.276-9.861 19.895-1.603 2.308-5.019 2.308-6.622 0-3.902-5.619-9.861-15.002-9.861-19.895 0-7.275 5.897-13.172 13.172-13.172s13.172 5.897 13.172 13.172z"/><path d="m416.901 233.242c-3.46 3.46-14.308 5.881-21.041 7.095-2.766.499-5.181-1.916-4.682-4.682 1.214-6.732 3.635-17.581 7.095-21.041 5.144-5.144 13.484-5.144 18.628 0s5.144 13.484 0 18.628z"/><path d="m429.373 292.349c-4.893 0-14.276-5.959-19.895-9.861-2.308-1.603-2.308-5.019 0-6.622 5.619-3.902 15.002-9.861 19.895-9.861 7.275 0 13.172 5.897 13.172 13.172s-5.897 13.172-13.172 13.172z"/><path d="m396.398 342.963c-3.46-3.46-5.881-14.308-7.095-21.041-.499-2.766 1.916-5.181 4.682-4.682 6.732 1.214 17.581 3.635 21.041 7.095 5.144 5.144 5.144 13.484 0 18.628s-13.484 5.144-18.628 0z"/><path d="m337.291 355.436c0-4.893 5.959-14.276 9.861-19.895 1.603-2.308 5.019-2.308 6.622 0 3.902 5.619 9.861 15.002 9.861 19.895 0 7.275-5.897 13.172-13.172 13.172s-13.172-5.897-13.172-13.172z"/><path d="m286.677 322.46c3.46-3.46 14.308-5.881 21.041-7.095 2.766-.499 5.181 1.916 4.682 4.682-1.214 6.732-3.635 17.581-7.095 21.041-5.144 5.144-13.484 5.144-18.628 0s-5.144-13.484 0-18.628z"/><path d="m274.204 263.354c4.893 0 14.276 5.959 19.895 9.861 2.308 1.603 2.308 5.019 0 6.622-5.619 3.902-15.002 9.861-19.895 9.861-7.275 0-13.172-5.897-13.172-13.172s5.897-13.172 13.172-13.172z"/><path d="m307.179 212.739c3.46 3.46 5.881 14.308 7.095 21.041.499 2.766-1.916 5.181-4.682 4.682-6.732-1.214-17.581-3.635-21.041-7.095-5.144-5.144-5.144-13.484 0-18.628s13.484-5.144 18.628 0z"/></g></g><g><path d="m52.775 145.139c2.031 0 4.056-.82 5.536-2.438 31.258-34.168 75.724-53.764 121.997-53.764 32.782 0 64.468 9.582 91.632 27.709 3.444 2.298 8.103 1.37 10.401-2.075 2.3-3.445 1.37-8.103-2.075-10.401-29.638-19.778-64.203-30.232-99.958-30.232-50.472 0-98.972 21.373-133.064 58.639-2.796 3.057-2.585 7.8.471 10.596 1.438 1.316 3.252 1.966 5.06 1.966z"/><path d="m231.47 411.47c-16.491 5.363-33.705 8.082-51.163 8.082-91.151 0-165.307-74.156-165.307-165.308 0-30.8 8.535-60.857 24.683-86.923 2.182-3.521 1.096-8.145-2.426-10.326-3.521-2.18-8.145-1.094-10.325 2.426-17.619 28.44-26.932 61.23-26.932 94.823 0 99.422 80.885 180.308 180.307 180.308 19.036 0 37.81-2.967 55.801-8.816 3.939-1.281 6.094-5.513 4.813-9.452-1.28-3.939-5.512-6.094-9.451-4.814z"/><path d="m351.789 116.589c-88.921 0-161.263 72.342-161.263 161.263 0 88.92 72.342 161.262 161.263 161.262 88.92 0 161.262-72.342 161.262-161.262 0-88.921-72.342-161.263-161.262-161.263zm0 307.524c-80.649 0-146.263-65.612-146.263-146.262s65.613-146.263 146.263-146.263 146.262 65.613 146.262 146.263-65.613 146.262-146.262 146.262z"/><path d="m351.789 152.417c-69.165 0-125.435 56.27-125.435 125.435 0 69.164 56.27 125.434 125.435 125.434 42.812 0 82.245-21.509 105.481-57.536 2.245-3.481 1.243-8.123-2.237-10.368-3.482-2.244-8.122-1.243-10.368 2.237-20.463 31.727-55.183 50.667-92.876 50.667-60.894 0-110.435-49.54-110.435-110.434s49.541-110.435 110.435-110.435 110.434 49.541 110.434 110.435c0 11.13-1.65 22.114-4.906 32.649-1.223 3.957.994 8.156 4.951 9.38 3.962 1.218 8.158-.994 9.381-4.951 3.698-11.971 5.574-24.445 5.574-37.078 0-69.165-56.27-125.435-125.434-125.435z"/><path d="m353.114 179.595c-11.398 0-20.672 9.273-20.672 20.672 0 3.453 1.161 9.716 11.2 24.171 2.153 3.103 5.694 4.955 9.472 4.955s7.318-1.853 9.471-4.953c10.04-14.457 11.201-20.72 11.201-24.173 0-11.399-9.273-20.672-20.672-20.672zm0 32.02c-4.25-6.656-5.594-10.298-5.672-11.349 0-3.128 2.544-5.672 5.672-5.672 3.115 0 5.651 2.524 5.672 5.635-.094 1.122-1.446 4.768-5.672 11.386z"/><path d="m395.146 247.901c.68 0 1.364-.061 2.045-.184 17.321-3.123 22.57-6.73 25.013-9.172 3.904-3.905 6.055-9.097 6.055-14.618s-2.15-10.713-6.055-14.616c-3.904-3.905-9.096-6.056-14.617-6.056s-10.713 2.15-14.618 6.055c-2.441 2.442-6.049 7.691-9.172 25.013-.671 3.717.523 7.529 3.194 10.2 2.182 2.182 5.125 3.378 8.155 3.378zm8.43-27.983c1.071-1.072 2.496-1.662 4.011-1.662s2.938.59 4.011 1.662c1.071 1.071 1.661 2.495 1.661 4.01 0 1.503-.581 2.916-1.636 3.984-.859.727-4.394 2.349-12.062 4.041 1.702-7.712 3.328-11.237 4.015-12.035z"/><path d="m450.045 279.177c0-11.398-9.273-20.672-20.672-20.672-3.453 0-9.716 1.161-24.171 11.2-3.103 2.153-4.954 5.693-4.955 9.47s1.851 7.318 4.954 9.475c14.459 10.038 20.72 11.199 24.172 11.199 11.398 0 20.672-9.274 20.672-20.672zm-20.672-5.672c3.128 0 5.672 2.544 5.672 5.672 0 3.115-2.524 5.651-5.635 5.672-1.12-.094-4.768-1.446-11.386-5.672 6.656-4.25 10.298-5.594 11.349-5.672z"/><path d="m381.922 323.255c3.126 17.323 6.731 22.571 9.172 25.012 3.905 3.904 9.097 6.055 14.618 6.055s10.713-2.15 14.616-6.055c3.905-3.904 6.056-9.096 6.056-14.617s-2.15-10.713-6.055-14.618c-2.44-2.44-7.688-6.046-25.015-9.172-3.715-.672-7.529.525-10.199 3.196s-3.863 6.483-3.193 10.199zm27.8 6.384c1.072 1.071 1.662 2.496 1.662 4.011s-.59 2.938-1.662 4.011c-1.071 1.071-2.495 1.661-4.01 1.661-1.503 0-2.916-.58-3.984-1.636-.726-.857-2.348-4.392-4.04-12.061 7.711 1.701 11.237 3.326 12.034 4.014z"/><path d="m350.463 326.31c-3.777 0-7.318 1.853-9.471 4.953-10.04 14.457-11.201 20.72-11.201 24.173 0 11.399 9.273 20.673 20.672 20.673s20.672-9.273 20.672-20.673c0-3.453-1.161-9.716-11.2-24.171-2.154-3.103-5.695-4.955-9.472-4.955zm0 34.798c-3.115 0-5.651-2.524-5.672-5.636.094-1.121 1.446-4.768 5.672-11.385 4.25 6.654 5.594 10.297 5.672 11.348 0 3.128-2.544 5.673-5.672 5.673z"/><path d="m295.99 352.437c5.293 0 10.588-2.015 14.618-6.044 2.441-2.442 6.049-7.691 9.172-25.013.67-3.716-.523-7.528-3.192-10.199-2.671-2.671-6.487-3.864-10.203-3.196-17.323 3.127-22.571 6.732-25.012 9.172-8.06 8.061-8.06 21.176 0 29.236 4.03 4.029 9.323 6.044 14.617 6.044zm-4.036-24.647c.858-.727 4.394-2.348 12.062-4.04-1.701 7.711-3.326 11.237-4.014 12.035-2.213 2.21-5.811 2.211-8.021 0-2.204-2.202-2.212-5.781-.027-7.995z"/><path d="m303.33 276.525c0-3.777-1.853-7.318-4.953-9.471-14.457-10.04-20.72-11.201-24.173-11.201-11.398 0-20.672 9.273-20.672 20.672s9.273 20.672 20.672 20.672c3.453 0 9.716-1.161 24.171-11.2 3.103-2.153 4.955-5.694 4.955-9.472zm-29.126 5.672c-3.128 0-5.672-2.544-5.672-5.672 0-3.115 2.524-5.651 5.635-5.672 1.121.094 4.768 1.446 11.385 5.672-6.655 4.25-10.297 5.594-11.348 5.672z"/><path d="m321.655 232.449c-3.123-17.322-6.73-22.571-9.172-25.014-3.905-3.904-9.097-6.055-14.618-6.055s-10.713 2.15-14.616 6.055c-3.905 3.904-6.056 9.096-6.056 14.618 0 5.521 2.15 10.713 6.055 14.617 2.442 2.441 7.691 6.049 25.012 9.172.682.123 1.366.184 2.046.184 3.03 0 5.975-1.197 8.155-3.378 2.671-2.67 3.865-6.483 3.194-10.199zm-27.801-6.386c-1.071-1.071-1.661-2.495-1.661-4.01 0-1.516.59-2.939 1.662-4.012 1.071-1.071 2.495-1.661 4.01-1.661 1.503 0 2.916.581 3.984 1.636.727.859 2.349 4.394 4.041 12.062-7.71-1.7-11.237-3.327-12.036-4.015z"/><path d="m120.954 176.39c0-4.143-3.358-7.5-7.5-7.5h-13.149c-4.142 0-7.5 3.357-7.5 7.5s3.358 7.5 7.5 7.5h13.149c4.142 0 7.5-3.358 7.5-7.5z"/><path d="m163.283 168.89c-4.142 0-7.5 3.357-7.5 7.5s3.358 7.5 7.5 7.5h6.921c4.142 0 7.5-3.357 7.5-7.5s-3.358-7.5-7.5-7.5z"/><path d="m130.755 206.057c-4.142 0-7.5 3.357-7.5 7.5s3.358 7.5 7.5 7.5h8.997c4.142 0 7.5-3.357 7.5-7.5s-3.358-7.5-7.5-7.5z"/><path d="m81.618 231.027c-4.142 0-7.5 3.357-7.5 7.5s3.358 7.5 7.5 7.5h15.226c4.142 0 7.5-3.357 7.5-7.5s-3.358-7.5-7.5-7.5z"/></g></g></svg>