<svg id="Capa_1" enable-background="new 0 0 504.308 504.308" height="512" viewBox="0 0 504.308 504.308" width="512" xmlns="http://www.w3.org/2000/svg"><g><g><g id="XMLID_257_"><g><path d="m490.364 100.646c-.85-1.53-2.03-2.89-3.5-3.93-4.23-3.02-9.94-2.94-14.08.22l-16.4 12.49c-12.69 9.67-25.62 18.99-38.75 27.98l-142.39 99.81-191.48 44.27c-14.93 3.24-29.96 6.15-45.08 8.68l-22.22 3.71c-4.2.7-7.59 3.82-8.63 7.95-.5 1.97-.42 4.01.18 5.89l89.013 44.324 115.033-6.059 187.539-69.966 57.168-57.616 33.867-117.213c-.08-.19-.17-.36-.27-.54z" fill="#81c758"/><circle cx="148.565" cy="306.316" fill="#b8de9c" r="70.596"/><circle cx="273.362" cy="258.556" fill="#b8de9c" r="70.596"/><path d="m307.706 319.435c-38.989 0-70.596-31.606-70.596-70.596 0-25.92 13.964-48.587 34.786-60.863-38.316.776-69.129 32.079-69.129 70.581 0 38.989 31.607 70.596 70.596 70.596 13.068 0 25.298-3.565 35.796-9.754-.486.009-.966.036-1.453.036z" fill="#a6d786"/><path d="m117.223 298.793c0-27.319 15.517-51.004 38.218-62.741-2.267-.219-4.552-.331-6.877-.331-38.989 0-70.596 31.607-70.596 70.596s31.607 70.596 70.596 70.596c11.67 0 22.669-2.849 32.367-7.863-35.755-3.464-63.708-33.593-63.708-70.257z" fill="#a6d786"/><circle cx="393.486" cy="203.877" fill="#b8de9c" r="70.596"/><path d="m426.218 260.354c-38.989 0-70.596-31.607-70.596-70.596 0-22.63 10.613-42.757 27.172-55.677-33.938 5.133-59.904 34.425-59.904 69.796 0 38.989 31.607 70.596 70.596 70.596 16.359 0 31.406-5.58 43.376-14.919-3.472.525-7.026.8-10.644.8z" fill="#a6d786"/><path d="m496.644 192.726c2.55 45.97-23.93 88.62-66.26 106.73l-28.34 12.12c-3.31 1.42-6.32 3.46-8.85 6.03l-3.83 3.89c-40.26 40.82-94.94 64.21-152.27 65.12l-5.46.09c-3.6.06-7.16.82-10.47 2.23l-28.34 12.12c-42.33 18.11-91.46 7.8-122.94-25.8l-59.48-63.47c-1.1-1.18-1.91-2.57-2.39-4.07l1.27.08 66.14 6.76c143.71 14.68 284.84-45.69 373.49-159.75l41.07-52.84.65-.78c.69 1.4 1.09 2.93 1.18 4.52z" fill="#a6d786"/><g><path d="m461.019 262.529-30.012 11.153c-3.506 1.307-6.727 3.266-9.474 5.79l-4.158 3.822c-43.708 40.099-101.616 61.624-161.257 59.924l-5.68-.159c-3.745-.104-7.481.514-10.986 1.811l-30.013 11.153c-44.828 16.666-95.435 3.812-126.635-32.165l-8.136-9.38-65.383-6.683-1.27-.08c.48 1.5 1.29 2.89 2.39 4.07l59.48 63.47c31.48 33.6 80.61 43.91 122.94 25.8l28.34-12.12c3.31-1.41 6.87-2.17 10.47-2.23l5.46-.09c57.33-.91 112.01-24.3 152.27-65.12l3.83-3.89c2.53-2.57 5.54-4.61 8.85-6.03l28.34-12.12c23.116-9.89 41.503-27.093 53.019-48.163-6.92 4.487-14.411 8.273-22.385 11.237z" fill="#94cf6f"/></g></g></g></g><path d="m504.13 192.313-4.829-87.024c-.328-5.898-3.273-11.248-8.079-14.68-6.949-4.961-16.185-4.819-22.979.356l-16.401 12.498c-11.308 8.616-23.194 17.228-35.369 25.637-8.817-2.618-18.131-3.728-27.594-3.171-4.135.243-7.29 3.793-7.047 7.928s3.794 7.294 7.928 7.047c17.29-1.021 34.559 5.14 47.391 16.632-26.04 32.001-56.364 59.562-90.482 82.311-.999-4.142-2.333-8.199-4.018-12.136-3.539-8.273-8.378-15.595-14.164-21.854.05-23.435 13.008-45.55 33.579-56.905 3.627-2.002 4.943-6.564 2.942-10.19-2.004-3.627-6.567-4.943-10.19-2.942-21.794 12.03-36.643 33.87-40.396 58.106-20.816-13.727-47.909-17.108-72.5-6.591-18.846 8.061-33.425 22.977-41.051 42.002-1.958 4.885-3.389 9.892-4.311 14.954-22.379-15.604-51.856-19.057-77.476-8.099-18.157 7.766-32.318 21.741-40.564 38.733-13.782 2.942-27.581 5.586-41.069 7.84l-22.228 3.716c-7.133 1.193-12.888 6.494-14.66 13.505-1.529 6.047.104 12.374 4.369 16.926l59.479 63.477c22.538 24.053 53.788 36.939 85.55 36.938 15.465-.001 31.058-3.058 45.812-9.369l28.342-12.122c2.428-1.038 4.998-1.586 7.638-1.628l5.465-.087c29.508-.471 58.229-6.594 85.362-18.199 27.135-11.606 51.399-28.146 72.12-49.158l3.839-3.893c1.854-1.881 4.024-3.36 6.452-4.398l28.342-12.122c45.061-19.276 73.512-65.103 70.797-114.038zm-43.199-76.918 16.401-12.498c.913-.696 2.021-.978 3.1-.862l-33.951 43.683c-4.244-3.738-8.835-6.983-13.692-9.712 9.648-6.801 19.077-13.704 28.142-20.611zm-335.95 134.587c23.839-10.197 51.797-5.059 70.492 12.695.546 8.632 2.567 17.199 6.069 25.387 1.681 3.932 3.694 7.69 5.995 11.266-39.908 8.89-81.064 11.833-122.029 8.595.242-8.155 2.004-16.063 5.09-23.367.051-.114.106-.226.152-.343 6.46-15.05 18.504-27.506 34.231-34.233zm-85.058 47.577c10.76-1.798 21.714-3.839 32.699-6.075-1.156 4.89-1.86 9.919-2.073 15.034l-52.282-5.338zm387.511-5.002-28.341 12.122c-4.228 1.807-8.008 4.384-11.235 7.657l-3.838 3.893c-39.117 39.668-91.338 62.003-147.041 62.892l-5.466.087c-4.597.073-9.07 1.027-13.297 2.835l-28.342 12.122c-39.283 16.802-85.304 7.145-114.519-24.033l-49.783-53.128 49.091 5.013c14.392 1.47 28.811 2.199 43.216 2.199 60.331 0 120.281-12.811 175.531-37.73 3.775-1.703 5.456-6.145 3.753-9.921-1.703-3.774-6.142-5.457-9.921-3.753-20.751 9.359-42.188 16.945-64.066 22.724-3.164-4.109-5.799-8.587-7.844-13.369-13.387-31.299 1.186-67.653 32.484-81.04s67.653 1.186 81.04 32.483c2.046 4.783 3.464 9.782 4.249 14.911-5.344 3.27-10.76 6.444-16.276 9.486-3.627 2.001-4.945 6.562-2.945 10.189 1.367 2.479 3.931 3.879 6.574 3.879 1.225 0 2.468-.301 3.615-.934 51.017-28.141 95.011-65.731 130.762-111.729l30.281-38.962 4.034 72.695c2.37 42.659-22.432 82.609-61.716 99.412z"/></g></svg>