<svg id="Capa_1" enable-background="new 0 0 513.72 513.72" height="512" viewBox="0 0 513.72 513.72" width="512" xmlns="http://www.w3.org/2000/svg"><g><path d="m357.401 379.2 2.853-5.163c19.715-35.678 45.036-67.955 74.995-95.597l8.806-8.125c101.358-93.521 35.189-262.815-102.724-262.815h-.001c-137.912 0-204.082 169.294-102.723 262.815l8.806 8.125c29.959 27.642 55.28 59.919 74.995 95.597l2.853 5.163 21.055 41.748z" fill="#a6d786"/><path d="m353.265 86.015c-2.539-5.771-8.789-9.153-15.216-7.845-4.535.923-8.224 4.225-9.964 8.513l-1.34 3.301c-7.62 18.783-11.483 38.583-11.483 58.851v125.227c0 5.346-6.365 8.13-10.291 4.502l-.133-.123-1.24-1.144c-1.903-1.755-2.722-4.379-2.205-6.916.003-.014.006-.027.008-.041 5.795-28.526 3.134-58.25-7.696-85.958-7.646-19.561-18.975-37.088-33.279-51.701-5.8-5.925-7.743-14.667-5.059-22.511 16.791-49.073 57.864-89.748 114.677-100.108-9.175-1.674-18.755-2.562-28.713-2.562h-.001c-137.912 0-204.082 169.293-102.724 262.814l8.807 8.126c26.596 24.539 49.526 52.739 68.134 83.72 2.354 3.917 4.648 7.872 6.861 11.877l2.853 5.163 21.055 41.748 11.085-41.748 2.853-5.163c2.304-4.169 4.692-8.288 7.147-12.362v-210.628c0-21.706-4.516-43.175-13.26-63.042z" fill="#94cf6f"/><g><path d="m344.988 92.034-.877-1.992c-1.283-2.915-5.44-2.855-6.638.097l-1.463 3.605c-7.1 17.499-10.75 36.206-10.75 55.091v349.962c0 4.035 3.271 7.306 7.306 7.306h17.529c4.035 0 7.306-3.271 7.306-7.306v-347.74c0-20.323-4.227-40.422-12.413-59.023z" fill="#c9e7b4"/><path d="m166.437 430.945 2.479-4.486c17.132-31.003 39.135-59.051 65.169-83.072l7.652-7.06c88.079-81.268 30.579-228.38-89.264-228.38h-.001c-119.843 0-177.343 147.113-89.264 228.38l7.652 7.06c26.033 24.02 48.037 52.069 65.169 83.072l2.479 4.486 13.964 24.789z" fill="#b8de9c"/></g><path d="m176.437 231.78c0-18.424-3.735-36.319-11.102-53.197-2.255-5.167-7.243-8.769-12.878-8.917-6.015-.159-11.406 3.383-13.656 8.93l-.526 1.297c-6.449 15.888-9.766 32.874-9.766 50.021v115.49c0 2.03-2.415 3.078-3.907 1.701-.013-.012-.027-.024-.04-.037l-7.652-7.06c-83.658-77.189-35.965-213.767 71.719-227.284-11.272-3.095-23.361-4.779-36.156-4.779h-.001c-119.843 0-177.343 147.112-89.264 228.38l7.652 7.061c26.035 24.023 48.04 52.073 65.173 83.079l2.475 4.479 13.964 24.789 13.964-24.789 2.479-4.486c2.933-5.308 6.007-10.525 9.222-15.655-.559-.868-1.7-179.023-1.7-179.023z" fill="#a6d786"/><path d="m156.019 182.24c-1.537-3.493-6.517-3.42-7.952.116l-.535 1.319c-5.959 14.688-9.023 30.39-9.023 46.241v271.816c0 2.479 2.009 4.488 4.488 4.488h18.952c2.479 0 4.488-2.009 4.488-4.488v-269.952c0-17.057-3.548-33.928-10.418-49.54z" fill="#c9e7b4"/></g><g><path d="m499.907 145.224c-2.452-26.031-11.281-51.438-25.533-73.471-29.496-45.601-77.988-71.753-133.043-71.753-59.863 0-112.252 31.341-140.139 83.836-1.943 3.658-.554 8.198 3.104 10.142 3.659 1.944 8.199.554 10.142-3.104 25.239-47.51 72.676-75.874 126.894-75.874 49.868 0 93.77 23.654 120.447 64.898 12.947 20.017 20.968 43.092 23.194 66.731 2.299 24.409-1.696 48.901-11.555 70.828-1.698 3.777-.013 8.217 3.766 9.916.998.448 2.043.661 3.071.661 2.861 0 5.595-1.647 6.845-4.427 10.921-24.289 15.349-51.394 12.807-78.383z"/><path d="m468.283 242.445c-3.318-2.476-8.018-1.795-10.496 1.525-5.516 7.391-11.848 14.4-18.818 20.833l-8.806 8.125c-25.193 23.244-47.074 49.585-65.262 78.502v-200.374c0-21.493-4.39-42.367-13.048-62.04l-.877-1.994c-1.8-4.094-5.835-6.687-10.325-6.631-4.472.065-8.446 2.785-10.126 6.928l-1.464 3.605c-7.498 18.482-11.3 37.966-11.3 57.91v202.604c-6.745-10.708-14.033-21.126-21.792-31.132-2.54-3.272-7.252-3.868-10.523-1.33-3.272 2.538-3.868 7.25-1.33 10.523 11.803 15.219 22.478 31.424 31.728 48.165l1.918 3.47v117.661c0 8.164 6.642 14.806 14.805 14.806h17.529c8.164 0 14.806-6.642 14.806-14.806v-46.901c0-4.143-3.357-7.5-7.5-7.5s-7.5 3.357-7.5 7.5v46.707h-17.14v-349.767c0-16.095 2.743-31.858 8.161-46.939 5.962 15.73 8.979 32.232 8.979 49.161v268.877c0 4.143 3.357 7.5 7.5 7.5s7.5-3.357 7.5-7.5v-38.799l1.917-3.47c19.361-35.037 44.096-66.566 73.517-93.712l8.806-8.125c7.647-7.057 14.602-14.757 20.668-22.886 2.476-3.319 1.793-8.018-1.527-10.496z"/><path d="m282.061 188.931c-9.953-25.464-26.657-47.184-48.307-62.81-23.271-16.797-51.378-25.675-81.282-25.675-52.001 0-97.68 27.112-122.189 72.526-24.56 45.507-22.653 99.916 4.975 141.995 2.274 3.464 6.924 4.427 10.386 2.153 3.463-2.273 4.427-6.924 2.153-10.386-24.599-37.465-26.251-85.989-4.313-126.639 21.849-40.482 62.593-64.65 108.99-64.65 52.282 0 96.585 30.25 115.617 78.945 19.033 48.694 6.986 100.969-31.439 136.423l-7.651 7.06c-21.126 19.492-39.575 41.487-55.062 65.574v-171.667c0-18.209-3.719-35.894-11.053-52.561-1.894-4.303-6.125-7.059-10.814-7.059-.059 0-.117.001-.175.002-4.759.069-8.989 2.963-10.778 7.373l-.535 1.319c-6.353 15.658-9.573 32.164-9.573 49.06v173.532c-15.486-24.084-33.935-46.079-55.062-65.572l-7.66-7.068c-.135-.124-.264-.25-.393-.376-.184-.18-.368-.358-.558-.535-3.023-2.831-7.77-2.675-10.601.349s-2.675 7.77.349 10.601l.345.333c.23.224.462.447.693.66l7.652 7.061c25.488 23.518 46.917 50.833 63.69 81.187l1.543 2.793v68.854c0 6.61 5.378 11.988 11.988 11.988h18.952c6.61 0 11.988-5.378 11.988-11.988v-68.853l1.543-2.792c16.776-30.356 38.205-57.672 63.691-81.188l7.651-7.061c21.978-20.278 36.614-45.862 42.328-73.987 5.315-26.166 2.864-53.456-7.089-78.921zm-136.053 309.789v-268.805c0-12.72 2.062-25.19 6.14-37.162 4.509 12.52 6.789 25.612 6.789 39.027v266.94z"/></g></svg>